<!-- Generator: Adobe Illustrator 17.1.0, SVG Export Plug-In  -->
<svg version="1.1"
	 xmlns="http://www.w3.org/2000/svg" xmlns:xlink="http://www.w3.org/1999/xlink" xmlns:a="http://ns.adobe.com/AdobeSVGViewerExtensions/3.0/"
	 x="0px" y="0px" width="504px" height="332px" viewBox="0 0 504 332" enable-background="new 0 0 504 332" xml:space="preserve">
<defs>
</defs>
<linearGradient id="SVGID_1_" gradientUnits="userSpaceOnUse" x1="0" y1="166" x2="504" y2="166">
	<stop  offset="0" style="stop-color:#C73B54"/>
	<stop  offset="1" style="stop-color:#043A54"/>
</linearGradient>
<rect x="0" fill="url(#SVGID_1_)" width="504" height="332"/>
<g>
	<path fill="#FFFFFF" d="M196.8,145.5c0,0.6-0.1,1.1-0.4,1.6c-0.2,0.5-0.6,0.8-1,1.1s-0.9,0.5-1.5,0.7c-0.6,0.2-1.1,0.2-1.8,0.2
		h-6.9v-14.2h7.6c0.5,0,0.9,0.1,1.3,0.3s0.7,0.5,1,0.8c0.3,0.3,0.5,0.7,0.6,1.2c0.2,0.4,0.2,0.9,0.2,1.3c0,0.7-0.2,1.3-0.5,2
		c-0.3,0.6-0.9,1.1-1.5,1.4c0.8,0.2,1.5,0.7,1.9,1.3C196.6,143.8,196.8,144.6,196.8,145.5z M188.1,137.3v3.6h3.7
		c0.5,0,0.9-0.2,1.2-0.5c0.3-0.3,0.5-0.8,0.5-1.3c0-0.5-0.1-1-0.4-1.3c-0.3-0.3-0.7-0.5-1.1-0.5H188.1z M194,145
		c0-0.3,0-0.5-0.1-0.7c-0.1-0.2-0.2-0.4-0.3-0.6c-0.1-0.2-0.3-0.3-0.5-0.4c-0.2-0.1-0.4-0.1-0.7-0.1h-4.2v3.7h4.1
		c0.3,0,0.5,0,0.7-0.1s0.4-0.2,0.6-0.4c0.2-0.2,0.3-0.4,0.4-0.6C194,145.5,194,145.2,194,145z"/>
	<path fill="#FFFFFF" d="M203,149.1v-14.2h6.3c0.7,0,1.3,0.1,1.8,0.4c0.6,0.3,1,0.6,1.4,1.1s0.7,1,0.9,1.5c0.2,0.6,0.3,1.1,0.3,1.7
		c0,0.9-0.2,1.8-0.7,2.5c-0.5,0.8-1.1,1.3-1.9,1.6l3.2,5.3h-3.1l-2.9-4.8h-2.7v4.8H203z M205.7,142h3.5c0.3,0,0.5-0.1,0.7-0.2
		c0.2-0.1,0.4-0.3,0.6-0.5c0.2-0.2,0.3-0.4,0.4-0.7c0.1-0.3,0.1-0.6,0.1-0.9c0-0.3-0.1-0.6-0.2-0.9c-0.1-0.3-0.2-0.5-0.4-0.7
		s-0.4-0.4-0.6-0.5s-0.5-0.2-0.7-0.2h-3.3V142z"/>
	<path fill="#FFFFFF" d="M226.3,149.2c-1,0-2-0.2-2.8-0.6s-1.6-0.9-2.2-1.6c-0.6-0.7-1.1-1.4-1.4-2.3c-0.3-0.9-0.5-1.8-0.5-2.7
		c0-0.9,0.2-1.9,0.5-2.7c0.4-0.9,0.8-1.6,1.5-2.3c0.6-0.7,1.4-1.2,2.2-1.6c0.9-0.4,1.8-0.6,2.8-0.6c1,0,2,0.2,2.8,0.6s1.6,1,2.2,1.6
		s1.1,1.5,1.4,2.3c0.3,0.9,0.5,1.7,0.5,2.6c0,0.9-0.2,1.9-0.5,2.7s-0.8,1.6-1.4,2.3c-0.6,0.7-1.3,1.2-2.2,1.6
		C228.2,149.1,227.3,149.2,226.3,149.2z M222.2,142c0,0.6,0.1,1.2,0.3,1.8c0.2,0.6,0.5,1.1,0.8,1.5c0.4,0.4,0.8,0.8,1.3,1.1
		c0.5,0.3,1.1,0.4,1.8,0.4c0.7,0,1.3-0.1,1.8-0.4c0.5-0.3,0.9-0.6,1.3-1.1s0.6-1,0.8-1.5c0.2-0.6,0.3-1.1,0.3-1.7
		c0-0.6-0.1-1.2-0.3-1.8s-0.5-1.1-0.8-1.5s-0.8-0.8-1.3-1.1c-0.5-0.3-1.1-0.4-1.7-0.4c-0.7,0-1.3,0.1-1.8,0.4
		c-0.5,0.3-1,0.6-1.3,1.1c-0.3,0.4-0.6,1-0.8,1.5C222.3,140.9,222.2,141.5,222.2,142z"/>
	<path fill="#FFFFFF" d="M245.4,149.2c-1,0-2-0.2-2.8-0.6s-1.6-0.9-2.2-1.6c-0.6-0.7-1.1-1.4-1.4-2.3c-0.3-0.9-0.5-1.8-0.5-2.7
		c0-0.9,0.2-1.9,0.5-2.7c0.4-0.9,0.8-1.6,1.5-2.3c0.6-0.7,1.4-1.2,2.2-1.6c0.9-0.4,1.8-0.6,2.8-0.6c1,0,2,0.2,2.8,0.6s1.6,1,2.2,1.6
		s1.1,1.5,1.4,2.3c0.3,0.9,0.5,1.7,0.5,2.6c0,0.9-0.2,1.9-0.5,2.7s-0.8,1.6-1.4,2.3c-0.6,0.7-1.3,1.2-2.2,1.6
		C247.4,149.1,246.4,149.2,245.4,149.2z M241.3,142c0,0.6,0.1,1.2,0.3,1.8c0.2,0.6,0.5,1.1,0.8,1.5c0.4,0.4,0.8,0.8,1.3,1.1
		c0.5,0.3,1.1,0.4,1.8,0.4c0.7,0,1.3-0.1,1.8-0.4c0.5-0.3,0.9-0.6,1.3-1.1s0.6-1,0.8-1.5c0.2-0.6,0.3-1.1,0.3-1.7
		c0-0.6-0.1-1.2-0.3-1.8s-0.5-1.1-0.8-1.5s-0.8-0.8-1.3-1.1c-0.5-0.3-1.1-0.4-1.7-0.4c-0.7,0-1.3,0.1-1.8,0.4
		c-0.5,0.3-1,0.6-1.3,1.1c-0.3,0.4-0.6,1-0.8,1.5C241.4,140.9,241.3,141.5,241.3,142z"/>
	<path fill="#FFFFFF" d="M258.5,149.1V135h2.8v6.7l6-6.8h3l-5.4,6.3l5.8,7.9h-3.1l-4.4-6.1l-1.8,1.9v4.2H258.5z"/>
	<path fill="#FFFFFF" d="M275.9,149.1v-14.2h2.8v11.8h7.2v2.4H275.9z"/>
	<path fill="#FFFFFF" d="M290.7,134.9l3.5,6.8l3.6-6.8h3l-5.2,9.2v5h-2.7v-5l-5.1-9.2H290.7z"/>
	<path fill="#FFFFFF" d="M309.1,140v9.1h-2.8v-14.2h2.1l7.4,9.3V135h2.8v14.2h-2.2L309.1,140z"/>
	<path fill="#FFFFFF" d="M216.3,170.8c0.7,0,1.2-0.1,1.6-0.4c0.4-0.3,0.8-0.6,1.1-1s0.5-0.9,0.6-1.5s0.2-1.1,0.2-1.7v-7.2h2.7v7.2
		c0,1-0.1,1.9-0.4,2.7c-0.2,0.9-0.6,1.6-1.1,2.2s-1.1,1.1-1.9,1.5c-0.8,0.4-1.7,0.6-2.8,0.6c-1.1,0-2.1-0.2-2.9-0.6
		c-0.8-0.4-1.4-0.9-1.9-1.6c-0.5-0.6-0.8-1.4-1.1-2.2c-0.2-0.9-0.3-1.7-0.3-2.7v-7.2h2.8v7.2c0,0.6,0.1,1.2,0.2,1.7s0.3,1,0.6,1.5
		s0.6,0.8,1.1,1C215.1,170.7,215.7,170.8,216.3,170.8z"/>
	<path fill="#FFFFFF" d="M229.3,173.1v-14.2h6.3c0.7,0,1.3,0.1,1.8,0.4c0.6,0.3,1,0.6,1.4,1.1s0.7,1,0.9,1.5
		c0.2,0.6,0.3,1.1,0.3,1.7c0,0.9-0.2,1.8-0.7,2.5c-0.5,0.8-1.1,1.3-1.9,1.6l3.2,5.3h-3.1l-2.9-4.8h-2.7v4.8H229.3z M232.1,166h3.5
		c0.3,0,0.5-0.1,0.7-0.2c0.2-0.1,0.4-0.3,0.6-0.5c0.2-0.2,0.3-0.4,0.4-0.7c0.1-0.3,0.1-0.6,0.1-0.9c0-0.3-0.1-0.6-0.2-0.9
		c-0.1-0.3-0.2-0.5-0.4-0.7s-0.4-0.4-0.6-0.5s-0.5-0.2-0.7-0.2h-3.3V166z"/>
	<path fill="#FFFFFF" d="M258.1,169.5c0,0.6-0.1,1.1-0.4,1.6c-0.2,0.5-0.6,0.8-1,1.1s-0.9,0.5-1.5,0.7c-0.6,0.2-1.1,0.2-1.8,0.2
		h-6.9v-14.2h7.6c0.5,0,0.9,0.1,1.3,0.3s0.7,0.5,1,0.8c0.3,0.3,0.5,0.7,0.6,1.2c0.2,0.4,0.2,0.9,0.2,1.3c0,0.7-0.2,1.3-0.5,2
		c-0.3,0.6-0.9,1.1-1.5,1.4c0.8,0.2,1.5,0.7,1.9,1.3C257.8,167.8,258.1,168.6,258.1,169.5z M249.4,161.3v3.6h3.7
		c0.5,0,0.9-0.2,1.2-0.5c0.3-0.3,0.5-0.8,0.5-1.3c0-0.5-0.1-1-0.4-1.3c-0.3-0.3-0.7-0.5-1.1-0.5H249.4z M255.3,169
		c0-0.3,0-0.5-0.1-0.7c-0.1-0.2-0.2-0.4-0.3-0.6c-0.1-0.2-0.3-0.3-0.5-0.4c-0.2-0.1-0.4-0.1-0.7-0.1h-4.2v3.7h4.1
		c0.3,0,0.5,0,0.7-0.1s0.4-0.2,0.6-0.4c0.2-0.2,0.3-0.4,0.4-0.6C255.2,169.5,255.3,169.2,255.3,169z"/>
	<path fill="#FFFFFF" d="M268,158.9h2.4l5.4,14.2H273l-1.3-3.5h-5l-1.3,3.5h-2.8L268,158.9z M271.1,167.7l-2-5.6l-2,5.6H271.1z"/>
	<path fill="#FFFFFF" d="M284.1,164v9.1h-2.8v-14.2h2.1l7.4,9.3V159h2.8v14.2h-2.2L284.1,164z"/>
	<path fill="#FFFFFF" d="M201.8,182.9h2.4l5.4,14.2h-2.8l-1.3-3.5h-5l-1.3,3.5h-2.8L201.8,182.9z M205,191.7l-2-5.6l-2,5.6H205z"/>
	<path fill="#FFFFFF" d="M215.2,197.1v-14.2h6c0.7,0,1.3,0.1,1.8,0.4c0.6,0.3,1,0.6,1.4,1.1c0.4,0.4,0.7,1,0.9,1.5
		c0.2,0.6,0.3,1.1,0.3,1.7c0,0.6-0.1,1.2-0.3,1.8c-0.2,0.6-0.5,1.1-0.9,1.5c-0.4,0.4-0.9,0.8-1.4,1.1c-0.5,0.3-1.1,0.4-1.8,0.4H218
		v4.8H215.2z M218,190h3.2c0.5,0,0.9-0.2,1.3-0.6s0.5-1,0.5-1.7c0-0.4-0.1-0.7-0.2-1c-0.1-0.3-0.2-0.5-0.4-0.7
		c-0.2-0.2-0.4-0.3-0.6-0.4c-0.2-0.1-0.5-0.1-0.7-0.1H218V190z"/>
	<path fill="#FFFFFF" d="M231.7,197.1v-14.2h6c0.7,0,1.3,0.1,1.8,0.4c0.6,0.3,1,0.6,1.4,1.1c0.4,0.4,0.7,1,0.9,1.5
		c0.2,0.6,0.3,1.1,0.3,1.7c0,0.6-0.1,1.2-0.3,1.8c-0.2,0.6-0.5,1.1-0.9,1.5c-0.4,0.4-0.9,0.8-1.4,1.1c-0.5,0.3-1.1,0.4-1.8,0.4h-3.4
		v4.8H231.7z M234.5,190h3.2c0.5,0,0.9-0.2,1.3-0.6s0.5-1,0.5-1.7c0-0.4-0.1-0.7-0.2-1c-0.1-0.3-0.2-0.5-0.4-0.7
		c-0.2-0.2-0.4-0.3-0.6-0.4c-0.2-0.1-0.5-0.1-0.7-0.1h-3.1V190z"/>
	<path fill="#FFFFFF" d="M251.3,182.9h2.4l5.4,14.2h-2.8l-1.3-3.5h-5l-1.3,3.5h-2.8L251.3,182.9z M254.5,191.7l-2-5.6l-2,5.6H254.5z
		"/>
	<path fill="#FFFFFF" d="M264.7,197.1v-14.2h6.3c0.7,0,1.3,0.1,1.8,0.4c0.6,0.3,1,0.6,1.4,1.1s0.7,1,0.9,1.5
		c0.2,0.6,0.3,1.1,0.3,1.7c0,0.9-0.2,1.8-0.7,2.5c-0.5,0.8-1.1,1.3-1.9,1.6l3.2,5.3h-3.1l-2.9-4.8h-2.7v4.8H264.7z M267.5,190h3.5
		c0.3,0,0.5-0.1,0.7-0.2c0.2-0.1,0.4-0.3,0.6-0.5c0.2-0.2,0.3-0.4,0.4-0.7c0.1-0.3,0.1-0.6,0.1-0.9c0-0.3-0.1-0.6-0.2-0.9
		c-0.1-0.3-0.2-0.5-0.4-0.7s-0.4-0.4-0.6-0.5s-0.5-0.2-0.7-0.2h-3.3V190z"/>
	<path fill="#FFFFFF" d="M291.9,194.7v2.4H282v-14.2h9.7v2.4h-6.9v3.4h6v2.2h-6v3.7H291.9z"/>
	<path fill="#FFFFFF" d="M298,197.1v-14.2h2.8v11.8h7.2v2.4H298z"/>
</g>
</svg>