<!-- Generator: Adobe Illustrator 17.1.0, SVG Export Plug-In  -->
<svg version="1.1"
	 xmlns="http://www.w3.org/2000/svg" xmlns:xlink="http://www.w3.org/1999/xlink" xmlns:a="http://ns.adobe.com/AdobeSVGViewerExtensions/3.0/"
	 x="0px" y="0px" width="250px" height="334px" viewBox="0 0 250 334" enable-background="new 0 0 250 334" xml:space="preserve">
<defs>
</defs>
<linearGradient id="SVGID_1_" gradientUnits="userSpaceOnUse" x1="0" y1="167" x2="250" y2="167">
	<stop  offset="0" style="stop-color:#C73B54"/>
	<stop  offset="1" style="stop-color:#043A54"/>
</linearGradient>
<rect fill="url(#SVGID_1_)" width="250" height="334"/>
<g>
	<path fill="#FFFFFF" d="M85.4,174.1v-9.4l-3.7,7h-1.5l-3.7-7v9.4h-2.8v-14.2h3l4.2,8.1l4.2-8.1h2.9v14.2H85.4z"/>
	<path fill="#FFFFFF" d="M99.2,159.9h2.4l5.4,14.2h-2.8l-1.3-3.5h-5l-1.3,3.5h-2.8L99.2,159.9z M102.3,168.6l-2-5.6l-2,5.6H102.3z"
		/>
	<path fill="#FFFFFF" d="M120.8,163.6c-0.1-0.1-0.3-0.2-0.5-0.4c-0.2-0.2-0.5-0.3-0.9-0.5c-0.4-0.2-0.7-0.3-1.2-0.4
		c-0.4-0.1-0.8-0.2-1.3-0.2c-0.8,0-1.3,0.1-1.7,0.4c-0.4,0.3-0.6,0.7-0.6,1.2c0,0.3,0.1,0.5,0.2,0.7c0.1,0.2,0.3,0.4,0.6,0.5
		c0.3,0.1,0.6,0.3,1,0.4c0.4,0.1,0.9,0.2,1.4,0.4c0.7,0.2,1.3,0.4,1.9,0.6c0.6,0.2,1,0.5,1.4,0.8c0.4,0.3,0.7,0.7,0.9,1.1
		s0.3,1,0.3,1.6c0,0.8-0.1,1.4-0.4,2c-0.3,0.5-0.7,1-1.2,1.3c-0.5,0.3-1,0.6-1.7,0.7c-0.6,0.2-1.3,0.2-2,0.2c-1.1,0-2.1-0.2-3.2-0.5
		c-1-0.3-2-0.8-2.8-1.4l1.2-2.4c0.1,0.1,0.3,0.3,0.6,0.5s0.7,0.4,1.1,0.6s0.9,0.4,1.4,0.5c0.5,0.1,1.1,0.2,1.6,0.2
		c1.5,0,2.3-0.5,2.3-1.5c0-0.3-0.1-0.6-0.3-0.8c-0.2-0.2-0.4-0.4-0.7-0.6c-0.3-0.2-0.7-0.3-1.2-0.4s-1-0.3-1.5-0.4
		c-0.7-0.2-1.3-0.4-1.8-0.6c-0.5-0.2-0.9-0.5-1.2-0.8c-0.3-0.3-0.6-0.6-0.8-1c-0.2-0.4-0.2-0.9-0.2-1.4c0-0.7,0.1-1.4,0.4-1.9
		c0.3-0.6,0.6-1,1.1-1.4c0.5-0.4,1-0.7,1.6-0.8s1.3-0.3,2-0.3c1,0,1.9,0.2,2.8,0.5c0.8,0.3,1.6,0.7,2.2,1.1L120.8,163.6z"/>
	<path fill="#FFFFFF" d="M140,170.4c0,0.6-0.1,1.1-0.4,1.6c-0.2,0.5-0.6,0.8-1,1.1s-0.9,0.5-1.5,0.7c-0.6,0.2-1.1,0.2-1.8,0.2h-6.9
		v-14.2h7.6c0.5,0,0.9,0.1,1.3,0.3s0.7,0.5,1,0.8c0.3,0.3,0.5,0.7,0.6,1.2c0.2,0.4,0.2,0.9,0.2,1.3c0,0.7-0.2,1.3-0.5,2
		c-0.3,0.6-0.9,1.1-1.5,1.4c0.8,0.2,1.5,0.7,1.9,1.3C139.8,168.7,140,169.5,140,170.4z M131.4,162.2v3.6h3.7c0.5,0,0.9-0.2,1.2-0.5
		c0.3-0.3,0.5-0.8,0.5-1.3c0-0.5-0.1-1-0.4-1.3c-0.3-0.3-0.7-0.5-1.1-0.5H131.4z M137.3,169.9c0-0.3,0-0.5-0.1-0.7
		c-0.1-0.2-0.2-0.4-0.3-0.6c-0.1-0.2-0.3-0.3-0.5-0.4c-0.2-0.1-0.4-0.1-0.7-0.1h-4.2v3.7h4.1c0.3,0,0.5,0,0.7-0.1s0.4-0.2,0.6-0.4
		c0.2-0.2,0.3-0.4,0.4-0.6C137.2,170.4,137.3,170.1,137.3,169.9z"/>
	<path fill="#FFFFFF" d="M152.3,174.2c-1,0-2-0.2-2.8-0.6s-1.6-0.9-2.2-1.6c-0.6-0.7-1.1-1.4-1.4-2.3c-0.3-0.9-0.5-1.8-0.5-2.7
		c0-0.9,0.2-1.9,0.5-2.7c0.4-0.9,0.8-1.6,1.5-2.3c0.6-0.7,1.4-1.2,2.2-1.6c0.9-0.4,1.8-0.6,2.8-0.6c1,0,2,0.2,2.8,0.6s1.6,1,2.2,1.6
		s1.1,1.5,1.4,2.3c0.3,0.9,0.5,1.7,0.5,2.6c0,0.9-0.2,1.9-0.5,2.7s-0.8,1.6-1.4,2.3c-0.6,0.7-1.3,1.2-2.2,1.6
		C154.2,174,153.3,174.2,152.3,174.2z M148.1,167c0,0.6,0.1,1.2,0.3,1.8c0.2,0.6,0.5,1.1,0.8,1.5c0.4,0.4,0.8,0.8,1.3,1.1
		c0.5,0.3,1.1,0.4,1.8,0.4c0.7,0,1.3-0.1,1.8-0.4c0.5-0.3,0.9-0.6,1.3-1.1s0.6-1,0.8-1.5c0.2-0.6,0.3-1.1,0.3-1.7
		c0-0.6-0.1-1.2-0.3-1.8s-0.5-1.1-0.8-1.5s-0.8-0.8-1.3-1.1c-0.5-0.3-1.1-0.4-1.7-0.4c-0.7,0-1.3,0.1-1.8,0.4
		c-0.5,0.3-1,0.6-1.3,1.1c-0.3,0.4-0.6,1-0.8,1.5C148.2,165.8,148.1,166.4,148.1,167z"/>
	<path fill="#FFFFFF" d="M166.1,159.9l3.5,5.3l3.5-5.3h3l-5.1,7.2l4.9,7h-3l-3.4-5.1l-3.4,5.1h-3l4.9-7l-5.1-7.2H166.1z"/>
</g>
</svg>