<!-- Generator: Adobe Illustrator 17.1.0, SVG Export Plug-In  -->
<svg version="1.1"
	 xmlns="http://www.w3.org/2000/svg" xmlns:xlink="http://www.w3.org/1999/xlink" xmlns:a="http://ns.adobe.com/AdobeSVGViewerExtensions/3.0/"
	 x="0px" y="0px" width="175.1px" height="125px" viewBox="0 0 175.1 125" enable-background="new 0 0 175.1 125"
	 xml:space="preserve">
<defs>
</defs>
<circle fill="none" stroke="#FFFFFF" stroke-miterlimit="10" cx="129.8" cy="4.9" r="2.9"/>
<circle fill="none" stroke="#FFFFFF" stroke-miterlimit="10" cx="137.7" cy="33.6" r="2.9"/>
<circle fill="none" stroke="#FFFFFF" stroke-miterlimit="10" cx="109.1" cy="62.1" r="2.9"/>
<circle fill="none" stroke="#FFFFFF" stroke-miterlimit="10" cx="123.9" cy="62.1" r="2.9"/>
<circle fill="none" stroke="#FFFFFF" stroke-miterlimit="10" cx="87.6" cy="90.6" r="2.9"/>
<circle fill="none" stroke="#FFFFFF" stroke-miterlimit="10" cx="102.3" cy="90.6" r="2.9"/>
<path fill="#FF7E24" d="M0,8.5V0h1v8.5H0z"/>
<path fill="#FF7E24" d="M4.1,8.5V0h1v8.5H4.1z"/>
<path fill="#FF7E24" d="M8.1,8.5V0h1v8.5H8.1z"/>
<path fill="#FF7E24" d="M17,2.6v5.8h-0.9v-1c-0.2,0.4-0.4,0.6-0.8,0.8c-0.3,0.2-0.7,0.3-1.1,0.3c-0.7,0-1.2-0.2-1.6-0.6
	c-0.4-0.4-0.5-1-0.5-1.7V2.6h1v3.6c0,0.5,0.1,0.9,0.3,1.1c0.2,0.2,0.5,0.4,1,0.4c0.5,0,0.9-0.2,1.2-0.5C15.9,6.9,16,6.5,16,5.9V2.6
	H17z"/>
<path fill="#FF7E24" d="M19.7,7.8L20,7.1c0.3,0.2,0.6,0.4,1,0.5s0.7,0.2,1.1,0.2c0.4,0,0.8-0.1,1-0.2s0.3-0.4,0.3-0.6
	c0-0.2-0.1-0.4-0.2-0.6C23,6.2,22.7,6.1,22.4,6l-1-0.2c-0.5-0.1-0.9-0.3-1.1-0.6c-0.3-0.3-0.4-0.6-0.4-1c0-0.5,0.2-0.9,0.6-1.3
	s1-0.5,1.6-0.5c0.4,0,0.8,0.1,1.2,0.2S24,3,24.2,3.2l-0.3,0.7c-0.5-0.5-1.1-0.7-1.8-0.7c-0.4,0-0.7,0.1-1,0.2
	c-0.2,0.2-0.3,0.4-0.3,0.7c0,0.2,0.1,0.4,0.2,0.6C21.2,4.9,21.4,5,21.7,5l1,0.2c0.5,0.1,0.9,0.3,1.2,0.6c0.3,0.3,0.4,0.6,0.4,1
	c0,0.5-0.2,0.9-0.6,1.2c-0.4,0.3-1,0.5-1.7,0.5C21,8.5,20.2,8.3,19.7,7.8z"/>
<path fill="#FF7E24" d="M30,7.7l0,0.8c-0.2,0-0.4,0-0.6,0c-0.7,0-1.2-0.2-1.6-0.6c-0.4-0.4-0.5-0.9-0.5-1.5V3.4h-1.1V2.6h1.1V0.8h1
	v1.8h1.7v0.8h-1.7v3c0,0.9,0.4,1.4,1.3,1.4C29.7,7.8,29.8,7.8,30,7.7z"/>
<path fill="#FF7E24" d="M35.5,3.3l-0.6,0.1c-0.6,0.1-1,0.2-1.3,0.6c-0.3,0.3-0.4,0.7-0.4,1.2v3.3h-1V2.6h0.9v1
	c0.3-0.7,1-1.1,1.9-1.1l0.3,0L35.5,3.3z"/>
<path fill="#FF7E24" d="M41.6,3c0.4,0.4,0.5,1,0.5,1.7v3.7h-0.9v-1c-0.2,0.3-0.4,0.6-0.7,0.8c-0.3,0.2-0.7,0.3-1.1,0.3
	c-0.4,0-0.7-0.1-1-0.2S37.9,8,37.7,7.7s-0.3-0.6-0.3-0.9c0-0.4,0.1-0.8,0.3-1c0.2-0.2,0.6-0.4,1.1-0.5s1.2-0.2,2.1-0.2h0.3V4.7
	c0-0.5-0.1-0.8-0.3-1.1c-0.2-0.2-0.5-0.3-1-0.3c-0.7,0-1.3,0.2-2,0.6l-0.3-0.7c0.3-0.2,0.7-0.4,1.1-0.5c0.4-0.1,0.8-0.2,1.2-0.2
	C40.7,2.5,41.3,2.7,41.6,3z M40.8,7.3C41.1,7,41.2,6.5,41.2,6V5.7H41c-0.7,0-1.2,0-1.6,0.1s-0.6,0.2-0.8,0.3s-0.2,0.3-0.2,0.6
	c0,0.3,0.1,0.6,0.3,0.8c0.2,0.2,0.5,0.3,0.9,0.3C40.1,7.8,40.5,7.6,40.8,7.3z"/>
<path fill="#FF7E24" d="M48.3,7.7l0,0.8c-0.2,0-0.4,0-0.6,0c-0.7,0-1.2-0.2-1.6-0.6c-0.4-0.4-0.5-0.9-0.5-1.5V3.4h-1.1V2.6h1.1V0.8
	h1v1.8h1.7v0.8h-1.7v3c0,0.9,0.4,1.4,1.3,1.4C47.9,7.8,48.1,7.8,48.3,7.7z"/>
<path fill="#FF7E24" d="M51.4,8.2c-0.4-0.2-0.7-0.6-1-1.1c-0.2-0.5-0.3-1-0.3-1.6c0-0.6,0.1-1.1,0.3-1.6c0.2-0.5,0.6-0.8,1-1.1
	c0.4-0.2,0.9-0.4,1.5-0.4c0.6,0,1,0.1,1.5,0.4c0.4,0.2,0.8,0.6,1,1.1c0.2,0.5,0.3,1,0.3,1.6c0,0.6-0.1,1.1-0.3,1.6
	c-0.2,0.5-0.6,0.8-1,1.1c-0.4,0.2-0.9,0.4-1.5,0.4C52.3,8.5,51.8,8.4,51.4,8.2z M54.2,7.2c0.3-0.4,0.5-0.9,0.5-1.7
	c0-0.7-0.2-1.3-0.5-1.6c-0.3-0.4-0.8-0.6-1.3-0.6c-0.6,0-1,0.2-1.3,0.6c-0.3,0.4-0.5,0.9-0.5,1.6c0,0.7,0.2,1.3,0.5,1.7
	c0.3,0.4,0.8,0.6,1.3,0.6C53.4,7.7,53.9,7.5,54.2,7.2z"/>
<path fill="#FF7E24" d="M61.6,3.3L61,3.4c-0.6,0.1-1,0.2-1.3,0.6c-0.3,0.3-0.4,0.7-0.4,1.2v3.3h-1V2.6h0.9v1c0.3-0.7,1-1.1,1.9-1.1
	l0.3,0L61.6,3.3z"/>
<path fill="#3AD8FE" d="M0,28.8h3.3c0.9,0,1.6,0.2,2.1,0.6c0.5,0.4,0.7,1,0.7,1.8s-0.2,1.4-0.7,1.8s-1.2,0.7-2.1,0.7H1v3.5H0V28.8z
	 M3.3,33c1.3,0,1.9-0.6,1.9-1.7c0-1.1-0.6-1.7-1.9-1.7H1V33H3.3z"/>
<path fill="#3AD8FE" d="M13.8,33.6v3.7h-1v-3.6c0-0.5-0.1-0.9-0.3-1.2s-0.5-0.4-1-0.4c-0.5,0-1,0.2-1.3,0.5
	c-0.3,0.3-0.5,0.8-0.5,1.3v3.3h-1v-8.5h1v3.6c0.2-0.4,0.5-0.6,0.8-0.8s0.7-0.3,1.2-0.3C13.1,31.3,13.8,32,13.8,33.6z"/>
<path fill="#3AD8FE" d="M17.8,37c-0.4-0.2-0.7-0.6-1-1.1c-0.2-0.5-0.3-1-0.3-1.6c0-0.6,0.1-1.1,0.3-1.6c0.2-0.5,0.6-0.8,1-1.1
	c0.4-0.2,0.9-0.4,1.5-0.4c0.6,0,1,0.1,1.5,0.4c0.4,0.2,0.8,0.6,1,1.1c0.2,0.5,0.3,1,0.3,1.6c0,0.6-0.1,1.1-0.3,1.6
	c-0.2,0.5-0.6,0.8-1,1.1c-0.4,0.2-0.9,0.4-1.5,0.4C18.7,37.3,18.2,37.2,17.8,37z M20.6,36c0.3-0.4,0.5-0.9,0.5-1.7
	c0-0.7-0.2-1.3-0.5-1.6c-0.3-0.4-0.8-0.6-1.3-0.6c-0.6,0-1,0.2-1.3,0.6c-0.3,0.4-0.5,0.9-0.5,1.6c0,0.7,0.2,1.3,0.5,1.7
	c0.3,0.4,0.8,0.6,1.3,0.6C19.8,36.5,20.3,36.3,20.6,36z"/>
<path fill="#3AD8FE" d="M27.8,36.5l0,0.8c-0.2,0-0.4,0-0.6,0c-0.7,0-1.2-0.2-1.6-0.6c-0.4-0.4-0.5-0.9-0.5-1.5v-3.1h-1.1v-0.8H25
	v-1.8h1v1.8h1.7v0.8H26v3c0,0.9,0.4,1.4,1.3,1.4C27.4,36.6,27.6,36.6,27.8,36.5z"/>
<path fill="#3AD8FE" d="M30.9,37c-0.4-0.2-0.7-0.6-1-1.1c-0.2-0.5-0.3-1-0.3-1.6c0-0.6,0.1-1.1,0.3-1.6c0.2-0.5,0.6-0.8,1-1.1
	c0.4-0.2,0.9-0.4,1.5-0.4c0.6,0,1,0.1,1.5,0.4c0.4,0.2,0.8,0.6,1,1.1c0.2,0.5,0.3,1,0.3,1.6c0,0.6-0.1,1.1-0.3,1.6
	c-0.2,0.5-0.6,0.8-1,1.1c-0.4,0.2-0.9,0.4-1.5,0.4C31.8,37.3,31.3,37.2,30.9,37z M33.7,36c0.3-0.4,0.5-0.9,0.5-1.7
	c0-0.7-0.2-1.3-0.5-1.6c-0.3-0.4-0.8-0.6-1.3-0.6c-0.6,0-1,0.2-1.3,0.6c-0.3,0.4-0.5,0.9-0.5,1.6c0,0.7,0.2,1.3,0.5,1.7
	c0.3,0.4,0.8,0.6,1.3,0.6C32.9,36.5,33.4,36.3,33.7,36z"/>
<path fill="#3AD8FE" d="M37.4,36.6l0.3-0.7c0.3,0.2,0.6,0.4,1,0.5c0.3,0.1,0.7,0.2,1.1,0.2c0.4,0,0.8-0.1,1-0.2
	c0.2-0.1,0.3-0.4,0.3-0.6c0-0.2-0.1-0.4-0.2-0.6c-0.2-0.1-0.4-0.2-0.8-0.3l-1-0.2c-0.5-0.1-0.9-0.3-1.1-0.6c-0.3-0.3-0.4-0.6-0.4-1
	c0-0.5,0.2-0.9,0.6-1.3c0.4-0.3,1-0.5,1.6-0.5c0.4,0,0.8,0.1,1.2,0.2c0.4,0.1,0.7,0.3,0.9,0.6l-0.3,0.7c-0.5-0.5-1.1-0.7-1.8-0.7
	c-0.4,0-0.7,0.1-1,0.2c-0.2,0.2-0.3,0.4-0.3,0.7c0,0.2,0.1,0.4,0.2,0.6c0.1,0.1,0.4,0.2,0.7,0.3l1,0.2c0.5,0.1,0.9,0.3,1.2,0.6
	c0.3,0.3,0.4,0.6,0.4,1c0,0.5-0.2,0.9-0.6,1.2c-0.4,0.3-1,0.5-1.7,0.5C38.8,37.3,38,37.1,37.4,36.6z"/>
<path fill="#3AD8FE" d="M49.8,33.6v3.7h-1v-3.6c0-0.5-0.1-0.9-0.3-1.2s-0.5-0.4-1-0.4c-0.5,0-1,0.2-1.3,0.5
	c-0.3,0.3-0.5,0.8-0.5,1.3v3.3h-1v-8.5h1v3.6c0.2-0.4,0.5-0.6,0.8-0.8s0.7-0.3,1.2-0.3C49.1,31.3,49.8,32,49.8,33.6z"/>
<path fill="#3AD8FE" d="M53.7,37c-0.4-0.2-0.7-0.6-1-1.1c-0.2-0.5-0.3-1-0.3-1.6c0-0.6,0.1-1.1,0.3-1.6c0.2-0.5,0.6-0.8,1-1.1
	c0.4-0.2,0.9-0.4,1.5-0.4c0.6,0,1,0.1,1.5,0.4c0.4,0.2,0.8,0.6,1,1.1c0.2,0.5,0.3,1,0.3,1.6c0,0.6-0.1,1.1-0.3,1.6
	c-0.2,0.5-0.6,0.8-1,1.1c-0.4,0.2-0.9,0.4-1.5,0.4C54.6,37.3,54.2,37.2,53.7,37z M56.5,36c0.3-0.4,0.5-0.9,0.5-1.7
	c0-0.7-0.2-1.3-0.5-1.6c-0.3-0.4-0.8-0.6-1.3-0.6c-0.6,0-1,0.2-1.3,0.6c-0.3,0.4-0.5,0.9-0.5,1.6c0,0.7,0.2,1.3,0.5,1.7
	c0.3,0.4,0.8,0.6,1.3,0.6C55.8,36.5,56.2,36.3,56.5,36z"/>
<path fill="#3AD8FE" d="M64.9,31.7c0.4,0.3,0.7,0.6,0.9,1.1s0.3,1,0.3,1.6c0,0.6-0.1,1.1-0.3,1.6s-0.5,0.8-0.9,1
	c-0.4,0.2-0.8,0.4-1.4,0.4c-0.5,0-0.9-0.1-1.2-0.3c-0.3-0.2-0.6-0.5-0.8-0.9v3.2h-1v-8h1v1c0.2-0.4,0.4-0.7,0.8-0.9
	c0.3-0.2,0.7-0.3,1.2-0.3C64.1,31.3,64.5,31.4,64.9,31.7z M64.7,36c0.3-0.4,0.5-0.9,0.5-1.6c0-0.7-0.2-1.3-0.5-1.6
	c-0.3-0.4-0.8-0.6-1.3-0.6c-0.6,0-1,0.2-1.3,0.6c-0.3,0.4-0.5,0.9-0.5,1.6c0,0.7,0.2,1.3,0.5,1.7c0.3,0.4,0.7,0.6,1.3,0.6
	C64,36.5,64.4,36.3,64.7,36z"/>
<path fill="#FF319A" d="M0,66.1v-8.5h1v8.5H0z"/>
<path fill="#FF319A" d="M9.2,62.4v3.7h-1v-3.6c0-0.5-0.1-0.9-0.3-1.2s-0.5-0.4-1-0.4c-0.5,0-1,0.2-1.3,0.5c-0.3,0.3-0.5,0.8-0.5,1.3
	v3.3h-1v-5.8h1v1c0.2-0.4,0.5-0.6,0.8-0.8c0.3-0.2,0.7-0.3,1.2-0.3C8.5,60.1,9.2,60.8,9.2,62.4z"/>
<path fill="#FF319A" d="M12.3,57.6h2.8c1.4,0,2.4,0.4,3.1,1.1c0.7,0.7,1.1,1.8,1.1,3.1S19,64.2,18.3,65c-0.7,0.7-1.8,1.1-3.1,1.1
	h-2.8V57.6z M15.1,65.2c2.2,0,3.3-1.1,3.3-3.4c0-2.3-1.1-3.4-3.3-3.4h-1.8v6.8H15.1z"/>
<path fill="#FF319A" d="M27.1,63.3h-4.3c0,0.7,0.2,1.2,0.6,1.5s0.8,0.5,1.4,0.5c0.7,0,1.3-0.2,1.9-0.7l0.3,0.7
	c-0.3,0.2-0.6,0.4-1,0.6c-0.4,0.1-0.8,0.2-1.2,0.2c-0.9,0-1.6-0.3-2.2-0.8c-0.5-0.5-0.8-1.3-0.8-2.2c0-0.6,0.1-1.1,0.3-1.6
	c0.2-0.5,0.6-0.8,1-1.1c0.4-0.3,0.9-0.4,1.4-0.4c0.8,0,1.4,0.3,1.8,0.8c0.4,0.5,0.7,1.2,0.7,2.1V63.3z M23.4,61.3
	c-0.3,0.3-0.5,0.8-0.5,1.4h3.4c0-0.6-0.2-1-0.4-1.4c-0.3-0.3-0.7-0.5-1.2-0.5C24.1,60.8,23.7,61,23.4,61.3z"/>
<path fill="#FF319A" d="M29.4,65.4l0.3-0.7c0.3,0.2,0.6,0.4,1,0.5c0.3,0.1,0.7,0.2,1.1,0.2c0.4,0,0.8-0.1,1-0.2
	c0.2-0.1,0.3-0.4,0.3-0.6c0-0.2-0.1-0.4-0.2-0.6c-0.2-0.1-0.4-0.2-0.8-0.3l-1-0.2c-0.5-0.1-0.9-0.3-1.1-0.6c-0.3-0.3-0.4-0.6-0.4-1
	c0-0.5,0.2-0.9,0.6-1.3c0.4-0.3,1-0.5,1.6-0.5c0.4,0,0.8,0.1,1.2,0.2c0.4,0.1,0.7,0.3,0.9,0.6l-0.3,0.7c-0.5-0.5-1.1-0.7-1.8-0.7
	c-0.4,0-0.7,0.1-1,0.2c-0.2,0.2-0.3,0.4-0.3,0.7c0,0.2,0.1,0.4,0.2,0.6c0.1,0.1,0.4,0.2,0.7,0.3l1,0.2c0.5,0.1,0.9,0.3,1.2,0.6
	c0.3,0.3,0.4,0.6,0.4,1c0,0.5-0.2,0.9-0.6,1.2c-0.4,0.3-1,0.5-1.7,0.5C30.7,66.1,30,65.9,29.4,65.4z"/>
<path fill="#FF319A" d="M36.6,57.7h1.2v1.1h-1.2V57.7z M36.7,66.1v-5.8h1v5.8H36.7z"/>
<path fill="#FF319A" d="M45.9,60.2v5.4c0,0.9-0.2,1.5-0.7,2c-0.4,0.4-1.1,0.7-2,0.7c-1,0-1.9-0.3-2.6-0.8l0.3-0.7
	c0.4,0.3,0.8,0.4,1.1,0.6c0.3,0.1,0.7,0.2,1.2,0.2c0.6,0,1-0.2,1.3-0.5c0.3-0.3,0.4-0.7,0.4-1.3v-1c-0.2,0.4-0.4,0.7-0.8,0.9
	c-0.3,0.2-0.8,0.3-1.2,0.3c-0.5,0-1-0.1-1.4-0.4c-0.4-0.2-0.7-0.6-0.9-1s-0.3-0.9-0.3-1.5s0.1-1.1,0.3-1.5s0.5-0.8,0.9-1
	c0.4-0.2,0.8-0.4,1.4-0.4c0.5,0,0.9,0.1,1.2,0.3c0.3,0.2,0.6,0.5,0.8,0.9v-1H45.9z M44.5,64.5c0.3-0.4,0.5-0.9,0.5-1.5
	c0-0.6-0.2-1.2-0.5-1.5c-0.3-0.4-0.8-0.6-1.3-0.6c-0.6,0-1,0.2-1.3,0.6c-0.3,0.4-0.5,0.9-0.5,1.5c0,0.7,0.2,1.2,0.5,1.5
	c0.3,0.4,0.8,0.6,1.3,0.6C43.7,65.1,44.1,64.9,44.5,64.5z"/>
<path fill="#FF319A" d="M54,62.4v3.7h-1v-3.6c0-0.5-0.1-0.9-0.3-1.2s-0.5-0.4-1-0.4c-0.5,0-1,0.2-1.3,0.5c-0.3,0.3-0.5,0.8-0.5,1.3
	v3.3h-1v-5.8h1v1c0.2-0.4,0.5-0.6,0.8-0.8s0.7-0.3,1.2-0.3C53.3,60.1,54,60.8,54,62.4z"/>
<path fill="#D0F041" d="M7.2,86.4H8v8.5H7.1l0-6.6l-2.7,5.2H3.7l-2.8-5.2l0,6.5H0v-8.5h0.8L4,92.5L7.2,86.4z"/>
<path fill="#D0F041" d="M16.1,89v5.8h-0.9v-1c-0.2,0.4-0.4,0.6-0.8,0.8c-0.3,0.2-0.7,0.3-1.1,0.3c-0.7,0-1.2-0.2-1.6-0.6
	c-0.4-0.4-0.5-1-0.5-1.7V89h1v3.6c0,0.5,0.1,0.9,0.3,1.1c0.2,0.2,0.5,0.4,1,0.4c0.5,0,0.9-0.2,1.2-0.5c0.3-0.3,0.5-0.8,0.5-1.3V89
	H16.1z"/>
<path fill="#D0F041" d="M18.7,94.2l0.3-0.7c0.3,0.2,0.6,0.4,1,0.5s0.7,0.2,1.1,0.2c0.4,0,0.8-0.1,1-0.2s0.3-0.4,0.3-0.6
	c0-0.2-0.1-0.4-0.2-0.6c-0.2-0.1-0.4-0.2-0.8-0.3l-1-0.2c-0.5-0.1-0.9-0.3-1.1-0.6c-0.3-0.3-0.4-0.6-0.4-1c0-0.5,0.2-0.9,0.6-1.3
	s1-0.5,1.6-0.5c0.4,0,0.8,0.1,1.2,0.2s0.7,0.3,0.9,0.6l-0.3,0.7c-0.5-0.5-1.1-0.7-1.8-0.7c-0.4,0-0.7,0.1-1,0.2
	c-0.2,0.2-0.3,0.4-0.3,0.7c0,0.2,0.1,0.4,0.2,0.6c0.1,0.1,0.4,0.2,0.7,0.3l1,0.2c0.5,0.1,0.9,0.3,1.2,0.6c0.3,0.3,0.4,0.6,0.4,1
	c0,0.5-0.2,0.9-0.6,1.2c-0.4,0.3-1,0.5-1.7,0.5C20.1,94.9,19.3,94.7,18.7,94.2z"/>
<path fill="#D0F041" d="M30.9,92.1h-4.3c0,0.7,0.2,1.2,0.6,1.5s0.8,0.5,1.4,0.5c0.7,0,1.3-0.2,1.9-0.7l0.3,0.7
	c-0.3,0.2-0.6,0.4-1,0.6c-0.4,0.1-0.8,0.2-1.2,0.2c-0.9,0-1.6-0.3-2.2-0.8c-0.5-0.5-0.8-1.3-0.8-2.2c0-0.6,0.1-1.1,0.3-1.6
	c0.2-0.5,0.6-0.8,1-1.1c0.4-0.3,0.9-0.4,1.4-0.4c0.8,0,1.4,0.3,1.8,0.8c0.4,0.5,0.7,1.2,0.7,2.1V92.1z M27.2,90.1
	c-0.3,0.3-0.5,0.8-0.5,1.4h3.4c0-0.6-0.2-1-0.4-1.4s-0.7-0.5-1.2-0.5C28,89.6,27.5,89.8,27.2,90.1z"/>
<path fill="#00FF7A" d="M6,115.2h1v8.5H6v-3.9H1v3.9H0v-8.5h1v3.7H6V115.2z"/>
<path fill="#00FF7A" d="M12.3,123.7V116H9.4v-0.8h6.9v0.8h-3v7.6H12.3z"/>
<path fill="#00FF7A" d="M25.9,115.2h0.8v8.5h-0.9l0-6.6l-2.7,5.2h-0.7l-2.8-5.2l0,6.5h-0.9v-8.5h0.8l3.2,6.1L25.9,115.2z"/>
<path fill="#00FF7A" d="M30,123.7v-8.5h1v7.6h4.2v0.8H30z"/>
<path fill="#00FF7A" d="M42,118.7c0.4,0.2,0.7,0.5,0.9,0.9s0.3,0.9,0.3,1.4c0,0.5-0.1,1-0.4,1.4c-0.2,0.4-0.6,0.7-1,1
	s-0.9,0.3-1.5,0.3c-0.5,0-1-0.1-1.5-0.3c-0.5-0.2-0.9-0.4-1.3-0.8l0.4-0.8c0.8,0.6,1.6,1,2.4,1c0.6,0,1.1-0.2,1.4-0.5
	s0.5-0.8,0.5-1.4c0-0.6-0.2-1-0.5-1.4c-0.3-0.3-0.8-0.5-1.3-0.5c-0.8,0-1.5,0.3-1.9,1h-0.7v-5h5.1v0.8h-4.1v3
	c0.2-0.2,0.5-0.4,0.8-0.5c0.3-0.1,0.6-0.2,1-0.2C41.1,118.4,41.6,118.5,42,118.7z"/>
<path fill="#00FF7A" d="M47,122.4v0.9c0,0.3-0.1,0.6-0.2,0.9c-0.1,0.3-0.3,0.5-0.6,0.8l-0.5-0.3c0.3-0.3,0.5-0.7,0.5-1h-0.6v-1.2H47
	z"/>
<path fill="#00FF7A" d="M55.8,123.2c-0.6-0.3-1-0.8-1.4-1.5c-0.3-0.7-0.5-1.4-0.5-2.3c0-0.9,0.2-1.7,0.5-2.3s0.8-1.1,1.4-1.5
	c0.6-0.3,1.3-0.5,2.1-0.5c0.6,0,1.1,0.1,1.6,0.3c0.5,0.2,0.9,0.4,1.3,0.8l-0.4,0.8c-0.4-0.3-0.8-0.6-1.2-0.7
	c-0.4-0.2-0.8-0.2-1.3-0.2c-0.9,0-1.6,0.3-2.2,0.9c-0.5,0.6-0.8,1.5-0.8,2.6c0,1.1,0.3,2,0.8,2.6c0.5,0.6,1.2,0.9,2.2,0.9
	c0.5,0,0.9-0.1,1.3-0.2c0.4-0.2,0.8-0.4,1.2-0.7l0.4,0.8c-0.4,0.4-0.8,0.6-1.3,0.8c-0.5,0.2-1,0.3-1.6,0.3
	C57.1,123.8,56.4,123.6,55.8,123.2z"/>
<path fill="#00FF7A" d="M63,122.7l0.4-0.8c0.4,0.4,0.8,0.6,1.3,0.8c0.4,0.2,0.9,0.2,1.5,0.2c0.7,0,1.2-0.1,1.6-0.4
	c0.4-0.3,0.6-0.6,0.6-1.1c0-0.3-0.1-0.5-0.3-0.7c-0.2-0.2-0.4-0.3-0.7-0.4s-0.7-0.2-1.2-0.3c-0.7-0.2-1.2-0.3-1.6-0.5
	s-0.8-0.4-1-0.7s-0.4-0.7-0.4-1.2c0-0.5,0.1-0.9,0.4-1.3c0.3-0.4,0.6-0.7,1.1-0.9c0.5-0.2,1-0.3,1.6-0.3c0.6,0,1.1,0.1,1.6,0.3
	s0.9,0.4,1.3,0.8l-0.4,0.8c-0.4-0.3-0.8-0.6-1.2-0.8c-0.4-0.2-0.9-0.2-1.3-0.2c-0.7,0-1.2,0.1-1.5,0.4c-0.4,0.3-0.6,0.7-0.6,1.2
	c0,0.4,0.2,0.7,0.5,1c0.3,0.2,0.8,0.4,1.5,0.6c0.7,0.2,1.3,0.3,1.7,0.5s0.8,0.4,1,0.7c0.3,0.3,0.4,0.7,0.4,1.2
	c0,0.5-0.1,0.9-0.4,1.3c-0.3,0.4-0.6,0.6-1.1,0.8c-0.5,0.2-1,0.3-1.7,0.3C64.8,123.8,63.8,123.4,63,122.7z"/>
<path fill="#00FF7A" d="M71.6,122.7l0.4-0.8c0.4,0.4,0.8,0.6,1.3,0.8c0.4,0.2,0.9,0.2,1.5,0.2c0.7,0,1.2-0.1,1.6-0.4
	c0.4-0.3,0.6-0.6,0.6-1.1c0-0.3-0.1-0.5-0.3-0.7c-0.2-0.2-0.4-0.3-0.7-0.4s-0.7-0.2-1.2-0.3c-0.7-0.2-1.2-0.3-1.6-0.5
	s-0.8-0.4-1-0.7s-0.4-0.7-0.4-1.2c0-0.5,0.1-0.9,0.4-1.3c0.3-0.4,0.6-0.7,1.1-0.9c0.5-0.2,1-0.3,1.6-0.3c0.6,0,1.1,0.1,1.6,0.3
	s0.9,0.4,1.3,0.8l-0.4,0.8c-0.4-0.3-0.8-0.6-1.2-0.8c-0.4-0.2-0.9-0.2-1.3-0.2c-0.7,0-1.2,0.1-1.5,0.4c-0.4,0.3-0.6,0.7-0.6,1.2
	c0,0.4,0.2,0.7,0.5,1c0.3,0.2,0.8,0.4,1.5,0.6c0.7,0.2,1.3,0.3,1.7,0.5s0.8,0.4,1,0.7c0.3,0.3,0.4,0.7,0.4,1.2
	c0,0.5-0.1,0.9-0.4,1.3c-0.3,0.4-0.6,0.6-1.1,0.8c-0.5,0.2-1,0.3-1.7,0.3C73.5,123.8,72.4,123.4,71.6,122.7z"/>
<path fill="#00FF7A" d="M81.5,122.4v0.9c0,0.3-0.1,0.6-0.2,0.9c-0.1,0.3-0.3,0.5-0.6,0.8l-0.5-0.3c0.3-0.3,0.5-0.7,0.5-1h-0.6v-1.2
	H81.5z"/>
<path fill="#00FF7A" d="M87.7,122.9l0.7,0c0.4,0,0.7-0.2,0.9-0.4c0.2-0.3,0.3-0.6,0.3-1v-6.2h1v6.2c0,0.7-0.2,1.2-0.5,1.6
	s-0.9,0.6-1.6,0.6l-0.8,0L87.7,122.9z"/>
<path fill="#00FF7A" d="M93.4,122.7l0.4-0.8c0.4,0.4,0.8,0.6,1.3,0.8c0.4,0.2,0.9,0.2,1.5,0.2c0.7,0,1.2-0.1,1.6-0.4
	c0.4-0.3,0.6-0.6,0.6-1.1c0-0.3-0.1-0.5-0.3-0.7c-0.2-0.2-0.4-0.3-0.7-0.4s-0.7-0.2-1.2-0.3c-0.7-0.2-1.2-0.3-1.6-0.5
	s-0.8-0.4-1-0.7s-0.4-0.7-0.4-1.2c0-0.5,0.1-0.9,0.4-1.3c0.3-0.4,0.6-0.7,1.1-0.9c0.5-0.2,1-0.3,1.6-0.3c0.6,0,1.1,0.1,1.6,0.3
	s0.9,0.4,1.3,0.8l-0.4,0.8c-0.4-0.3-0.8-0.6-1.2-0.8c-0.4-0.2-0.9-0.2-1.3-0.2c-0.7,0-1.2,0.1-1.5,0.4c-0.4,0.3-0.6,0.7-0.6,1.2
	c0,0.4,0.2,0.7,0.5,1c0.3,0.2,0.8,0.4,1.5,0.6c0.7,0.2,1.3,0.3,1.7,0.5s0.8,0.4,1,0.7c0.3,0.3,0.4,0.7,0.4,1.2
	c0,0.5-0.1,0.9-0.4,1.3c-0.3,0.4-0.6,0.6-1.1,0.8c-0.5,0.2-1,0.3-1.7,0.3C95.3,123.8,94.2,123.4,93.4,122.7z"/>
<circle fill="#FFFFFF" cx="70.7" cy="4.9" r="2.9"/>
<circle fill="#FFFFFF" cx="85.5" cy="4.9" r="2.9"/>
<circle fill="#FFFFFF" cx="100.3" cy="4.9" r="2.9"/>
<circle fill="#FFFFFF" cx="115" cy="4.9" r="2.9"/>
<circle fill="#FFFFFF" cx="78.6" cy="33.6" r="2.9"/>
<circle fill="#FFFFFF" cx="93.4" cy="33.6" r="2.9"/>
<circle fill="#FFFFFF" cx="108.1" cy="33.6" r="2.9"/>
<circle fill="#FFFFFF" cx="122.9" cy="33.6" r="2.9"/>
<circle fill="#FFFFFF" cx="64.7" cy="62.1" r="2.9"/>
<circle fill="#FFFFFF" cx="79.5" cy="62.1" r="2.9"/>
<circle fill="#FFFFFF" cx="94.3" cy="62.1" r="2.9"/>
<circle fill="#FFFFFF" cx="43.2" cy="90.6" r="2.9"/>
<circle fill="#FFFFFF" cx="58" cy="90.6" r="2.9"/>
<circle fill="#FFFFFF" cx="72.8" cy="90.6" r="2.9"/>
<circle fill="#FFFFFF" cx="112.5" cy="119.2" r="2.9"/>
<circle fill="#FFFFFF" cx="127.3" cy="119.2" r="2.9"/>
<circle fill="#FFFFFF" cx="142.1" cy="119.2" r="2.9"/>
<circle fill="none" stroke="#FFFFFF" stroke-miterlimit="10" cx="156.9" cy="119.2" r="2.9"/>
<circle fill="none" stroke="#FFFFFF" stroke-miterlimit="10" cx="171.6" cy="119.2" r="2.9"/>
</svg>