<!-- Generator: Adobe Illustrator 17.1.0, SVG Export Plug-In  -->
<svg version="1.1"
	 xmlns="http://www.w3.org/2000/svg" xmlns:xlink="http://www.w3.org/1999/xlink" xmlns:a="http://ns.adobe.com/AdobeSVGViewerExtensions/3.0/"
	 x="0px" y="0px" width="487.1px" height="104.5px" viewBox="0 0 487.1 104.5" enable-background="new 0 0 487.1 104.5"
	 xml:space="preserve">
<defs>
</defs>
<g>
	<g>
		<path fill="#926F7F" d="M13.4,0h8.6c0.8,0,1.3,0.7,1.1,1.5l-2.4,9.3c-0.1,0.5-0.6,0.9-1.1,0.9h-4c-0.5,0-1-0.4-1.1-0.9l-2.3-9.3
			C12.1,0.7,12.7,0,13.4,0z"/>
		<path fill="#926F7F" d="M13.6,12.3l-2.1-8.6c-0.1-0.5-0.6-0.9-1.1-0.9H6.9c-0.8,0-1.3,0.7-1.1,1.5l2.1,8.6C8,13.4,8.5,13.8,9,13.8
			h3.4C13.2,13.8,13.7,13.1,13.6,12.3z"/>
		<path fill="#926F7F" d="M5.7,10.6L4.8,7.1c-0.2-0.9-1.3-1.2-2-0.5L0.3,9.1C-0.3,9.7,0,10.8,0.9,11l3.4,1
			C5.1,12.2,5.9,11.5,5.7,10.6z"/>
		<path fill="#926F7F" d="M22.1,12.3l2.1-8.6c0.1-0.5,0.6-0.9,1.1-0.9h3.4c0.8,0,1.3,0.7,1.1,1.5l-2.1,8.6c-0.1,0.5-0.6,0.9-1.1,0.9
			h-3.4C22.4,13.8,21.9,13.1,22.1,12.3z"/>
		<path fill="#926F7F" d="M29.9,10.6l0.9-3.5c0.2-0.9,1.3-1.2,2-0.5l2.5,2.6c0.6,0.6,0.3,1.7-0.5,1.9l-3.4,1
			C30.5,12.2,29.7,11.5,29.9,10.6z"/>
	</g>
	<g>
		<path fill="#926F7F" d="M60.4,13.8H69c0.8,0,1.3-0.7,1.1-1.5l-2.4-9.3c-0.1-0.5-0.6-0.9-1.1-0.9h-4c-0.5,0-1,0.4-1.1,0.9l-2.3,9.3
			C59,13.1,59.6,13.8,60.4,13.8z"/>
		<path fill="#926F7F" d="M60.5,1.5L58.4,10c-0.1,0.5-0.6,0.9-1.1,0.9h-3.4c-0.8,0-1.3-0.7-1.1-1.5l2.1-8.6C54.9,0.4,55.4,0,55.9,0
			h3.4C60.1,0,60.7,0.7,60.5,1.5z"/>
		<path fill="#926F7F" d="M52.6,3.2l-0.9,3.5c-0.2,0.9-1.3,1.2-2,0.5l-2.5-2.6c-0.6-0.6-0.3-1.7,0.5-1.9l3.4-1
			C52,1.6,52.8,2.3,52.6,3.2z"/>
		<path fill="#926F7F" d="M69,1.5l2.1,8.6c0.1,0.5,0.6,0.9,1.1,0.9h3.4c0.8,0,1.3-0.7,1.1-1.5l-2.1-8.6C74.5,0.4,74.1,0,73.5,0h-3.4
			C69.4,0,68.8,0.7,69,1.5z"/>
		<path fill="#926F7F" d="M76.9,3.2l0.9,3.5c0.2,0.9,1.3,1.2,2,0.5l2.5-2.6c0.6-0.6,0.3-1.7-0.5-1.9l-3.4-1
			C77.5,1.6,76.6,2.3,76.9,3.2z"/>
	</g>
	<g>
		<path fill="#926F7F" d="M108.4,0h8.6c0.8,0,1.3,0.7,1.1,1.5l-2.4,9.3c-0.1,0.5-0.6,0.9-1.1,0.9h-4c-0.5,0-1-0.4-1.1-0.9l-2.3-9.3
			C107.1,0.7,107.6,0,108.4,0z"/>
		<path fill="#926F7F" d="M108.5,12.3l-2.1-8.6c-0.1-0.5-0.6-0.9-1.1-0.9h-3.4c-0.8,0-1.3,0.7-1.1,1.5l2.1,8.6
			c0.1,0.5,0.6,0.9,1.1,0.9h3.4C108.1,13.8,108.7,13.1,108.5,12.3z"/>
		<path fill="#926F7F" d="M100.6,10.6l-0.9-3.5c-0.2-0.9-1.3-1.2-2-0.5l-2.5,2.6c-0.6,0.6-0.3,1.7,0.5,1.9l3.4,1
			C100,12.2,100.8,11.5,100.6,10.6z"/>
		<path fill="#926F7F" d="M117,12.3l2.1-8.6c0.1-0.5,0.6-0.9,1.1-0.9h3.4c0.8,0,1.3,0.7,1.1,1.5l-2.1,8.6c-0.1,0.5-0.6,0.9-1.1,0.9
			h-3.4C117.4,13.8,116.8,13.1,117,12.3z"/>
		<path fill="#926F7F" d="M124.9,10.6l0.9-3.5c0.2-0.9,1.3-1.2,2-0.5l2.5,2.6c0.6,0.6,0.3,1.7-0.5,1.9l-3.4,1
			C125.5,12.2,124.7,11.5,124.9,10.6z"/>
	</g>
	<g>
		<path fill="#926F7F" d="M155.3,13.8h8.6c0.8,0,1.3-0.7,1.1-1.5l-2.4-9.3c-0.1-0.5-0.6-0.9-1.1-0.9h-4c-0.5,0-1,0.4-1.1,0.9
			l-2.3,9.3C154,13.1,154.5,13.8,155.3,13.8z"/>
		<path fill="#926F7F" d="M155.4,1.5l-2.1,8.6c-0.1,0.5-0.6,0.9-1.1,0.9h-3.4c-0.8,0-1.3-0.7-1.1-1.5l2.1-8.6
			c0.1-0.5,0.6-0.9,1.1-0.9h3.4C155,0,155.6,0.7,155.4,1.5z"/>
		<path fill="#926F7F" d="M147.5,3.2l-0.9,3.5c-0.2,0.9-1.3,1.2-2,0.5l-2.5-2.6c-0.6-0.6-0.3-1.7,0.5-1.9l3.4-1
			C146.9,1.6,147.8,2.3,147.5,3.2z"/>
		<path fill="#926F7F" d="M163.9,1.5L166,10c0.1,0.5,0.6,0.9,1.1,0.9h3.4c0.8,0,1.3-0.7,1.1-1.5l-2.1-8.6C169.5,0.4,169,0,168.5,0
			h-3.4C164.3,0,163.7,0.7,163.9,1.5z"/>
		<path fill="#926F7F" d="M171.8,3.2l0.9,3.5c0.2,0.9,1.3,1.2,2,0.5l2.5-2.6c0.6-0.6,0.3-1.7-0.5-1.9l-3.4-1
			C172.4,1.6,171.6,2.3,171.8,3.2z"/>
	</g>
	<g>
		<path fill="#926F7F" d="M203.3,0h8.6c0.8,0,1.3,0.7,1.1,1.5l-2.4,9.3c-0.1,0.5-0.6,0.9-1.1,0.9h-4c-0.5,0-1-0.4-1.1-0.9l-2.3-9.3
			C202,0.7,202.6,0,203.3,0z"/>
		<path fill="#926F7F" d="M203.4,12.3l-2.1-8.6c-0.1-0.5-0.6-0.9-1.1-0.9h-3.4c-0.8,0-1.3,0.7-1.1,1.5l2.1,8.6
			c0.1,0.5,0.6,0.9,1.1,0.9h3.4C203.1,13.8,203.6,13.1,203.4,12.3z"/>
		<path fill="#926F7F" d="M195.6,10.6l-0.9-3.5c-0.2-0.9-1.3-1.2-2-0.5l-2.5,2.6c-0.6,0.6-0.3,1.7,0.5,1.9l3.4,1
			C195,12.2,195.8,11.5,195.6,10.6z"/>
		<path fill="#926F7F" d="M211.9,12.3l2.1-8.6c0.1-0.5,0.6-0.9,1.1-0.9h3.4c0.8,0,1.3,0.7,1.1,1.5l-2.1,8.6
			c-0.1,0.5-0.6,0.9-1.1,0.9h-3.4C212.3,13.8,211.8,13.1,211.9,12.3z"/>
		<path fill="#926F7F" d="M219.8,10.6l0.9-3.5c0.2-0.9,1.3-1.2,2-0.5l2.5,2.6c0.6,0.6,0.3,1.7-0.5,1.9l-3.4,1
			C220.4,12.2,219.6,11.5,219.8,10.6z"/>
	</g>
	<g>
		<path fill="#926F7F" d="M250.2,13.8h8.6c0.8,0,1.3-0.7,1.1-1.5l-2.4-9.3c-0.1-0.5-0.6-0.9-1.1-0.9h-4c-0.5,0-1,0.4-1.1,0.9
			l-2.3,9.3C248.9,13.1,249.5,13.8,250.2,13.8z"/>
		<path fill="#926F7F" d="M250.3,1.5l-2.1,8.6c-0.1,0.5-0.6,0.9-1.1,0.9h-3.4c-0.8,0-1.3-0.7-1.1-1.5l2.1-8.6
			c0.1-0.5,0.6-0.9,1.1-0.9h3.4C250,0,250.5,0.7,250.3,1.5z"/>
		<path fill="#926F7F" d="M242.5,3.2l-0.9,3.5c-0.2,0.9-1.3,1.2-2,0.5l-2.5-2.6c-0.6-0.6-0.3-1.7,0.5-1.9l3.4-1
			C241.9,1.6,242.7,2.3,242.5,3.2z"/>
		<path fill="#926F7F" d="M258.9,1.5L261,10c0.1,0.5,0.6,0.9,1.1,0.9h3.4c0.8,0,1.3-0.7,1.1-1.5l-2.1-8.6c-0.1-0.5-0.6-0.9-1.1-0.9
			H260C259.2,0,258.7,0.7,258.9,1.5z"/>
		<path fill="#926F7F" d="M266.7,3.2l0.9,3.5c0.2,0.9,1.3,1.2,2,0.5l2.5-2.6c0.6-0.6,0.3-1.7-0.5-1.9l-3.4-1
			C267.3,1.6,266.5,2.3,266.7,3.2z"/>
	</g>
	<g>
		<path fill="#926F7F" d="M298.3,0h8.6c0.8,0,1.3,0.7,1.1,1.5l-2.4,9.3c-0.1,0.5-0.6,0.9-1.1,0.9h-4c-0.5,0-1-0.4-1.1-0.9l-2.3-9.3
			C296.9,0.7,297.5,0,298.3,0z"/>
		<path fill="#926F7F" d="M298.4,12.3l-2.1-8.6c-0.1-0.5-0.6-0.9-1.1-0.9h-3.4c-0.8,0-1.3,0.7-1.1,1.5l2.1,8.6
			c0.1,0.5,0.6,0.9,1.1,0.9h3.4C298,13.8,298.5,13.1,298.4,12.3z"/>
		<path fill="#926F7F" d="M290.5,10.6l-0.9-3.5c-0.2-0.9-1.3-1.2-2-0.5l-2.5,2.6c-0.6,0.6-0.3,1.7,0.5,1.9l3.4,1
			C289.9,12.2,290.7,11.5,290.5,10.6z"/>
		<path fill="#926F7F" d="M306.9,12.3l2.1-8.6c0.1-0.5,0.6-0.9,1.1-0.9h3.4c0.8,0,1.3,0.7,1.1,1.5l-2.1,8.6
			c-0.1,0.5-0.6,0.9-1.1,0.9H308C307.3,13.8,306.7,13.1,306.9,12.3z"/>
		<path fill="#926F7F" d="M314.8,10.6l0.9-3.5c0.2-0.9,1.3-1.2,2-0.5l2.5,2.6c0.6,0.6,0.3,1.7-0.5,1.9l-3.4,1
			C315.3,12.2,314.5,11.5,314.8,10.6z"/>
	</g>
	<g>
		<path fill="#926F7F" d="M345.2,13.8h8.6c0.8,0,1.3-0.7,1.1-1.5l-2.4-9.3c-0.1-0.5-0.6-0.9-1.1-0.9h-4c-0.5,0-1,0.4-1.1,0.9
			l-2.3,9.3C343.9,13.1,344.4,13.8,345.2,13.8z"/>
		<path fill="#926F7F" d="M345.3,1.5l-2.1,8.6c-0.1,0.5-0.6,0.9-1.1,0.9h-3.4c-0.8,0-1.3-0.7-1.1-1.5l2.1-8.6
			c0.1-0.5,0.6-0.9,1.1-0.9h3.4C344.9,0,345.5,0.7,345.3,1.5z"/>
		<path fill="#926F7F" d="M337.4,3.2l-0.9,3.5c-0.2,0.9-1.3,1.2-2,0.5l-2.5-2.6c-0.6-0.6-0.3-1.7,0.5-1.9l3.4-1
			C336.8,1.6,337.6,2.3,337.4,3.2z"/>
		<path fill="#926F7F" d="M353.8,1.5l2.1,8.6c0.1,0.5,0.6,0.9,1.1,0.9h3.4c0.8,0,1.3-0.7,1.1-1.5l-2.1-8.6c-0.1-0.5-0.6-0.9-1.1-0.9
			h-3.4C354.2,0,353.6,0.7,353.8,1.5z"/>
		<path fill="#926F7F" d="M361.7,3.2l0.9,3.5c0.2,0.9,1.3,1.2,2,0.5l2.5-2.6c0.6-0.6,0.3-1.7-0.5-1.9l-3.4-1
			C362.3,1.6,361.5,2.3,361.7,3.2z"/>
	</g>
	<g>
		<path fill="#926F7F" d="M393.2,0h8.6c0.8,0,1.3,0.7,1.1,1.5l-2.4,9.3c-0.1,0.5-0.6,0.9-1.1,0.9h-4c-0.5,0-1-0.4-1.1-0.9l-2.3-9.3
			C391.9,0.7,392.4,0,393.2,0z"/>
		<path fill="#926F7F" d="M393.3,12.3l-2.1-8.6c-0.1-0.5-0.6-0.9-1.1-0.9h-3.4c-0.8,0-1.3,0.7-1.1,1.5l2.1,8.6
			c0.1,0.5,0.6,0.9,1.1,0.9h3.4C392.9,13.8,393.5,13.1,393.3,12.3z"/>
		<path fill="#926F7F" d="M385.4,10.6l-0.9-3.5c-0.2-0.9-1.3-1.2-2-0.5l-2.5,2.6c-0.6,0.6-0.3,1.7,0.5,1.9l3.4,1
			C384.8,12.2,385.6,11.5,385.4,10.6z"/>
		<path fill="#926F7F" d="M401.8,12.3l2.1-8.6c0.1-0.5,0.6-0.9,1.1-0.9h3.4c0.8,0,1.3,0.7,1.1,1.5l-2.1,8.6
			c-0.1,0.5-0.6,0.9-1.1,0.9H403C402.2,13.8,401.6,13.1,401.8,12.3z"/>
		<path fill="#926F7F" d="M409.7,10.6l0.9-3.5c0.2-0.9,1.3-1.2,2-0.5l2.5,2.6c0.6,0.6,0.3,1.7-0.5,1.9l-3.4,1
			C410.3,12.2,409.5,11.5,409.7,10.6z"/>
	</g>
	<g>
		<path fill="#926F7F" d="M440.1,13.8h8.6c0.8,0,1.3-0.7,1.1-1.5l-2.4-9.3c-0.1-0.5-0.6-0.9-1.1-0.9h-4c-0.5,0-1,0.4-1.1,0.9
			l-2.3,9.3C438.8,13.1,439.4,13.8,440.1,13.8z"/>
		<path fill="#926F7F" d="M440.2,1.5l-2.1,8.6c-0.1,0.5-0.6,0.9-1.1,0.9h-3.4c-0.8,0-1.3-0.7-1.1-1.5l2.1-8.6
			c0.1-0.5,0.6-0.9,1.1-0.9h3.4C439.8,0,440.4,0.7,440.2,1.5z"/>
		<path fill="#926F7F" d="M432.3,3.2l-0.9,3.5c-0.2,0.9-1.3,1.2-2,0.5L427,4.7c-0.6-0.6-0.3-1.7,0.5-1.9l3.4-1
			C431.8,1.6,432.6,2.3,432.3,3.2z"/>
		<path fill="#926F7F" d="M448.7,1.5l2.1,8.6c0.1,0.5,0.6,0.9,1.1,0.9h3.4c0.8,0,1.3-0.7,1.1-1.5l-2.1-8.6c-0.1-0.5-0.6-0.9-1.1-0.9
			h-3.4C449.1,0,448.6,0.7,448.7,1.5z"/>
		<path fill="#926F7F" d="M456.6,3.2l0.9,3.5c0.2,0.9,1.3,1.2,2,0.5l2.5-2.6c0.6-0.6,0.3-1.7-0.5-1.9l-3.4-1
			C457.2,1.6,456.4,2.3,456.6,3.2z"/>
	</g>
</g>
<g>
	<g>
		<path fill="#926F7F" d="M38.2,21.7h8.6c0.8,0,1.3,0.7,1.1,1.5l-2.4,9.3c-0.1,0.5-0.6,0.9-1.1,0.9h-4c-0.5,0-1-0.4-1.1-0.9
			l-2.3-9.3C36.9,22.4,37.5,21.7,38.2,21.7z"/>
		<path fill="#926F7F" d="M38.3,34l-2.1-8.6c-0.1-0.5-0.6-0.9-1.1-0.9h-3.4c-0.8,0-1.3,0.7-1.1,1.5l2.1,8.6c0.1,0.5,0.6,0.9,1.1,0.9
			h3.4C38,35.5,38.5,34.7,38.3,34z"/>
		<path fill="#926F7F" d="M30.5,32.2l-0.9-3.5c-0.2-0.9-1.3-1.2-2-0.5l-2.5,2.6c-0.6,0.6-0.3,1.7,0.5,1.9l3.4,1
			C29.9,33.9,30.7,33.1,30.5,32.2z"/>
		<path fill="#926F7F" d="M46.9,34l2.1-8.6c0.1-0.5,0.6-0.9,1.1-0.9h3.4c0.8,0,1.3,0.7,1.1,1.5l-2.1,8.6c-0.1,0.5-0.6,0.9-1.1,0.9
			H48C47.2,35.5,46.7,34.7,46.9,34z"/>
		<path fill="#926F7F" d="M54.7,32.2l0.9-3.5c0.2-0.9,1.3-1.2,2-0.5l2.5,2.6c0.6,0.6,0.3,1.7-0.5,1.9l-3.4,1
			C55.3,33.9,54.5,33.1,54.7,32.2z"/>
	</g>
	<g>
		<path fill="#926F7F" d="M85.1,35.5h8.6c0.8,0,1.3-0.7,1.1-1.5l-2.4-9.3c-0.1-0.5-0.6-0.9-1.1-0.9h-4c-0.5,0-1,0.4-1.1,0.9L84,34
			C83.8,34.7,84.4,35.5,85.1,35.5z"/>
		<path fill="#926F7F" d="M85.3,23.1l-2.1,8.6c-0.1,0.5-0.6,0.9-1.1,0.9h-3.4c-0.8,0-1.3-0.7-1.1-1.5l2.1-8.6
			c0.1-0.5,0.6-0.9,1.1-0.9h3.4C84.9,21.7,85.4,22.4,85.3,23.1z"/>
		<path fill="#926F7F" d="M77.4,24.9l-0.9,3.5c-0.2,0.9-1.3,1.2-2,0.5L72,26.4c-0.6-0.6-0.3-1.7,0.5-1.9l3.4-1
			C76.8,23.2,77.6,24,77.4,24.9z"/>
		<path fill="#926F7F" d="M93.8,23.1l2.1,8.6c0.1,0.5,0.6,0.9,1.1,0.9h3.4c0.8,0,1.3-0.7,1.1-1.5l-2.1-8.6c-0.1-0.5-0.6-0.9-1.1-0.9
			h-3.4C94.1,21.7,93.6,22.4,93.8,23.1z"/>
		<path fill="#926F7F" d="M101.6,24.9l0.9,3.5c0.2,0.9,1.3,1.2,2,0.5l2.5-2.6c0.6-0.6,0.3-1.7-0.5-1.9l-3.4-1
			C102.2,23.2,101.4,24,101.6,24.9z"/>
	</g>
	<g>
		<path fill="#926F7F" d="M133.2,21.7h8.6c0.8,0,1.3,0.7,1.1,1.5l-2.4,9.3c-0.1,0.5-0.6,0.9-1.1,0.9h-4c-0.5,0-1-0.4-1.1-0.9
			l-2.3-9.3C131.8,22.4,132.4,21.7,133.2,21.7z"/>
		<path fill="#926F7F" d="M133.3,34l-2.1-8.6c-0.1-0.5-0.6-0.9-1.1-0.9h-3.4c-0.8,0-1.3,0.7-1.1,1.5l2.1,8.6
			c0.1,0.5,0.6,0.9,1.1,0.9h3.4C132.9,35.5,133.5,34.7,133.3,34z"/>
		<path fill="#926F7F" d="M125.4,32.2l-0.9-3.5c-0.2-0.9-1.3-1.2-2-0.5l-2.5,2.6c-0.6,0.6-0.3,1.7,0.5,1.9l3.4,1
			C124.8,33.9,125.6,33.1,125.4,32.2z"/>
		<path fill="#926F7F" d="M141.8,34l2.1-8.6c0.1-0.5,0.6-0.9,1.1-0.9h3.4c0.8,0,1.3,0.7,1.1,1.5l-2.1,8.6c-0.1,0.5-0.6,0.9-1.1,0.9
			h-3.4C142.2,35.5,141.6,34.7,141.8,34z"/>
		<path fill="#926F7F" d="M149.7,32.2l0.9-3.5c0.2-0.9,1.3-1.2,2-0.5l2.5,2.6c0.6,0.6,0.3,1.7-0.5,1.9l-3.4,1
			C150.3,33.9,149.4,33.1,149.7,32.2z"/>
	</g>
	<g>
		<path fill="#926F7F" d="M180.1,35.5h8.6c0.8,0,1.3-0.7,1.1-1.5l-2.4-9.3c-0.1-0.5-0.6-0.9-1.1-0.9h-4c-0.5,0-1,0.4-1.1,0.9
			l-2.3,9.3C178.8,34.7,179.3,35.5,180.1,35.5z"/>
		<path fill="#926F7F" d="M180.2,23.1l-2.1,8.6c-0.1,0.5-0.6,0.9-1.1,0.9h-3.4c-0.8,0-1.3-0.7-1.1-1.5l2.1-8.6
			c0.1-0.5,0.6-0.9,1.1-0.9h3.4C179.8,21.7,180.4,22.4,180.2,23.1z"/>
		<path fill="#926F7F" d="M172.3,24.9l-0.9,3.5c-0.2,0.9-1.3,1.2-2,0.5l-2.5-2.6c-0.6-0.6-0.3-1.7,0.5-1.9l3.4-1
			C171.7,23.2,172.5,24,172.3,24.9z"/>
		<path fill="#926F7F" d="M188.7,23.1l2.1,8.6c0.1,0.5,0.6,0.9,1.1,0.9h3.4c0.8,0,1.3-0.7,1.1-1.5l-2.1-8.6
			c-0.1-0.5-0.6-0.9-1.1-0.9h-3.4C189.1,21.7,188.5,22.4,188.7,23.1z"/>
		<path fill="#926F7F" d="M196.6,24.9l0.9,3.5c0.2,0.9,1.3,1.2,2,0.5l2.5-2.6c0.6-0.6,0.3-1.7-0.5-1.9l-3.4-1
			C197.2,23.2,196.4,24,196.6,24.9z"/>
	</g>
	<g>
		<path fill="#926F7F" d="M228.1,21.7h8.6c0.8,0,1.3,0.7,1.1,1.5l-2.4,9.3c-0.1,0.5-0.6,0.9-1.1,0.9h-4c-0.5,0-1-0.4-1.1-0.9
			l-2.3-9.3C226.8,22.4,227.3,21.7,228.1,21.7z"/>
		<path fill="#926F7F" d="M228.2,34l-2.1-8.6c-0.1-0.5-0.6-0.9-1.1-0.9h-3.4c-0.8,0-1.3,0.7-1.1,1.5l2.1,8.6
			c0.1,0.5,0.6,0.9,1.1,0.9h3.4C227.8,35.5,228.4,34.7,228.2,34z"/>
		<path fill="#926F7F" d="M220.3,32.2l-0.9-3.5c-0.2-0.9-1.3-1.2-2-0.5l-2.5,2.6c-0.6,0.6-0.3,1.7,0.5,1.9l3.4,1
			C219.7,33.9,220.6,33.1,220.3,32.2z"/>
		<path fill="#926F7F" d="M236.7,34l2.1-8.6c0.1-0.5,0.6-0.9,1.1-0.9h3.4c0.8,0,1.3,0.7,1.1,1.5l-2.1,8.6c-0.1,0.5-0.6,0.9-1.1,0.9
			h-3.4C237.1,35.5,236.5,34.7,236.7,34z"/>
		<path fill="#926F7F" d="M244.6,32.2l0.9-3.5c0.2-0.9,1.3-1.2,2-0.5l2.5,2.6c0.6,0.6,0.3,1.7-0.5,1.9l-3.4,1
			C245.2,33.9,244.4,33.1,244.6,32.2z"/>
	</g>
	<g>
		<path fill="#926F7F" d="M275,35.5h8.6c0.8,0,1.3-0.7,1.1-1.5l-2.4-9.3c-0.1-0.5-0.6-0.9-1.1-0.9h-4c-0.5,0-1,0.4-1.1,0.9l-2.3,9.3
			C273.7,34.7,274.3,35.5,275,35.5z"/>
		<path fill="#926F7F" d="M275.1,23.1l-2.1,8.6c-0.1,0.5-0.6,0.9-1.1,0.9h-3.4c-0.8,0-1.3-0.7-1.1-1.5l2.1-8.6
			c0.1-0.5,0.6-0.9,1.1-0.9h3.4C274.8,21.7,275.3,22.4,275.1,23.1z"/>
		<path fill="#926F7F" d="M267.3,24.9l-0.9,3.5c-0.2,0.9-1.3,1.2-2,0.5l-2.5-2.6c-0.6-0.6-0.3-1.7,0.5-1.9l3.4-1
			C266.7,23.2,267.5,24,267.3,24.9z"/>
		<path fill="#926F7F" d="M283.6,23.1l2.1,8.6c0.1,0.5,0.6,0.9,1.1,0.9h3.4c0.8,0,1.3-0.7,1.1-1.5l-2.1-8.6
			c-0.1-0.5-0.6-0.9-1.1-0.9h-3.4C284,21.7,283.5,22.4,283.6,23.1z"/>
		<path fill="#926F7F" d="M291.5,24.9l0.9,3.5c0.2,0.9,1.3,1.2,2,0.5l2.5-2.6c0.6-0.6,0.3-1.7-0.5-1.9l-3.4-1
			C292.1,23.2,291.3,24,291.5,24.9z"/>
	</g>
	<g>
		<path fill="#926F7F" d="M323,21.7h8.6c0.8,0,1.3,0.7,1.1,1.5l-2.4,9.3c-0.1,0.5-0.6,0.9-1.1,0.9h-4c-0.5,0-1-0.4-1.1-0.9l-2.3-9.3
			C321.7,22.4,322.3,21.7,323,21.7z"/>
		<path fill="#926F7F" d="M323.1,34l-2.1-8.6c-0.1-0.5-0.6-0.9-1.1-0.9h-3.4c-0.8,0-1.3,0.7-1.1,1.5l2.1,8.6
			c0.1,0.5,0.6,0.9,1.1,0.9h3.4C322.8,35.5,323.3,34.7,323.1,34z"/>
		<path fill="#926F7F" d="M315.3,32.2l-0.9-3.5c-0.2-0.9-1.3-1.2-2-0.5l-2.5,2.6c-0.6,0.6-0.3,1.7,0.5,1.9l3.4,1
			C314.7,33.9,315.5,33.1,315.3,32.2z"/>
		<path fill="#926F7F" d="M331.7,34l2.1-8.6c0.1-0.5,0.6-0.9,1.1-0.9h3.4c0.8,0,1.3,0.7,1.1,1.5l-2.1,8.6c-0.1,0.5-0.6,0.9-1.1,0.9
			h-3.4C332,35.5,331.5,34.7,331.7,34z"/>
		<path fill="#926F7F" d="M339.5,32.2l0.9-3.5c0.2-0.9,1.3-1.2,2-0.5l2.5,2.6c0.6,0.6,0.3,1.7-0.5,1.9l-3.4,1
			C340.1,33.9,339.3,33.1,339.5,32.2z"/>
	</g>
	<g>
		<path fill="#926F7F" d="M370,35.5h8.6c0.8,0,1.3-0.7,1.1-1.5l-2.4-9.3c-0.1-0.5-0.6-0.9-1.1-0.9h-4c-0.5,0-1,0.4-1.1,0.9l-2.3,9.3
			C368.6,34.7,369.2,35.5,370,35.5z"/>
		<path fill="#926F7F" d="M370.1,23.1l-2.1,8.6c-0.1,0.5-0.6,0.9-1.1,0.9h-3.4c-0.8,0-1.3-0.7-1.1-1.5l2.1-8.6
			c0.1-0.5,0.6-0.9,1.1-0.9h3.4C369.7,21.7,370.2,22.4,370.1,23.1z"/>
		<path fill="#926F7F" d="M362.2,24.9l-0.9,3.5c-0.2,0.9-1.3,1.2-2,0.5l-2.5-2.6c-0.6-0.6-0.3-1.7,0.5-1.9l3.4-1
			C361.6,23.2,362.4,24,362.2,24.9z"/>
		<path fill="#926F7F" d="M378.6,23.1l2.1,8.6c0.1,0.5,0.6,0.9,1.1,0.9h3.4c0.8,0,1.3-0.7,1.1-1.5l-2.1-8.6
			c-0.1-0.5-0.6-0.9-1.1-0.9h-3.4C379,21.7,378.4,22.4,378.6,23.1z"/>
		<path fill="#926F7F" d="M386.5,24.9l0.9,3.5c0.2,0.9,1.3,1.2,2,0.5l2.5-2.6c0.6-0.6,0.3-1.7-0.5-1.9l-3.4-1
			C387,23.2,386.2,24,386.5,24.9z"/>
	</g>
	<g>
		<path fill="#926F7F" d="M418,21.7h8.6c0.8,0,1.3,0.7,1.1,1.5l-2.4,9.3c-0.1,0.5-0.6,0.9-1.1,0.9h-4c-0.5,0-1-0.4-1.1-0.9l-2.3-9.3
			C416.7,22.4,417.2,21.7,418,21.7z"/>
		<path fill="#926F7F" d="M418.1,34l-2.1-8.6c-0.1-0.5-0.6-0.9-1.1-0.9h-3.4c-0.8,0-1.3,0.7-1.1,1.5l2.1,8.6
			c0.1,0.5,0.6,0.9,1.1,0.9h3.4C417.7,35.5,418.3,34.7,418.1,34z"/>
		<path fill="#926F7F" d="M410.2,32.2l-0.9-3.5c-0.2-0.9-1.3-1.2-2-0.5l-2.5,2.6c-0.6,0.6-0.3,1.7,0.5,1.9l3.4,1
			C409.6,33.9,410.4,33.1,410.2,32.2z"/>
		<path fill="#926F7F" d="M426.6,34l2.1-8.6c0.1-0.5,0.6-0.9,1.1-0.9h3.4c0.8,0,1.3,0.7,1.1,1.5l-2.1,8.6c-0.1,0.5-0.6,0.9-1.1,0.9
			h-3.4C427,35.5,426.4,34.7,426.6,34z"/>
		<path fill="#926F7F" d="M434.5,32.2l0.9-3.5c0.2-0.9,1.3-1.2,2-0.5l2.5,2.6c0.6,0.6,0.3,1.7-0.5,1.9l-3.4,1
			C435.1,33.9,434.3,33.1,434.5,32.2z"/>
	</g>
	<g>
		<path fill="#926F7F" d="M464.9,35.5h8.6c0.8,0,1.3-0.7,1.1-1.5l-2.4-9.3c-0.1-0.5-0.6-0.9-1.1-0.9h-4c-0.5,0-1,0.4-1.1,0.9
			l-2.3,9.3C463.6,34.7,464.1,35.5,464.9,35.5z"/>
		<path fill="#926F7F" d="M465,23.1l-2.1,8.6c-0.1,0.5-0.6,0.9-1.1,0.9h-3.4c-0.8,0-1.3-0.7-1.1-1.5l2.1-8.6
			c0.1-0.5,0.6-0.9,1.1-0.9h3.4C464.6,21.7,465.2,22.4,465,23.1z"/>
		<path fill="#926F7F" d="M457.1,24.9l-0.9,3.5c-0.2,0.9-1.3,1.2-2,0.5l-2.5-2.6c-0.6-0.6-0.3-1.7,0.5-1.9l3.4-1
			C456.5,23.2,457.3,24,457.1,24.9z"/>
		<path fill="#926F7F" d="M473.5,23.1l2.1,8.6c0.1,0.5,0.6,0.9,1.1,0.9h3.4c0.8,0,1.3-0.7,1.1-1.5l-2.1-8.6
			c-0.1-0.5-0.6-0.9-1.1-0.9h-3.4C473.9,21.7,473.3,22.4,473.5,23.1z"/>
		<path fill="#926F7F" d="M481.4,24.9l0.9,3.5c0.2,0.9,1.3,1.2,2,0.5l2.5-2.6c0.6-0.6,0.3-1.7-0.5-1.9l-3.4-1
			C482,23.2,481.2,24,481.4,24.9z"/>
	</g>
</g>
<g>
	<g>
		<path fill="#926F7F" d="M13.4,45.4h8.6c0.8,0,1.3,0.7,1.1,1.5l-2.4,9.3c-0.1,0.5-0.6,0.9-1.1,0.9h-4c-0.5,0-1-0.4-1.1-0.9
			l-2.3-9.3C12.1,46.1,12.7,45.4,13.4,45.4z"/>
		<path fill="#926F7F" d="M13.6,57.7l-2.1-8.6c-0.1-0.5-0.6-0.9-1.1-0.9H6.9c-0.8,0-1.3,0.7-1.1,1.5l2.1,8.6C8,58.8,8.5,59.1,9,59.1
			h3.4C13.2,59.1,13.7,58.4,13.6,57.7z"/>
		<path fill="#926F7F" d="M5.7,55.9l-0.9-3.5c-0.2-0.9-1.3-1.2-2-0.5l-2.5,2.6c-0.6,0.6-0.3,1.7,0.5,1.9l3.4,1
			C5.1,57.6,5.9,56.8,5.7,55.9z"/>
		<path fill="#926F7F" d="M22.1,57.7l2.1-8.6c0.1-0.5,0.6-0.9,1.1-0.9h3.4c0.8,0,1.3,0.7,1.1,1.5l-2.1,8.6c-0.1,0.5-0.6,0.9-1.1,0.9
			h-3.4C22.4,59.1,21.9,58.4,22.1,57.7z"/>
		<path fill="#926F7F" d="M29.9,55.9l0.9-3.5c0.2-0.9,1.3-1.2,2-0.5l2.5,2.6c0.6,0.6,0.3,1.7-0.5,1.9l-3.4,1
			C30.5,57.6,29.7,56.8,29.9,55.9z"/>
	</g>
	<g>
		<path fill="#926F7F" d="M60.4,59.1H69c0.8,0,1.3-0.7,1.1-1.5l-2.4-9.3c-0.1-0.5-0.6-0.9-1.1-0.9h-4c-0.5,0-1,0.4-1.1,0.9l-2.3,9.3
			C59,58.4,59.6,59.1,60.4,59.1z"/>
		<path fill="#926F7F" d="M60.5,46.8l-2.1,8.6c-0.1,0.5-0.6,0.9-1.1,0.9h-3.4c-0.8,0-1.3-0.7-1.1-1.5l2.1-8.6
			c0.1-0.5,0.6-0.9,1.1-0.9h3.4C60.1,45.4,60.7,46.1,60.5,46.8z"/>
		<path fill="#926F7F" d="M52.6,48.6l-0.9,3.5c-0.2,0.9-1.3,1.2-2,0.5l-2.5-2.6c-0.6-0.6-0.3-1.7,0.5-1.9l3.4-1
			C52,46.9,52.8,47.7,52.6,48.6z"/>
		<path fill="#926F7F" d="M69,46.8l2.1,8.6c0.1,0.5,0.6,0.9,1.1,0.9h3.4c0.8,0,1.3-0.7,1.1-1.5l-2.1-8.6c-0.1-0.5-0.6-0.9-1.1-0.9
			h-3.4C69.4,45.4,68.8,46.1,69,46.8z"/>
		<path fill="#926F7F" d="M76.9,48.6l0.9,3.5c0.2,0.9,1.3,1.2,2,0.5l2.5-2.6c0.6-0.6,0.3-1.7-0.5-1.9l-3.4-1
			C77.5,46.9,76.6,47.7,76.9,48.6z"/>
	</g>
	<g>
		<path fill="#926F7F" d="M108.4,45.4h8.6c0.8,0,1.3,0.7,1.1,1.5l-2.4,9.3c-0.1,0.5-0.6,0.9-1.1,0.9h-4c-0.5,0-1-0.4-1.1-0.9
			l-2.3-9.3C107.1,46.1,107.6,45.4,108.4,45.4z"/>
		<path fill="#926F7F" d="M108.5,57.7l-2.1-8.6c-0.1-0.5-0.6-0.9-1.1-0.9h-3.4c-0.8,0-1.3,0.7-1.1,1.5l2.1,8.6
			c0.1,0.5,0.6,0.9,1.1,0.9h3.4C108.1,59.1,108.7,58.4,108.5,57.7z"/>
		<path fill="#926F7F" d="M100.6,55.9l-0.9-3.5c-0.2-0.9-1.3-1.2-2-0.5l-2.5,2.6c-0.6,0.6-0.3,1.7,0.5,1.9l3.4,1
			C100,57.6,100.8,56.8,100.6,55.9z"/>
		<path fill="#926F7F" d="M117,57.7l2.1-8.6c0.1-0.5,0.6-0.9,1.1-0.9h3.4c0.8,0,1.3,0.7,1.1,1.5l-2.1,8.6c-0.1,0.5-0.6,0.9-1.1,0.9
			h-3.4C117.4,59.1,116.8,58.4,117,57.7z"/>
		<path fill="#926F7F" d="M124.9,55.9l0.9-3.5c0.2-0.9,1.3-1.2,2-0.5l2.5,2.6c0.6,0.6,0.3,1.7-0.5,1.9l-3.4,1
			C125.5,57.6,124.7,56.8,124.9,55.9z"/>
	</g>
	<g>
		<path fill="#926F7F" d="M155.3,59.1h8.6c0.8,0,1.3-0.7,1.1-1.5l-2.4-9.3c-0.1-0.5-0.6-0.9-1.1-0.9h-4c-0.5,0-1,0.4-1.1,0.9
			l-2.3,9.3C154,58.4,154.5,59.1,155.3,59.1z"/>
		<path fill="#926F7F" d="M155.4,46.8l-2.1,8.6c-0.1,0.5-0.6,0.9-1.1,0.9h-3.4c-0.8,0-1.3-0.7-1.1-1.5l2.1-8.6
			c0.1-0.5,0.6-0.9,1.1-0.9h3.4C155,45.4,155.6,46.1,155.4,46.8z"/>
		<path fill="#926F7F" d="M147.5,48.6l-0.9,3.5c-0.2,0.9-1.3,1.2-2,0.5l-2.5-2.6c-0.6-0.6-0.3-1.7,0.5-1.9l3.4-1
			C146.9,46.9,147.8,47.7,147.5,48.6z"/>
		<path fill="#926F7F" d="M163.9,46.8l2.1,8.6c0.1,0.5,0.6,0.9,1.1,0.9h3.4c0.8,0,1.3-0.7,1.1-1.5l-2.1-8.6
			c-0.1-0.5-0.6-0.9-1.1-0.9h-3.4C164.3,45.4,163.7,46.1,163.9,46.8z"/>
		<path fill="#926F7F" d="M171.8,48.6l0.9,3.5c0.2,0.9,1.3,1.2,2,0.5l2.5-2.6c0.6-0.6,0.3-1.7-0.5-1.9l-3.4-1
			C172.4,46.9,171.6,47.7,171.8,48.6z"/>
	</g>
	<g>
		<path fill="#926F7F" d="M203.3,45.4h8.6c0.8,0,1.3,0.7,1.1,1.5l-2.4,9.3c-0.1,0.5-0.6,0.9-1.1,0.9h-4c-0.5,0-1-0.4-1.1-0.9
			l-2.3-9.3C202,46.1,202.6,45.4,203.3,45.4z"/>
		<path fill="#926F7F" d="M203.4,57.7l-2.1-8.6c-0.1-0.5-0.6-0.9-1.1-0.9h-3.4c-0.8,0-1.3,0.7-1.1,1.5l2.1,8.6
			c0.1,0.5,0.6,0.9,1.1,0.9h3.4C203.1,59.1,203.6,58.4,203.4,57.7z"/>
		<path fill="#926F7F" d="M195.6,55.9l-0.9-3.5c-0.2-0.9-1.3-1.2-2-0.5l-2.5,2.6c-0.6,0.6-0.3,1.7,0.5,1.9l3.4,1
			C195,57.6,195.8,56.8,195.6,55.9z"/>
		<path fill="#926F7F" d="M211.9,57.7l2.1-8.6c0.1-0.5,0.6-0.9,1.1-0.9h3.4c0.8,0,1.3,0.7,1.1,1.5l-2.1,8.6
			c-0.1,0.5-0.6,0.9-1.1,0.9h-3.4C212.3,59.1,211.8,58.4,211.9,57.7z"/>
		<path fill="#926F7F" d="M219.8,55.9l0.9-3.5c0.2-0.9,1.3-1.2,2-0.5l2.5,2.6c0.6,0.6,0.3,1.7-0.5,1.9l-3.4,1
			C220.4,57.6,219.6,56.8,219.8,55.9z"/>
	</g>
	<g>
		<path fill="#926F7F" d="M250.2,59.1h8.6c0.8,0,1.3-0.7,1.1-1.5l-2.4-9.3c-0.1-0.5-0.6-0.9-1.1-0.9h-4c-0.5,0-1,0.4-1.1,0.9
			l-2.3,9.3C248.9,58.4,249.5,59.1,250.2,59.1z"/>
		<path fill="#926F7F" d="M250.3,46.8l-2.1,8.6c-0.1,0.5-0.6,0.9-1.1,0.9h-3.4c-0.8,0-1.3-0.7-1.1-1.5l2.1-8.6
			c0.1-0.5,0.6-0.9,1.1-0.9h3.4C250,45.4,250.5,46.1,250.3,46.8z"/>
		<path fill="#926F7F" d="M242.5,48.6l-0.9,3.5c-0.2,0.9-1.3,1.2-2,0.5l-2.5-2.6c-0.6-0.6-0.3-1.7,0.5-1.9l3.4-1
			C241.9,46.9,242.7,47.7,242.5,48.6z"/>
		<path fill="#926F7F" d="M258.9,46.8l2.1,8.6c0.1,0.5,0.6,0.9,1.1,0.9h3.4c0.8,0,1.3-0.7,1.1-1.5l-2.1-8.6
			c-0.1-0.5-0.6-0.9-1.1-0.9H260C259.2,45.4,258.7,46.1,258.9,46.8z"/>
		<path fill="#926F7F" d="M266.7,48.6l0.9,3.5c0.2,0.9,1.3,1.2,2,0.5l2.5-2.6c0.6-0.6,0.3-1.7-0.5-1.9l-3.4-1
			C267.3,46.9,266.5,47.7,266.7,48.6z"/>
	</g>
	<g>
		<path fill="#926F7F" d="M298.3,45.4h8.6c0.8,0,1.3,0.7,1.1,1.5l-2.4,9.3c-0.1,0.5-0.6,0.9-1.1,0.9h-4c-0.5,0-1-0.4-1.1-0.9
			l-2.3-9.3C296.9,46.1,297.5,45.4,298.3,45.4z"/>
		<path fill="#926F7F" d="M298.4,57.7l-2.1-8.6c-0.1-0.5-0.6-0.9-1.1-0.9h-3.4c-0.8,0-1.3,0.7-1.1,1.5l2.1,8.6
			c0.1,0.5,0.6,0.9,1.1,0.9h3.4C298,59.1,298.5,58.4,298.4,57.7z"/>
		<path fill="#926F7F" d="M290.5,55.9l-0.9-3.5c-0.2-0.9-1.3-1.2-2-0.5l-2.5,2.6c-0.6,0.6-0.3,1.7,0.5,1.9l3.4,1
			C289.9,57.6,290.7,56.8,290.5,55.9z"/>
		<path fill="#926F7F" d="M306.9,57.7l2.1-8.6c0.1-0.5,0.6-0.9,1.1-0.9h3.4c0.8,0,1.3,0.7,1.1,1.5l-2.1,8.6
			c-0.1,0.5-0.6,0.9-1.1,0.9H308C307.3,59.1,306.7,58.4,306.9,57.7z"/>
		<path fill="#926F7F" d="M314.8,55.9l0.9-3.5c0.2-0.9,1.3-1.2,2-0.5l2.5,2.6c0.6,0.6,0.3,1.7-0.5,1.9l-3.4,1
			C315.3,57.6,314.5,56.8,314.8,55.9z"/>
	</g>
	<g>
		<path fill="#926F7F" d="M345.2,59.1h8.6c0.8,0,1.3-0.7,1.1-1.5l-2.4-9.3c-0.1-0.5-0.6-0.9-1.1-0.9h-4c-0.5,0-1,0.4-1.1,0.9
			l-2.3,9.3C343.9,58.4,344.4,59.1,345.2,59.1z"/>
		<path fill="#926F7F" d="M345.3,46.8l-2.1,8.6c-0.1,0.5-0.6,0.9-1.1,0.9h-3.4c-0.8,0-1.3-0.7-1.1-1.5l2.1-8.6
			c0.1-0.5,0.6-0.9,1.1-0.9h3.4C344.9,45.4,345.5,46.1,345.3,46.8z"/>
		<path fill="#926F7F" d="M337.4,48.6l-0.9,3.5c-0.2,0.9-1.3,1.2-2,0.5l-2.5-2.6c-0.6-0.6-0.3-1.7,0.5-1.9l3.4-1
			C336.8,46.9,337.6,47.7,337.4,48.6z"/>
		<path fill="#926F7F" d="M353.8,46.8l2.1,8.6c0.1,0.5,0.6,0.9,1.1,0.9h3.4c0.8,0,1.3-0.7,1.1-1.5l-2.1-8.6
			c-0.1-0.5-0.6-0.9-1.1-0.9h-3.4C354.2,45.4,353.6,46.1,353.8,46.8z"/>
		<path fill="#926F7F" d="M361.7,48.6l0.9,3.5c0.2,0.9,1.3,1.2,2,0.5l2.5-2.6c0.6-0.6,0.3-1.7-0.5-1.9l-3.4-1
			C362.3,46.9,361.5,47.7,361.7,48.6z"/>
	</g>
	<g>
		<path fill="#926F7F" d="M393.2,45.4h8.6c0.8,0,1.3,0.7,1.1,1.5l-2.4,9.3c-0.1,0.5-0.6,0.9-1.1,0.9h-4c-0.5,0-1-0.4-1.1-0.9
			l-2.3-9.3C391.9,46.1,392.4,45.4,393.2,45.4z"/>
		<path fill="#926F7F" d="M393.3,57.7l-2.1-8.6c-0.1-0.5-0.6-0.9-1.1-0.9h-3.4c-0.8,0-1.3,0.7-1.1,1.5l2.1,8.6
			c0.1,0.5,0.6,0.9,1.1,0.9h3.4C392.9,59.1,393.5,58.4,393.3,57.7z"/>
		<path fill="#926F7F" d="M385.4,55.9l-0.9-3.5c-0.2-0.9-1.3-1.2-2-0.5l-2.5,2.6c-0.6,0.6-0.3,1.7,0.5,1.9l3.4,1
			C384.8,57.6,385.6,56.8,385.4,55.9z"/>
		<path fill="#926F7F" d="M401.8,57.7l2.1-8.6c0.1-0.5,0.6-0.9,1.1-0.9h3.4c0.8,0,1.3,0.7,1.1,1.5l-2.1,8.6
			c-0.1,0.5-0.6,0.9-1.1,0.9H403C402.2,59.1,401.6,58.4,401.8,57.7z"/>
		<path fill="#926F7F" d="M409.7,55.9l0.9-3.5c0.2-0.9,1.3-1.2,2-0.5l2.5,2.6c0.6,0.6,0.3,1.7-0.5,1.9l-3.4,1
			C410.3,57.6,409.5,56.8,409.7,55.9z"/>
	</g>
	<g>
		<path fill="#926F7F" d="M440.1,59.1h8.6c0.8,0,1.3-0.7,1.1-1.5l-2.4-9.3c-0.1-0.5-0.6-0.9-1.1-0.9h-4c-0.5,0-1,0.4-1.1,0.9
			l-2.3,9.3C438.8,58.4,439.4,59.1,440.1,59.1z"/>
		<path fill="#926F7F" d="M440.2,46.8l-2.1,8.6c-0.1,0.5-0.6,0.9-1.1,0.9h-3.4c-0.8,0-1.3-0.7-1.1-1.5l2.1-8.6
			c0.1-0.5,0.6-0.9,1.1-0.9h3.4C439.8,45.4,440.4,46.1,440.2,46.8z"/>
		<path fill="#926F7F" d="M432.3,48.6l-0.9,3.5c-0.2,0.9-1.3,1.2-2,0.5l-2.5-2.6c-0.6-0.6-0.3-1.7,0.5-1.9l3.4-1
			C431.8,46.9,432.6,47.7,432.3,48.6z"/>
		<path fill="#926F7F" d="M448.7,46.8l2.1,8.6c0.1,0.5,0.6,0.9,1.1,0.9h3.4c0.8,0,1.3-0.7,1.1-1.5l-2.1-8.6
			c-0.1-0.5-0.6-0.9-1.1-0.9h-3.4C449.1,45.4,448.6,46.1,448.7,46.8z"/>
		<path fill="#926F7F" d="M456.6,48.6l0.9,3.5c0.2,0.9,1.3,1.2,2,0.5l2.5-2.6c0.6-0.6,0.3-1.7-0.5-1.9l-3.4-1
			C457.2,46.9,456.4,47.7,456.6,48.6z"/>
	</g>
</g>
<g>
	<g>
		<path fill="#926F7F" d="M38.2,67h8.6c0.8,0,1.3,0.7,1.1,1.5l-2.4,9.3c-0.1,0.5-0.6,0.9-1.1,0.9h-4c-0.5,0-1-0.4-1.1-0.9l-2.3-9.3
			C36.9,67.7,37.5,67,38.2,67z"/>
		<path fill="#926F7F" d="M38.3,79.4l-2.1-8.6c-0.1-0.5-0.6-0.9-1.1-0.9h-3.4c-0.8,0-1.3,0.7-1.1,1.5l2.1,8.6
			c0.1,0.5,0.6,0.9,1.1,0.9h3.4C38,80.8,38.5,80.1,38.3,79.4z"/>
		<path fill="#926F7F" d="M30.5,77.6l-0.9-3.5c-0.2-0.9-1.3-1.2-2-0.5l-2.5,2.6c-0.6,0.6-0.3,1.7,0.5,1.9l3.4,1
			C29.9,79.3,30.7,78.5,30.5,77.6z"/>
		<path fill="#926F7F" d="M46.9,79.4l2.1-8.6c0.1-0.5,0.6-0.9,1.1-0.9h3.4c0.8,0,1.3,0.7,1.1,1.5l-2.1,8.6c-0.1,0.5-0.6,0.9-1.1,0.9
			H48C47.2,80.8,46.7,80.1,46.9,79.4z"/>
		<path fill="#926F7F" d="M54.7,77.6l0.9-3.5c0.2-0.9,1.3-1.2,2-0.5l2.5,2.6c0.6,0.6,0.3,1.7-0.5,1.9l-3.4,1
			C55.3,79.3,54.5,78.5,54.7,77.6z"/>
	</g>
	<g>
		<path fill="#926F7F" d="M85.1,80.8h8.6c0.8,0,1.3-0.7,1.1-1.5l-2.4-9.3c-0.1-0.5-0.6-0.9-1.1-0.9h-4c-0.5,0-1,0.4-1.1,0.9L84,79.4
			C83.8,80.1,84.4,80.8,85.1,80.8z"/>
		<path fill="#926F7F" d="M85.3,68.5L83.1,77c-0.1,0.5-0.6,0.9-1.1,0.9h-3.4c-0.8,0-1.3-0.7-1.1-1.5l2.1-8.6
			c0.1-0.5,0.6-0.9,1.1-0.9h3.4C84.9,67,85.4,67.7,85.3,68.5z"/>
		<path fill="#926F7F" d="M77.4,70.2l-0.9,3.5c-0.2,0.9-1.3,1.2-2,0.5L72,71.7c-0.6-0.6-0.3-1.7,0.5-1.9l3.4-1
			C76.8,68.6,77.6,69.4,77.4,70.2z"/>
		<path fill="#926F7F" d="M93.8,68.5l2.1,8.6c0.1,0.5,0.6,0.9,1.1,0.9h3.4c0.8,0,1.3-0.7,1.1-1.5l-2.1-8.6c-0.1-0.5-0.6-0.9-1.1-0.9
			h-3.4C94.1,67,93.6,67.7,93.8,68.5z"/>
		<path fill="#926F7F" d="M101.6,70.2l0.9,3.5c0.2,0.9,1.3,1.2,2,0.5l2.5-2.6c0.6-0.6,0.3-1.7-0.5-1.9l-3.4-1
			C102.2,68.6,101.4,69.4,101.6,70.2z"/>
	</g>
	<g>
		<path fill="#926F7F" d="M133.2,67h8.6c0.8,0,1.3,0.7,1.1,1.5l-2.4,9.3c-0.1,0.5-0.6,0.9-1.1,0.9h-4c-0.5,0-1-0.4-1.1-0.9l-2.3-9.3
			C131.8,67.7,132.4,67,133.2,67z"/>
		<path fill="#926F7F" d="M133.3,79.4l-2.1-8.6c-0.1-0.5-0.6-0.9-1.1-0.9h-3.4c-0.8,0-1.3,0.7-1.1,1.5l2.1,8.6
			c0.1,0.5,0.6,0.9,1.1,0.9h3.4C132.9,80.8,133.5,80.1,133.3,79.4z"/>
		<path fill="#926F7F" d="M125.4,77.6l-0.9-3.5c-0.2-0.9-1.3-1.2-2-0.5l-2.5,2.6c-0.6,0.6-0.3,1.7,0.5,1.9l3.4,1
			C124.8,79.3,125.6,78.5,125.4,77.6z"/>
		<path fill="#926F7F" d="M141.8,79.4l2.1-8.6c0.1-0.5,0.6-0.9,1.1-0.9h3.4c0.8,0,1.3,0.7,1.1,1.5l-2.1,8.6
			c-0.1,0.5-0.6,0.9-1.1,0.9h-3.4C142.2,80.8,141.6,80.1,141.8,79.4z"/>
		<path fill="#926F7F" d="M149.7,77.6l0.9-3.5c0.2-0.9,1.3-1.2,2-0.5l2.5,2.6c0.6,0.6,0.3,1.7-0.5,1.9l-3.4,1
			C150.3,79.3,149.4,78.5,149.7,77.6z"/>
	</g>
	<g>
		<path fill="#926F7F" d="M180.1,80.8h8.6c0.8,0,1.3-0.7,1.1-1.5l-2.4-9.3c-0.1-0.5-0.6-0.9-1.1-0.9h-4c-0.5,0-1,0.4-1.1,0.9
			l-2.3,9.3C178.8,80.1,179.3,80.8,180.1,80.8z"/>
		<path fill="#926F7F" d="M180.2,68.5l-2.1,8.6c-0.1,0.5-0.6,0.9-1.1,0.9h-3.4c-0.8,0-1.3-0.7-1.1-1.5l2.1-8.6
			c0.1-0.5,0.6-0.9,1.1-0.9h3.4C179.8,67,180.4,67.7,180.2,68.5z"/>
		<path fill="#926F7F" d="M172.3,70.2l-0.9,3.5c-0.2,0.9-1.3,1.2-2,0.5l-2.5-2.6c-0.6-0.6-0.3-1.7,0.5-1.9l3.4-1
			C171.7,68.6,172.5,69.4,172.3,70.2z"/>
		<path fill="#926F7F" d="M188.7,68.5l2.1,8.6c0.1,0.5,0.6,0.9,1.1,0.9h3.4c0.8,0,1.3-0.7,1.1-1.5l-2.1-8.6
			c-0.1-0.5-0.6-0.9-1.1-0.9h-3.4C189.1,67,188.5,67.7,188.7,68.5z"/>
		<path fill="#926F7F" d="M196.6,70.2l0.9,3.5c0.2,0.9,1.3,1.2,2,0.5l2.5-2.6c0.6-0.6,0.3-1.7-0.5-1.9l-3.4-1
			C197.2,68.6,196.4,69.4,196.6,70.2z"/>
	</g>
	<g>
		<path fill="#926F7F" d="M228.1,67h8.6c0.8,0,1.3,0.7,1.1,1.5l-2.4,9.3c-0.1,0.5-0.6,0.9-1.1,0.9h-4c-0.5,0-1-0.4-1.1-0.9l-2.3-9.3
			C226.8,67.7,227.3,67,228.1,67z"/>
		<path fill="#926F7F" d="M228.2,79.4l-2.1-8.6c-0.1-0.5-0.6-0.9-1.1-0.9h-3.4c-0.8,0-1.3,0.7-1.1,1.5l2.1,8.6
			c0.1,0.5,0.6,0.9,1.1,0.9h3.4C227.8,80.8,228.4,80.1,228.2,79.4z"/>
		<path fill="#926F7F" d="M220.3,77.6l-0.9-3.5c-0.2-0.9-1.3-1.2-2-0.5l-2.5,2.6c-0.6,0.6-0.3,1.7,0.5,1.9l3.4,1
			C219.7,79.3,220.6,78.5,220.3,77.6z"/>
		<path fill="#926F7F" d="M236.7,79.4l2.1-8.6c0.1-0.5,0.6-0.9,1.1-0.9h3.4c0.8,0,1.3,0.7,1.1,1.5l-2.1,8.6
			c-0.1,0.5-0.6,0.9-1.1,0.9h-3.4C237.1,80.8,236.5,80.1,236.7,79.4z"/>
		<path fill="#926F7F" d="M244.6,77.6l0.9-3.5c0.2-0.9,1.3-1.2,2-0.5l2.5,2.6c0.6,0.6,0.3,1.7-0.5,1.9l-3.4,1
			C245.2,79.3,244.4,78.5,244.6,77.6z"/>
	</g>
	<g>
		<path fill="#926F7F" d="M275,80.8h8.6c0.8,0,1.3-0.7,1.1-1.5l-2.4-9.3c-0.1-0.5-0.6-0.9-1.1-0.9h-4c-0.5,0-1,0.4-1.1,0.9l-2.3,9.3
			C273.7,80.1,274.3,80.8,275,80.8z"/>
		<path fill="#926F7F" d="M275.1,68.5L273,77c-0.1,0.5-0.6,0.9-1.1,0.9h-3.4c-0.8,0-1.3-0.7-1.1-1.5l2.1-8.6
			c0.1-0.5,0.6-0.9,1.1-0.9h3.4C274.8,67,275.3,67.7,275.1,68.5z"/>
		<path fill="#926F7F" d="M267.3,70.2l-0.9,3.5c-0.2,0.9-1.3,1.2-2,0.5l-2.5-2.6c-0.6-0.6-0.3-1.7,0.5-1.9l3.4-1
			C266.7,68.6,267.5,69.4,267.3,70.2z"/>
		<path fill="#926F7F" d="M283.6,68.5l2.1,8.6c0.1,0.5,0.6,0.9,1.1,0.9h3.4c0.8,0,1.3-0.7,1.1-1.5l-2.1-8.6
			c-0.1-0.5-0.6-0.9-1.1-0.9h-3.4C284,67,283.5,67.7,283.6,68.5z"/>
		<path fill="#926F7F" d="M291.5,70.2l0.9,3.5c0.2,0.9,1.3,1.2,2,0.5l2.5-2.6c0.6-0.6,0.3-1.7-0.5-1.9l-3.4-1
			C292.1,68.6,291.3,69.4,291.5,70.2z"/>
	</g>
	<g>
		<path fill="#926F7F" d="M323,67h8.6c0.8,0,1.3,0.7,1.1,1.5l-2.4,9.3c-0.1,0.5-0.6,0.9-1.1,0.9h-4c-0.5,0-1-0.4-1.1-0.9l-2.3-9.3
			C321.7,67.7,322.3,67,323,67z"/>
		<path fill="#926F7F" d="M323.1,79.4l-2.1-8.6c-0.1-0.5-0.6-0.9-1.1-0.9h-3.4c-0.8,0-1.3,0.7-1.1,1.5l2.1,8.6
			c0.1,0.5,0.6,0.9,1.1,0.9h3.4C322.8,80.8,323.3,80.1,323.1,79.4z"/>
		<path fill="#926F7F" d="M315.3,77.6l-0.9-3.5c-0.2-0.9-1.3-1.2-2-0.5l-2.5,2.6c-0.6,0.6-0.3,1.7,0.5,1.9l3.4,1
			C314.7,79.3,315.5,78.5,315.3,77.6z"/>
		<path fill="#926F7F" d="M331.7,79.4l2.1-8.6c0.1-0.5,0.6-0.9,1.1-0.9h3.4c0.8,0,1.3,0.7,1.1,1.5l-2.1,8.6
			c-0.1,0.5-0.6,0.9-1.1,0.9h-3.4C332,80.8,331.5,80.1,331.7,79.4z"/>
		<path fill="#926F7F" d="M339.5,77.6l0.9-3.5c0.2-0.9,1.3-1.2,2-0.5l2.5,2.6c0.6,0.6,0.3,1.7-0.5,1.9l-3.4,1
			C340.1,79.3,339.3,78.5,339.5,77.6z"/>
	</g>
	<g>
		<path fill="#926F7F" d="M370,80.8h8.6c0.8,0,1.3-0.7,1.1-1.5l-2.4-9.3c-0.1-0.5-0.6-0.9-1.1-0.9h-4c-0.5,0-1,0.4-1.1,0.9l-2.3,9.3
			C368.6,80.1,369.2,80.8,370,80.8z"/>
		<path fill="#926F7F" d="M370.1,68.5l-2.1,8.6c-0.1,0.5-0.6,0.9-1.1,0.9h-3.4c-0.8,0-1.3-0.7-1.1-1.5l2.1-8.6
			c0.1-0.5,0.6-0.9,1.1-0.9h3.4C369.7,67,370.2,67.7,370.1,68.5z"/>
		<path fill="#926F7F" d="M362.2,70.2l-0.9,3.5c-0.2,0.9-1.3,1.2-2,0.5l-2.5-2.6c-0.6-0.6-0.3-1.7,0.5-1.9l3.4-1
			C361.6,68.6,362.4,69.4,362.2,70.2z"/>
		<path fill="#926F7F" d="M378.6,68.5l2.1,8.6c0.1,0.5,0.6,0.9,1.1,0.9h3.4c0.8,0,1.3-0.7,1.1-1.5l-2.1-8.6
			c-0.1-0.5-0.6-0.9-1.1-0.9h-3.4C379,67,378.4,67.7,378.6,68.5z"/>
		<path fill="#926F7F" d="M386.5,70.2l0.9,3.5c0.2,0.9,1.3,1.2,2,0.5l2.5-2.6c0.6-0.6,0.3-1.7-0.5-1.9l-3.4-1
			C387,68.6,386.2,69.4,386.5,70.2z"/>
	</g>
	<g>
		<path fill="#926F7F" d="M418,67h8.6c0.8,0,1.3,0.7,1.1,1.5l-2.4,9.3c-0.1,0.5-0.6,0.9-1.1,0.9h-4c-0.5,0-1-0.4-1.1-0.9l-2.3-9.3
			C416.7,67.7,417.2,67,418,67z"/>
		<path fill="#926F7F" d="M418.1,79.4l-2.1-8.6c-0.1-0.5-0.6-0.9-1.1-0.9h-3.4c-0.8,0-1.3,0.7-1.1,1.5l2.1,8.6
			c0.1,0.5,0.6,0.9,1.1,0.9h3.4C417.7,80.8,418.3,80.1,418.1,79.4z"/>
		<path fill="#926F7F" d="M410.2,77.6l-0.9-3.5c-0.2-0.9-1.3-1.2-2-0.5l-2.5,2.6c-0.6,0.6-0.3,1.7,0.5,1.9l3.4,1
			C409.6,79.3,410.4,78.5,410.2,77.6z"/>
		<path fill="#926F7F" d="M426.6,79.4l2.1-8.6c0.1-0.5,0.6-0.9,1.1-0.9h3.4c0.8,0,1.3,0.7,1.1,1.5l-2.1,8.6
			c-0.1,0.5-0.6,0.9-1.1,0.9h-3.4C427,80.8,426.4,80.1,426.6,79.4z"/>
		<path fill="#926F7F" d="M434.5,77.6l0.9-3.5c0.2-0.9,1.3-1.2,2-0.5l2.5,2.6c0.6,0.6,0.3,1.7-0.5,1.9l-3.4,1
			C435.1,79.3,434.3,78.5,434.5,77.6z"/>
	</g>
	<g>
		<path fill="#926F7F" d="M464.9,80.8h8.6c0.8,0,1.3-0.7,1.1-1.5l-2.4-9.3c-0.1-0.5-0.6-0.9-1.1-0.9h-4c-0.5,0-1,0.4-1.1,0.9
			l-2.3,9.3C463.6,80.1,464.1,80.8,464.9,80.8z"/>
		<path fill="#926F7F" d="M465,68.5l-2.1,8.6c-0.1,0.5-0.6,0.9-1.1,0.9h-3.4c-0.8,0-1.3-0.7-1.1-1.5l2.1-8.6
			c0.1-0.5,0.6-0.9,1.1-0.9h3.4C464.6,67,465.2,67.7,465,68.5z"/>
		<path fill="#926F7F" d="M457.1,70.2l-0.9,3.5c-0.2,0.9-1.3,1.2-2,0.5l-2.5-2.6c-0.6-0.6-0.3-1.7,0.5-1.9l3.4-1
			C456.5,68.6,457.3,69.4,457.1,70.2z"/>
		<path fill="#926F7F" d="M473.5,68.5l2.1,8.6c0.1,0.5,0.6,0.9,1.1,0.9h3.4c0.8,0,1.3-0.7,1.1-1.5l-2.1-8.6
			c-0.1-0.5-0.6-0.9-1.1-0.9h-3.4C473.9,67,473.3,67.7,473.5,68.5z"/>
		<path fill="#926F7F" d="M481.4,70.2l0.9,3.5c0.2,0.9,1.3,1.2,2,0.5l2.5-2.6c0.6-0.6,0.3-1.7-0.5-1.9l-3.4-1
			C482,68.6,481.2,69.4,481.4,70.2z"/>
	</g>
</g>
<g>
	<g>
		<path fill="#926F7F" d="M13.4,90.7h8.6c0.8,0,1.3,0.7,1.1,1.5l-2.4,9.3c-0.1,0.5-0.6,0.9-1.1,0.9h-4c-0.5,0-1-0.4-1.1-0.9
			l-2.3-9.3C12.1,91.4,12.7,90.7,13.4,90.7z"/>
		<path fill="#926F7F" d="M13.6,103.1l-2.1-8.6c-0.1-0.5-0.6-0.9-1.1-0.9H6.9c-0.8,0-1.3,0.7-1.1,1.5l2.1,8.6
			c0.1,0.5,0.6,0.9,1.1,0.9h3.4C13.2,104.5,13.7,103.8,13.6,103.1z"/>
		<path fill="#926F7F" d="M5.7,101.3l-0.9-3.5c-0.2-0.9-1.3-1.2-2-0.5l-2.5,2.6c-0.6,0.6-0.3,1.7,0.5,1.9l3.4,1
			C5.1,103,5.9,102.2,5.7,101.3z"/>
		<path fill="#926F7F" d="M22.1,103.1l2.1-8.6c0.1-0.5,0.6-0.9,1.1-0.9h3.4c0.8,0,1.3,0.7,1.1,1.5l-2.1,8.6
			c-0.1,0.5-0.6,0.9-1.1,0.9h-3.4C22.4,104.5,21.9,103.8,22.1,103.1z"/>
		<path fill="#926F7F" d="M29.9,101.3l0.9-3.5c0.2-0.9,1.3-1.2,2-0.5l2.5,2.6c0.6,0.6,0.3,1.7-0.5,1.9l-3.4,1
			C30.5,103,29.7,102.2,29.9,101.3z"/>
	</g>
	<g>
		<path fill="#926F7F" d="M60.4,104.5H69c0.8,0,1.3-0.7,1.1-1.5l-2.4-9.3c-0.1-0.5-0.6-0.9-1.1-0.9h-4c-0.5,0-1,0.4-1.1,0.9
			l-2.3,9.3C59,103.8,59.6,104.5,60.4,104.5z"/>
		<path fill="#926F7F" d="M60.5,92.2l-2.1,8.6c-0.1,0.5-0.6,0.9-1.1,0.9h-3.4c-0.8,0-1.3-0.7-1.1-1.5l2.1-8.6
			c0.1-0.5,0.6-0.9,1.1-0.9h3.4C60.1,90.7,60.7,91.4,60.5,92.2z"/>
		<path fill="#926F7F" d="M52.6,93.9l-0.9,3.5c-0.2,0.9-1.3,1.2-2,0.5l-2.5-2.6c-0.6-0.6-0.3-1.7,0.5-1.9l3.4-1
			C52,92.3,52.8,93.1,52.6,93.9z"/>
		<path fill="#926F7F" d="M69,92.2l2.1,8.6c0.1,0.5,0.6,0.9,1.1,0.9h3.4c0.8,0,1.3-0.7,1.1-1.5l-2.1-8.6c-0.1-0.5-0.6-0.9-1.1-0.9
			h-3.4C69.4,90.7,68.8,91.4,69,92.2z"/>
		<path fill="#926F7F" d="M76.9,93.9l0.9,3.5c0.2,0.9,1.3,1.2,2,0.5l2.5-2.6c0.6-0.6,0.3-1.7-0.5-1.9l-3.4-1
			C77.5,92.3,76.6,93.1,76.9,93.9z"/>
	</g>
	<g>
		<path fill="#926F7F" d="M108.4,90.7h8.6c0.8,0,1.3,0.7,1.1,1.5l-2.4,9.3c-0.1,0.5-0.6,0.9-1.1,0.9h-4c-0.5,0-1-0.4-1.1-0.9
			l-2.3-9.3C107.1,91.4,107.6,90.7,108.4,90.7z"/>
		<path fill="#926F7F" d="M108.5,103.1l-2.1-8.6c-0.1-0.5-0.6-0.9-1.1-0.9h-3.4c-0.8,0-1.3,0.7-1.1,1.5l2.1,8.6
			c0.1,0.5,0.6,0.9,1.1,0.9h3.4C108.1,104.5,108.7,103.8,108.5,103.1z"/>
		<path fill="#926F7F" d="M100.6,101.3l-0.9-3.5c-0.2-0.9-1.3-1.2-2-0.5l-2.5,2.6c-0.6,0.6-0.3,1.7,0.5,1.9l3.4,1
			C100,103,100.8,102.2,100.6,101.3z"/>
		<path fill="#926F7F" d="M117,103.1l2.1-8.6c0.1-0.5,0.6-0.9,1.1-0.9h3.4c0.8,0,1.3,0.7,1.1,1.5l-2.1,8.6c-0.1,0.5-0.6,0.9-1.1,0.9
			h-3.4C117.4,104.5,116.8,103.8,117,103.1z"/>
		<path fill="#926F7F" d="M124.9,101.3l0.9-3.5c0.2-0.9,1.3-1.2,2-0.5l2.5,2.6c0.6,0.6,0.3,1.7-0.5,1.9l-3.4,1
			C125.5,103,124.7,102.2,124.9,101.3z"/>
	</g>
	<g>
		<path fill="#926F7F" d="M155.3,104.5h8.6c0.8,0,1.3-0.7,1.1-1.5l-2.4-9.3c-0.1-0.5-0.6-0.9-1.1-0.9h-4c-0.5,0-1,0.4-1.1,0.9
			l-2.3,9.3C154,103.8,154.5,104.5,155.3,104.5z"/>
		<path fill="#926F7F" d="M155.4,92.2l-2.1,8.6c-0.1,0.5-0.6,0.9-1.1,0.9h-3.4c-0.8,0-1.3-0.7-1.1-1.5l2.1-8.6
			c0.1-0.5,0.6-0.9,1.1-0.9h3.4C155,90.7,155.6,91.4,155.4,92.2z"/>
		<path fill="#926F7F" d="M147.5,93.9l-0.9,3.5c-0.2,0.9-1.3,1.2-2,0.5l-2.5-2.6c-0.6-0.6-0.3-1.7,0.5-1.9l3.4-1
			C146.9,92.3,147.8,93.1,147.5,93.9z"/>
		<path fill="#926F7F" d="M163.9,92.2l2.1,8.6c0.1,0.5,0.6,0.9,1.1,0.9h3.4c0.8,0,1.3-0.7,1.1-1.5l-2.1-8.6
			c-0.1-0.5-0.6-0.9-1.1-0.9h-3.4C164.3,90.7,163.7,91.4,163.9,92.2z"/>
		<path fill="#926F7F" d="M171.8,93.9l0.9,3.5c0.2,0.9,1.3,1.2,2,0.5l2.5-2.6c0.6-0.6,0.3-1.7-0.5-1.9l-3.4-1
			C172.4,92.3,171.6,93.1,171.8,93.9z"/>
	</g>
	<g>
		<path fill="#926F7F" d="M203.3,90.7h8.6c0.8,0,1.3,0.7,1.1,1.5l-2.4,9.3c-0.1,0.5-0.6,0.9-1.1,0.9h-4c-0.5,0-1-0.4-1.1-0.9
			l-2.3-9.3C202,91.4,202.6,90.7,203.3,90.7z"/>
		<path fill="#926F7F" d="M203.4,103.1l-2.1-8.6c-0.1-0.5-0.6-0.9-1.1-0.9h-3.4c-0.8,0-1.3,0.7-1.1,1.5l2.1,8.6
			c0.1,0.5,0.6,0.9,1.1,0.9h3.4C203.1,104.5,203.6,103.8,203.4,103.1z"/>
		<path fill="#926F7F" d="M195.6,101.3l-0.9-3.5c-0.2-0.9-1.3-1.2-2-0.5l-2.5,2.6c-0.6,0.6-0.3,1.7,0.5,1.9l3.4,1
			C195,103,195.8,102.2,195.6,101.3z"/>
		<path fill="#926F7F" d="M211.9,103.1l2.1-8.6c0.1-0.5,0.6-0.9,1.1-0.9h3.4c0.8,0,1.3,0.7,1.1,1.5l-2.1,8.6
			c-0.1,0.5-0.6,0.9-1.1,0.9h-3.4C212.3,104.5,211.8,103.8,211.9,103.1z"/>
		<path fill="#926F7F" d="M219.8,101.3l0.9-3.5c0.2-0.9,1.3-1.2,2-0.5l2.5,2.6c0.6,0.6,0.3,1.7-0.5,1.9l-3.4,1
			C220.4,103,219.6,102.2,219.8,101.3z"/>
	</g>
	<g>
		<path fill="#926F7F" d="M250.2,104.5h8.6c0.8,0,1.3-0.7,1.1-1.5l-2.4-9.3c-0.1-0.5-0.6-0.9-1.1-0.9h-4c-0.5,0-1,0.4-1.1,0.9
			l-2.3,9.3C248.9,103.8,249.5,104.5,250.2,104.5z"/>
		<path fill="#926F7F" d="M250.3,92.2l-2.1,8.6c-0.1,0.5-0.6,0.9-1.1,0.9h-3.4c-0.8,0-1.3-0.7-1.1-1.5l2.1-8.6
			c0.1-0.5,0.6-0.9,1.1-0.9h3.4C250,90.7,250.5,91.4,250.3,92.2z"/>
		<path fill="#926F7F" d="M242.5,93.9l-0.9,3.5c-0.2,0.9-1.3,1.2-2,0.5l-2.5-2.6c-0.6-0.6-0.3-1.7,0.5-1.9l3.4-1
			C241.9,92.3,242.7,93.1,242.5,93.9z"/>
		<path fill="#926F7F" d="M258.9,92.2l2.1,8.6c0.1,0.5,0.6,0.9,1.1,0.9h3.4c0.8,0,1.3-0.7,1.1-1.5l-2.1-8.6
			c-0.1-0.5-0.6-0.9-1.1-0.9H260C259.2,90.7,258.7,91.4,258.9,92.2z"/>
		<path fill="#926F7F" d="M266.7,93.9l0.9,3.5c0.2,0.9,1.3,1.2,2,0.5l2.5-2.6c0.6-0.6,0.3-1.7-0.5-1.9l-3.4-1
			C267.3,92.3,266.5,93.1,266.7,93.9z"/>
	</g>
	<g>
		<path fill="#926F7F" d="M298.3,90.7h8.6c0.8,0,1.3,0.7,1.1,1.5l-2.4,9.3c-0.1,0.5-0.6,0.9-1.1,0.9h-4c-0.5,0-1-0.4-1.1-0.9
			l-2.3-9.3C296.9,91.4,297.5,90.7,298.3,90.7z"/>
		<path fill="#926F7F" d="M298.4,103.1l-2.1-8.6c-0.1-0.5-0.6-0.9-1.1-0.9h-3.4c-0.8,0-1.3,0.7-1.1,1.5l2.1,8.6
			c0.1,0.5,0.6,0.9,1.1,0.9h3.4C298,104.5,298.5,103.8,298.4,103.1z"/>
		<path fill="#926F7F" d="M290.5,101.3l-0.9-3.5c-0.2-0.9-1.3-1.2-2-0.5l-2.5,2.6c-0.6,0.6-0.3,1.7,0.5,1.9l3.4,1
			C289.9,103,290.7,102.2,290.5,101.3z"/>
		<path fill="#926F7F" d="M306.9,103.1l2.1-8.6c0.1-0.5,0.6-0.9,1.1-0.9h3.4c0.8,0,1.3,0.7,1.1,1.5l-2.1,8.6
			c-0.1,0.5-0.6,0.9-1.1,0.9H308C307.3,104.5,306.7,103.8,306.9,103.1z"/>
		<path fill="#926F7F" d="M314.8,101.3l0.9-3.5c0.2-0.9,1.3-1.2,2-0.5l2.5,2.6c0.6,0.6,0.3,1.7-0.5,1.9l-3.4,1
			C315.3,103,314.5,102.2,314.8,101.3z"/>
	</g>
	<g>
		<path fill="#926F7F" d="M345.2,104.5h8.6c0.8,0,1.3-0.7,1.1-1.5l-2.4-9.3c-0.1-0.5-0.6-0.9-1.1-0.9h-4c-0.5,0-1,0.4-1.1,0.9
			l-2.3,9.3C343.9,103.8,344.4,104.5,345.2,104.5z"/>
		<path fill="#926F7F" d="M345.3,92.2l-2.1,8.6c-0.1,0.5-0.6,0.9-1.1,0.9h-3.4c-0.8,0-1.3-0.7-1.1-1.5l2.1-8.6
			c0.1-0.5,0.6-0.9,1.1-0.9h3.4C344.9,90.7,345.5,91.4,345.3,92.2z"/>
		<path fill="#926F7F" d="M337.4,93.9l-0.9,3.5c-0.2,0.9-1.3,1.2-2,0.5l-2.5-2.6c-0.6-0.6-0.3-1.7,0.5-1.9l3.4-1
			C336.8,92.3,337.6,93.1,337.4,93.9z"/>
		<path fill="#926F7F" d="M353.8,92.2l2.1,8.6c0.1,0.5,0.6,0.9,1.1,0.9h3.4c0.8,0,1.3-0.7,1.1-1.5l-2.1-8.6
			c-0.1-0.5-0.6-0.9-1.1-0.9h-3.4C354.2,90.7,353.6,91.4,353.8,92.2z"/>
		<path fill="#926F7F" d="M361.7,93.9l0.9,3.5c0.2,0.9,1.3,1.2,2,0.5l2.5-2.6c0.6-0.6,0.3-1.7-0.5-1.9l-3.4-1
			C362.3,92.3,361.5,93.1,361.7,93.9z"/>
	</g>
	<g>
		<path fill="#926F7F" d="M393.2,90.7h8.6c0.8,0,1.3,0.7,1.1,1.5l-2.4,9.3c-0.1,0.5-0.6,0.9-1.1,0.9h-4c-0.5,0-1-0.4-1.1-0.9
			l-2.3-9.3C391.9,91.4,392.4,90.7,393.2,90.7z"/>
		<path fill="#926F7F" d="M393.3,103.1l-2.1-8.6c-0.1-0.5-0.6-0.9-1.1-0.9h-3.4c-0.8,0-1.3,0.7-1.1,1.5l2.1,8.6
			c0.1,0.5,0.6,0.9,1.1,0.9h3.4C392.9,104.5,393.5,103.8,393.3,103.1z"/>
		<path fill="#926F7F" d="M385.4,101.3l-0.9-3.5c-0.2-0.9-1.3-1.2-2-0.5l-2.5,2.6c-0.6,0.6-0.3,1.7,0.5,1.9l3.4,1
			C384.8,103,385.6,102.2,385.4,101.3z"/>
		<path fill="#926F7F" d="M401.8,103.1l2.1-8.6c0.1-0.5,0.6-0.9,1.1-0.9h3.4c0.8,0,1.3,0.7,1.1,1.5l-2.1,8.6
			c-0.1,0.5-0.6,0.9-1.1,0.9H403C402.2,104.5,401.6,103.8,401.8,103.1z"/>
		<path fill="#926F7F" d="M409.7,101.3l0.9-3.5c0.2-0.9,1.3-1.2,2-0.5l2.5,2.6c0.6,0.6,0.3,1.7-0.5,1.9l-3.4,1
			C410.3,103,409.5,102.2,409.7,101.3z"/>
	</g>
	<g>
		<path fill="#926F7F" d="M440.1,104.5h8.6c0.8,0,1.3-0.7,1.1-1.5l-2.4-9.3c-0.1-0.5-0.6-0.9-1.1-0.9h-4c-0.5,0-1,0.4-1.1,0.9
			l-2.3,9.3C438.8,103.8,439.4,104.5,440.1,104.5z"/>
		<path fill="#926F7F" d="M440.2,92.2l-2.1,8.6c-0.1,0.5-0.6,0.9-1.1,0.9h-3.4c-0.8,0-1.3-0.7-1.1-1.5l2.1-8.6
			c0.1-0.5,0.6-0.9,1.1-0.9h3.4C439.8,90.7,440.4,91.4,440.2,92.2z"/>
		<path fill="#926F7F" d="M432.3,93.9l-0.9,3.5c-0.2,0.9-1.3,1.2-2,0.5l-2.5-2.6c-0.6-0.6-0.3-1.7,0.5-1.9l3.4-1
			C431.8,92.3,432.6,93.1,432.3,93.9z"/>
		<path fill="#926F7F" d="M448.7,92.2l2.1,8.6c0.1,0.5,0.6,0.9,1.1,0.9h3.4c0.8,0,1.3-0.7,1.1-1.5l-2.1-8.6
			c-0.1-0.5-0.6-0.9-1.1-0.9h-3.4C449.1,90.7,448.6,91.4,448.7,92.2z"/>
		<path fill="#926F7F" d="M456.6,93.9l0.9,3.5c0.2,0.9,1.3,1.2,2,0.5l2.5-2.6c0.6-0.6,0.3-1.7-0.5-1.9l-3.4-1
			C457.2,92.3,456.4,93.1,456.6,93.9z"/>
	</g>
</g>
</svg>