<!-- Generator: Adobe Illustrator 17.1.0, SVG Export Plug-In  -->
<svg version="1.1"
	 xmlns="http://www.w3.org/2000/svg" xmlns:xlink="http://www.w3.org/1999/xlink" xmlns:a="http://ns.adobe.com/AdobeSVGViewerExtensions/3.0/"
	 x="0px" y="0px" width="268.1px" height="55.5px" viewBox="0 0 268.1 55.5" enable-background="new 0 0 268.1 55.5"
	 xml:space="preserve">
<defs>
</defs>
<g>
	<path d="M84.7,21.5c-1,1.1-2.2,1.6-3.4,1.6c-0.8,0-1.5-0.2-2.1-0.5c-0.6-0.3-1.2-0.8-1.7-1.3c-0.5-0.5-0.8-1.2-1.1-1.8
		c-0.3-0.7-0.4-1.4-0.4-2.1c0-0.8,0.1-1.5,0.4-2.2c0.3-0.7,0.6-1.3,1.1-1.8c0.5-0.5,1-0.9,1.7-1.3c0.6-0.3,1.4-0.5,2.1-0.5
		c1.1,0,2,0.2,2.7,0.7c0.7,0.5,1.2,1.1,1.6,1.8l-1.1,0.8c-0.3-0.7-0.8-1.1-1.4-1.5c-0.6-0.3-1.2-0.5-1.9-0.5c-0.6,0-1.1,0.1-1.6,0.4
		c-0.5,0.2-0.9,0.6-1.2,1c-0.3,0.4-0.6,0.9-0.8,1.4c-0.2,0.5-0.3,1.1-0.3,1.7c0,0.6,0.1,1.2,0.3,1.7c0.2,0.5,0.5,1,0.8,1.4
		c0.4,0.4,0.8,0.7,1.2,1c0.5,0.2,1,0.4,1.6,0.4c1.2,0,2.3-0.6,3.3-1.8v-1.6h-2.4v-1.1h3.7v5.7h-1.2V21.5z"/>
	<path d="M94.7,11.7h1.2l4.6,11.3H99l-1.3-3.3h-4.8l-1.3,3.3h-1.5L94.7,11.7z M97.4,18.6l-2-5.2l-2.1,5.2H97.4z"/>
	<path d="M114,20.2c0,0.4-0.1,0.8-0.3,1.2s-0.4,0.7-0.7,0.9c-0.3,0.3-0.7,0.5-1.1,0.6s-0.8,0.2-1.3,0.2h-5.4V11.7h5.6
		c0.4,0,0.8,0.1,1.1,0.3c0.3,0.2,0.6,0.4,0.8,0.7c0.2,0.3,0.4,0.6,0.5,0.9c0.1,0.3,0.2,0.7,0.2,1c0,0.6-0.1,1.1-0.4,1.6
		c-0.3,0.5-0.7,0.8-1.2,1.1c0.6,0.2,1.2,0.5,1.5,1.1C113.8,18.8,114,19.5,114,20.2z M106.7,13v3.8h3.6c0.3,0,0.5-0.1,0.7-0.2
		c0.2-0.1,0.4-0.2,0.6-0.4c0.2-0.2,0.3-0.4,0.4-0.6c0.1-0.2,0.1-0.5,0.1-0.7c0-0.3,0-0.5-0.1-0.8c-0.1-0.2-0.2-0.4-0.3-0.6
		c-0.1-0.2-0.3-0.3-0.5-0.4c-0.2-0.1-0.4-0.1-0.7-0.1H106.7z M112.5,19.9c0-0.3,0-0.5-0.1-0.7c-0.1-0.2-0.2-0.4-0.4-0.6
		c-0.2-0.2-0.3-0.3-0.6-0.4s-0.4-0.2-0.7-0.2h-4.1v3.9h3.9c0.3,0,0.5-0.1,0.7-0.2s0.4-0.2,0.6-0.4c0.2-0.2,0.3-0.4,0.4-0.6
		C112.5,20.4,112.5,20.2,112.5,19.9z"/>
	<path d="M119.2,23.1V11.7h4.9c0.5,0,1,0.1,1.4,0.3c0.4,0.2,0.8,0.5,1.1,0.8c0.3,0.3,0.5,0.7,0.7,1.2c0.2,0.4,0.3,0.9,0.3,1.3
		c0,0.4-0.1,0.8-0.2,1.1c-0.1,0.4-0.3,0.7-0.5,1c-0.2,0.3-0.5,0.6-0.8,0.8c-0.3,0.2-0.6,0.4-1,0.5l2.7,4.3h-1.6l-2.6-4.1h-3v4.1
		H119.2z M120.6,17.7h3.4c0.3,0,0.6-0.1,0.8-0.2c0.2-0.1,0.4-0.3,0.6-0.5c0.2-0.2,0.3-0.5,0.4-0.8c0.1-0.3,0.1-0.6,0.1-0.9
		c0-0.3-0.1-0.6-0.2-0.9c-0.1-0.3-0.3-0.5-0.4-0.8c-0.2-0.2-0.4-0.4-0.7-0.5c-0.2-0.1-0.5-0.2-0.8-0.2h-3.3V17.7z"/>
	<path d="M132.9,23.1V11.7h1.4v11.3H132.9z"/>
	<path d="M147.9,21.8v1.3h-7.7V11.7h7.6V13h-6.1v3.7h5.3v1.2h-5.3v3.9H147.9z"/>
	<path d="M153,23.1V11.7h1.4v10.1h6.3v1.3H153z"/>
	<path d="M171.6,20c0,0,0.1,0.1,0.2,0.1c0.1,0.1,0.2,0.1,0.4,0.2c0.2,0.1,0.3,0.1,0.6,0.1c0.2,0,0.4,0.1,0.6,0.1
		c0.3,0,0.6-0.1,0.8-0.2s0.4-0.3,0.5-0.5c0.1-0.2,0.2-0.5,0.2-0.9c0-0.4,0-0.8,0-1.4v-5.8h3.1v5.8c0,0.9,0,1.6-0.1,2.4
		c-0.1,0.7-0.3,1.3-0.6,1.8s-0.8,0.9-1.4,1.2s-1.4,0.4-2.5,0.4c-1,0-1.8-0.2-2.5-0.7L171.6,20z"/>
	<path d="M188,20.4c0.4,0,0.7-0.1,0.9-0.2c0.3-0.2,0.5-0.4,0.6-0.6c0.2-0.3,0.3-0.6,0.4-0.9c0.1-0.3,0.1-0.7,0.1-1.1v-5.8h3.1v5.8
		c0,0.8-0.1,1.5-0.3,2.2s-0.5,1.3-0.9,1.8c-0.4,0.5-1,0.9-1.6,1.2c-0.6,0.3-1.4,0.4-2.3,0.4c-0.9,0-1.7-0.2-2.3-0.5
		c-0.6-0.3-1.2-0.7-1.6-1.2s-0.7-1.1-0.9-1.8c-0.2-0.7-0.3-1.4-0.3-2.1v-5.8h3.1v5.8c0,0.4,0,0.7,0.1,1.1c0.1,0.3,0.2,0.6,0.4,0.9
		c0.2,0.3,0.4,0.5,0.6,0.6C187.4,20.3,187.7,20.4,188,20.4z"/>
	<path d="M200.6,11.7h2.8l3.9,11.3h-3.2l-0.7-2.2h-3l-0.7,2.2h-3.2L200.6,11.7z M203.1,18.8l-1-3.5l-1.1,3.5H203.1z M203,11.3
		l-1.9-0.5l0.8-2.3h2.7L203,11.3z"/>
	<path d="M211.5,23.1V11.7h5.2c0.6,0,1.1,0.1,1.5,0.3s0.9,0.5,1.2,0.9c0.3,0.4,0.6,0.8,0.8,1.3c0.2,0.5,0.3,0.9,0.3,1.4
		c0,0.7-0.1,1.3-0.4,1.8s-0.7,1-1.2,1.4l2.4,4.2h-3.5l-2-3.5h-1.2v3.5H211.5z M214.6,16.9h2c0.2,0,0.4-0.1,0.5-0.3s0.2-0.5,0.2-0.9
		c0-0.4-0.1-0.7-0.3-0.9c-0.2-0.2-0.4-0.3-0.6-0.3h-1.9V16.9z"/>
	<path d="M233.6,20.4v2.7h-8.1V11.7h7.9v2.7h-4.8v1.6h4.1v2.5h-4.1v1.8H233.6z"/>
	<path d="M237.7,20.8l5.3-6.3h-5.1v-2.7h8.7v2.3l-5,6.3h5.1v2.7h-9V20.8z"/>
</g>
<g>
	<path d="M81.7,45.5V44c-0.1,0.3-0.3,0.5-0.5,0.7s-0.4,0.3-0.6,0.5c-0.2,0.1-0.5,0.2-0.7,0.3c-0.3,0.1-0.5,0.1-0.8,0.1
		c-0.5,0-0.9-0.1-1.3-0.2s-0.8-0.4-1.1-0.8c-0.3-0.4-0.6-0.8-0.8-1.2c-0.2-0.5-0.3-1-0.3-1.5c0-0.5,0.1-1,0.3-1.5
		c0.2-0.5,0.4-0.9,0.7-1.2c0.3-0.3,0.7-0.6,1.1-0.8c0.4-0.2,0.9-0.3,1.4-0.3c0.5,0,0.9,0.1,1.2,0.2c0.3,0.1,0.6,0.3,0.9,0.5
		c0.2,0.2,0.4,0.4,0.6,0.5h0.5V40h-1c-0.2-0.4-0.5-0.7-0.9-0.9c-0.4-0.2-0.8-0.3-1.2-0.3c-0.4,0-0.7,0.1-1,0.2
		c-0.3,0.2-0.6,0.4-0.8,0.6c-0.2,0.3-0.4,0.6-0.5,0.9s-0.2,0.7-0.2,1.1c0,0.4,0.1,0.8,0.2,1.2s0.3,0.7,0.5,0.9
		c0.2,0.2,0.5,0.4,0.8,0.6c0.3,0.2,0.7,0.2,1,0.2c0.6,0,1.1-0.2,1.5-0.5s0.7-0.8,0.8-1.4h-2.1V42h3.1v3.6H81.7z"/>
	<path d="M88.8,38.1h3.1c0.3,0,0.6,0,0.9,0.1c0.3,0.1,0.5,0.2,0.7,0.4c0.2,0.2,0.4,0.4,0.5,0.6c0.1,0.3,0.2,0.5,0.2,0.9
		c0,0.2,0,0.4-0.1,0.5c-0.1,0.2-0.2,0.3-0.3,0.5c-0.1,0.2-0.3,0.3-0.4,0.4c-0.2,0.1-0.3,0.2-0.5,0.3c0.1,0,0.2,0.1,0.2,0.2
		c0.1,0.1,0.2,0.1,0.2,0.2c0.1,0.1,0.1,0.2,0.2,0.3c0.1,0.1,0.1,0.3,0.1,0.4l0.4,1.6h0.6l0,0.9h-1.4l-0.6-2.3
		c-0.1-0.4-0.3-0.7-0.5-0.9C92,42.1,91.8,42,91.4,42h-1v2.6h0.7v0.8h-2.4v-0.8h0.7v-5.7h-0.7V38.1z M90.4,38.9v2.3h1.4
		c0.2,0,0.4,0,0.5-0.1c0.2,0,0.3-0.1,0.4-0.2c0.1-0.1,0.2-0.2,0.3-0.4c0.1-0.1,0.1-0.3,0.1-0.5c0-0.4-0.1-0.7-0.3-0.9
		s-0.6-0.3-1.1-0.3H90.4z"/>
	<path d="M104.8,44.6h0.6l-0.6-1.7H102l-0.6,1.7h0.8v0.8h-2.4v-0.8h0.6l2.3-6.6h1.4l2.3,6.6h0.7v0.8h-2.4V44.6z M102.3,42.1h2.3
		l-1.2-3.3L102.3,42.1z"/>
	<path d="M112.5,38.1h3c0.3,0,0.6,0,0.9,0.1c0.3,0.1,0.5,0.2,0.7,0.4c0.2,0.2,0.4,0.4,0.5,0.6c0.1,0.3,0.2,0.5,0.2,0.9
		c0,0.3-0.1,0.5-0.2,0.8s-0.3,0.4-0.5,0.6c-0.2,0.2-0.4,0.3-0.7,0.4c-0.3,0.1-0.6,0.2-0.9,0.2h-1.3v2.6h0.7v0.8h-2.4v-0.8h0.7v-5.7
		h-0.7V38.1z M114.2,38.9v2.3h1.3c0.2,0,0.4,0,0.5-0.1c0.2-0.1,0.3-0.1,0.4-0.2c0.1-0.1,0.2-0.2,0.3-0.4c0.1-0.1,0.1-0.3,0.1-0.5
		c0-0.4-0.1-0.6-0.3-0.9s-0.6-0.3-1.1-0.3H114.2z"/>
	<path d="M128.5,38.1h2.4v0.8h-0.7v5.7h0.7v0.8h-2.4v-0.8h0.7V42h-4.3v2.7h0.7v0.8h-2.4v-0.8h0.7v-5.7h-0.7v-0.8h2.4v0.8h-0.7v2.2
		h4.3v-2.2h-0.7V38.1z"/>
	<path d="M136.8,38.1h2.4v0.8h-0.7v5.7h0.7v0.8h-2.4v-0.8h0.7v-5.7h-0.7V38.1z"/>
	<path d="M150.4,40c-0.2-0.4-0.5-0.7-0.9-0.9c-0.4-0.2-0.8-0.3-1.2-0.3c-0.4,0-0.7,0.1-1,0.2c-0.3,0.2-0.6,0.4-0.8,0.6
		c-0.2,0.3-0.4,0.6-0.5,0.9s-0.2,0.7-0.2,1.1c0,0.5,0.1,0.9,0.2,1.2s0.3,0.7,0.5,0.9c0.2,0.2,0.5,0.4,0.8,0.6s0.6,0.2,1,0.2
		c0.5,0,1-0.1,1.3-0.4s0.7-0.7,1-1.2l0.9,0.4c-0.1,0.4-0.3,0.7-0.6,1s-0.7,0.6-1.1,0.8c-0.4,0.2-0.9,0.3-1.4,0.3
		c-0.5,0-1-0.1-1.4-0.3s-0.8-0.5-1.1-0.8c-0.3-0.4-0.6-0.8-0.8-1.2c-0.2-0.5-0.3-1-0.3-1.5c0-0.5,0.1-1,0.3-1.5
		c0.2-0.5,0.4-0.9,0.7-1.2c0.3-0.3,0.7-0.6,1.1-0.8c0.4-0.2,0.9-0.3,1.4-0.3c0.5,0,0.8,0.1,1.2,0.2s0.6,0.3,0.8,0.5
		c0.2,0.2,0.4,0.4,0.6,0.6h0.5V40H150.4z"/>
	<path d="M163.7,38.1h2.8c0.3,0,0.7,0,1,0.1s0.6,0.2,0.9,0.4c0.3,0.2,0.5,0.4,0.7,0.6s0.4,0.5,0.5,0.7c0.2,0.3,0.3,0.6,0.3,0.9
		s0.1,0.6,0.1,1c0,0.3,0,0.7-0.1,1c-0.1,0.3-0.2,0.6-0.3,0.9c-0.2,0.3-0.3,0.5-0.5,0.8s-0.5,0.4-0.7,0.6s-0.5,0.3-0.9,0.4
		s-0.6,0.1-1,0.1h-2.8v-0.8h0.7v-5.7h-0.7V38.1z M165.4,38.9v5.7h1.2c0.3,0,0.7-0.1,1-0.2c0.3-0.2,0.6-0.4,0.8-0.6s0.4-0.6,0.5-0.9
		s0.2-0.7,0.2-1.1c0-0.4-0.1-0.8-0.2-1.1c-0.1-0.3-0.3-0.6-0.5-0.9s-0.5-0.5-0.8-0.6c-0.3-0.1-0.6-0.2-1-0.2H165.4z"/>
	<path d="M175.6,38.1h5.3v2.1h-1v-1.2h-2.6v2.4h2.2v0.8h-2.2v2.5h2.6v-1.2h1v2.1h-5.3v-0.8h0.7v-5.7h-0.7V38.1z"/>
	<path d="M190.1,39.4c-0.1-0.1-0.2-0.3-0.3-0.3c-0.1-0.1-0.3-0.1-0.4-0.2s-0.3-0.1-0.4-0.1c-0.2,0-0.5,0-0.6,0.1s-0.3,0.1-0.5,0.2
		c-0.1,0.1-0.2,0.2-0.3,0.3c-0.1,0.1-0.1,0.3-0.1,0.4c0,0.2,0,0.4,0.1,0.5c0.1,0.1,0.2,0.2,0.3,0.3s0.2,0.1,0.4,0.2
		c0.1,0,0.3,0.1,0.4,0.1l1,0.3c0.3,0.1,0.6,0.2,0.8,0.3c0.2,0.1,0.4,0.3,0.6,0.4s0.3,0.4,0.3,0.6c0.1,0.2,0.1,0.5,0.1,0.7
		c0,0.3-0.1,0.6-0.2,0.8c-0.1,0.3-0.3,0.5-0.5,0.7c-0.2,0.2-0.5,0.3-0.8,0.5c-0.3,0.1-0.7,0.2-1,0.2c-0.4,0-0.7,0-1-0.1
		s-0.5-0.2-0.7-0.3c-0.2-0.1-0.3-0.3-0.4-0.5s-0.2-0.4-0.3-0.6h-0.4v-0.8h1.2c0,0.4,0,0.6,0.1,0.8c0.1,0.1,0.2,0.3,0.3,0.4
		s0.3,0.2,0.5,0.2s0.4,0.1,0.6,0.1c0.2,0,0.4,0,0.6-0.1c0.2-0.1,0.3-0.1,0.5-0.2c0.1-0.1,0.2-0.2,0.3-0.4c0.1-0.1,0.1-0.3,0.1-0.5
		c0-0.2,0-0.4-0.1-0.5c-0.1-0.1-0.2-0.3-0.3-0.4s-0.3-0.2-0.4-0.2c-0.2-0.1-0.3-0.1-0.4-0.2L188,42c-0.2-0.1-0.4-0.2-0.6-0.3
		c-0.2-0.1-0.4-0.2-0.5-0.4c-0.1-0.2-0.2-0.3-0.3-0.6s-0.1-0.5-0.1-0.7c0-0.3,0.1-0.5,0.2-0.8c0.1-0.2,0.3-0.5,0.5-0.6
		s0.5-0.3,0.8-0.4c0.3-0.1,0.7-0.2,1.1-0.2c0.3,0,0.5,0,0.7,0.1c0.2,0.1,0.4,0.1,0.6,0.3c0.2,0.1,0.3,0.2,0.5,0.4
		c0.1,0.2,0.3,0.3,0.3,0.5h0.4v0.8h-1.2C190.2,39.8,190.2,39.6,190.1,39.4z"/>
	<path d="M196.9,38.1h2.4v0.8h-0.7v5.7h0.7v0.8h-2.4v-0.8h0.7v-5.7h-0.7V38.1z"/>
	<path d="M210.9,45.5V44c-0.1,0.3-0.3,0.5-0.5,0.7s-0.4,0.3-0.6,0.5c-0.2,0.1-0.5,0.2-0.7,0.3c-0.3,0.1-0.5,0.1-0.8,0.1
		c-0.5,0-0.9-0.1-1.3-0.2s-0.8-0.4-1.1-0.8c-0.3-0.4-0.6-0.8-0.8-1.2c-0.2-0.5-0.3-1-0.3-1.5c0-0.5,0.1-1,0.3-1.5
		c0.2-0.5,0.4-0.9,0.7-1.2c0.3-0.3,0.7-0.6,1.1-0.8c0.4-0.2,0.9-0.3,1.4-0.3c0.5,0,0.9,0.1,1.2,0.2c0.3,0.1,0.6,0.3,0.9,0.5
		c0.2,0.2,0.4,0.4,0.6,0.5h0.5V40h-1c-0.2-0.4-0.5-0.7-0.9-0.9c-0.4-0.2-0.8-0.3-1.2-0.3c-0.4,0-0.7,0.1-1,0.2
		c-0.3,0.2-0.6,0.4-0.8,0.6c-0.2,0.3-0.4,0.6-0.5,0.9s-0.2,0.7-0.2,1.1c0,0.4,0.1,0.8,0.2,1.2s0.3,0.7,0.5,0.9
		c0.2,0.2,0.5,0.4,0.8,0.6c0.3,0.2,0.7,0.2,1,0.2c0.6,0,1.1-0.2,1.5-0.5s0.7-0.8,0.8-1.4h-2.1V42h3.1v3.6H210.9z"/>
	<path d="M222.5,38.1h2.4v0.8h-0.6v6.6h-1.2l-3.4-6.1v5.3h0.8v0.8H218v-0.8h0.7v-5.7H218v-0.9h2l3.4,6.1l0-0.2v-5h-0.8V38.1z"/>
	<path d="M230.4,38.1h5.3v2.1h-1v-1.2h-2.6v2.4h2.2v0.8h-2.2v2.5h2.6v-1.2h1v2.1h-5.3v-0.8h0.7v-5.7h-0.7V38.1z"/>
	<path d="M241.2,38.1h3.1c0.3,0,0.6,0,0.9,0.1c0.3,0.1,0.5,0.2,0.7,0.4c0.2,0.2,0.4,0.4,0.5,0.6c0.1,0.3,0.2,0.5,0.2,0.9
		c0,0.2,0,0.4-0.1,0.5c-0.1,0.2-0.2,0.3-0.3,0.5c-0.1,0.2-0.3,0.3-0.4,0.4c-0.2,0.1-0.3,0.2-0.5,0.3c0.1,0,0.2,0.1,0.2,0.2
		c0.1,0.1,0.2,0.1,0.2,0.2c0.1,0.1,0.1,0.2,0.2,0.3c0.1,0.1,0.1,0.3,0.1,0.4l0.4,1.6h0.6l0,0.9h-1.4l-0.6-2.3
		c-0.1-0.4-0.3-0.7-0.5-0.9c-0.2-0.2-0.5-0.3-0.8-0.3h-1v2.6h0.7v0.8h-2.4v-0.8h0.7v-5.7h-0.7V38.1z M242.9,38.9v2.3h1.4
		c0.2,0,0.4,0,0.5-0.1c0.2,0,0.3-0.1,0.4-0.2c0.1-0.1,0.2-0.2,0.3-0.4c0.1-0.1,0.1-0.3,0.1-0.5c0-0.4-0.1-0.7-0.3-0.9
		s-0.6-0.3-1.1-0.3H242.9z"/>
</g>
<g>
	<path d="M25.2,27.7c0-6.9,3.9-12.9,9.7-15.8c0.6-0.3,0.5-1.1-0.1-1.3C33,10.1,31,9.9,29.1,10c-8.8,0.5-16,7.6-16.6,16.4
		c-0.8,10.4,7.4,19.1,17.7,19.1c1.6,0,3.2-0.2,4.7-0.6c0.6-0.2,0.7-1,0.1-1.3C29.1,40.6,25.2,34.6,25.2,27.7z"/>
	<path d="M31.1,33c0,0.4,0.3,0.7,0.7,0.7h0.8c0,0,5.6-0.1,5.6,4.8v3.8c0,0.5,0.6,0.9,1.1,0.6c2.2-1.2,7.2-4.7,8.4-12.6
		c0.1-0.4-0.3-0.8-0.7-0.8H31.8c-0.4,0-0.7,0.3-0.7,0.7V33z"/>
	<path d="M36.4,17.7c-4.1,3.1-2.2,9.6,2.9,9.9c0.1,0,0.3,0,0.4,0c0.1,0,0.3,0,0.4,0c4.9-0.3,7.4-6,4.6-10c-1-1.4-2.5-3.1-4.8-4.6
		c-0.5-0.4-1.2,0.2-1.1,0.8c0.3,1,0.2,2.2-1.1,3C37.3,17.1,36.8,17.4,36.4,17.7z"/>
</g>
<g>
	<path d="M268.1,33.8H58.8V0h209.2V33.8z M60.8,31.8h205.2V2H60.8V31.8z"/>
</g>
<g>
	<path d="M268.1,55.5H58.8V31.8h209.2V55.5z M60.8,53.5h205.2V33.8H60.8V53.5z"/>
</g>
<g>
	<path d="M60.5,55.5H0V0h60.5V55.5z M2,53.5h56.5V2H2V53.5z"/>
</g>
</svg>