<!-- Generator: Adobe Illustrator 17.1.0, SVG Export Plug-In  -->
<svg version="1.1"
	 xmlns="http://www.w3.org/2000/svg" xmlns:xlink="http://www.w3.org/1999/xlink" xmlns:a="http://ns.adobe.com/AdobeSVGViewerExtensions/3.0/"
	 x="0px" y="0px" width="250px" height="334px" viewBox="0 0 250 334" enable-background="new 0 0 250 334" xml:space="preserve">
<defs>
</defs>
<linearGradient id="SVGID_1_" gradientUnits="userSpaceOnUse" x1="0" y1="167" x2="250" y2="167">
	<stop  offset="0" style="stop-color:#C73B54"/>
	<stop  offset="1" style="stop-color:#043A54"/>
</linearGradient>
<rect fill="url(#SVGID_1_)" width="250" height="334"/>
<g>
	<path fill="#FFFFFF" d="M90.7,162.2c-1,0-2-0.2-2.8-0.6s-1.6-0.9-2.2-1.6c-0.6-0.7-1.1-1.4-1.4-2.3c-0.3-0.9-0.5-1.8-0.5-2.7
		c0-0.9,0.2-1.9,0.5-2.7c0.4-0.9,0.8-1.6,1.5-2.3c0.6-0.7,1.4-1.2,2.2-1.6c0.9-0.4,1.8-0.6,2.8-0.6c1,0,2,0.2,2.8,0.6s1.6,1,2.2,1.6
		s1.1,1.5,1.4,2.3c0.3,0.9,0.5,1.7,0.5,2.6c0,0.9-0.2,1.9-0.5,2.7s-0.8,1.6-1.4,2.3c-0.6,0.7-1.3,1.2-2.2,1.6
		C92.6,162,91.7,162.2,90.7,162.2z M86.6,155c0,0.6,0.1,1.2,0.3,1.8c0.2,0.6,0.5,1.1,0.8,1.5c0.4,0.4,0.8,0.8,1.3,1.1
		c0.5,0.3,1.1,0.4,1.8,0.4c0.7,0,1.3-0.1,1.8-0.4c0.5-0.3,0.9-0.6,1.3-1.1s0.6-1,0.8-1.5c0.2-0.6,0.3-1.1,0.3-1.7
		c0-0.6-0.1-1.2-0.3-1.8s-0.5-1.1-0.8-1.5s-0.8-0.8-1.3-1.1c-0.5-0.3-1.1-0.4-1.7-0.4c-0.7,0-1.3,0.1-1.8,0.4
		c-0.5,0.3-1,0.6-1.3,1.1c-0.3,0.4-0.6,1-0.8,1.5C86.7,153.8,86.6,154.4,86.6,155z"/>
	<path fill="#FFFFFF" d="M113.7,150.3h-4.5v11.8h-2.7v-11.8h-4.5v-2.4h11.8V150.3z"/>
	<path fill="#FFFFFF" d="M119.5,162.1v-14.2h6.3c0.7,0,1.3,0.1,1.8,0.4c0.6,0.3,1,0.6,1.4,1.1s0.7,1,0.9,1.5
		c0.2,0.6,0.3,1.1,0.3,1.7c0,0.9-0.2,1.8-0.7,2.5c-0.5,0.8-1.1,1.3-1.9,1.6l3.2,5.3h-3.1l-2.9-4.8h-2.7v4.8H119.5z M122.2,154.9h3.5
		c0.3,0,0.5-0.1,0.7-0.2c0.2-0.1,0.4-0.3,0.6-0.5c0.2-0.2,0.3-0.4,0.4-0.7c0.1-0.3,0.1-0.6,0.1-0.9c0-0.3-0.1-0.6-0.2-0.9
		c-0.1-0.3-0.2-0.5-0.4-0.7s-0.4-0.4-0.6-0.5s-0.5-0.2-0.7-0.2h-3.3V154.9z"/>
	<path fill="#FFFFFF" d="M142.8,162.2c-1,0-2-0.2-2.8-0.6s-1.6-0.9-2.2-1.6c-0.6-0.7-1.1-1.4-1.4-2.3c-0.3-0.9-0.5-1.8-0.5-2.7
		c0-0.9,0.2-1.9,0.5-2.7c0.4-0.9,0.8-1.6,1.5-2.3c0.6-0.7,1.4-1.2,2.2-1.6c0.9-0.4,1.8-0.6,2.8-0.6c1,0,2,0.2,2.8,0.6s1.6,1,2.2,1.6
		s1.1,1.5,1.4,2.3c0.3,0.9,0.5,1.7,0.5,2.6c0,0.9-0.2,1.9-0.5,2.7s-0.8,1.6-1.4,2.3c-0.6,0.7-1.3,1.2-2.2,1.6
		C144.8,162,143.8,162.2,142.8,162.2z M138.7,155c0,0.6,0.1,1.2,0.3,1.8c0.2,0.6,0.5,1.1,0.8,1.5c0.4,0.4,0.8,0.8,1.3,1.1
		c0.5,0.3,1.1,0.4,1.8,0.4c0.7,0,1.3-0.1,1.8-0.4c0.5-0.3,0.9-0.6,1.3-1.1s0.6-1,0.8-1.5c0.2-0.6,0.3-1.1,0.3-1.7
		c0-0.6-0.1-1.2-0.3-1.8s-0.5-1.1-0.8-1.5s-0.8-0.8-1.3-1.1c-0.5-0.3-1.1-0.4-1.7-0.4c-0.7,0-1.3,0.1-1.8,0.4
		c-0.5,0.3-1,0.6-1.3,1.1c-0.3,0.4-0.6,1-0.8,1.5C138.8,153.8,138.7,154.4,138.7,155z"/>
	<path fill="#FFFFFF" d="M164.4,151.6c-0.1-0.1-0.3-0.2-0.5-0.4c-0.2-0.2-0.5-0.3-0.9-0.5c-0.4-0.2-0.7-0.3-1.2-0.4
		c-0.4-0.1-0.8-0.2-1.3-0.2c-0.8,0-1.3,0.1-1.7,0.4c-0.4,0.3-0.6,0.7-0.6,1.2c0,0.3,0.1,0.5,0.2,0.7c0.1,0.2,0.3,0.4,0.6,0.5
		c0.3,0.1,0.6,0.3,1,0.4c0.4,0.1,0.9,0.2,1.4,0.4c0.7,0.2,1.3,0.4,1.9,0.6c0.6,0.2,1,0.5,1.4,0.8c0.4,0.3,0.7,0.7,0.9,1.1
		s0.3,1,0.3,1.6c0,0.8-0.1,1.4-0.4,2c-0.3,0.5-0.7,1-1.2,1.3c-0.5,0.3-1,0.6-1.7,0.7c-0.6,0.2-1.3,0.2-2,0.2c-1.1,0-2.1-0.2-3.2-0.5
		c-1-0.3-2-0.8-2.8-1.4l1.2-2.4c0.1,0.1,0.3,0.3,0.6,0.5s0.7,0.4,1.1,0.6s0.9,0.4,1.4,0.5c0.5,0.1,1.1,0.2,1.6,0.2
		c1.5,0,2.3-0.5,2.3-1.5c0-0.3-0.1-0.6-0.3-0.8c-0.2-0.2-0.4-0.4-0.7-0.6c-0.3-0.2-0.7-0.3-1.2-0.4s-1-0.3-1.5-0.4
		c-0.7-0.2-1.3-0.4-1.8-0.6c-0.5-0.2-0.9-0.5-1.2-0.8c-0.3-0.3-0.6-0.6-0.8-1c-0.2-0.4-0.2-0.9-0.2-1.4c0-0.7,0.1-1.4,0.4-1.9
		c0.3-0.6,0.6-1,1.1-1.4c0.5-0.4,1-0.7,1.6-0.8s1.3-0.3,2-0.3c1,0,1.9,0.2,2.8,0.5c0.8,0.3,1.6,0.7,2.2,1.1L164.4,151.6z"/>
	<path fill="#FFFFFF" d="M84.5,186.1v-14.2h2.8v11.8h7.2v2.4H84.5z"/>
	<path fill="#FFFFFF" d="M105.4,186.2c-1,0-2-0.2-2.8-0.6s-1.6-0.9-2.2-1.6c-0.6-0.7-1.1-1.4-1.4-2.3c-0.3-0.9-0.5-1.8-0.5-2.7
		c0-0.9,0.2-1.9,0.5-2.7c0.4-0.9,0.8-1.6,1.5-2.3c0.6-0.7,1.4-1.2,2.2-1.6c0.9-0.4,1.8-0.6,2.8-0.6c1,0,2,0.2,2.8,0.6s1.6,1,2.2,1.6
		s1.1,1.5,1.4,2.3c0.3,0.9,0.5,1.7,0.5,2.6c0,0.9-0.2,1.9-0.5,2.7s-0.8,1.6-1.4,2.3c-0.6,0.7-1.3,1.2-2.2,1.6
		C107.3,186,106.4,186.2,105.4,186.2z M101.2,179c0,0.6,0.1,1.2,0.3,1.8c0.2,0.6,0.5,1.1,0.8,1.5c0.4,0.4,0.8,0.8,1.3,1.1
		c0.5,0.3,1.1,0.4,1.8,0.4c0.7,0,1.3-0.1,1.8-0.4c0.5-0.3,0.9-0.6,1.3-1.1s0.6-1,0.8-1.5c0.2-0.6,0.3-1.1,0.3-1.7
		c0-0.6-0.1-1.2-0.3-1.8s-0.5-1.1-0.8-1.5s-0.8-0.8-1.3-1.1c-0.5-0.3-1.1-0.4-1.7-0.4c-0.7,0-1.3,0.1-1.8,0.4
		c-0.5,0.3-1,0.6-1.3,1.1c-0.3,0.4-0.6,1-0.8,1.5C101.3,177.8,101.2,178.4,101.2,179z"/>
	<path fill="#FFFFFF" d="M128.3,184.5c-1.1,1.1-2.5,1.7-4,1.7c-0.9,0-1.8-0.2-2.6-0.6c-0.8-0.4-1.5-0.9-2.1-1.5
		c-0.6-0.7-1.1-1.4-1.4-2.3s-0.5-1.8-0.5-2.9c0-1,0.2-1.9,0.5-2.8c0.4-0.9,0.8-1.6,1.5-2.3c0.6-0.6,1.4-1.2,2.2-1.5s1.8-0.6,2.7-0.6
		c1.3,0,2.5,0.3,3.4,0.8c1,0.6,1.7,1.3,2.1,2.3l-2.1,1.5c-0.4-0.7-0.9-1.2-1.5-1.6c-0.6-0.4-1.4-0.6-2.1-0.6c-0.6,0-1.2,0.1-1.7,0.4
		c-0.5,0.3-0.9,0.6-1.3,1c-0.4,0.4-0.6,0.9-0.8,1.5s-0.3,1.2-0.3,1.8c0,0.7,0.1,1.3,0.3,1.9c0.2,0.6,0.5,1.1,0.9,1.5
		c0.4,0.4,0.8,0.8,1.3,1c0.5,0.2,1.1,0.4,1.7,0.4c1.4,0,2.6-0.6,3.7-1.9v-1h-2.9v-2h5.1v7.3h-2.3V184.5z"/>
	<path fill="#FFFFFF" d="M143,186.2c-1,0-2-0.2-2.8-0.6s-1.6-0.9-2.2-1.6c-0.6-0.7-1.1-1.4-1.4-2.3c-0.3-0.9-0.5-1.8-0.5-2.7
		c0-0.9,0.2-1.9,0.5-2.7c0.4-0.9,0.8-1.6,1.5-2.3c0.6-0.7,1.4-1.2,2.2-1.6c0.9-0.4,1.8-0.6,2.8-0.6c1,0,2,0.2,2.8,0.6s1.6,1,2.2,1.6
		s1.1,1.5,1.4,2.3c0.3,0.9,0.5,1.7,0.5,2.6c0,0.9-0.2,1.9-0.5,2.7s-0.8,1.6-1.4,2.3c-0.6,0.7-1.3,1.2-2.2,1.6
		C144.9,186,144,186.2,143,186.2z M138.9,179c0,0.6,0.1,1.2,0.3,1.8c0.2,0.6,0.5,1.1,0.8,1.5c0.4,0.4,0.8,0.8,1.3,1.1
		c0.5,0.3,1.1,0.4,1.8,0.4c0.7,0,1.3-0.1,1.8-0.4c0.5-0.3,0.9-0.6,1.3-1.1s0.6-1,0.8-1.5c0.2-0.6,0.3-1.1,0.3-1.7
		c0-0.6-0.1-1.2-0.3-1.8s-0.5-1.1-0.8-1.5s-0.8-0.8-1.3-1.1c-0.5-0.3-1.1-0.4-1.7-0.4c-0.7,0-1.3,0.1-1.8,0.4
		c-0.5,0.3-1,0.6-1.3,1.1c-0.3,0.4-0.6,1-0.8,1.5C138.9,177.8,138.9,178.4,138.9,179z"/>
	<path fill="#FFFFFF" d="M164.5,175.6c-0.1-0.1-0.3-0.2-0.5-0.4c-0.2-0.2-0.5-0.3-0.9-0.5c-0.4-0.2-0.7-0.3-1.2-0.4
		c-0.4-0.1-0.8-0.2-1.3-0.2c-0.8,0-1.3,0.1-1.7,0.4c-0.4,0.3-0.6,0.7-0.6,1.2c0,0.3,0.1,0.5,0.2,0.7c0.1,0.2,0.3,0.4,0.6,0.5
		c0.3,0.1,0.6,0.3,1,0.4c0.4,0.1,0.9,0.2,1.4,0.4c0.7,0.2,1.3,0.4,1.9,0.6c0.6,0.2,1,0.5,1.4,0.8c0.4,0.3,0.7,0.7,0.9,1.1
		s0.3,1,0.3,1.6c0,0.8-0.1,1.4-0.4,2c-0.3,0.5-0.7,1-1.2,1.3c-0.5,0.3-1,0.6-1.7,0.7c-0.6,0.2-1.3,0.2-2,0.2c-1.1,0-2.1-0.2-3.2-0.5
		c-1-0.3-2-0.8-2.8-1.4l1.2-2.4c0.1,0.1,0.3,0.3,0.6,0.5s0.7,0.4,1.1,0.6s0.9,0.4,1.4,0.5c0.5,0.1,1.1,0.2,1.6,0.2
		c1.5,0,2.3-0.5,2.3-1.5c0-0.3-0.1-0.6-0.3-0.8c-0.2-0.2-0.4-0.4-0.7-0.6c-0.3-0.2-0.7-0.3-1.2-0.4s-1-0.3-1.5-0.4
		c-0.7-0.2-1.3-0.4-1.8-0.6c-0.5-0.2-0.9-0.5-1.2-0.8c-0.3-0.3-0.6-0.6-0.8-1c-0.2-0.4-0.2-0.9-0.2-1.4c0-0.7,0.1-1.4,0.4-1.9
		c0.3-0.6,0.6-1,1.1-1.4c0.5-0.4,1-0.7,1.6-0.8s1.3-0.3,2-0.3c1,0,1.9,0.2,2.8,0.5c0.8,0.3,1.6,0.7,2.2,1.1L164.5,175.6z"/>
</g>
</svg>