<!-- Generator: Adobe Illustrator 17.1.0, SVG Export Plug-In  -->
<svg version="1.1"
	 xmlns="http://www.w3.org/2000/svg" xmlns:xlink="http://www.w3.org/1999/xlink" xmlns:a="http://ns.adobe.com/AdobeSVGViewerExtensions/3.0/"
	 x="0px" y="0px" width="212.2px" height="49.7px" viewBox="0 0 212.2 49.7" enable-background="new 0 0 212.2 49.7"
	 xml:space="preserve">
<defs>
</defs>
<g>
	<path d="M95.6,19.5c-1.4,1.4-3,2-4.8,2c-1.1,0-2.2-0.2-3.2-0.7c-1-0.4-1.8-1.1-2.6-1.9c-0.7-0.8-1.3-1.7-1.7-2.8
		c-0.4-1.1-0.6-2.2-0.6-3.5c0-1.2,0.2-2.3,0.6-3.3s1-1.9,1.8-2.7c0.7-0.8,1.6-1.4,2.6-1.9s2.1-0.7,3.3-0.7c1.6,0,3,0.3,4.1,1
		s2,1.6,2.6,2.7l-2.5,1.8c-0.4-0.9-1-1.5-1.8-2c-0.8-0.5-1.6-0.7-2.5-0.7c-0.7,0-1.4,0.2-2,0.5c-0.6,0.3-1.1,0.7-1.5,1.3
		c-0.4,0.5-0.8,1.1-1,1.8s-0.3,1.4-0.3,2.2c0,0.8,0.1,1.6,0.4,2.3c0.3,0.7,0.6,1.3,1.1,1.8c0.4,0.5,1,0.9,1.6,1.2
		c0.6,0.3,1.3,0.4,2,0.4c1.7,0,3.2-0.8,4.5-2.3V15h-3.4v-2.4h6.2v8.8h-2.7V19.5z"/>
	<path d="M110.9,4.3h2.9l6.5,17.1h-3.4l-1.6-4.3h-6l-1.6,4.3h-3.4L110.9,4.3z M114.8,14.8l-2.4-6.7l-2.5,6.7H114.8z"/>
	<path d="M140.9,17c0,0.7-0.1,1.4-0.4,1.9c-0.3,0.5-0.7,1-1.2,1.4c-0.5,0.4-1.1,0.7-1.8,0.8c-0.7,0.2-1.4,0.3-2.1,0.3h-8.3V4.3h9.2
		c0.6,0,1.1,0.1,1.6,0.4c0.5,0.3,0.9,0.6,1.2,1c0.3,0.4,0.6,0.9,0.8,1.4c0.2,0.5,0.3,1,0.3,1.6c0,0.8-0.2,1.6-0.6,2.4
		s-1,1.3-1.8,1.6c1,0.3,1.8,0.8,2.3,1.6C140.6,14.9,140.9,15.9,140.9,17z M130.4,7.1v4.3h4.4c0.6,0,1-0.2,1.4-0.6
		c0.4-0.4,0.6-0.9,0.6-1.6c0-0.7-0.2-1.2-0.5-1.6c-0.4-0.4-0.8-0.6-1.3-0.6H130.4z M137.5,16.4c0-0.3-0.1-0.6-0.2-0.9
		s-0.2-0.5-0.4-0.7c-0.2-0.2-0.4-0.4-0.6-0.5c-0.2-0.1-0.5-0.2-0.8-0.2h-5.1v4.5h4.9c0.3,0,0.6-0.1,0.9-0.2c0.3-0.1,0.5-0.3,0.7-0.5
		c0.2-0.2,0.3-0.4,0.5-0.7C137.5,17,137.5,16.7,137.5,16.4z"/>
	<path d="M148.3,21.4V4.3h7.6c0.8,0,1.5,0.2,2.2,0.5c0.7,0.3,1.2,0.8,1.7,1.3c0.5,0.5,0.9,1.1,1.1,1.8c0.3,0.7,0.4,1.4,0.4,2.1
		c0,1.1-0.3,2.1-0.8,3c-0.6,0.9-1.3,1.6-2.3,2l3.9,6.4h-3.7l-3.5-5.7h-3.3v5.7H148.3z M151.6,12.8h4.2c0.3,0,0.6-0.1,0.9-0.2
		c0.3-0.1,0.5-0.3,0.7-0.6c0.2-0.2,0.3-0.5,0.5-0.9c0.1-0.3,0.2-0.7,0.2-1.1c0-0.4-0.1-0.8-0.2-1.1c-0.1-0.3-0.3-0.6-0.5-0.9
		c-0.2-0.2-0.5-0.4-0.7-0.6c-0.3-0.1-0.6-0.2-0.9-0.2h-4V12.8z"/>
	<path d="M169.2,21.4V4.3h3.3v17.1H169.2z"/>
	<path d="M192.8,18.5v2.9h-11.9V4.3h11.7v2.9h-8.3v4.1h7.2V14h-7.2v4.5H192.8z"/>
	<path d="M200.2,21.4V4.3h3.3v14.2h8.7v2.9H200.2z"/>
	<path d="M82.9,41.9c0.2,0.2,0.6,0.3,1.1,0.5c0.5,0.2,1.1,0.3,1.8,0.3c0.7,0,1.2-0.1,1.6-0.4c0.4-0.2,0.7-0.6,0.9-1.1
		s0.3-1.1,0.4-1.8c0.1-0.7,0.1-1.6,0.1-2.5v-8.7h3.3V37c0,1.3-0.1,2.5-0.2,3.6s-0.4,2-0.9,2.7c-0.4,0.8-1.1,1.3-1.9,1.8
		s-2,0.6-3.4,0.6c-1.4,0-2.7-0.4-3.7-1.1L82.9,41.9z"/>
	<path d="M110.3,42.6c0.8,0,1.5-0.2,2-0.5c0.5-0.3,1-0.7,1.3-1.3c0.3-0.5,0.6-1.1,0.7-1.8s0.2-1.4,0.2-2.1v-8.7h3.3V37
		c0,1.2-0.1,2.3-0.4,3.3c-0.3,1-0.7,1.9-1.3,2.7c-0.6,0.8-1.4,1.4-2.3,1.8c-0.9,0.5-2.1,0.7-3.4,0.7c-1.4,0-2.5-0.2-3.5-0.7
		c-1-0.5-1.7-1.1-2.3-1.9c-0.6-0.8-1-1.7-1.3-2.7c-0.3-1-0.4-2.1-0.4-3.2v-8.7h3.3V37c0,0.7,0.1,1.4,0.2,2.1
		c0.1,0.7,0.4,1.3,0.7,1.8c0.3,0.5,0.8,0.9,1.3,1.2C108.9,42.4,109.6,42.6,110.3,42.6z"/>
	<path d="M132.9,28.3h2.9l6.5,17.1h-3.4l-1.6-4.3h-6l-1.6,4.3h-3.4L132.9,28.3z M136.7,38.8l-2.4-6.7l-2.5,6.7H136.7z M135.2,26.8
		l-2.1-0.6l1.3-2.9h3L135.2,26.8z"/>
	<path d="M151.7,45.4V28.3h7.6c0.8,0,1.5,0.2,2.2,0.5c0.7,0.3,1.2,0.8,1.7,1.3c0.5,0.5,0.9,1.1,1.1,1.8c0.3,0.7,0.4,1.4,0.4,2.1
		c0,1.1-0.3,2.1-0.8,3c-0.6,0.9-1.3,1.6-2.3,2l3.9,6.4h-3.7l-3.5-5.7H155v5.7H151.7z M155,36.8h4.2c0.3,0,0.6-0.1,0.9-0.2
		c0.3-0.1,0.5-0.3,0.7-0.6c0.2-0.2,0.3-0.5,0.5-0.9c0.1-0.3,0.2-0.7,0.2-1.1c0-0.4-0.1-0.8-0.2-1.1c-0.1-0.3-0.3-0.6-0.5-0.9
		c-0.2-0.2-0.5-0.4-0.7-0.6c-0.3-0.1-0.6-0.2-0.9-0.2h-4V36.8z"/>
	<path d="M187.2,42.5v2.9h-11.9V28.3h11.7v2.9h-8.3v4.1h7.2V38h-7.2v4.5H187.2z"/>
	<path d="M196.2,42.9l9.7-11.7h-9.4v-2.9h13.2v2.5l-9.4,11.7h9.4v2.9h-13.6V42.9z"/>
</g>
<g>
	<path d="M18,24.8c0-9.7,5.5-18,13.6-22.1c0.8-0.4,0.7-1.6-0.2-1.8c-2.5-0.7-5.2-1-8-0.8C11,0.7,1,10.6,0.1,23
		C-1,37.5,10.5,49.7,24.8,49.7c2.3,0,4.4-0.3,6.5-0.9c0.9-0.2,1-1.4,0.2-1.8C23.5,42.9,18,34.5,18,24.8z"/>
	<path d="M26.2,32.2c0,0.6,0.5,1,1,1h1.1c0,0,7.8-0.2,7.8,6.7v5.3c0,0.8,0.8,1.2,1.5,0.9c3.1-1.7,10.1-6.6,11.7-17.6
		c0.1-0.6-0.4-1.2-1-1.2H27.2c-0.5,0-1,0.4-1,1V32.2z"/>
	<path d="M33.7,10.8c-5.7,4.3-3.1,13.5,4,13.9c0.2,0,0.4,0,0.6,0c0.2,0,0.4,0,0.6,0c6.9-0.4,10.4-8.4,6.4-14c-1.4-2-3.5-4.4-6.7-6.5
		c-0.8-0.5-1.7,0.2-1.5,1.1c0.4,1.4,0.3,3.1-1.6,4.2C34.9,10,34.3,10.4,33.7,10.8z"/>
</g>
<g>
	<rect x="67.7" y="3" width="2" height="46.8"/>
</g>
</svg>