<!-- Generator: Adobe Illustrator 17.1.0, SVG Export Plug-In  -->
<svg version="1.1"
	 xmlns="http://www.w3.org/2000/svg" xmlns:xlink="http://www.w3.org/1999/xlink" xmlns:a="http://ns.adobe.com/AdobeSVGViewerExtensions/3.0/"
	 x="0px" y="0px" width="282px" height="334px" viewBox="0 0 282 334" enable-background="new 0 0 282 334" xml:space="preserve">
<defs>
</defs>
<linearGradient id="SVGID_1_" gradientUnits="userSpaceOnUse" x1="-13" y1="321" x2="295" y2="13">
	<stop  offset="0" style="stop-color:#C73B54"/>
	<stop  offset="1" style="stop-color:#043A54"/>
</linearGradient>
<rect fill="url(#SVGID_1_)" width="282" height="334"/>
<g>
	<path fill="#FFFFFF" d="M63.3,160.4c-1,1-2.2,1.5-3.6,1.5c-0.8,0-1.6-0.2-2.4-0.5c-0.7-0.3-1.4-0.8-1.9-1.4c-0.5-0.6-1-1.3-1.3-2.1
		c-0.3-0.8-0.5-1.7-0.5-2.6c0-0.9,0.2-1.7,0.5-2.5c0.3-0.8,0.8-1.5,1.3-2c0.6-0.6,1.2-1,2-1.4c0.8-0.3,1.6-0.5,2.5-0.5
		c1.2,0,2.2,0.3,3.1,0.8c0.9,0.5,1.5,1.2,1.9,2l-1.9,1.4c-0.3-0.6-0.8-1.1-1.4-1.5s-1.2-0.5-1.9-0.5c-0.5,0-1,0.1-1.5,0.3
		c-0.5,0.2-0.8,0.5-1.2,0.9c-0.3,0.4-0.6,0.9-0.7,1.4s-0.3,1.1-0.3,1.6c0,0.6,0.1,1.2,0.3,1.7c0.2,0.5,0.5,1,0.8,1.4
		c0.3,0.4,0.7,0.7,1.2,0.9s1,0.3,1.5,0.3c1.2,0,2.4-0.6,3.3-1.7v-0.9h-2.6v-1.8h4.6v6.6h-2.1V160.4z"/>
	<path fill="#FFFFFF" d="M71.1,161.8v-12.8h5.7c0.6,0,1.1,0.1,1.6,0.4c0.5,0.2,0.9,0.6,1.3,1c0.4,0.4,0.6,0.9,0.8,1.4
		c0.2,0.5,0.3,1,0.3,1.5c0,0.8-0.2,1.6-0.6,2.3c-0.4,0.7-1,1.2-1.7,1.5l2.9,4.8h-2.8l-2.6-4.3h-2.4v4.3H71.1z M73.6,155.4h3.1
		c0.2,0,0.4-0.1,0.6-0.2c0.2-0.1,0.4-0.3,0.5-0.4s0.3-0.4,0.3-0.7s0.1-0.5,0.1-0.8c0-0.3,0-0.6-0.1-0.8s-0.2-0.5-0.4-0.7
		s-0.3-0.3-0.6-0.4c-0.2-0.1-0.4-0.2-0.6-0.2h-3V155.4z"/>
	<path fill="#FFFFFF" d="M90.1,149.1h2.2l4.9,12.8h-2.6l-1.2-3.2H89l-1.2,3.2h-2.6L90.1,149.1z M93,156.9l-1.8-5l-1.8,5H93z"/>
	<path fill="#FFFFFF" d="M104.6,153.6v8.2h-2.5v-12.8h1.9l6.7,8.4v-8.4h2.5v12.8h-2L104.6,153.6z"/>
	<path fill="#FFFFFF" d="M120.8,149.1l3.5,9.7l3.4-9.7h2.6l-5,12.8h-2.1l-5-12.8H120.8z"/>
	<path fill="#FFFFFF" d="M135.3,161.8v-12.8h2.5v12.8H135.3z"/>
	<path fill="#FFFFFF" d="M144,161.8v-12.8h2.5v10.6h6.5v2.2H144z"/>
	<path fill="#FFFFFF" d="M158.1,161.8v-12.8h2.5v10.6h6.5v2.2H158.1z"/>
	<path fill="#FFFFFF" d="M181.1,159.7v2.2h-8.9v-12.8h8.7v2.2h-6.2v3.1h5.4v2h-5.4v3.3H181.1z"/>
	<path fill="#FFFFFF" d="M202.2,152.4c-0.1-0.1-0.2-0.2-0.5-0.3c-0.2-0.1-0.5-0.3-0.8-0.4c-0.3-0.1-0.7-0.3-1-0.4s-0.8-0.1-1.1-0.1
		c-0.7,0-1.2,0.1-1.5,0.4s-0.5,0.6-0.5,1.1c0,0.3,0.1,0.5,0.2,0.7c0.1,0.2,0.3,0.3,0.5,0.5c0.2,0.1,0.5,0.3,0.9,0.4
		c0.4,0.1,0.8,0.2,1.3,0.3c0.6,0.2,1.2,0.3,1.7,0.5s0.9,0.4,1.3,0.7c0.4,0.3,0.6,0.6,0.8,1c0.2,0.4,0.3,0.9,0.3,1.5
		c0,0.7-0.1,1.3-0.4,1.8s-0.6,0.9-1,1.2c-0.4,0.3-0.9,0.5-1.5,0.7c-0.6,0.1-1.2,0.2-1.8,0.2c-1,0-1.9-0.1-2.8-0.4
		c-0.9-0.3-1.8-0.7-2.5-1.2l1.1-2.1c0.1,0.1,0.3,0.2,0.6,0.4c0.3,0.2,0.6,0.3,1,0.5c0.4,0.2,0.8,0.3,1.3,0.4
		c0.5,0.1,0.9,0.2,1.4,0.2c1.4,0,2.1-0.4,2.1-1.3c0-0.3-0.1-0.5-0.2-0.7c-0.2-0.2-0.4-0.4-0.7-0.5c-0.3-0.1-0.6-0.3-1-0.4
		c-0.4-0.1-0.9-0.3-1.4-0.4c-0.6-0.2-1.1-0.4-1.6-0.5c-0.4-0.2-0.8-0.4-1.1-0.7s-0.5-0.6-0.7-0.9s-0.2-0.8-0.2-1.3
		c0-0.6,0.1-1.2,0.4-1.7s0.6-0.9,1-1.3c0.4-0.3,0.9-0.6,1.5-0.8c0.6-0.2,1.2-0.3,1.8-0.3c0.9,0,1.7,0.1,2.5,0.4c0.8,0.3,1.4,0.6,2,1
		L202.2,152.4z"/>
	<path fill="#FFFFFF" d="M218.7,151.2h-4.1v10.6h-2.5v-10.6H208v-2.2h10.6V151.2z"/>
	<path fill="#FFFFFF" d="M222.3,161.8v-2.6h2v2.6H222.3z"/>
	<path fill="#FFFFFF" d="M69.3,177c0-0.8,0.1-1.6,0.4-2.3c0.3-0.8,0.7-1.4,1.2-2s1.2-1.1,2-1.5s1.7-0.6,2.7-0.6
		c1.2,0,2.2,0.3,3.1,0.8c0.9,0.5,1.5,1.2,1.9,2l-1.9,1.3c-0.2-0.4-0.4-0.7-0.6-0.9c-0.2-0.2-0.5-0.4-0.8-0.6
		c-0.3-0.1-0.6-0.2-0.9-0.3c-0.3-0.1-0.6-0.1-0.9-0.1c-0.6,0-1.2,0.1-1.6,0.4c-0.5,0.3-0.8,0.6-1.2,1c-0.3,0.4-0.5,0.9-0.7,1.4
		c-0.2,0.5-0.2,1-0.2,1.5c0,0.6,0.1,1.1,0.3,1.6c0.2,0.5,0.4,1,0.8,1.4s0.7,0.7,1.2,1c0.5,0.2,1,0.4,1.5,0.4c0.3,0,0.6,0,0.9-0.1
		c0.3-0.1,0.6-0.2,0.9-0.3c0.3-0.2,0.5-0.4,0.8-0.6c0.2-0.2,0.4-0.5,0.6-0.9l2,1.2c-0.2,0.5-0.5,0.9-0.9,1.3
		c-0.4,0.4-0.8,0.7-1.3,0.9s-1,0.4-1.5,0.6s-1.1,0.2-1.6,0.2c-0.9,0-1.7-0.2-2.5-0.6c-0.8-0.4-1.4-0.9-2-1.5c-0.5-0.6-1-1.3-1.3-2.1
		C69.5,178.6,69.3,177.8,69.3,177z"/>
	<path fill="#FFFFFF" d="M91.4,183.5c-0.9,0-1.8-0.2-2.5-0.5c-0.8-0.4-1.4-0.9-2-1.5s-1-1.3-1.3-2.1c-0.3-0.8-0.4-1.6-0.4-2.4
		c0-0.9,0.2-1.7,0.5-2.4c0.3-0.8,0.8-1.5,1.3-2.1c0.6-0.6,1.2-1.1,2-1.4s1.6-0.5,2.5-0.5c0.9,0,1.8,0.2,2.5,0.6
		c0.8,0.4,1.4,0.9,2,1.5c0.5,0.6,1,1.3,1.3,2.1c0.3,0.8,0.5,1.6,0.5,2.4c0,0.9-0.2,1.7-0.5,2.4s-0.7,1.5-1.3,2.1
		c-0.6,0.6-1.2,1.1-2,1.4C93.1,183.3,92.3,183.5,91.4,183.5z M87.7,177c0,0.6,0.1,1.1,0.3,1.6c0.2,0.5,0.4,1,0.7,1.4
		c0.3,0.4,0.7,0.7,1.2,1s1,0.4,1.6,0.4c0.6,0,1.1-0.1,1.6-0.4c0.5-0.2,0.9-0.6,1.2-1c0.3-0.4,0.6-0.9,0.7-1.4c0.2-0.5,0.2-1,0.2-1.6
		c0-0.6-0.1-1.1-0.3-1.6c-0.2-0.5-0.4-1-0.7-1.4s-0.7-0.7-1.2-0.9c-0.5-0.2-1-0.4-1.6-0.4c-0.6,0-1.1,0.1-1.6,0.4
		c-0.5,0.2-0.9,0.6-1.2,1c-0.3,0.4-0.5,0.9-0.7,1.4C87.7,176,87.7,176.5,87.7,177z"/>
	<path fill="#FFFFFF" d="M103.1,183.4v-12.8h8.6v2.2h-6.1v3.3h5.1v2h-5.1v5.3H103.1z"/>
	<path fill="#FFFFFF" d="M117.1,183.4v-12.8h8.6v2.2h-6.1v3.3h5.1v2h-5.1v5.3H117.1z"/>
	<path fill="#FFFFFF" d="M139.9,181.3v2.2H131v-12.8h8.7v2.2h-6.2v3.1h5.4v2h-5.4v3.3H139.9z"/>
	<path fill="#FFFFFF" d="M154.3,181.3v2.2h-8.9v-12.8h8.7v2.2h-6.2v3.1h5.4v2h-5.4v3.3H154.3z"/>
	<path fill="#FFFFFF" d="M178,180.1c0,0.5-0.1,1-0.3,1.4c-0.2,0.4-0.5,0.8-0.9,1c-0.4,0.3-0.8,0.5-1.3,0.6s-1,0.2-1.6,0.2h-6.2
		v-12.8h6.8c0.4,0,0.8,0.1,1.2,0.3c0.4,0.2,0.7,0.4,0.9,0.7c0.3,0.3,0.4,0.7,0.6,1c0.1,0.4,0.2,0.8,0.2,1.2c0,0.6-0.2,1.2-0.5,1.8
		c-0.3,0.5-0.8,1-1.4,1.2c0.7,0.2,1.3,0.6,1.7,1.2C177.8,178.6,178,179.3,178,180.1z M170.2,172.8v3.2h3.3c0.4,0,0.8-0.1,1.1-0.4
		c0.3-0.3,0.4-0.7,0.4-1.2c0-0.5-0.1-0.9-0.4-1.2c-0.3-0.3-0.6-0.4-1-0.4H170.2z M175.5,179.7c0-0.2,0-0.4-0.1-0.7s-0.2-0.4-0.3-0.5
		c-0.1-0.2-0.3-0.3-0.5-0.4s-0.4-0.1-0.6-0.1h-3.8v3.4h3.7c0.2,0,0.4,0,0.6-0.1s0.4-0.2,0.5-0.4c0.1-0.1,0.3-0.3,0.3-0.5
		S175.5,179.9,175.5,179.7z"/>
	<path fill="#FFFFFF" d="M186.9,170.7h2.2l4.9,12.8h-2.6l-1.2-3.2h-4.5l-1.2,3.2h-2.6L186.9,170.7z M189.8,178.5l-1.8-5l-1.8,5
		H189.8z"/>
	<path fill="#FFFFFF" d="M199,183.4v-12.8h5.7c0.6,0,1.1,0.1,1.6,0.4c0.5,0.2,0.9,0.6,1.3,1c0.4,0.4,0.6,0.9,0.8,1.4
		c0.2,0.5,0.3,1,0.3,1.5c0,0.8-0.2,1.6-0.6,2.3c-0.4,0.7-1,1.2-1.7,1.5l2.9,4.8h-2.8l-2.6-4.3h-2.4v4.3H199z M201.5,177h3.1
		c0.2,0,0.4-0.1,0.6-0.2c0.2-0.1,0.4-0.3,0.5-0.4c0.1-0.2,0.3-0.4,0.3-0.7s0.1-0.5,0.1-0.8c0-0.3,0-0.6-0.1-0.8
		c-0.1-0.3-0.2-0.5-0.4-0.7s-0.3-0.3-0.6-0.4c-0.2-0.1-0.4-0.2-0.6-0.2h-3V177z"/>
</g>
</svg>