<!-- Generator: Adobe Illustrator 17.1.0, SVG Export Plug-In  -->
<svg version="1.1"
	 xmlns="http://www.w3.org/2000/svg" xmlns:xlink="http://www.w3.org/1999/xlink" xmlns:a="http://ns.adobe.com/AdobeSVGViewerExtensions/3.0/"
	 x="0px" y="0px" width="376px" height="495px" viewBox="0 0 376 495" enable-background="new 0 0 376 495" xml:space="preserve">
<defs>
</defs>
<linearGradient id="SVGID_1_" gradientUnits="userSpaceOnUse" x1="0" y1="247.5" x2="376" y2="247.5">
	<stop  offset="0" style="stop-color:#C73B54"/>
	<stop  offset="1" style="stop-color:#043A54"/>
</linearGradient>
<rect fill="url(#SVGID_1_)" width="376" height="495"/>
<g>
	<path fill="#FFFFFF" d="M174.8,230.5v-14.2h2.8v11.8h7.2v2.4H174.8z"/>
	<path fill="#FFFFFF" d="M194.5,216.3h2.4l5.4,14.2h-2.8l-1.3-3.5h-5l-1.3,3.5h-2.8L194.5,216.3z M197.7,225l-2-5.6l-2,5.6H197.7z"
		/>
	<path fill="#FFFFFF" d="M127.2,247.3c0-0.9,0.2-1.7,0.5-2.6s0.8-1.6,1.4-2.3c0.6-0.7,1.3-1.2,2.2-1.6c0.9-0.4,1.9-0.6,3-0.6
		c1.3,0,2.4,0.3,3.4,0.9s1.7,1.3,2.1,2.2l-2.1,1.5c-0.2-0.4-0.4-0.7-0.7-1c-0.3-0.3-0.6-0.5-0.9-0.6c-0.3-0.2-0.6-0.3-1-0.4
		c-0.3-0.1-0.7-0.1-1-0.1c-0.7,0-1.3,0.1-1.8,0.4c-0.5,0.3-0.9,0.6-1.3,1.1c-0.3,0.4-0.6,1-0.8,1.5c-0.2,0.6-0.3,1.1-0.3,1.7
		c0,0.6,0.1,1.2,0.3,1.8s0.5,1.1,0.9,1.5c0.4,0.4,0.8,0.8,1.3,1.1c0.5,0.3,1.1,0.4,1.7,0.4c0.3,0,0.7,0,1-0.1s0.7-0.2,1-0.4
		c0.3-0.2,0.6-0.4,0.9-0.7c0.3-0.3,0.5-0.6,0.6-1l2.3,1.3c-0.2,0.5-0.5,1-1,1.4s-0.9,0.8-1.4,1c-0.5,0.3-1.1,0.5-1.7,0.6
		c-0.6,0.1-1.2,0.2-1.8,0.2c-1,0-1.9-0.2-2.8-0.6s-1.6-1-2.2-1.7c-0.6-0.7-1.1-1.5-1.4-2.3C127.4,249.1,127.2,248.2,127.2,247.3z"/>
	<path fill="#FFFFFF" d="M149.7,240.3h2.4l5.4,14.2h-2.8l-1.3-3.5h-5l-1.3,3.5h-2.8L149.7,240.3z M152.8,249l-2-5.6l-2,5.6H152.8z"
		/>
	<path fill="#FFFFFF" d="M171.3,244c-0.1-0.1-0.3-0.2-0.5-0.4c-0.2-0.2-0.5-0.3-0.9-0.5c-0.4-0.2-0.7-0.3-1.2-0.4
		c-0.4-0.1-0.8-0.2-1.3-0.2c-0.8,0-1.3,0.1-1.7,0.4c-0.4,0.3-0.6,0.7-0.6,1.2c0,0.3,0.1,0.5,0.2,0.7c0.1,0.2,0.3,0.4,0.6,0.5
		c0.3,0.1,0.6,0.3,1,0.4c0.4,0.1,0.9,0.2,1.4,0.4c0.7,0.2,1.3,0.4,1.9,0.6c0.6,0.2,1,0.5,1.4,0.8c0.4,0.3,0.7,0.7,0.9,1.1
		s0.3,1,0.3,1.6c0,0.8-0.1,1.4-0.4,2c-0.3,0.5-0.7,1-1.2,1.3c-0.5,0.3-1,0.6-1.7,0.7c-0.6,0.2-1.3,0.2-2,0.2c-1.1,0-2.1-0.2-3.2-0.5
		c-1-0.3-2-0.8-2.8-1.4l1.2-2.4c0.1,0.1,0.3,0.3,0.6,0.5s0.7,0.4,1.1,0.6s0.9,0.4,1.4,0.5c0.5,0.1,1.1,0.2,1.6,0.2
		c1.5,0,2.3-0.5,2.3-1.5c0-0.3-0.1-0.6-0.3-0.8c-0.2-0.2-0.4-0.4-0.7-0.6c-0.3-0.2-0.7-0.3-1.2-0.4s-1-0.3-1.5-0.4
		c-0.7-0.2-1.3-0.4-1.8-0.6c-0.5-0.2-0.9-0.5-1.2-0.8c-0.3-0.3-0.6-0.6-0.8-1c-0.2-0.4-0.2-0.9-0.2-1.4c0-0.7,0.1-1.4,0.4-1.9
		c0.3-0.6,0.6-1,1.1-1.4c0.5-0.4,1-0.7,1.6-0.8s1.3-0.3,2-0.3c1,0,1.9,0.2,2.8,0.5c0.8,0.3,1.6,0.7,2.2,1.1L171.3,244z"/>
	<path fill="#FFFFFF" d="M182.9,240.3h2.4l5.4,14.2h-2.8l-1.3-3.5h-5l-1.3,3.5h-2.8L182.9,240.3z M186.1,249l-2-5.6l-2,5.6H186.1z"
		/>
	<path fill="#FFFFFF" d="M204.5,254.5v-14.2h5.2c1.2,0,2.2,0.2,3.1,0.6c0.9,0.4,1.6,0.9,2.2,1.5c0.6,0.6,1,1.4,1.3,2.2
		c0.3,0.9,0.4,1.8,0.4,2.8c0,1.1-0.2,2.1-0.5,2.9c-0.3,0.9-0.8,1.6-1.4,2.2c-0.6,0.6-1.4,1.1-2.2,1.4c-0.9,0.3-1.8,0.5-2.9,0.5
		H204.5z M213.9,247.4c0-0.7-0.1-1.3-0.3-1.9s-0.5-1.1-0.8-1.5c-0.4-0.4-0.8-0.7-1.3-1c-0.5-0.2-1.1-0.3-1.8-0.3h-2.4v9.4h2.4
		c0.7,0,1.3-0.1,1.8-0.4c0.5-0.2,1-0.6,1.3-1c0.4-0.4,0.6-0.9,0.8-1.5S213.9,248.1,213.9,247.4z"/>
	<path fill="#FFFFFF" d="M232.7,252.1v2.4h-9.9v-14.2h9.7v2.4h-6.9v3.4h6v2.2h-6v3.7H232.7z"/>
	<path fill="#FFFFFF" d="M238.8,254.5v-14.2h2.8v11.8h7.2v2.4H238.8z"/>
	<path fill="#FFFFFF" d="M115.8,271.3c0-0.9,0.2-1.7,0.5-2.6s0.8-1.6,1.4-2.3c0.6-0.7,1.3-1.2,2.2-1.6c0.9-0.4,1.9-0.6,3-0.6
		c1.3,0,2.4,0.3,3.4,0.9s1.7,1.3,2.1,2.2l-2.1,1.5c-0.2-0.4-0.4-0.7-0.7-1c-0.3-0.3-0.6-0.5-0.9-0.6c-0.3-0.2-0.6-0.3-1-0.4
		c-0.3-0.1-0.7-0.1-1-0.1c-0.7,0-1.3,0.1-1.8,0.4c-0.5,0.3-0.9,0.6-1.3,1.1c-0.3,0.4-0.6,1-0.8,1.5c-0.2,0.6-0.3,1.1-0.3,1.7
		c0,0.6,0.1,1.2,0.3,1.8s0.5,1.1,0.9,1.5c0.4,0.4,0.8,0.8,1.3,1.1c0.5,0.3,1.1,0.4,1.7,0.4c0.3,0,0.7,0,1-0.1s0.7-0.2,1-0.4
		c0.3-0.2,0.6-0.4,0.9-0.7c0.3-0.3,0.5-0.6,0.6-1l2.3,1.3c-0.2,0.5-0.5,1-1,1.4s-0.9,0.8-1.4,1c-0.5,0.3-1.1,0.5-1.7,0.6
		c-0.6,0.1-1.2,0.2-1.8,0.2c-1,0-1.9-0.2-2.8-0.6s-1.6-1-2.2-1.7c-0.6-0.7-1.1-1.5-1.4-2.3C116,273.1,115.8,272.2,115.8,271.3z"/>
	<path fill="#FFFFFF" d="M134.4,278.5v-14.2h6.3c0.7,0,1.3,0.1,1.8,0.4c0.6,0.3,1,0.6,1.4,1.1s0.7,1,0.9,1.5
		c0.2,0.6,0.3,1.1,0.3,1.7c0,0.9-0.2,1.8-0.7,2.5c-0.5,0.8-1.1,1.3-1.9,1.6l3.2,5.3h-3.1l-2.9-4.8h-2.7v4.8H134.4z M137.2,271.3h3.5
		c0.3,0,0.5-0.1,0.7-0.2c0.2-0.1,0.4-0.3,0.6-0.5c0.2-0.2,0.3-0.4,0.4-0.7c0.1-0.3,0.1-0.6,0.1-0.9c0-0.3-0.1-0.6-0.2-0.9
		c-0.1-0.3-0.2-0.5-0.4-0.7s-0.4-0.4-0.6-0.5s-0.5-0.2-0.7-0.2h-3.3V271.3z"/>
	<path fill="#FFFFFF" d="M157.8,278.6c-1,0-2-0.2-2.8-0.6s-1.6-0.9-2.2-1.6c-0.6-0.7-1.1-1.4-1.4-2.3c-0.3-0.9-0.5-1.8-0.5-2.7
		c0-0.9,0.2-1.9,0.5-2.7c0.4-0.9,0.8-1.6,1.5-2.3c0.6-0.7,1.4-1.2,2.2-1.6c0.9-0.4,1.8-0.6,2.8-0.6c1,0,2,0.2,2.8,0.6s1.6,1,2.2,1.6
		s1.1,1.5,1.4,2.3c0.3,0.9,0.5,1.7,0.5,2.6c0,0.9-0.2,1.9-0.5,2.7s-0.8,1.6-1.4,2.3c-0.6,0.7-1.3,1.2-2.2,1.6
		C159.7,278.4,158.8,278.6,157.8,278.6z M153.7,271.4c0,0.6,0.1,1.2,0.3,1.8c0.2,0.6,0.5,1.1,0.8,1.5c0.4,0.4,0.8,0.8,1.3,1.1
		c0.5,0.3,1.1,0.4,1.8,0.4c0.7,0,1.3-0.1,1.8-0.4c0.5-0.3,0.9-0.6,1.3-1.1s0.6-1,0.8-1.5c0.2-0.6,0.3-1.1,0.3-1.7
		c0-0.6-0.1-1.2-0.3-1.8s-0.5-1.1-0.8-1.5s-0.8-0.8-1.3-1.1c-0.5-0.3-1.1-0.4-1.7-0.4c-0.7,0-1.3,0.1-1.8,0.4
		c-0.5,0.3-1,0.6-1.3,1.1c-0.3,0.4-0.6,1-0.8,1.5C153.8,270.3,153.7,270.8,153.7,271.4z"/>
	<path fill="#FFFFFF" d="M170.8,278.5v-14.2h2.8v14.2H170.8z"/>
	<path fill="#FFFFFF" d="M189,268c-0.1-0.1-0.3-0.2-0.5-0.4c-0.2-0.2-0.5-0.3-0.9-0.5c-0.4-0.2-0.7-0.3-1.2-0.4
		c-0.4-0.1-0.8-0.2-1.3-0.2c-0.8,0-1.3,0.1-1.7,0.4c-0.4,0.3-0.6,0.7-0.6,1.2c0,0.3,0.1,0.5,0.2,0.7c0.1,0.2,0.3,0.4,0.6,0.5
		c0.3,0.1,0.6,0.3,1,0.4c0.4,0.1,0.9,0.2,1.4,0.4c0.7,0.2,1.3,0.4,1.9,0.6c0.6,0.2,1,0.5,1.4,0.8c0.4,0.3,0.7,0.7,0.9,1.1
		s0.3,1,0.3,1.6c0,0.8-0.1,1.4-0.4,2c-0.3,0.5-0.7,1-1.2,1.3c-0.5,0.3-1,0.6-1.7,0.7c-0.6,0.2-1.3,0.2-2,0.2c-1.1,0-2.1-0.2-3.2-0.5
		c-1-0.3-2-0.8-2.8-1.4l1.2-2.4c0.1,0.1,0.3,0.3,0.6,0.5s0.7,0.4,1.1,0.6s0.9,0.4,1.4,0.5c0.5,0.1,1.1,0.2,1.6,0.2
		c1.5,0,2.3-0.5,2.3-1.5c0-0.3-0.1-0.6-0.3-0.8c-0.2-0.2-0.4-0.4-0.7-0.6c-0.3-0.2-0.7-0.3-1.2-0.4s-1-0.3-1.5-0.4
		c-0.7-0.2-1.3-0.4-1.8-0.6c-0.5-0.2-0.9-0.5-1.2-0.8c-0.3-0.3-0.6-0.6-0.8-1c-0.2-0.4-0.2-0.9-0.2-1.4c0-0.7,0.1-1.4,0.4-1.9
		c0.3-0.6,0.6-1,1.1-1.4c0.5-0.4,1-0.7,1.6-0.8s1.3-0.3,2-0.3c1,0,1.9,0.2,2.8,0.5c0.8,0.3,1.6,0.7,2.2,1.1L189,268z"/>
	<path fill="#FFFFFF" d="M205.3,268c-0.1-0.1-0.3-0.2-0.5-0.4c-0.2-0.2-0.5-0.3-0.9-0.5c-0.4-0.2-0.7-0.3-1.2-0.4
		c-0.4-0.1-0.8-0.2-1.3-0.2c-0.8,0-1.3,0.1-1.7,0.4c-0.4,0.3-0.6,0.7-0.6,1.2c0,0.3,0.1,0.5,0.2,0.7c0.1,0.2,0.3,0.4,0.6,0.5
		c0.3,0.1,0.6,0.3,1,0.4c0.4,0.1,0.9,0.2,1.4,0.4c0.7,0.2,1.3,0.4,1.9,0.6c0.6,0.2,1,0.5,1.4,0.8c0.4,0.3,0.7,0.7,0.9,1.1
		s0.3,1,0.3,1.6c0,0.8-0.1,1.4-0.4,2c-0.3,0.5-0.7,1-1.2,1.3c-0.5,0.3-1,0.6-1.7,0.7c-0.6,0.2-1.3,0.2-2,0.2c-1.1,0-2.1-0.2-3.2-0.5
		c-1-0.3-2-0.8-2.8-1.4l1.2-2.4c0.1,0.1,0.3,0.3,0.6,0.5s0.7,0.4,1.1,0.6s0.9,0.4,1.4,0.5c0.5,0.1,1.1,0.2,1.6,0.2
		c1.5,0,2.3-0.5,2.3-1.5c0-0.3-0.1-0.6-0.3-0.8c-0.2-0.2-0.4-0.4-0.7-0.6c-0.3-0.2-0.7-0.3-1.2-0.4s-1-0.3-1.5-0.4
		c-0.7-0.2-1.3-0.4-1.8-0.6c-0.5-0.2-0.9-0.5-1.2-0.8c-0.3-0.3-0.6-0.6-0.8-1c-0.2-0.4-0.2-0.9-0.2-1.4c0-0.7,0.1-1.4,0.4-1.9
		c0.3-0.6,0.6-1,1.1-1.4c0.5-0.4,1-0.7,1.6-0.8s1.3-0.3,2-0.3c1,0,1.9,0.2,2.8,0.5c0.8,0.3,1.6,0.7,2.2,1.1L205.3,268z"/>
	<path fill="#FFFFFF" d="M216.9,264.3h2.4l5.4,14.2h-2.8l-1.3-3.5h-5l-1.3,3.5h-2.8L216.9,264.3z M220.1,273l-2-5.6l-2,5.6H220.1z"
		/>
	<path fill="#FFFFFF" d="M233,269.4v9.1h-2.8v-14.2h2.1l7.4,9.3v-9.3h2.8v14.2h-2.2L233,269.4z"/>
	<path fill="#FFFFFF" d="M260.2,266.7h-4.5v11.8h-2.7v-11.8h-4.5v-2.4h11.8V266.7z"/>
</g>
</svg>