<!-- Generator: Adobe Illustrator 17.1.0, SVG Export Plug-In  -->
<svg version="1.1"
	 xmlns="http://www.w3.org/2000/svg" xmlns:xlink="http://www.w3.org/1999/xlink" xmlns:a="http://ns.adobe.com/AdobeSVGViewerExtensions/3.0/"
	 x="0px" y="0px" width="135.1px" height="134.8px" viewBox="0 0 135.1 134.8" enable-background="new 0 0 135.1 134.8"
	 xml:space="preserve">
<defs>
</defs>
<path d="M68.7,0C38,0,13,24.9,13,55.7s24.9,55.7,55.7,55.7s55.7-24.9,55.7-55.7S99.5,0,68.7,0z M81.3,36.1c0.8-0.6,1.7-1.2,2.6-1.8
	c2.6-1.6,2.7-3.9,2.2-5.9c-0.3-1.2,1-2.3,2.1-1.5c4.4,3,7.4,6.3,9.4,9.1c5.6,7.9,0.6,19-9,19.6c-0.3,0-0.6,0-0.8,0
	c-0.3,0-0.5,0-0.8,0C77,55,73.4,42,81.3,36.1z M78.1,89.3c-2.9,0.8-6,1.2-9.2,1.2c-20.1,0-36.2-17-34.7-37.5
	c1.3-17.3,15.4-31.2,32.7-32.1c3.9-0.2,7.7,0.2,11.2,1.2c1.2,0.3,1.4,2,0.2,2.6c-11.3,5.8-19,17.5-19,31.1c0,13.5,7.7,25.3,19,31.1
	C79.4,87.3,79.3,89,78.1,89.3z M103.4,60.9C101.2,76.4,91.3,83.3,87,85.6c-0.9,0.5-2.1-0.2-2.1-1.2v-7.5c0-9.7-11-9.4-11-9.4h-1.6
	c-0.8,0-1.4-0.6-1.4-1.4v-5.4c0-0.8,0.6-1.4,1.4-1.4H102C102.8,59.3,103.5,60.1,103.4,60.9z"/>
<g>
	<path d="M7.4,133.4v-1.8c-0.2,0.3-0.3,0.6-0.6,0.8c-0.2,0.2-0.5,0.4-0.8,0.6c-0.3,0.2-0.6,0.3-0.9,0.3c-0.3,0.1-0.6,0.1-1,0.1
		c-0.6,0-1.1-0.1-1.6-0.3s-0.9-0.5-1.3-0.9c-0.4-0.4-0.7-0.9-0.9-1.5c-0.2-0.6-0.3-1.2-0.3-1.8c0-0.6,0.1-1.2,0.3-1.8
		c0.2-0.6,0.5-1.1,0.9-1.5c0.4-0.4,0.8-0.8,1.4-1s1.1-0.4,1.7-0.4c0.6,0,1.1,0.1,1.5,0.2c0.4,0.2,0.8,0.4,1.1,0.6
		c0.3,0.2,0.5,0.5,0.7,0.7h0.6v1.1H6.8c-0.3-0.5-0.6-0.8-1.1-1.1c-0.4-0.3-0.9-0.4-1.5-0.4c-0.5,0-0.9,0.1-1.3,0.3
		c-0.4,0.2-0.7,0.5-1,0.8s-0.5,0.7-0.6,1.1c-0.2,0.4-0.2,0.9-0.2,1.4c0,0.5,0.1,1,0.2,1.5c0.2,0.5,0.4,0.8,0.6,1.1
		c0.3,0.3,0.6,0.5,1,0.7c0.4,0.2,0.8,0.3,1.3,0.3c0.8,0,1.4-0.2,1.9-0.6c0.5-0.4,0.8-0.9,1-1.7H4.7v-1h3.8v4.3H7.4z"/>
	<path d="M18.2,132.4h0.7l-0.7-2h-3.5l-0.7,2H15v1h-2.9v-1h0.8l2.8-8h1.8l2.8,8h0.9v1h-2.9V132.4z M15.1,129.3h2.8l-1.4-4
		L15.1,129.3z"/>
	<path d="M24.4,132.4h0.9v-7h-0.9v-1l4,0c0.4,0,0.7,0.1,1,0.2s0.6,0.3,0.8,0.6c0.2,0.2,0.4,0.5,0.6,0.8c0.1,0.3,0.2,0.7,0.2,1
		c0,0.4-0.1,0.7-0.3,1.1c-0.2,0.3-0.5,0.6-0.9,0.8c0.2,0.1,0.4,0.2,0.5,0.4c0.2,0.1,0.3,0.3,0.4,0.4c0.1,0.2,0.2,0.3,0.3,0.5
		c0.1,0.2,0.1,0.4,0.1,0.6c0,0.4-0.1,0.7-0.2,1.1c-0.1,0.3-0.3,0.6-0.6,0.8c-0.2,0.2-0.5,0.4-0.8,0.6c-0.3,0.1-0.7,0.2-1,0.2h-4.1
		V132.4z M26.4,125.4v2.9h2c0.2,0,0.4,0,0.5-0.1s0.3-0.2,0.4-0.3c0.1-0.1,0.2-0.3,0.3-0.4c0.1-0.2,0.1-0.3,0.1-0.5
		c0-0.2,0-0.4-0.1-0.6c-0.1-0.2-0.2-0.4-0.3-0.5c-0.1-0.1-0.3-0.3-0.4-0.4s-0.3-0.1-0.5-0.1H26.4z M26.4,129.4v3h2.1
		c0.2,0,0.4,0,0.5-0.1c0.2-0.1,0.3-0.2,0.4-0.4s0.2-0.3,0.3-0.5c0.1-0.2,0.1-0.4,0.1-0.6c0-0.2,0-0.3-0.1-0.5
		c-0.1-0.2-0.2-0.3-0.3-0.4c-0.1-0.1-0.3-0.2-0.4-0.3c-0.2-0.1-0.3-0.1-0.5-0.1H26.4z"/>
	<path d="M34.9,124.4h3.7c0.4,0,0.8,0.1,1.1,0.2c0.3,0.1,0.6,0.3,0.9,0.5c0.2,0.2,0.4,0.5,0.6,0.8c0.1,0.3,0.2,0.7,0.2,1.1
		c0,0.2,0,0.4-0.1,0.7s-0.2,0.4-0.3,0.6c-0.1,0.2-0.3,0.4-0.5,0.5c-0.2,0.1-0.4,0.3-0.6,0.3c0.1,0,0.2,0.1,0.3,0.2
		c0.1,0.1,0.2,0.2,0.3,0.3c0.1,0.1,0.2,0.2,0.2,0.4s0.1,0.3,0.2,0.5l0.5,2h0.8l0,1.1h-1.8l-0.7-2.7c-0.1-0.5-0.3-0.9-0.6-1.1
		s-0.6-0.3-1-0.3h-1.2v3.1h0.9v1h-2.9v-1h0.9v-7h-0.9V124.4z M36.9,125.4v2.8h1.7c0.2,0,0.4,0,0.6-0.1s0.4-0.1,0.5-0.3
		c0.1-0.1,0.2-0.3,0.3-0.4s0.1-0.4,0.1-0.6c0-0.4-0.1-0.8-0.4-1s-0.7-0.4-1.3-0.4H36.9z"/>
	<path d="M46,124.4h2.9v1H48v7h0.9v1H46v-1h0.9v-7H46V124.4z"/>
	<path d="M53,124.4h6.4v2.5h-1.2v-1.5H55v2.9h2.7v1H55v3.1h3.2v-1.5h1.2v2.5H53v-1h0.9v-7H53V124.4z"/>
	<path d="M63,124.4H66v1h-0.9v7h3.1c0.1,0,0.1,0,0.2,0c0.1,0,0.1-0.1,0.2-0.1c0.1,0,0.1-0.1,0.1-0.2c0-0.1,0-0.1,0-0.2v-1.1h1.1v2.7
		H63v-1h0.9v-7H63V124.4z"/>
	<path d="M78.3,124.4h2.9v1h-0.8v7c0,0.1,0,0.2-0.1,0.3c0,0.1-0.1,0.2-0.2,0.4c-0.1,0.1-0.1,0.3-0.2,0.4c-0.1,0.1-0.2,0.3-0.3,0.4
		c-0.2,0.3-0.4,0.6-0.7,1l-1-0.1c0.2-0.4,0.4-0.7,0.6-1c0.1-0.1,0.2-0.3,0.2-0.4c0.1-0.1,0.1-0.3,0.2-0.4c0.1-0.1,0.1-0.3,0.1-0.4
		c0-0.1,0.1-0.2,0.1-0.3v-6.8h-1V124.4z"/>
	<path d="M84.6,124.4h2.9v1h-0.9v4.2c0,0.5,0.1,0.9,0.2,1.3c0.1,0.4,0.3,0.6,0.5,0.9s0.4,0.4,0.7,0.5c0.3,0.1,0.6,0.2,0.9,0.2
		c0.3,0,0.7,0,0.9-0.1c0.3-0.1,0.5-0.2,0.7-0.5c0.2-0.2,0.4-0.5,0.5-0.9s0.2-0.8,0.2-1.3v-4.2h-1v-1h2.9v1h-0.8v4.1
		c0,0.6-0.1,1.2-0.3,1.7c-0.2,0.5-0.4,0.9-0.7,1.3c-0.3,0.3-0.7,0.6-1.1,0.8s-0.9,0.3-1.4,0.3c-0.5,0-0.9-0.1-1.3-0.3
		s-0.8-0.4-1.1-0.8c-0.3-0.3-0.5-0.7-0.7-1.2c-0.2-0.5-0.3-1-0.3-1.7v-4.2h-0.8V124.4z"/>
	<path d="M101.7,132.4h0.7l-0.7-2h-3.5l-0.7,2h0.9v1h-2.9v-1h0.8l2.8-8h1.8l2.8,8h0.9v1h-2.9V132.4z M98.6,129.3h2.8l-1.4-4
		L98.6,129.3z M100,121.8h1.4v0.1l-1.8,1.7h-0.9L100,121.8z"/>
	<path d="M107.9,124.4h3.7c0.4,0,0.8,0.1,1.1,0.2c0.3,0.1,0.6,0.3,0.9,0.5c0.2,0.2,0.4,0.5,0.6,0.8c0.1,0.3,0.2,0.7,0.2,1.1
		c0,0.2,0,0.4-0.1,0.7s-0.2,0.4-0.3,0.6c-0.1,0.2-0.3,0.4-0.5,0.5c-0.2,0.1-0.4,0.3-0.6,0.3c0.1,0,0.2,0.1,0.3,0.2
		c0.1,0.1,0.2,0.2,0.3,0.3c0.1,0.1,0.2,0.2,0.2,0.4s0.1,0.3,0.2,0.5l0.5,2h0.8l0,1.1h-1.8l-0.7-2.7c-0.1-0.5-0.3-0.9-0.6-1.1
		s-0.6-0.3-1-0.3H110v3.1h0.9v1h-2.9v-1h0.9v-7h-0.9V124.4z M110,125.4v2.8h1.7c0.2,0,0.4,0,0.6-0.1s0.4-0.1,0.5-0.3
		c0.1-0.1,0.2-0.3,0.3-0.4s0.1-0.4,0.1-0.6c0-0.4-0.1-0.8-0.4-1s-0.7-0.4-1.3-0.4H110z"/>
	<path d="M119,124.4h6.4v2.5h-1.2v-1.5H121v2.9h2.7v1H121v3.1h3.2v-1.5h1.2v2.5H119v-1h0.9v-7H119V124.4z"/>
	<path d="M135.1,125.7l-5.4,6.6h4.2v-1.5h1.2v2.5h-6.6V132l5.3-6.6h-4.1v1.5h-1.2v-2.5h6.5V125.7z"/>
</g>
</svg>