<!-- Generator: Adobe Illustrator 17.1.0, SVG Export Plug-In  -->
<svg version="1.1"
	 xmlns="http://www.w3.org/2000/svg" xmlns:xlink="http://www.w3.org/1999/xlink" xmlns:a="http://ns.adobe.com/AdobeSVGViewerExtensions/3.0/"
	 x="0px" y="0px" width="585.9px" height="111.9px" viewBox="0 0 585.9 111.9" enable-background="new 0 0 585.9 111.9"
	 xml:space="preserve">
<defs>
</defs>
<g>
	<path fill="#053A54" d="M130.7,21.9h17.8c2.1,0,4.2,0.3,6.1,0.8c1.9,0.6,3.8,1.3,5.4,2.3c1.7,1,3.2,2.2,4.6,3.6
		c1.4,1.4,2.6,3,3.5,4.7c1,1.7,1.7,3.6,2.3,5.5c0.5,2,0.8,4,0.8,6.2s-0.3,4.2-0.8,6.2c-0.5,2-1.3,3.8-2.3,5.5
		c-1,1.7-2.2,3.3-3.5,4.7c-1.4,1.4-2.9,2.6-4.6,3.6c-1.7,1-3.5,1.8-5.4,2.3c-1.9,0.6-4,0.8-6.1,0.8h-17.8v-8.4h3.7V30.3h-3.7V21.9z
		 M144.6,30.3v29.6h3.9c1.7,0,3.2-0.4,4.7-1.2c1.5-0.8,2.7-1.8,3.8-3.2c1.1-1.3,1.9-2.9,2.6-4.7c0.6-1.8,0.9-3.7,0.9-5.8
		c0-2.1-0.3-4-0.9-5.8c-0.6-1.8-1.5-3.4-2.6-4.7c-1.1-1.3-2.4-2.4-3.8-3.1c-1.5-0.8-3-1.1-4.7-1.1H144.6z"/>
	<path fill="#053A54" d="M201.6,68.7c-2.1,0-4.2-0.3-6.1-0.8c-1.9-0.6-3.7-1.4-5.4-2.4s-3.2-2.3-4.6-3.7c-1.4-1.4-2.5-3-3.5-4.8
		c-1-1.8-1.7-3.6-2.3-5.6c-0.5-2-0.8-4.1-0.8-6.3c0-2.2,0.3-4.3,0.8-6.3c0.5-2,1.3-3.9,2.3-5.7c1-1.8,2.1-3.4,3.5-4.8
		c1.4-1.4,2.9-2.7,4.6-3.7s3.5-1.8,5.4-2.4c1.9-0.6,4-0.8,6.1-0.8c2.1,0,4.2,0.3,6.1,0.8c1.9,0.6,3.8,1.4,5.4,2.4
		c1.7,1,3.2,2.3,4.6,3.7c1.4,1.4,2.5,3,3.5,4.8c1,1.8,1.7,3.6,2.3,5.7c0.5,2,0.8,4.1,0.8,6.3c0,2.2-0.3,4.3-0.8,6.3
		c-0.5,2-1.3,3.9-2.3,5.7c-1,1.8-2.2,3.4-3.5,4.8c-1.4,1.4-2.9,2.7-4.6,3.7c-1.7,1-3.5,1.8-5.4,2.4
		C205.8,68.4,203.7,68.7,201.6,68.7z M201.6,59.3c1.8,0,3.4-0.4,4.9-1.1c1.5-0.8,2.8-1.8,3.8-3.1c1.1-1.3,1.9-2.8,2.5-4.5
		c0.6-1.7,0.9-3.5,0.9-5.5c0-1.9-0.3-3.8-0.9-5.5c-0.6-1.7-1.4-3.2-2.5-4.5c-1.1-1.3-2.4-2.3-3.8-3.1c-1.5-0.8-3.1-1.1-4.9-1.1
		c-1.8,0-3.4,0.4-4.9,1.1c-1.5,0.8-2.8,1.8-3.8,3.1c-1.1,1.3-1.9,2.8-2.5,4.5c-0.6,1.7-0.9,3.6-0.9,5.5c0,1.9,0.3,3.8,0.9,5.5
		c0.6,1.7,1.4,3.2,2.5,4.5c1.1,1.3,2.3,2.3,3.8,3.1C198.2,58.9,199.8,59.3,201.6,59.3z"/>
	<path fill="#053A54" d="M434,68.7c-2.1,0-4.2-0.3-6.1-0.8c-1.9-0.6-3.7-1.4-5.4-2.4c-1.7-1-3.2-2.3-4.6-3.7c-1.4-1.4-2.5-3-3.5-4.8
		c-1-1.8-1.7-3.6-2.3-5.6c-0.5-2-0.8-4.1-0.8-6.3c0-2.2,0.3-4.3,0.8-6.3c0.5-2,1.3-3.9,2.3-5.7c1-1.8,2.1-3.4,3.5-4.8
		c1.4-1.4,2.9-2.7,4.6-3.7c1.7-1,3.5-1.8,5.4-2.4c1.9-0.6,4-0.8,6.1-0.8c2.1,0,4.2,0.3,6.1,0.8c1.9,0.6,3.8,1.4,5.4,2.4
		s3.2,2.3,4.6,3.7c1.4,1.4,2.5,3,3.5,4.8c1,1.8,1.7,3.6,2.3,5.7c0.5,2,0.8,4.1,0.8,6.3c0,2.2-0.3,4.3-0.8,6.3
		c-0.5,2-1.3,3.9-2.3,5.7c-1,1.8-2.2,3.4-3.5,4.8c-1.4,1.4-2.9,2.7-4.6,3.7s-3.5,1.8-5.4,2.4C438.1,68.4,436.1,68.7,434,68.7z
		 M434,59.3c1.8,0,3.4-0.4,4.9-1.1c1.5-0.8,2.8-1.8,3.8-3.1c1.1-1.3,1.9-2.8,2.5-4.5c0.6-1.7,0.9-3.5,0.9-5.5c0-1.9-0.3-3.8-0.9-5.5
		c-0.6-1.7-1.4-3.2-2.5-4.5c-1.1-1.3-2.4-2.3-3.8-3.1c-1.5-0.8-3.1-1.1-4.9-1.1c-1.8,0-3.4,0.4-4.9,1.1c-1.5,0.8-2.8,1.8-3.8,3.1
		c-1.1,1.3-1.9,2.8-2.5,4.5c-0.6,1.7-0.9,3.6-0.9,5.5c0,1.9,0.3,3.8,0.9,5.5c0.6,1.7,1.4,3.2,2.5,4.5c1.1,1.3,2.3,2.3,3.8,3.1
		C430.6,58.9,432.2,59.3,434,59.3z"/>
	<path fill="#053A54" d="M278.5,21.9h19.8v8.4h-4.2l-10.7,37.9h-13.2l-7-28.9l-7.2,28.9H243l-10.9-37.9h-4.7v-8.4h19.9v8.4h-4.8
		l6.8,25l8.2-33.3h11.4l8.1,33.3l6.8-25h-5.4V21.9z"/>
	<path fill="#053A54" d="M336.3,21.9h17.6v8.4h-3.8v37.9H340l-19.3-30v21.6h3.9v8.4H307v-8.4h3.8V30.3h-3.8v-8.4h14l19.2,30.4v-22
		h-3.9V21.9z"/>
	<path fill="#053A54" d="M374.4,59.9h4.8V30h-5.6v6h-10V21.9h42.2V36h-10v-6h-6.4v29.9h4.9v8.4h-19.8V59.9z"/>
	<path fill="#053A54" d="M510.2,21.9h19.8v8.4h-4.2l-10.7,37.9H502l-7-28.9l-7.2,28.9h-13.1l-10.9-37.9h-4.7v-8.4h19.9v8.4h-4.8
		l6.8,25l8.2-33.3h11.4l8.1,33.3l6.8-25h-5.4V21.9z"/>
	<path fill="#053A54" d="M568.3,21.9h17.6v8.4h-3.8v37.9H572l-19.3-30v21.6h3.9v8.4H539v-8.4h3.8V30.3H539v-8.4h14l19.2,30.4v-22
		h-3.9V21.9z"/>
</g>
<g>
	<path fill="#6B6C6F" d="M134.5,99.2V82.5h6.2c1.4,0,2.6,0.2,3.6,0.7c1,0.4,1.9,1,2.6,1.8c0.7,0.8,1.2,1.6,1.6,2.6
		c0.4,1,0.5,2.1,0.5,3.2c0,1.3-0.2,2.4-0.6,3.4c-0.4,1-1,1.9-1.7,2.6c-0.7,0.7-1.6,1.3-2.6,1.7c-1,0.4-2.2,0.6-3.4,0.6H134.5z
		 M145.1,90.8c0-0.7-0.1-1.4-0.3-2c-0.2-0.6-0.5-1.1-0.9-1.6c-0.4-0.4-0.8-0.8-1.4-1c-0.5-0.2-1.2-0.4-1.9-0.4h-2.4v9.9h2.4
		c0.7,0,1.3-0.1,1.9-0.4c0.5-0.3,1-0.6,1.4-1c0.4-0.4,0.6-1,0.8-1.6C145,92.2,145.1,91.5,145.1,90.8z"/>
	<path fill="#6B6C6F" d="M174.7,95.8v3.4H163V82.5h11.5v3.4h-7.7v3.2h6.6v3.1h-6.6v3.5H174.7z"/>
	<path fill="#6B6C6F" d="M198.5,87.4c0-0.1-0.2-0.2-0.5-0.4c-0.3-0.2-0.6-0.4-1.1-0.5c-0.4-0.2-0.9-0.4-1.4-0.5s-1-0.2-1.5-0.2
		c-1.4,0-2.1,0.5-2.1,1.4c0,0.3,0.1,0.5,0.2,0.7c0.1,0.2,0.4,0.4,0.7,0.5c0.3,0.1,0.7,0.3,1.1,0.4c0.4,0.1,0.9,0.3,1.5,0.4
		c0.8,0.2,1.5,0.5,2.2,0.7c0.6,0.3,1.2,0.6,1.6,1c0.4,0.4,0.8,0.8,1,1.4c0.2,0.5,0.4,1.2,0.4,2c0,0.9-0.2,1.7-0.5,2.4
		c-0.4,0.6-0.8,1.2-1.4,1.6c-0.6,0.4-1.2,0.7-2,0.9c-0.8,0.2-1.5,0.3-2.3,0.3c-0.6,0-1.2,0-1.9-0.1c-0.6-0.1-1.3-0.2-1.9-0.4
		c-0.6-0.2-1.2-0.4-1.8-0.6c-0.6-0.3-1.1-0.5-1.6-0.9l1.7-3.4c0.1,0.1,0.3,0.2,0.6,0.4c0.3,0.2,0.8,0.4,1.3,0.7
		c0.5,0.2,1.1,0.4,1.7,0.6c0.6,0.2,1.3,0.3,1.9,0.3c1.4,0,2-0.4,2-1.2c0-0.3-0.1-0.6-0.3-0.8c-0.2-0.2-0.5-0.4-0.8-0.6
		s-0.8-0.3-1.3-0.5c-0.5-0.1-1-0.3-1.6-0.5c-0.8-0.2-1.4-0.5-2-0.8c-0.6-0.3-1-0.6-1.4-1c-0.4-0.4-0.6-0.8-0.8-1.2
		c-0.2-0.5-0.3-1-0.3-1.6c0-0.9,0.2-1.7,0.5-2.3c0.3-0.7,0.8-1.2,1.3-1.7c0.6-0.5,1.2-0.8,2-1c0.7-0.2,1.5-0.4,2.4-0.4
		c0.6,0,1.2,0.1,1.7,0.2c0.6,0.1,1.1,0.3,1.6,0.4c0.5,0.2,1,0.4,1.4,0.6c0.4,0.2,0.9,0.4,1.2,0.7L198.5,87.4z"/>
	<path fill="#6B6C6F" d="M214.7,99.2V82.5h3.9v16.7H214.7z"/>
	<path fill="#6B6C6F" d="M244.9,97.5c-1.3,1.2-2.7,1.8-4.4,1.8c-1.1,0-2.1-0.2-3.1-0.6c-1-0.4-1.8-1-2.5-1.7
		c-0.7-0.8-1.3-1.7-1.7-2.7c-0.4-1.1-0.6-2.2-0.6-3.5c0-1.1,0.2-2.2,0.6-3.2c0.4-1,1-1.9,1.7-2.7c0.7-0.8,1.6-1.3,2.6-1.8
		c1-0.4,2.1-0.7,3.3-0.7c1.6,0,2.9,0.3,4.1,1c1.2,0.6,2,1.5,2.6,2.7l-2.9,2.2c-0.4-0.8-0.9-1.3-1.6-1.7c-0.7-0.4-1.5-0.6-2.3-0.6
		c-0.6,0-1.2,0.1-1.7,0.4c-0.5,0.3-1,0.6-1.4,1.1c-0.4,0.5-0.7,1-0.9,1.6c-0.2,0.6-0.3,1.3-0.3,2c0,0.7,0.1,1.4,0.3,2
		c0.2,0.6,0.5,1.1,0.9,1.6c0.4,0.4,0.9,0.8,1.4,1c0.5,0.3,1.1,0.4,1.8,0.4c1.5,0,2.9-0.7,4.1-2.1v-0.5h-3.2v-2.8h6.4v8.7h-3.2V97.5z
		"/>
	<path fill="#6B6C6F" d="M266.2,89.6v9.5h-3.9V82.5h3l7.8,9.8v-9.8h3.9v16.7h-3.1L266.2,89.6z"/>
	<path fill="#6B6C6F" d="M308.2,90.7c0-1,0.2-2,0.6-3c0.4-1,0.9-1.9,1.6-2.7c0.7-0.8,1.6-1.4,2.6-1.9c1-0.5,2.2-0.7,3.5-0.7
		c1.6,0,2.9,0.3,4.1,1c1.2,0.7,2,1.6,2.6,2.6l-3,2.1c-0.2-0.4-0.4-0.8-0.7-1.1c-0.3-0.3-0.6-0.5-1-0.7c-0.3-0.2-0.7-0.3-1.1-0.4
		c-0.4-0.1-0.7-0.1-1.1-0.1c-0.7,0-1.4,0.1-1.9,0.4c-0.5,0.3-1,0.7-1.4,1.2c-0.4,0.5-0.6,1-0.8,1.6c-0.2,0.6-0.3,1.2-0.3,1.8
		c0,0.7,0.1,1.3,0.3,1.9s0.5,1.2,0.9,1.6c0.4,0.5,0.8,0.8,1.4,1.1c0.5,0.3,1.1,0.4,1.8,0.4c0.3,0,0.7,0,1.1-0.1
		c0.4-0.1,0.7-0.2,1.1-0.4c0.3-0.2,0.6-0.4,0.9-0.7c0.3-0.3,0.5-0.6,0.7-1.1l3.1,1.9c-0.3,0.6-0.6,1.2-1.1,1.6
		c-0.5,0.5-1.1,0.9-1.7,1.2c-0.6,0.3-1.3,0.6-2,0.8c-0.7,0.2-1.4,0.3-2.1,0.3c-1.2,0-2.3-0.2-3.3-0.7c-1-0.5-1.9-1.1-2.6-2
		c-0.7-0.8-1.3-1.7-1.7-2.8C308.4,92.8,308.2,91.8,308.2,90.7z"/>
	<path fill="#6B6C6F" d="M344.1,96c-1,0-1.9-0.2-2.7-0.6c-0.8-0.4-1.5-0.9-2.1-1.5c-0.6-0.6-1-1.4-1.3-2.2c-0.3-0.8-0.5-1.7-0.5-2.5
		c0-0.9,0.2-1.7,0.5-2.5s0.8-1.5,1.4-2.2c0.6-0.6,1.3-1.1,2.1-1.5c0.8-0.4,1.7-0.6,2.7-0.6c1,0,1.9,0.2,2.7,0.6
		c0.8,0.4,1.5,0.9,2.1,1.5c0.6,0.6,1,1.4,1.3,2.2c0.3,0.8,0.5,1.6,0.5,2.5c0,0.9-0.2,1.7-0.5,2.5c-0.3,0.8-0.8,1.5-1.4,2.2
		c-0.6,0.6-1.3,1.1-2.1,1.5C345.9,95.8,345,96,344.1,96z M340.6,89.2c0,0.5,0.1,1,0.2,1.5c0.2,0.5,0.4,0.9,0.7,1.3
		c0.3,0.4,0.7,0.7,1.1,0.9c0.4,0.2,0.9,0.3,1.5,0.3c0.6,0,1.1-0.1,1.5-0.4c0.4-0.2,0.8-0.5,1.1-0.9c0.3-0.4,0.5-0.8,0.7-1.3
		c0.1-0.5,0.2-1,0.2-1.5c0-0.5-0.1-1-0.2-1.5c-0.2-0.5-0.4-0.9-0.7-1.3c-0.3-0.4-0.7-0.7-1.1-0.9c-0.4-0.2-0.9-0.3-1.5-0.3
		c-0.6,0-1.1,0.1-1.5,0.3c-0.4,0.2-0.8,0.5-1.1,0.9c-0.3,0.4-0.5,0.8-0.7,1.3C340.6,88.2,340.6,88.7,340.6,89.2z"/>
	<path fill="#6B6C6F" d="M338.1,99.2V97h12v2.2H338.1z"/>
</g>
<path fill="#C83C55" d="M109.2,36.4h-5.4h-7V24.6v-0.9c0-3.1-2.5-5.5-5.5-5.5h-8.7h-3.9H67.4h-2.2H53.9v11.2h13.5v7H50.6v-6.1h0
	V12.9h0v-1.7h1.7h15.1v3.7h11.2V5.7C78.6,2.5,76.1,0,73,0h-5.5H52.3h-1.7H35.5v11.2h3.9v7h-15c-3.2,0-5.8,2.6-5.8,5.8v5.4h3V33h11.2
	v-3.6h6.6v7h-5.2h-1.4H21.7H17H0v11.2h3.1v16.8H0v11.2h18.4V64.3h-4.1V47.6h7.4v16.8h0v11.2h0v7.3h-3v5.4c0,3.2,2.6,5.8,5.8,5.8h15
	v6.6v0.1h-3.9v11.2h3.9h11.2h1.7h15.1H73c3.1,0,5.7-2.5,5.7-5.7V94h12.7c3.1,0,5.5-2.5,5.5-5.5v-0.1V83v-0.2v-7.3h7h5.4
	c3.2,0,5.8-2.6,5.8-5.8v-5.4V47.6v-5.4C115,39,112.4,36.4,109.2,36.4z M39.5,82.8h-6.6v-7.3h6.6V82.8z M39.5,64.3h-6.6V47.6h6.6
	V64.3z M67.4,96.9L67.4,96.9l0,3.8H52.3h-1.7v-0.1V94h13.5V82.8H50.6v-7.3h16.8v4.1h0V96.9z M85.6,82.8L85.6,82.8l-7,0v-7.3h7V82.8z
	 M103.8,64.3h-7v-3.8H85.6v3.8h-3.1v0H65.2v0H50.6V47.6h16.8V61h11.2v-9.8v-3.7V36.4v-2.4v-4.5h7v7h-3.7v11.2h3.7v3.9h11.2v-3.9h7
	V64.3z"/>
</svg>