<!-- Generator: Adobe Illustrator 17.1.0, SVG Export Plug-In  -->
<svg version="1.1"
	 xmlns="http://www.w3.org/2000/svg" xmlns:xlink="http://www.w3.org/1999/xlink" xmlns:a="http://ns.adobe.com/AdobeSVGViewerExtensions/3.0/"
	 x="0px" y="0px" width="559.1px" height="200.4px" viewBox="0 0 559.1 200.4" enable-background="new 0 0 559.1 200.4"
	 xml:space="preserve">
<defs>
</defs>
<g>
	<path fill="#C73B54" d="M154.9,48.5c15.3-18.6,24.6-35.6,6.7-43.8c0,0-1.8-0.8-0.7,1.7c0.5,1,0.7,2.1,0.6,3.1
		c-0.3,3.7-2.3,12.5-12.3,27.5c-10.2-15.8-28-26.4-57.1-26.8C40.7,9.7-14.4,53.7,15.5,76.9c1.6,1.2,3.9,0.6,4.6-1.3
		c4-11.4,21-45.1,81-44.4c22.4,0.3,34.3,7.3,39.7,17.3c-2.4,3-5.1,6.3-8.1,9.7c-6.1,6.9-11.8,13.7-16.9,20.2l-7.8,1.7
		c-1,0.2-1.7,1.2-1.5,2.3l1.2,6.8C92,111,86,126.8,101.3,126.7c0,0-2.7-7.8,15.5-33.2l3.6-0.7c1.7-0.3,3-1.9,2.8-3.7l-0.3-3.7
		c6.2-7.8,13.9-16.2,21.3-24.6c1.8,21.6-13.9,48.3-22.2,56.1c-9.1,8.5-34.5,25.8-63.6,30.1c3.6-9.9,9.3-21.3,18-33.6
		c29.4-41.2,54.5-64,20.6-76.6c0,0-4.2-2.3-3.4,2.3c0.3,1.8,0.1,3.7-0.5,5.4c-1.3,3.8-4.5,10.8-12.3,21.6
		c-8.2,11.5-35.9,50.4-42.7,81.6c-11.5-1-23.1-4.6-34.2-12c0,0-8.6-7-0.1,6.9c5.7,9.4,14.1,15.7,32.8,19
		c0.3,10.9,4.7,19.7,15.8,24.4c0,0-1.4-8.5,1.3-22.4c5.3,0.4,11.2,0.6,17.7,0.7c44.8,0.6,88.7-41.1,89.1-79.8
		C160.7,71.7,159,59.4,154.9,48.5z"/>
	<path fill="#C73B54" d="M176.1,149.9c12.1,0.2,44.6-48.1,50.1-56.4c0.4-0.5,1.2-0.5,1.4,0.1c2.2,4.7,9.4,20.5,9.4,27
		c-0.1,7.6-10.5,16.3-15.6,19.3c-5.1,3-13.3,2.3-15.7-1.4c-2.4-3.8-2.2-1.5-2.2-1.5c-1.1,12.4,11.4,14.7,19.7,14.9
		c5.1,0.1,10.1-0.9,14.7-3.1c7.4-3.5,17.6-10.8,17.8-24.7c0.3-21.8-16.9-24.8-16.7-43.3c0.1-8.8,4.5-12.2,9.1-13.5
		c0.7-0.2,1.3,0.5,1,1.1c-1,2.4-0.9,4-0.9,4c-0.2,14.8,9,13.9,13.3,12.7c0.7-0.2,0.8-1.1,0.2-1.5c-2.2-1.3-4.8-5,0.9-14.4
		c5.6-9.3,4.6-15.8,3.3-19c-0.3-0.8-1.4-0.7-1.6,0.1c-0.9,4.7-3.7,6.1-7.9,9.5c-0.4,0.3-0.9,0.2-1.2-0.2c-6.2-8.9-15.1-5.8-15.1-5.8
		c-20.2,7.2-17.7,26.2-17.2,29c0,0.2,0,0.5-0.2,0.7c-2.9,3.7-33.2,41.9-44.4,50.5c-10.7,8.2-1.6-24.2,0.1-30.2
		c0.1-0.5,0.7-0.7,1.2-0.5c16.3,7.3,36.3-18.2,37.2-34.4c0.1-1.4,0.1-2.6,0-3.8c-0.8-8.9-10.5-14.2-18.5-10.2
		c-9,4.5-25.1,15.6-35,41.1C148.9,132.7,162.8,149.7,176.1,149.9z M182.4,95c3.6-5.1,22.8-31.8,24.3-24.3c1.6,8-15.2,28.3-23.9,25.6
		C182.3,96.1,182.1,95.4,182.4,95z"/>
	<path fill="#C73B54" d="M307.7,54.5c1.2,0.6,2.7-0.1,3-1.4c1.3-5.2,6.8-13,6.8-13c-1.1-16.1-19-11.7-19-11.7
		C285.5,42.2,301,51.4,307.7,54.5z"/>
	<path fill="#C73B54" d="M416.9,123.8c0,0,3.1,42-14.6,41.8c-17.7-0.2,6-45.3,16-56.4c9.5-10.6,44.5-44.2,15.2-54.9
		c-2.6-1-5.6-0.4-7.7,1.5l-23.8,21c0,0,20.1-24.1-12.1-25.7c0,0-1.6-0.5-0.8,1.4l0,0c0.6,1.3,0.6,2.7,0.1,4
		c-1.2,3.2-4.1,10-9.7,19.3c-8.1,13.3-43.7,67.4-19.1,67.7c0,0,5.7,0.1,8.8-2.1c0,0-2-3.8,4-15.4s7.7-14,7.7-14s30.8-38,43.9-42.6
		c13.1-4.7-39.3,35.2-42,64.5c-2.7,29.3,7.1,41.4,24.1,41.6c16.9,0.2,26.4-31.2,26.5-38.1C433.6,130.4,428.2,118.2,416.9,123.8z"/>
	<path fill="#C73B54" d="M487.1,94.1c0,0-11,40.2-26.4,40c-15.4-0.2,9.5-46.5,9.5-46.5S507,25,509.7,36.7c0,0-0.3,22.7-14.2,39.9
		c0,0-3.2,3.6,1.1,3.4c4.4-0.2,30.6-10.4,30.9-39c0,0,2-26.1-16-25.3c-18,0.8-57.9,45.2-69.5,82.4c-11.6,37.3,15.2,48,21,48.1
		s34.6-1.9,35-41.3C497.9,105,497.5,92.4,487.1,94.1z"/>
	<path fill="#C73B54" d="M551.6,60.5c-4.4-1.5-9.3-1.1-13.3,1.3c-1.7,1-3.3,2.4-4.3,4.4c0,0,21.4,1.6,10.9,22s-24.4,40.9-30.7,40.8
		c-6.3-0.1,6.1-33.1,30.2-44.6c0,0,1.3-9.7-8.6-9.8c-9.9-0.1-35.6,24-35.9,48.5c-0.3,24.5,21,21.9,33.6,3.1
		C545,108.9,572.2,67.6,551.6,60.5z"/>
	
		<ellipse transform="matrix(0.4565 -0.8897 0.8897 0.4565 176.44 556.509)" fill="#C73B54" cx="543.7" cy="133.8" rx="10.9" ry="7"/>
	<path fill="#C73B54" d="M335.8,144.4c6.5-11.6,10.7-20.6,10.7-20.6l29.8-52.7c0,0,10.4-14-5-18.5c-0.8-0.2-1.6,0.1-2,0.9l-5,10.1
		c0,0-2.3-11.5-15.7-11.7c-13.5-0.2-38.2,18.7-53,57.6c0,0-16.2,24.5-21.3,24.4c-5.1-0.1,15.5-37.1,23.3-48.4
		c7.9-11.4,9.2-26.8-1-29.6c-10.1-2.8-10.1-2.8-10.1-2.8s-2.8-0.8-1.8,1.2c1,2,1.9,5.8-1.6,12.8c-3.5,7-44.8,78.1-14.2,78.4
		c0,0,7.5-0.8,13.3-8c5.8-7.2,11.4-14,11.4-14s-1.5,16.3,9.1,16.4c10.6,0.1,19.4-15.4,19.4-15.4s-3.6,8.9-9.5,19.1
		c-49.2,0.8-111.3,14-131.9,22c-37.3,14.4-18.1,34.7-18.1,34.7s43.9-33.3,121.4-43.6c7.8-1,15-1.7,21.7-2
		c-9.7,13.6-22.3,24.7-34.6,15.1c0,0-7.1,22.8,18,23.2c13.4,0.2,28.8-19.5,40.2-38c39.1,3.3,48.8,20,48.8,20
		C382.7,155.5,363.8,146.8,335.8,144.4z M315.1,124c-14.1-1.7,29.7-55.2,35.8-59.4c6.1-4.2,5.9,6.1,5.9,6.1l-22.4,34.9L315.1,124z"
		/>
</g>
<g>
	<path fill="#043A54" d="M194.4,7.4c-1-1.7-2.3-3-3.7-3.9c-1.4-0.9-2.8-1.6-4.4-2.1c-1.5-0.4-3.1-0.7-4.6-0.8
		c-1.5-0.1-3-0.1-4.3-0.1H167v60.4h10.4c1.4,0,2.9,0,4.3-0.1c1.6-0.1,3.1-0.3,4.6-0.8c1.5-0.4,3-1.1,4.4-2.1
		c1.4-0.9,2.6-2.3,3.7-3.9c1-1.6,1.8-3.7,2.4-6.1c0.6-2.4,0.9-5.4,0.9-8.8V22.3c0-3.4-0.3-6.4-0.9-8.8C196.2,11.1,195.4,9,194.4,7.4
		z M185.9,21.9v17.9c0,2.6-0.1,4.8-0.3,6.6c-0.2,1.6-0.6,2.8-1.1,3.7c-0.4,0.8-1,1.3-1.8,1.6c-0.9,0.3-2,0.5-3.4,0.5h-0.9V9.5h0.9
		c1.4,0,2.6,0.2,3.4,0.5c0.8,0.3,1.3,0.8,1.8,1.6c0.5,0.9,0.9,2.1,1.1,3.7C185.8,17,185.9,19.3,185.9,21.9z"/>
	<path fill="#043A54" d="M229.8,6.9c-0.8-1.5-1.8-2.8-3-3.7c-1.1-0.9-2.2-1.6-3.4-2.1c-1.1-0.5-2.3-0.8-3.5-0.9
		c-1.1-0.1-2.1-0.2-3-0.2c-1,0-2,0.1-3.1,0.2c-1.2,0.1-2.4,0.5-3.5,1c-1.2,0.5-2.3,1.2-3.4,2.1c-1.1,0.9-2.1,2.2-2.9,3.7
		c-0.8,1.5-1.5,3.4-2,5.6c-0.5,2.1-0.7,4.8-0.7,7.7v20.5c0,3,0.2,5.6,0.7,7.7c0.5,2.2,1.1,4.1,1.9,5.6c0.8,1.6,1.8,2.8,2.9,3.8
		c1.1,1,2.2,1.7,3.4,2.2c1.2,0.5,2.4,0.9,3.6,1c1.1,0.2,2.2,0.2,3.2,0.2c0.9,0,1.9-0.1,3-0.3c1.2-0.2,2.3-0.5,3.5-1.1
		c1.2-0.5,2.3-1.3,3.4-2.2c1.1-1,2.1-2.3,3-3.8c0.8-1.5,1.5-3.4,2-5.6c0.5-2.2,0.7-4.7,0.7-7.7V20.3c0-3-0.2-5.7-0.7-7.8
		C231.3,10.3,230.7,8.4,229.8,6.9z M220.8,17.9v26.3c0,1.7-0.1,3.1-0.3,4.2c-0.2,1-0.5,1.8-0.8,2.4c-0.3,0.5-0.6,0.8-1,1
		c-0.5,0.2-1,0.3-1.7,0.3c-0.7,0-1.3-0.1-1.8-0.3c-0.4-0.2-0.7-0.5-1-1c-0.3-0.6-0.6-1.4-0.8-2.4c-0.2-1.1-0.3-2.5-0.3-4.2V17.9
		c0-1.8,0.1-3.3,0.3-4.4c0.2-1.1,0.5-1.9,0.8-2.6c0.3-0.5,0.6-0.9,1.1-1.1c0.5-0.2,1.1-0.3,1.7-0.3c0.7,0,1.2,0.1,1.7,0.3
		c0.4,0.2,0.7,0.5,1,1.1c0.3,0.6,0.6,1.5,0.8,2.6C220.7,14.7,220.8,16.2,220.8,17.9z"/>
	<polygon fill="#043A54" points="270.3,33.6 264.5,0.5 255.3,0.5 249.1,34.2 245.4,0.5 234.3,0.5 243,60.9 254,60.9 259.2,32 
		259.7,27.8 260.3,32.1 265.2,60.9 276.4,60.9 284.8,0.5 273.7,0.5 	"/>
	<path fill="#043A54" d="M308.6,22.9c0,2.2,0,4.2,0.1,6.1c0,0.9,0.1,1.8,0.1,2.7L297.6,0.5h-9.3v60.4h10.4V42.6c0-2.9,0-5.5-0.1-7.6
		c-0.1-1.7-0.1-3.3-0.2-4.8l11.4,30.7h9.4V0.5h-10.5V22.9z"/>
	<polygon fill="#043A54" points="322.4,10 331.7,10 331.7,60.9 343.1,60.9 343.1,10 352.4,10 352.4,0.5 322.4,0.5 	"/>
	<path fill="#043A54" d="M382.6,6.9c-0.8-1.5-1.8-2.8-3-3.7c-1.1-0.9-2.2-1.6-3.4-2.1c-1.1-0.5-2.3-0.8-3.5-0.9
		c-1.1-0.1-2.1-0.2-3-0.2c-1,0-2,0.1-3.1,0.2c-1.2,0.1-2.4,0.5-3.5,1c-1.2,0.5-2.3,1.2-3.4,2.1c-1.1,0.9-2.1,2.2-2.9,3.7
		c-0.8,1.5-1.5,3.4-2,5.5c-0.5,2.1-0.7,4.8-0.7,7.7v20.5c0,3,0.2,5.6,0.7,7.7c0.5,2.2,1.1,4.1,1.9,5.6c0.8,1.6,1.8,2.8,2.9,3.8
		c1.1,1,2.2,1.7,3.4,2.2c1.2,0.5,2.4,0.9,3.6,1c1.1,0.2,2.2,0.2,3.2,0.2c0.9,0,1.9-0.1,3-0.3c1.2-0.2,2.3-0.5,3.5-1.1
		c1.2-0.5,2.3-1.3,3.4-2.2c1.1-1,2.1-2.3,3-3.8c0.8-1.5,1.5-3.4,2-5.6c0.5-2.2,0.7-4.7,0.7-7.7V20.3c0-3-0.2-5.7-0.7-7.8
		C384.1,10.3,383.4,8.4,382.6,6.9z M373.6,17.9v26.3c0,1.7-0.1,3.1-0.3,4.3c-0.2,1-0.5,1.8-0.8,2.4c-0.3,0.5-0.6,0.8-1,1
		c-0.5,0.2-1,0.3-1.7,0.3c-0.7,0-1.3-0.1-1.8-0.3c-0.4-0.2-0.7-0.5-1-1c-0.3-0.6-0.6-1.4-0.8-2.4c-0.2-1.1-0.3-2.5-0.3-4.3V17.9
		c0-1.8,0.1-3.2,0.3-4.4c0.2-1.1,0.5-2,0.8-2.6c0.3-0.5,0.6-0.9,1.1-1.1c0.5-0.2,1.1-0.3,1.7-0.3c0.7,0,1.2,0.1,1.7,0.3
		c0.4,0.2,0.7,0.5,1,1.1c0.3,0.6,0.6,1.5,0.8,2.6C373.5,14.7,373.6,16.2,373.6,17.9z"/>
	<polygon fill="#043A54" points="423.1,33.6 417.3,0.5 408.1,0.5 401.9,34.2 398.2,0.5 387.1,0.5 395.8,60.9 406.8,60.9 412,32 
		412.5,27.8 413.1,32.1 418,60.9 429.2,60.9 437.6,0.5 426.5,0.5 	"/>
	<path fill="#043A54" d="M461.4,0.5v22.4c0,2.2,0,4.2,0.1,6.1c0,0.9,0.1,1.8,0.1,2.7L450.4,0.5H441v60.4h10.4V42.6
		c0-2.9,0-5.5-0.1-7.6c-0.1-1.7-0.1-3.3-0.2-4.8l11.4,30.7h9.4V0.5H461.4z"/>
</g>
</svg>