<!-- Generator: Adobe Illustrator 17.1.0, SVG Export Plug-In  -->
<svg version="1.1"
	 xmlns="http://www.w3.org/2000/svg" xmlns:xlink="http://www.w3.org/1999/xlink" xmlns:a="http://ns.adobe.com/AdobeSVGViewerExtensions/3.0/"
	 x="0px" y="0px" width="470px" height="334px" viewBox="0 0 470 334" enable-background="new 0 0 470 334" xml:space="preserve">
<defs>
</defs>
<g>
	<linearGradient id="SVGID_1_" gradientUnits="userSpaceOnUse" x1="0" y1="167" x2="470" y2="167">
		<stop  offset="0" style="stop-color:#C73B54"/>
		<stop  offset="1" style="stop-color:#043A54"/>
	</linearGradient>
	<rect x="0" fill="url(#SVGID_1_)" width="470" height="334"/>
	<g>
		<path fill="#FFFFFF" d="M155.7,176.1v-14.2h9.5v2.4h-6.8v3.7h5.6v2.2h-5.6v5.9H155.7z"/>
		<path fill="#FFFFFF" d="M176.9,176.2c-1,0-2-0.2-2.8-0.6s-1.6-0.9-2.2-1.6c-0.6-0.7-1.1-1.4-1.4-2.3c-0.3-0.9-0.5-1.8-0.5-2.7
			c0-0.9,0.2-1.9,0.5-2.7c0.4-0.9,0.8-1.6,1.5-2.3c0.6-0.7,1.4-1.2,2.2-1.6c0.9-0.4,1.8-0.6,2.8-0.6c1,0,2,0.2,2.8,0.6
			s1.6,1,2.2,1.6s1.1,1.5,1.4,2.3c0.3,0.9,0.5,1.7,0.5,2.6c0,0.9-0.2,1.9-0.5,2.7s-0.8,1.6-1.4,2.3c-0.6,0.7-1.3,1.2-2.2,1.6
			C178.9,176,177.9,176.2,176.9,176.2z M172.8,169c0,0.6,0.1,1.2,0.3,1.8c0.2,0.6,0.5,1.1,0.8,1.5c0.4,0.4,0.8,0.8,1.3,1.1
			c0.5,0.3,1.1,0.4,1.8,0.4c0.7,0,1.3-0.1,1.8-0.4c0.5-0.3,0.9-0.6,1.3-1.1s0.6-1,0.8-1.5c0.2-0.6,0.3-1.1,0.3-1.7
			c0-0.6-0.1-1.2-0.3-1.8s-0.5-1.1-0.8-1.5s-0.8-0.8-1.3-1.1c-0.5-0.3-1.1-0.4-1.7-0.4c-0.7,0-1.3,0.1-1.8,0.4
			c-0.5,0.3-1,0.6-1.3,1.1c-0.3,0.4-0.6,1-0.8,1.5C172.9,167.8,172.8,168.4,172.8,169z"/>
		<path fill="#FFFFFF" d="M200,164.3h-4.5v11.8h-2.7v-11.8h-4.5v-2.4H200V164.3z"/>
		<path fill="#FFFFFF" d="M211.1,176.2c-1,0-2-0.2-2.8-0.6s-1.6-0.9-2.2-1.6c-0.6-0.7-1.1-1.4-1.4-2.3c-0.3-0.9-0.5-1.8-0.5-2.7
			c0-0.9,0.2-1.9,0.5-2.7c0.4-0.9,0.8-1.6,1.5-2.3c0.6-0.7,1.4-1.2,2.2-1.6c0.9-0.4,1.8-0.6,2.8-0.6c1,0,2,0.2,2.8,0.6
			s1.6,1,2.2,1.6s1.1,1.5,1.4,2.3c0.3,0.9,0.5,1.7,0.5,2.6c0,0.9-0.2,1.9-0.5,2.7s-0.8,1.6-1.4,2.3c-0.6,0.7-1.3,1.2-2.2,1.6
			C213,176,212.1,176.2,211.1,176.2z M207,169c0,0.6,0.1,1.2,0.3,1.8c0.2,0.6,0.5,1.1,0.8,1.5c0.4,0.4,0.8,0.8,1.3,1.1
			c0.5,0.3,1.1,0.4,1.8,0.4c0.7,0,1.3-0.1,1.8-0.4c0.5-0.3,0.9-0.6,1.3-1.1s0.6-1,0.8-1.5c0.2-0.6,0.3-1.1,0.3-1.7
			c0-0.6-0.1-1.2-0.3-1.8s-0.5-1.1-0.8-1.5s-0.8-0.8-1.3-1.1c-0.5-0.3-1.1-0.4-1.7-0.4c-0.7,0-1.3,0.1-1.8,0.4
			c-0.5,0.3-1,0.6-1.3,1.1c-0.3,0.4-0.6,1-0.8,1.5C207.1,167.8,207,168.4,207,169z"/>
		<path fill="#FFFFFF" d="M234,174.5c-1.1,1.1-2.5,1.7-4,1.7c-0.9,0-1.8-0.2-2.6-0.6c-0.8-0.4-1.5-0.9-2.1-1.5
			c-0.6-0.7-1.1-1.4-1.4-2.3s-0.5-1.8-0.5-2.9c0-1,0.2-1.9,0.5-2.8c0.4-0.9,0.8-1.6,1.5-2.3c0.6-0.6,1.4-1.2,2.2-1.5
			s1.8-0.6,2.7-0.6c1.3,0,2.5,0.3,3.4,0.8c1,0.6,1.7,1.3,2.1,2.3l-2.1,1.5c-0.4-0.7-0.9-1.2-1.5-1.6c-0.6-0.4-1.4-0.6-2.1-0.6
			c-0.6,0-1.2,0.1-1.7,0.4c-0.5,0.3-0.9,0.6-1.3,1c-0.4,0.4-0.6,0.9-0.8,1.5s-0.3,1.2-0.3,1.8c0,0.7,0.1,1.3,0.3,1.9
			c0.2,0.6,0.5,1.1,0.9,1.5c0.4,0.4,0.8,0.8,1.3,1c0.5,0.2,1.1,0.4,1.7,0.4c1.4,0,2.6-0.6,3.7-1.9v-1h-2.9v-2h5.1v7.3H234V174.5z"/>
		<path fill="#FFFFFF" d="M242.7,176.1v-14.2h6.3c0.7,0,1.3,0.1,1.8,0.4c0.6,0.3,1,0.6,1.4,1.1s0.7,1,0.9,1.5
			c0.2,0.6,0.3,1.1,0.3,1.7c0,0.9-0.2,1.8-0.7,2.5c-0.5,0.8-1.1,1.3-1.9,1.6l3.2,5.3h-3.1l-2.9-4.8h-2.7v4.8H242.7z M245.4,168.9
			h3.5c0.3,0,0.5-0.1,0.7-0.2c0.2-0.1,0.4-0.3,0.6-0.5c0.2-0.2,0.3-0.4,0.4-0.7c0.1-0.3,0.1-0.6,0.1-0.9c0-0.3-0.1-0.6-0.2-0.9
			c-0.1-0.3-0.2-0.5-0.4-0.7s-0.4-0.4-0.6-0.5s-0.5-0.2-0.7-0.2h-3.3V168.9z"/>
		<path fill="#FFFFFF" d="M263.8,161.9h2.4l5.4,14.2h-2.8l-1.3-3.5h-5l-1.3,3.5h-2.8L263.8,161.9z M267,170.6l-2-5.6l-2,5.6H267z"/>
		<path fill="#FFFFFF" d="M277.2,176.1v-14.2h9.5v2.4H280v3.7h5.6v2.2H280v5.9H277.2z"/>
		<path fill="#FFFFFF" d="M292.7,176.1v-14.2h2.8v14.2H292.7z M294.7,160.7l-1.7-0.5l1.1-2.4h2.5L294.7,160.7z"/>
		<path fill="#FFFFFF" d="M306.4,161.9h2.4l5.4,14.2h-2.8l-1.3-3.5h-5l-1.3,3.5H301L306.4,161.9z M309.6,170.6l-2-5.6l-2,5.6H309.6z
			"/>
	</g>
</g>
</svg>