<!-- Generator: Adobe Illustrator 17.1.0, SVG Export Plug-In  -->
<svg version="1.1"
	 xmlns="http://www.w3.org/2000/svg" xmlns:xlink="http://www.w3.org/1999/xlink" xmlns:a="http://ns.adobe.com/AdobeSVGViewerExtensions/3.0/"
	 x="0px" y="0px" width="282px" height="334px" viewBox="0 0 282 334" enable-background="new 0 0 282 334" xml:space="preserve">
<defs>
</defs>
<linearGradient id="SVGID_1_" gradientUnits="userSpaceOnUse" x1="0" y1="167" x2="282" y2="167">
	<stop  offset="0" style="stop-color:#C73B54"/>
	<stop  offset="1" style="stop-color:#043A54"/>
</linearGradient>
<rect fill="url(#SVGID_1_)" width="282" height="334"/>
<g>
	<path fill="#FFFFFF" d="M56.9,160.5c-1.1,1.1-2.5,1.7-4,1.7c-0.9,0-1.8-0.2-2.6-0.6c-0.8-0.4-1.5-0.9-2.1-1.5
		c-0.6-0.7-1.1-1.4-1.4-2.3s-0.5-1.8-0.5-2.9c0-1,0.2-1.9,0.5-2.8c0.4-0.9,0.8-1.6,1.5-2.3c0.6-0.6,1.4-1.2,2.2-1.5s1.8-0.6,2.7-0.6
		c1.3,0,2.5,0.3,3.4,0.8c1,0.6,1.7,1.3,2.1,2.3l-2.1,1.5c-0.4-0.7-0.9-1.2-1.5-1.6c-0.6-0.4-1.4-0.6-2.1-0.6c-0.6,0-1.2,0.1-1.7,0.4
		c-0.5,0.3-0.9,0.6-1.3,1c-0.4,0.4-0.6,0.9-0.8,1.5S49,154.3,49,155c0,0.7,0.1,1.3,0.3,1.9c0.2,0.6,0.5,1.1,0.9,1.5
		c0.4,0.4,0.8,0.8,1.3,1c0.5,0.2,1.1,0.4,1.7,0.4c1.4,0,2.6-0.6,3.7-1.9v-1h-2.9v-2h5.1v7.3h-2.3V160.5z"/>
	<path fill="#FFFFFF" d="M65.6,162.1v-14.2h6.3c0.7,0,1.3,0.1,1.8,0.4c0.6,0.3,1,0.6,1.4,1.1s0.7,1,0.9,1.5c0.2,0.6,0.3,1.1,0.3,1.7
		c0,0.9-0.2,1.8-0.7,2.5c-0.5,0.8-1.1,1.3-1.9,1.6l3.2,5.3H74l-2.9-4.8h-2.7v4.8H65.6z M68.3,154.9h3.5c0.3,0,0.5-0.1,0.7-0.2
		c0.2-0.1,0.4-0.3,0.6-0.5c0.2-0.2,0.3-0.4,0.4-0.7c0.1-0.3,0.1-0.6,0.1-0.9c0-0.3-0.1-0.6-0.2-0.9c-0.1-0.3-0.2-0.5-0.4-0.7
		s-0.4-0.4-0.6-0.5s-0.5-0.2-0.7-0.2h-3.3V154.9z"/>
	<path fill="#FFFFFF" d="M86.7,147.9h2.4l5.4,14.2h-2.8l-1.3-3.5h-5l-1.3,3.5h-2.8L86.7,147.9z M89.9,156.6l-2-5.6l-2,5.6H89.9z"/>
	<path fill="#FFFFFF" d="M102.9,153v9.1h-2.8v-14.2h2.1l7.4,9.3v-9.3h2.8v14.2h-2.2L102.9,153z"/>
	<path fill="#FFFFFF" d="M120.8,147.9l3.8,10.7l3.8-10.7h2.9l-5.5,14.2h-2.3l-5.6-14.2H120.8z"/>
	<path fill="#FFFFFF" d="M136.9,162.1v-14.2h2.8v14.2H136.9z"/>
	<path fill="#FFFFFF" d="M146.6,162.1v-14.2h2.8v11.8h7.2v2.4H146.6z"/>
	<path fill="#FFFFFF" d="M162.3,162.1v-14.2h2.8v11.8h7.2v2.4H162.3z"/>
	<path fill="#FFFFFF" d="M187.8,159.7v2.4H178v-14.2h9.7v2.4h-6.9v3.4h6v2.2h-6v3.7H187.8z"/>
	<path fill="#FFFFFF" d="M211.2,151.6c-0.1-0.1-0.3-0.2-0.5-0.4c-0.2-0.2-0.5-0.3-0.9-0.5c-0.4-0.2-0.7-0.3-1.2-0.4
		c-0.4-0.1-0.8-0.2-1.3-0.2c-0.8,0-1.3,0.1-1.7,0.4c-0.4,0.3-0.6,0.7-0.6,1.2c0,0.3,0.1,0.5,0.2,0.7c0.1,0.2,0.3,0.4,0.6,0.5
		c0.3,0.1,0.6,0.3,1,0.4c0.4,0.1,0.9,0.2,1.4,0.4c0.7,0.2,1.3,0.4,1.9,0.6c0.6,0.2,1,0.5,1.4,0.8c0.4,0.3,0.7,0.7,0.9,1.1
		s0.3,1,0.3,1.6c0,0.8-0.1,1.4-0.4,2c-0.3,0.5-0.7,1-1.2,1.3c-0.5,0.3-1,0.6-1.7,0.7c-0.6,0.2-1.3,0.2-2,0.2c-1.1,0-2.1-0.2-3.2-0.5
		c-1-0.3-2-0.8-2.8-1.4l1.2-2.4c0.1,0.1,0.3,0.3,0.6,0.5s0.7,0.4,1.1,0.6s0.9,0.4,1.4,0.5c0.5,0.1,1.1,0.2,1.6,0.2
		c1.5,0,2.3-0.5,2.3-1.5c0-0.3-0.1-0.6-0.3-0.8c-0.2-0.2-0.4-0.4-0.7-0.6c-0.3-0.2-0.7-0.3-1.2-0.4s-1-0.3-1.5-0.4
		c-0.7-0.2-1.3-0.4-1.8-0.6c-0.5-0.2-0.9-0.5-1.2-0.8c-0.3-0.3-0.6-0.6-0.8-1c-0.2-0.4-0.2-0.9-0.2-1.4c0-0.7,0.1-1.4,0.4-1.9
		c0.3-0.6,0.6-1,1.1-1.4c0.5-0.4,1-0.7,1.6-0.8s1.3-0.3,2-0.3c1,0,1.9,0.2,2.8,0.5c0.8,0.3,1.6,0.7,2.2,1.1L211.2,151.6z"/>
	<path fill="#FFFFFF" d="M229.6,150.3H225v11.8h-2.7v-11.8h-4.5v-2.4h11.8V150.3z"/>
	<path fill="#FFFFFF" d="M233.6,162.1v-2.9h2.2v2.9H233.6z"/>
	<path fill="#FFFFFF" d="M63.6,178.9c0-0.9,0.2-1.7,0.5-2.6s0.8-1.6,1.4-2.3c0.6-0.7,1.3-1.2,2.2-1.6c0.9-0.4,1.9-0.6,3-0.6
		c1.3,0,2.4,0.3,3.4,0.9s1.7,1.3,2.1,2.2l-2.1,1.5c-0.2-0.4-0.4-0.7-0.7-1c-0.3-0.3-0.6-0.5-0.9-0.6c-0.3-0.2-0.6-0.3-1-0.4
		c-0.3-0.1-0.7-0.1-1-0.1c-0.7,0-1.3,0.1-1.8,0.4c-0.5,0.3-0.9,0.6-1.3,1.1c-0.3,0.4-0.6,1-0.8,1.5c-0.2,0.6-0.3,1.1-0.3,1.7
		c0,0.6,0.1,1.2,0.3,1.8s0.5,1.1,0.9,1.5c0.4,0.4,0.8,0.8,1.3,1.1c0.5,0.3,1.1,0.4,1.7,0.4c0.3,0,0.7,0,1-0.1s0.7-0.2,1-0.4
		c0.3-0.2,0.6-0.4,0.9-0.7c0.3-0.3,0.5-0.6,0.6-1l2.3,1.3c-0.2,0.5-0.5,1-1,1.4s-0.9,0.8-1.4,1c-0.5,0.3-1.1,0.5-1.7,0.6
		c-0.6,0.1-1.2,0.2-1.8,0.2c-1,0-1.9-0.2-2.8-0.6s-1.6-1-2.2-1.7c-0.6-0.7-1.1-1.5-1.4-2.3C63.8,180.7,63.6,179.8,63.6,178.9z"/>
	<path fill="#FFFFFF" d="M88.1,186.2c-1,0-2-0.2-2.8-0.6s-1.6-0.9-2.2-1.6c-0.6-0.7-1.1-1.4-1.4-2.3c-0.3-0.9-0.5-1.8-0.5-2.7
		c0-0.9,0.2-1.9,0.5-2.7c0.4-0.9,0.8-1.6,1.5-2.3c0.6-0.7,1.4-1.2,2.2-1.6c0.9-0.4,1.8-0.6,2.8-0.6c1,0,2,0.2,2.8,0.6s1.6,1,2.2,1.6
		s1.1,1.5,1.4,2.3c0.3,0.9,0.5,1.7,0.5,2.6c0,0.9-0.2,1.9-0.5,2.7s-0.8,1.6-1.4,2.3c-0.6,0.7-1.3,1.2-2.2,1.6
		C90,186,89.1,186.2,88.1,186.2z M84,179c0,0.6,0.1,1.2,0.3,1.8c0.2,0.6,0.5,1.1,0.8,1.5c0.4,0.4,0.8,0.8,1.3,1.1
		c0.5,0.3,1.1,0.4,1.8,0.4c0.7,0,1.3-0.1,1.8-0.4c0.5-0.3,0.9-0.6,1.3-1.1s0.6-1,0.8-1.5c0.2-0.6,0.3-1.1,0.3-1.7
		c0-0.6-0.1-1.2-0.3-1.8s-0.5-1.1-0.8-1.5s-0.8-0.8-1.3-1.1c-0.5-0.3-1.1-0.4-1.7-0.4c-0.7,0-1.3,0.1-1.8,0.4
		c-0.5,0.3-1,0.6-1.3,1.1c-0.3,0.4-0.6,1-0.8,1.5C84.1,177.8,84,178.4,84,179z"/>
	<path fill="#FFFFFF" d="M101.2,186.1v-14.2h9.5v2.4h-6.8v3.7h5.6v2.2h-5.6v5.9H101.2z"/>
	<path fill="#FFFFFF" d="M116.6,186.1v-14.2h9.5v2.4h-6.8v3.7h5.6v2.2h-5.6v5.9H116.6z"/>
	<path fill="#FFFFFF" d="M142,183.7v2.4h-9.9v-14.2h9.7v2.4h-6.9v3.4h6v2.2h-6v3.7H142z"/>
	<path fill="#FFFFFF" d="M158,183.7v2.4h-9.9v-14.2h9.7v2.4h-6.9v3.4h6v2.2h-6v3.7H158z"/>
	<path fill="#FFFFFF" d="M184.4,182.4c0,0.6-0.1,1.1-0.4,1.6c-0.2,0.5-0.6,0.8-1,1.1s-0.9,0.5-1.5,0.7c-0.6,0.2-1.1,0.2-1.8,0.2H173
		v-14.2h7.6c0.5,0,0.9,0.1,1.3,0.3s0.7,0.5,1,0.8c0.3,0.3,0.5,0.7,0.6,1.2c0.2,0.4,0.2,0.9,0.2,1.3c0,0.7-0.2,1.3-0.5,2
		c-0.3,0.6-0.9,1.1-1.5,1.4c0.8,0.2,1.5,0.7,1.9,1.3C184.2,180.7,184.4,181.5,184.4,182.4z M175.7,174.2v3.6h3.7
		c0.5,0,0.9-0.2,1.2-0.5c0.3-0.3,0.5-0.8,0.5-1.3c0-0.5-0.1-1-0.4-1.3c-0.3-0.3-0.7-0.5-1.1-0.5H175.7z M181.6,181.9
		c0-0.3,0-0.5-0.1-0.7c-0.1-0.2-0.2-0.4-0.3-0.6c-0.1-0.2-0.3-0.3-0.5-0.4c-0.2-0.1-0.4-0.1-0.7-0.1h-4.2v3.7h4.1
		c0.3,0,0.5,0,0.7-0.1s0.4-0.2,0.6-0.4c0.2-0.2,0.3-0.4,0.4-0.6C181.6,182.4,181.6,182.2,181.6,181.9z"/>
	<path fill="#FFFFFF" d="M194.3,171.9h2.4l5.4,14.2h-2.8l-1.3-3.5h-5l-1.3,3.5h-2.8L194.3,171.9z M197.5,180.6l-2-5.6l-2,5.6H197.5z
		"/>
	<path fill="#FFFFFF" d="M207.7,186.1v-14.2h6.3c0.7,0,1.3,0.1,1.8,0.4c0.6,0.3,1,0.6,1.4,1.1s0.7,1,0.9,1.5
		c0.2,0.6,0.3,1.1,0.3,1.7c0,0.9-0.2,1.8-0.7,2.5c-0.5,0.8-1.1,1.3-1.9,1.6l3.2,5.3h-3.1l-2.9-4.8h-2.7v4.8H207.7z M210.5,178.9h3.5
		c0.3,0,0.5-0.1,0.7-0.2c0.2-0.1,0.4-0.3,0.6-0.5c0.2-0.2,0.3-0.4,0.4-0.7c0.1-0.3,0.1-0.6,0.1-0.9c0-0.3-0.1-0.6-0.2-0.9
		c-0.1-0.3-0.2-0.5-0.4-0.7s-0.4-0.4-0.6-0.5s-0.5-0.2-0.7-0.2h-3.3V178.9z"/>
</g>
</svg>