<!-- Generator: Adobe Illustrator 17.1.0, SVG Export Plug-In  -->
<svg version="1.1"
	 xmlns="http://www.w3.org/2000/svg" xmlns:xlink="http://www.w3.org/1999/xlink" xmlns:a="http://ns.adobe.com/AdobeSVGViewerExtensions/3.0/"
	 x="0px" y="0px" width="376px" height="507px" viewBox="0 0 376 507" enable-background="new 0 0 376 507" xml:space="preserve">
<defs>
</defs>
<linearGradient id="SVGID_1_" gradientUnits="userSpaceOnUse" x1="0" y1="253.5" x2="376" y2="253.5">
	<stop  offset="0" style="stop-color:#C73B54"/>
	<stop  offset="1" style="stop-color:#043A54"/>
</linearGradient>
<rect x="0" fill="url(#SVGID_1_)" width="376" height="507"/>
<g>
	<path fill="#FFFFFF" d="M113.9,236.5v-14.2h2.8v11.8h7.2v2.4H113.9z"/>
	<path fill="#FFFFFF" d="M139.4,234.1v2.4h-9.9v-14.2h9.7v2.4h-6.9v3.4h6v2.2h-6v3.7H139.4z"/>
	<path fill="#FFFFFF" d="M156.2,224.8h-4.5v11.8h-2.7v-11.8h-4.5v-2.4h11.8V224.8z"/>
	<path fill="#FFFFFF" d="M172.6,224.8H168v11.8h-2.7v-11.8h-4.5v-2.4h11.8V224.8z"/>
	<path fill="#FFFFFF" d="M188.2,234.1v2.4h-9.9v-14.2h9.7v2.4h-6.9v3.4h6v2.2h-6v3.7H188.2z"/>
	<path fill="#FFFFFF" d="M194.3,236.5v-14.2h6.3c0.7,0,1.3,0.1,1.8,0.4c0.6,0.3,1,0.6,1.4,1.1s0.7,1,0.9,1.5
		c0.2,0.6,0.3,1.1,0.3,1.7c0,0.9-0.2,1.8-0.7,2.5c-0.5,0.8-1.1,1.3-1.9,1.6l3.2,5.3h-3.1l-2.9-4.8h-2.7v4.8H194.3z M197.1,229.4h3.5
		c0.3,0,0.5-0.1,0.7-0.2c0.2-0.1,0.4-0.3,0.6-0.5c0.2-0.2,0.3-0.4,0.4-0.7c0.1-0.3,0.1-0.6,0.1-0.9c0-0.3-0.1-0.6-0.2-0.9
		c-0.1-0.3-0.2-0.5-0.4-0.7s-0.4-0.4-0.6-0.5s-0.5-0.2-0.7-0.2h-3.3V229.4z"/>
	<path fill="#FFFFFF" d="M211.6,236.5v-14.2h2.8v14.2H211.6z"/>
	<path fill="#FFFFFF" d="M224.1,227.4v9.1h-2.8v-14.2h2.1l7.4,9.3v-9.3h2.8v14.2h-2.2L224.1,227.4z"/>
	<path fill="#FFFFFF" d="M250.5,234.9c-1.1,1.1-2.5,1.7-4,1.7c-0.9,0-1.8-0.2-2.6-0.6c-0.8-0.4-1.5-0.9-2.1-1.5
		c-0.6-0.7-1.1-1.4-1.4-2.3s-0.5-1.8-0.5-2.9c0-1,0.2-1.9,0.5-2.8c0.4-0.9,0.8-1.6,1.5-2.3c0.6-0.6,1.4-1.2,2.2-1.5s1.8-0.6,2.7-0.6
		c1.3,0,2.5,0.3,3.4,0.8c1,0.6,1.7,1.3,2.1,2.3l-2.1,1.5c-0.4-0.7-0.9-1.2-1.5-1.6c-0.6-0.4-1.4-0.6-2.1-0.6c-0.6,0-1.2,0.1-1.7,0.4
		c-0.5,0.3-0.9,0.6-1.3,1c-0.4,0.4-0.6,0.9-0.8,1.5s-0.3,1.2-0.3,1.8c0,0.7,0.1,1.3,0.3,1.9c0.2,0.6,0.5,1.1,0.9,1.5
		c0.4,0.4,0.8,0.8,1.3,1c0.5,0.2,1.1,0.4,1.7,0.4c1.4,0,2.6-0.6,3.7-1.9v-1h-2.9v-2h5.1v7.3h-2.3V234.9z"/>
	<path fill="#FFFFFF" d="M259.1,238.8l0.5-2.4h-0.8v-2.8h2.3v2.8l-0.8,2.4H259.1z"/>
	<path fill="#FFFFFF" d="M112.3,253.3c0-0.9,0.2-1.7,0.5-2.6s0.8-1.6,1.4-2.3c0.6-0.7,1.3-1.2,2.2-1.6c0.9-0.4,1.9-0.6,3-0.6
		c1.3,0,2.4,0.3,3.4,0.9s1.7,1.3,2.1,2.2l-2.1,1.5c-0.2-0.4-0.4-0.7-0.7-1c-0.3-0.3-0.6-0.5-0.9-0.6c-0.3-0.2-0.6-0.3-1-0.4
		c-0.3-0.1-0.7-0.1-1-0.1c-0.7,0-1.3,0.1-1.8,0.4c-0.5,0.3-0.9,0.6-1.3,1.1c-0.3,0.4-0.6,1-0.8,1.5c-0.2,0.6-0.3,1.1-0.3,1.7
		c0,0.6,0.1,1.2,0.3,1.8s0.5,1.1,0.9,1.5c0.4,0.4,0.8,0.8,1.3,1.1c0.5,0.3,1.1,0.4,1.7,0.4c0.3,0,0.7,0,1-0.1s0.7-0.2,1-0.4
		c0.3-0.2,0.6-0.4,0.9-0.7c0.3-0.3,0.5-0.6,0.6-1l2.3,1.3c-0.2,0.5-0.5,1-1,1.4s-0.9,0.8-1.4,1c-0.5,0.3-1.1,0.5-1.7,0.6
		c-0.6,0.1-1.2,0.2-1.8,0.2c-1,0-1.9-0.2-2.8-0.6s-1.6-1-2.2-1.7c-0.6-0.7-1.1-1.5-1.4-2.3C112.4,255.1,112.3,254.3,112.3,253.3z"/>
	<path fill="#FFFFFF" d="M134.7,246.3h2.4l5.4,14.2h-2.8l-1.3-3.5h-5l-1.3,3.5h-2.8L134.7,246.3z M137.9,255.1l-2-5.6l-2,5.6H137.9z
		"/>
	<path fill="#FFFFFF" d="M148.1,260.5v-14.2h2.8v11.8h7.2v2.4H148.1z"/>
	<path fill="#FFFFFF" d="M163.8,260.5v-14.2h2.8v14.2H163.8z"/>
	<path fill="#FFFFFF" d="M183.3,258.9c-1.1,1.1-2.5,1.7-4,1.7c-0.9,0-1.8-0.2-2.6-0.6c-0.8-0.4-1.5-0.9-2.1-1.5
		c-0.6-0.7-1.1-1.4-1.4-2.3s-0.5-1.8-0.5-2.9c0-1,0.2-1.9,0.5-2.8c0.4-0.9,0.8-1.6,1.5-2.3c0.6-0.6,1.4-1.2,2.2-1.5s1.8-0.6,2.7-0.6
		c1.3,0,2.5,0.3,3.4,0.8c1,0.6,1.7,1.3,2.1,2.3l-2.1,1.5c-0.4-0.7-0.9-1.2-1.5-1.6c-0.6-0.4-1.4-0.6-2.1-0.6c-0.6,0-1.2,0.1-1.7,0.4
		c-0.5,0.3-0.9,0.6-1.3,1c-0.4,0.4-0.6,0.9-0.8,1.5s-0.3,1.2-0.3,1.8c0,0.7,0.1,1.3,0.3,1.9c0.2,0.6,0.5,1.1,0.9,1.5
		c0.4,0.4,0.8,0.8,1.3,1c0.5,0.2,1.1,0.4,1.7,0.4c1.4,0,2.6-0.6,3.7-1.9v-1h-2.9v-2h5.1v7.3h-2.3V258.9z"/>
	<path fill="#FFFFFF" d="M192,260.5v-14.2h6.3c0.7,0,1.3,0.1,1.8,0.4c0.6,0.3,1,0.6,1.4,1.1s0.7,1,0.9,1.5c0.2,0.6,0.3,1.1,0.3,1.7
		c0,0.9-0.2,1.8-0.7,2.5c-0.5,0.8-1.1,1.3-1.9,1.6l3.2,5.3h-3.1l-2.9-4.8h-2.7v4.8H192z M194.7,253.4h3.5c0.3,0,0.5-0.1,0.7-0.2
		c0.2-0.1,0.4-0.3,0.6-0.5c0.2-0.2,0.3-0.4,0.4-0.7c0.1-0.3,0.1-0.6,0.1-0.9c0-0.3-0.1-0.6-0.2-0.9c-0.1-0.3-0.2-0.5-0.4-0.7
		s-0.4-0.4-0.6-0.5s-0.5-0.2-0.7-0.2h-3.3V253.4z"/>
	<path fill="#FFFFFF" d="M213.1,246.3h2.4l5.4,14.2h-2.8l-1.3-3.5h-5l-1.3,3.5h-2.8L213.1,246.3z M216.3,255.1l-2-5.6l-2,5.6H216.3z
		"/>
	<path fill="#FFFFFF" d="M226.5,260.5v-14.2h9.5v2.4h-6.8v3.7h5.6v2.2h-5.6v5.9H226.5z"/>
	<path fill="#FFFFFF" d="M242,260.5v-14.2h2.8v14.2H242z M244,245.1l-1.7-0.5l1.1-2.4h2.5L244,245.1z"/>
	<path fill="#FFFFFF" d="M255.7,246.3h2.4l5.4,14.2h-2.8l-1.3-3.5h-5l-1.3,3.5h-2.8L255.7,246.3z M258.9,255.1l-2-5.6l-2,5.6H258.9z
		"/>
	<path fill="#FFFFFF" d="M113.1,284.5l-1.1-1.2c-0.6,0.5-1.2,0.8-1.9,1c-0.7,0.2-1.4,0.4-2.1,0.4c-0.7,0-1.4-0.1-2-0.3
		c-0.6-0.2-1.1-0.5-1.5-0.9s-0.7-0.8-1-1.4c-0.2-0.5-0.3-1-0.3-1.6c0-0.4,0.1-0.8,0.2-1.2c0.1-0.4,0.3-0.7,0.5-1
		c0.2-0.3,0.5-0.6,0.8-0.9c0.3-0.3,0.6-0.5,1-0.7c-0.6-0.6-1-1.2-1.2-1.6c-0.2-0.5-0.3-0.9-0.3-1.5c0-0.5,0.1-1,0.3-1.4
		s0.5-0.8,0.8-1.1c0.3-0.3,0.8-0.5,1.2-0.7c0.5-0.2,1-0.2,1.5-0.2c0.5,0,1,0.1,1.4,0.2c0.5,0.1,0.9,0.3,1.2,0.6
		c0.3,0.3,0.6,0.6,0.8,1c0.2,0.4,0.3,0.9,0.3,1.4c0,0.8-0.2,1.5-0.7,2c-0.5,0.6-1,1.1-1.7,1.6l2.7,2.8c0.2-0.4,0.4-0.9,0.5-1.4
		c0.1-0.5,0.2-1.1,0.2-1.6h2.2c0,0.9-0.1,1.8-0.3,2.6c-0.2,0.8-0.5,1.5-0.9,2.1l2.9,3.1H113.1z M108.2,282.6c0.8,0,1.6-0.3,2.3-0.8
		l-3.3-3.5c-0.5,0.3-0.8,0.7-1.1,1c-0.3,0.3-0.4,0.7-0.4,1.2c0,0.3,0.1,0.5,0.2,0.8c0.1,0.3,0.3,0.5,0.5,0.7
		c0.2,0.2,0.5,0.3,0.8,0.5C107.5,282.6,107.9,282.6,108.2,282.6z M106.6,273.5c0,0.1,0,0.2,0.1,0.4s0.1,0.2,0.2,0.4
		c0.1,0.1,0.2,0.3,0.4,0.5s0.4,0.4,0.6,0.6c0.5-0.3,0.9-0.7,1.2-1s0.4-0.6,0.4-1c0-0.4-0.1-0.6-0.4-0.9c-0.2-0.2-0.6-0.3-1-0.3
		c-0.4,0-0.8,0.1-1,0.4C106.7,272.8,106.6,273.1,106.6,273.5z"/>
	<path fill="#FFFFFF" d="M131.7,272.8h-4.5v11.8h-2.7v-11.8h-4.5v-2.4h11.8V272.8z"/>
	<path fill="#FFFFFF" d="M137.4,284.5v-14.2h2.8v14.2H137.4z"/>
	<path fill="#FFFFFF" d="M147.2,284.5v-14.2h6c0.7,0,1.3,0.1,1.8,0.4c0.6,0.3,1,0.6,1.4,1.1c0.4,0.4,0.7,1,0.9,1.5
		c0.2,0.6,0.3,1.1,0.3,1.7c0,0.6-0.1,1.2-0.3,1.8c-0.2,0.6-0.5,1.1-0.9,1.5c-0.4,0.4-0.9,0.8-1.4,1.1c-0.5,0.3-1.1,0.4-1.8,0.4h-3.4
		v4.8H147.2z M149.9,277.4h3.2c0.5,0,0.9-0.2,1.3-0.6s0.5-1,0.5-1.7c0-0.4-0.1-0.7-0.2-1c-0.1-0.3-0.2-0.5-0.4-0.7
		c-0.2-0.2-0.4-0.3-0.6-0.4c-0.2-0.1-0.5-0.1-0.7-0.1h-3.1V277.4z"/>
	<path fill="#FFFFFF" d="M169.7,284.6c-1,0-2-0.2-2.8-0.6s-1.6-0.9-2.2-1.6c-0.6-0.7-1.1-1.4-1.4-2.3c-0.3-0.9-0.5-1.8-0.5-2.7
		c0-0.9,0.2-1.9,0.5-2.7c0.4-0.9,0.8-1.6,1.5-2.3c0.6-0.7,1.4-1.2,2.2-1.6c0.9-0.4,1.8-0.6,2.8-0.6c1,0,2,0.2,2.8,0.6s1.6,1,2.2,1.6
		s1.1,1.5,1.4,2.3c0.3,0.9,0.5,1.7,0.5,2.6c0,0.9-0.2,1.9-0.5,2.7s-0.8,1.6-1.4,2.3c-0.6,0.7-1.3,1.2-2.2,1.6
		C171.6,284.5,170.7,284.6,169.7,284.6z M165.6,277.4c0,0.6,0.1,1.2,0.3,1.8c0.2,0.6,0.5,1.1,0.8,1.5c0.4,0.4,0.8,0.8,1.3,1.1
		c0.5,0.3,1.1,0.4,1.8,0.4c0.7,0,1.3-0.1,1.8-0.4c0.5-0.3,0.9-0.6,1.3-1.1s0.6-1,0.8-1.5c0.2-0.6,0.3-1.1,0.3-1.7
		c0-0.6-0.1-1.2-0.3-1.8s-0.5-1.1-0.8-1.5s-0.8-0.8-1.3-1.1c-0.5-0.3-1.1-0.4-1.7-0.4c-0.7,0-1.3,0.1-1.8,0.4
		c-0.5,0.3-1,0.6-1.3,1.1c-0.3,0.4-0.6,1-0.8,1.5C165.6,276.3,165.6,276.9,165.6,277.4z"/>
	<path fill="#FFFFFF" d="M192.6,282.9c-1.1,1.1-2.5,1.7-4,1.7c-0.9,0-1.8-0.2-2.6-0.6c-0.8-0.4-1.5-0.9-2.1-1.5
		c-0.6-0.7-1.1-1.4-1.4-2.3s-0.5-1.8-0.5-2.9c0-1,0.2-1.9,0.5-2.8c0.4-0.9,0.8-1.6,1.5-2.3c0.6-0.6,1.4-1.2,2.2-1.5s1.8-0.6,2.7-0.6
		c1.3,0,2.5,0.3,3.4,0.8c1,0.6,1.7,1.3,2.1,2.3l-2.1,1.5c-0.4-0.7-0.9-1.2-1.5-1.6c-0.6-0.4-1.4-0.6-2.1-0.6c-0.6,0-1.2,0.1-1.7,0.4
		c-0.5,0.3-0.9,0.6-1.3,1c-0.4,0.4-0.6,0.9-0.8,1.5s-0.3,1.2-0.3,1.8c0,0.7,0.1,1.3,0.3,1.9c0.2,0.6,0.5,1.1,0.9,1.5
		c0.4,0.4,0.8,0.8,1.3,1c0.5,0.2,1.1,0.4,1.7,0.4c1.4,0,2.6-0.6,3.7-1.9v-1h-2.9v-2h5.1v7.3h-2.3V282.9z"/>
	<path fill="#FFFFFF" d="M201.2,284.5v-14.2h6.3c0.7,0,1.3,0.1,1.8,0.4c0.6,0.3,1,0.6,1.4,1.1s0.7,1,0.9,1.5
		c0.2,0.6,0.3,1.1,0.3,1.7c0,0.9-0.2,1.8-0.7,2.5c-0.5,0.8-1.1,1.3-1.9,1.6l3.2,5.3h-3.1l-2.9-4.8H204v4.8H201.2z M204,277.4h3.5
		c0.3,0,0.5-0.1,0.7-0.2c0.2-0.1,0.4-0.3,0.6-0.5c0.2-0.2,0.3-0.4,0.4-0.7c0.1-0.3,0.1-0.6,0.1-0.9c0-0.3-0.1-0.6-0.2-0.9
		c-0.1-0.3-0.2-0.5-0.4-0.7s-0.4-0.4-0.6-0.5s-0.5-0.2-0.7-0.2H204V277.4z"/>
	<path fill="#FFFFFF" d="M222.3,270.3h2.4l5.4,14.2h-2.8L226,281h-5l-1.3,3.5h-2.8L222.3,270.3z M225.5,279.1l-2-5.6l-2,5.6H225.5z"
		/>
	<path fill="#FFFFFF" d="M235.8,284.5v-14.2h9.5v2.4h-6.8v3.7h5.6v2.2h-5.6v5.9H235.8z"/>
	<path fill="#FFFFFF" d="M251.2,284.5v-14.2h2.8v14.2H251.2z M253.3,269.1l-1.7-0.5l1.1-2.4h2.5L253.3,269.1z"/>
	<path fill="#FFFFFF" d="M265,270.3h2.4l5.4,14.2H270l-1.3-3.5h-5l-1.3,3.5h-2.8L265,270.3z M268.2,279.1l-2-5.6l-2,5.6H268.2z"/>
</g>
</svg>