<!-- Generator: Adobe Illustrator 17.1.0, SVG Export Plug-In  -->
<svg version="1.1"
	 xmlns="http://www.w3.org/2000/svg" xmlns:xlink="http://www.w3.org/1999/xlink" xmlns:a="http://ns.adobe.com/AdobeSVGViewerExtensions/3.0/"
	 x="0px" y="0px" width="504px" height="332px" viewBox="0 0 504 332" enable-background="new 0 0 504 332" xml:space="preserve">
<defs>
</defs>
<linearGradient id="SVGID_1_" gradientUnits="userSpaceOnUse" x1="0" y1="166" x2="504" y2="166">
	<stop  offset="0" style="stop-color:#C73B54"/>
	<stop  offset="1" style="stop-color:#043A54"/>
</linearGradient>
<rect fill="url(#SVGID_1_)" width="504" height="332"/>
<g>
	<path fill="#FFFFFF" d="M163.7,146.9h2.5l1.6,4.7l1.6-4.7h2.6l-2.4,6.5l1.8,4.5l4-11h3l-5.8,14.2h-2.3l-2.5-6l-2.5,6h-2.3
		l-5.7-14.2h3l4,11l1.8-4.5L163.7,146.9z"/>
	<path fill="#FFFFFF" d="M183.9,161.1v-14.2h2.8v14.2H183.9z"/>
	<path fill="#FFFFFF" d="M193.6,161.1v-14.2h2.8v11.8h7.2v2.4H193.6z"/>
	<path fill="#FFFFFF" d="M209.3,161.1v-14.2h2.8v6.7l6-6.8h3l-5.4,6.3l5.8,7.9h-3.1l-4.4-6.1l-1.8,1.9v4.2H209.3z"/>
	<path fill="#FFFFFF" d="M226.7,161.1v-14.2h2.8v14.2H226.7z"/>
	<path fill="#FFFFFF" d="M239.1,152v9.1h-2.8v-14.2h2.1l7.4,9.3v-9.3h2.8v14.2h-2.2L239.1,152z"/>
	<path fill="#FFFFFF" d="M265.5,159.5c-1.1,1.1-2.5,1.7-4,1.7c-0.9,0-1.8-0.2-2.6-0.6c-0.8-0.4-1.5-0.9-2.1-1.5
		c-0.6-0.7-1.1-1.4-1.4-2.3s-0.5-1.8-0.5-2.9c0-1,0.2-1.9,0.5-2.8c0.4-0.9,0.8-1.6,1.5-2.3c0.6-0.6,1.4-1.2,2.2-1.5s1.8-0.6,2.7-0.6
		c1.3,0,2.5,0.3,3.4,0.8c1,0.6,1.7,1.3,2.1,2.3l-2.1,1.5c-0.4-0.7-0.9-1.2-1.5-1.6c-0.6-0.4-1.4-0.6-2.1-0.6c-0.6,0-1.2,0.1-1.7,0.4
		c-0.5,0.3-0.9,0.6-1.3,1c-0.4,0.4-0.6,0.9-0.8,1.5s-0.3,1.2-0.3,1.8c0,0.7,0.1,1.3,0.3,1.9c0.2,0.6,0.5,1.1,0.9,1.5
		c0.4,0.4,0.8,0.8,1.3,1c0.5,0.2,1.1,0.4,1.7,0.4c1.4,0,2.6-0.6,3.7-1.9v-1h-2.9v-2h5.1v7.3h-2.3V159.5z"/>
	<path fill="#FFFFFF" d="M294.4,157.4c0,0.6-0.1,1.1-0.4,1.6c-0.2,0.5-0.6,0.8-1,1.1s-0.9,0.5-1.5,0.7c-0.6,0.2-1.1,0.2-1.8,0.2
		h-6.9v-14.2h7.6c0.5,0,0.9,0.1,1.3,0.3s0.7,0.5,1,0.8c0.3,0.3,0.5,0.7,0.6,1.2c0.2,0.4,0.2,0.9,0.2,1.3c0,0.7-0.2,1.3-0.5,2
		c-0.3,0.6-0.9,1.1-1.5,1.4c0.8,0.2,1.5,0.7,1.9,1.3C294.1,155.7,294.4,156.5,294.4,157.4z M285.7,149.3v3.6h3.7
		c0.5,0,0.9-0.2,1.2-0.5c0.3-0.3,0.5-0.8,0.5-1.3c0-0.5-0.1-1-0.4-1.3c-0.3-0.3-0.7-0.5-1.1-0.5H285.7z M291.6,156.9
		c0-0.3,0-0.5-0.1-0.7c-0.1-0.2-0.2-0.4-0.3-0.6c-0.1-0.2-0.3-0.3-0.5-0.4c-0.2-0.1-0.4-0.1-0.7-0.1h-4.2v3.7h4.1
		c0.3,0,0.5,0,0.7-0.1s0.4-0.2,0.6-0.4c0.2-0.2,0.3-0.4,0.4-0.6C291.6,157.4,291.6,157.2,291.6,156.9z"/>
	<path fill="#FFFFFF" d="M300.5,161.1v-14.2h6.3c0.7,0,1.3,0.1,1.8,0.4c0.6,0.3,1,0.6,1.4,1.1s0.7,1,0.9,1.5
		c0.2,0.6,0.3,1.1,0.3,1.7c0,0.9-0.2,1.8-0.7,2.5c-0.5,0.8-1.1,1.3-1.9,1.6l3.2,5.3h-3.1l-2.9-4.8h-2.7v4.8H300.5z M303.3,153.9h3.5
		c0.3,0,0.5-0.1,0.7-0.2c0.2-0.1,0.4-0.3,0.6-0.5c0.2-0.2,0.3-0.4,0.4-0.7c0.1-0.3,0.1-0.6,0.1-0.9c0-0.3-0.1-0.6-0.2-0.9
		c-0.1-0.3-0.2-0.5-0.4-0.7s-0.4-0.4-0.6-0.5s-0.5-0.2-0.7-0.2h-3.3V153.9z"/>
	<path fill="#FFFFFF" d="M321.7,146.9h2.4l5.4,14.2h-2.8l-1.3-3.5h-5l-1.3,3.5h-2.8L321.7,146.9z M324.8,155.6l-2-5.6l-2,5.6H324.8z
		"/>
	<path fill="#FFFFFF" d="M340.4,158.8c0.7,0,1.2-0.1,1.6-0.4c0.4-0.3,0.8-0.6,1.1-1s0.5-0.9,0.6-1.5s0.2-1.1,0.2-1.7v-7.2h2.7v7.2
		c0,1-0.1,1.9-0.4,2.7c-0.2,0.9-0.6,1.6-1.1,2.2s-1.1,1.1-1.9,1.5c-0.8,0.4-1.7,0.6-2.8,0.6c-1.1,0-2.1-0.2-2.9-0.6
		c-0.8-0.4-1.4-0.9-1.9-1.6c-0.5-0.6-0.8-1.4-1.1-2.2c-0.2-0.9-0.3-1.7-0.3-2.7v-7.2h2.8v7.2c0,0.6,0.1,1.2,0.2,1.7s0.3,1,0.6,1.5
		s0.6,0.8,1.1,1C339.3,158.6,339.8,158.8,340.4,158.8z"/>
	<path fill="#FFFFFF" d="M188.4,170.9v14.2h-2.7V179h-6.4v6.1h-2.8v-14.2h2.8v5.7h6.4v-5.7H188.4z"/>
	<path fill="#FFFFFF" d="M201.4,185.2c-1,0-2-0.2-2.8-0.6s-1.6-0.9-2.2-1.6c-0.6-0.7-1.1-1.4-1.4-2.3c-0.3-0.9-0.5-1.8-0.5-2.7
		c0-0.9,0.2-1.9,0.5-2.7c0.4-0.9,0.8-1.6,1.5-2.3c0.6-0.7,1.4-1.2,2.2-1.6c0.9-0.4,1.8-0.6,2.8-0.6c1,0,2,0.2,2.8,0.6s1.6,1,2.2,1.6
		s1.1,1.5,1.4,2.3c0.3,0.9,0.5,1.7,0.5,2.6c0,0.9-0.2,1.9-0.5,2.7s-0.8,1.6-1.4,2.3c-0.6,0.7-1.3,1.2-2.2,1.6
		C203.3,185,202.4,185.2,201.4,185.2z M197.2,178c0,0.6,0.1,1.2,0.3,1.8c0.2,0.6,0.5,1.1,0.8,1.5c0.4,0.4,0.8,0.8,1.3,1.1
		c0.5,0.3,1.1,0.4,1.8,0.4c0.7,0,1.3-0.1,1.8-0.4c0.5-0.3,0.9-0.6,1.3-1.1s0.6-1,0.8-1.5c0.2-0.6,0.3-1.1,0.3-1.7
		c0-0.6-0.1-1.2-0.3-1.8s-0.5-1.1-0.8-1.5s-0.8-0.8-1.3-1.1c-0.5-0.3-1.1-0.4-1.7-0.4c-0.7,0-1.3,0.1-1.8,0.4
		c-0.5,0.3-1,0.6-1.3,1.1c-0.3,0.4-0.6,1-0.8,1.5C197.3,176.8,197.2,177.4,197.2,178z"/>
	<path fill="#FFFFFF" d="M226,185.1v-9.4l-3.7,7h-1.5l-3.7-7v9.4h-2.8v-14.2h3l4.2,8.1l4.2-8.1h2.9v14.2H226z"/>
	<path fill="#FFFFFF" d="M245.6,182.7v2.4h-9.9v-14.2h9.7v2.4h-6.9v3.4h6v2.2h-6v3.7H245.6z"/>
	<path fill="#FFFFFF" d="M272,181.4c0,0.6-0.1,1.1-0.4,1.6c-0.2,0.5-0.6,0.8-1,1.1s-0.9,0.5-1.5,0.7c-0.6,0.2-1.1,0.2-1.8,0.2h-6.9
		v-14.2h7.6c0.5,0,0.9,0.1,1.3,0.3s0.7,0.5,1,0.8c0.3,0.3,0.5,0.7,0.6,1.2c0.2,0.4,0.2,0.9,0.2,1.3c0,0.7-0.2,1.3-0.5,2
		c-0.3,0.6-0.9,1.1-1.5,1.4c0.8,0.2,1.5,0.7,1.9,1.3C271.8,179.7,272,180.5,272,181.4z M263.3,173.3v3.6h3.7c0.5,0,0.9-0.2,1.2-0.5
		c0.3-0.3,0.5-0.8,0.5-1.3c0-0.5-0.1-1-0.4-1.3c-0.3-0.3-0.7-0.5-1.1-0.5H263.3z M269.2,180.9c0-0.3,0-0.5-0.1-0.7
		c-0.1-0.2-0.2-0.4-0.3-0.6c-0.1-0.2-0.3-0.3-0.5-0.4c-0.2-0.1-0.4-0.1-0.7-0.1h-4.2v3.7h4.1c0.3,0,0.5,0,0.7-0.1s0.4-0.2,0.6-0.4
		c0.2-0.2,0.3-0.4,0.4-0.6C269.2,181.4,269.2,181.2,269.2,180.9z"/>
	<path fill="#FFFFFF" d="M278.1,185.1v-14.2h6.3c0.7,0,1.3,0.1,1.8,0.4c0.6,0.3,1,0.6,1.4,1.1s0.7,1,0.9,1.5
		c0.2,0.6,0.3,1.1,0.3,1.7c0,0.9-0.2,1.8-0.7,2.5c-0.5,0.8-1.1,1.3-1.9,1.6l3.2,5.3h-3.1l-2.9-4.8h-2.7v4.8H278.1z M280.9,177.9h3.5
		c0.3,0,0.5-0.1,0.7-0.2c0.2-0.1,0.4-0.3,0.6-0.5c0.2-0.2,0.3-0.4,0.4-0.7c0.1-0.3,0.1-0.6,0.1-0.9c0-0.3-0.1-0.6-0.2-0.9
		c-0.1-0.3-0.2-0.5-0.4-0.7s-0.4-0.4-0.6-0.5s-0.5-0.2-0.7-0.2h-3.3V177.9z"/>
	<path fill="#FFFFFF" d="M305.3,182.7v2.4h-9.9v-14.2h9.7v2.4h-6.9v3.4h6v2.2h-6v3.7H305.3z"/>
	<path fill="#FFFFFF" d="M316.4,170.9h2.5l1.6,4.7l1.6-4.7h2.6l-2.4,6.5l1.8,4.5l4-11h3l-5.8,14.2H323l-2.5-6l-2.5,6h-2.3l-5.7-14.2
		h3l4,11l1.8-4.5L316.4,170.9z"/>
</g>
</svg>