<!-- Generator: Adobe Illustrator 17.1.0, SVG Export Plug-In  -->
<svg version="1.1"
	 xmlns="http://www.w3.org/2000/svg" xmlns:xlink="http://www.w3.org/1999/xlink" xmlns:a="http://ns.adobe.com/AdobeSVGViewerExtensions/3.0/"
	 x="0px" y="0px" width="475.6px" height="448.8px" viewBox="0 0 475.6 448.8" enable-background="new 0 0 475.6 448.8"
	 xml:space="preserve">
<defs>
</defs>
<g>
	<path fill="#808DA6" d="M276.1,447.8c-7.9-15.1-7.4-35.2-21.1-46.9c-6.7-5.7-15.5-8.7-23.3-12.9c6.8,2.7,14.5,3.5,21.8,3.4
		c12-0.1,23.9-2.7,35.5-5.7c0.8-0.2,0.7-1.3-0.2-1.3c-13.2,0.7-24.3-8.5-36.7-11.5c-11.7-2.8-24.7,0-35.8-5.4
		c-0.2-0.3-0.5-0.7-0.7-1.1c0,0,0,0,0,0c-0.1-0.1-0.1-0.3-0.2-0.4c-0.2-0.5-1-0.2-0.8,0.4c3,6.9,7.6,13.4,14.4,16.9
		c0.2,0.1,0.4-0.2,0.2-0.4c-5.1-3.1-8.7-7.6-11.6-12.7c1.9,2.2,4.3,3.8,7,5.1c4.9,4.7,11,8.6,17.7,10.4c0.1,0,0.2-0.2,0.1-0.2
		c-5.7-2.2-10.8-5.2-15.3-9.1c2.3,0.9,4.7,1.6,6.9,2.2c0.8,0.2,1.6,0.4,2.3,0.6c0,0,0,0,0.1,0c5.5,2.5,10.7,6.1,16.5,7.9
		c0.2,0.1,0.4-0.2,0.1-0.3c-4.4-2-8.6-4.6-13-6.7c2.7,0.6,5.3,1.1,8,1.6c4.3,2.5,9,4.7,14,4.6c0.2,0,0.2-0.3,0-0.3
		c-4.3-0.4-7.9-2-11.5-3.9c3.4,0.6,6.9,1.2,10.3,1.8c0.5,0.1,0.6-0.6,0.2-0.8c-3.3-1.4-6.9-1.8-10.4-2.4c-4.3-0.7-8.7-1.4-13-2.3
		c-7.2-1.5-15.7-3.7-20.5-9.7c10,5.7,23.2,3.3,34,5.5c11.5,2.3,21.5,10.3,33.2,11.5c-19.8,5.1-43.9,9-61.2-3.6
		c-0.1-0.1-0.2-0.1-0.3-0.1c-1.5-1.4-2.9-2.9-4.2-4.7c-0.1-0.2-0.4,0-0.3,0.2c-1.5-2.9-2.9-5.9-3.9-9.1c0.1-0.1,0.1-0.3,0.1-0.4
		c-1.1-6.4-5.1-11.9-8.6-17.2c-1.9-3-3.9-5.9-5.4-9.1c-0.1-0.2,4.6-1.1,8.2-1.8c12.3,9.9,27.2,17,43.3,14.8
		c17.3-2.4,31.8-13.9,48.9-17.1c0.6-0.1,0.7-0.9,0.1-1.2c-6-2.9-12.2-5.1-18.5-6.6c0.3-0.1,0.2-0.6-0.1-0.6c-0.7,0-1.3,0-2,0.1
		c-7.1-1.6-14.4-2.3-21.6-2.3c0,0-0.1,0-0.1,0c0,0-0.1,0-0.1,0c-16.2,0-32.5,3.9-47.3,11.2c-2.6,0-5.2-0.1-7.7,0
		c-4.2-0.8-7.5-2.1-10.9-4.9c-3.6-2.9-6.4-6.8-8.8-10.6c-4.2-6.7-7.8-15-8.3-23.1c0.1,0.1,0.1,0.1,0.2,0.1c2.9,0.4,5.9,0.4,8.9,0.4
		c0,0.1-0.1,0.2-0.1,0.3c1.7,15.4,18.3,20.1,29.4,27.3c0.5,0.3,1,0,1-0.6c-0.3-7.1-3.9-13.5-9.1-18.6c13.4,1.1,26.2,5.2,39.7,3.5
		c13.6-1.8,26.2-7.6,39.7-9.9c0.6-0.1,0.7-0.9,0.1-1.2c-11.4-5.1-22.3-11.4-34.1-15.7c-11.1-4-22.8-5.4-34.3-3
		c3.1-4,5.7-8.3,9.1-12.1c0.4-0.5-0.1-1.1-0.6-1c-17.6,1.2-24.9,20.9-40.8,25.7c-0.3,0.1-0.3,0.3-0.2,0.6
		c-8.7-0.2-11.9-10-13.7-17.1c-1.8-7.3-2-15.3-4.8-22.3c0,0,0,0,0,0c3.2,0.2,6.4,0.6,9.7,1.4c3.8,0.9,7.8,2.1,11.8,1.4
		c4.9-0.9,9.3-4.1,13.6-6.3c3.5-1.8,7.5-3.3,10.1-6.4c2-2.3,1.7-5.1,0.5-7.6c1.1,0.3,2.2,0.6,3.2,0.6c1.8,0.1,3.5-0.1,5-1.1
		c2.8-1.8,3-6.5,3.6-9.3c0.6-2.6,1.4-5.2,2.6-7.6c1.8-3.5,4.8-5.8,7.6-8.4c5.1-4.8,6.3-11.5,6.4-18.2c0.1-5.2-0.7-10.4-1.2-15.6
		c5.4,5,9.7,10.8,11.1,18.2c1.6,8.4-0.9,16.6-2.4,24.8c-2.8,15.6,0,30.4,4.6,45.4c0.2,0.7,1.3,0.4,1.3-0.4
		c-1.7-14.5,7.8-27.2,10-41.2c2.2-14.3-2-29.2-9.3-41.5c3.7,2,6.9,4,9.7,7.5c3,3.7,5.2,8.1,7.2,12.4c3.5,7.6,6.5,16.2,12.6,22.3
		c0,0.2,0,0.3,0,0.5c0,0.4,0.4,0.4,0.6,0.3c0.5,6.4,0.4,12.9,0.9,19.3c0.5,6.6,2.6,12.2,6.1,17.8c3.1,4.8,7.3,8.7,12,11.9
		c4.5,3.2,9.4,6.6,14.3,9.1c0.2,0.1,0.4,0,0.5-0.2c2.8,2.2,6,3.9,9.6,5c0,0.1,0,0.3,0.1,0.5c5.2,6.1,7.6,13.9,12.7,20
		c4,4.8,9,8.7,14.5,11.5c11.2,5.7,24.4,6,36.2,2.2c6.6-2.1,12.4-6,18.5-9.2c5.8-3,11.7-6.2,16.3-10.9c4.7-4.8,8-11.1,7.7-18
		c-0.3-6.3-4-12.3-6-18.2c2.5,0,5-0.2,7.2-0.6c6.2-1,11.9-4,16.7-7.9c10.2-8.2,16.2-21.2,16.7-34.1c0.1-2.9-0.5-4.8-1.7-7.4
		c-1-2.3-0.7-4.3,2-4.6c1-0.1,2.2,0,3.1-0.7c1.6-1.3,2.6-4.8,3.2-6.8c0.8-2.6,0.4-5.3-0.3-7.9c-3.3-13.5-14.5-22.7-27-27.4
		c-1.2-0.5-2.5-0.8-3.8-1.2c1.3-7.6,0.6-15.5-1.8-23.1c-2.1-6.8-6.1-12.8-11.5-17.5c-1.5-1.3-3.1-2.3-4.8-3c-3.8-3.5-9.6-4.7-14.5-6
		c-2.3-0.6-4.6-1.2-6.8-2c-3.4-5-5.3-10.6-8-15.9c-2.2-4.4-5.2-8.1-10.2-9.3c-6.2-1.5-13.2,2.2-18.8,4.4c-5.4,2.2-11.3,2.7-16.2,5.9
		c-0.1-1.6-0.5-3.2-0.7-4.8c-0.1-0.4-0.5-0.6-0.8-0.5c-8.8,2.7-16.3,8.8-22.6,15.1c-6.6,6.6-12.2,14.2-16.8,22.4
		c-2,3.6-3.8,7.2-6.3,10.6c-2.5,3.3-5.1,6.6-7,10.3c-1.6,3.2-2.4,6.9-1.2,10.3c1.5,4.6,5.1,8.5,5.8,13.3c-1.4,3.1-1.9,6.7-2.2,10.1
		c0,0.2,0,0.3,0,0.5c0,0-0.1,0-0.1,0.1c-0.5,2.1-1.4,4.3-3.6,5.1c-1.9,0.7-4.2,0-6-0.7c-2.7-1.1-4.8-2.9-7.1-4.5
		c-7.2-8.4-19-8.6-28.4-13.6c11.2-2.5,22.1-5.8,28.2-16.5c7.2-12.6,9.4-27.4,21.1-37c0.6-0.5,0-1.5-0.7-1.2
		c-6.3,2.5-12.3,5.8-17.4,10.2c-4.6,4-8.3,8.9-11.6,14c-4.2,6.4-7.6,13.5-12.8,19.3c-2.7,2.9-6,5.2-9.8,6.6c-4.1,1.5-8.5,1-12.8,0.5
		c0-0.5,0-0.9,0-1.4c0-7.3,2.8-13.7,6-20.1c2.9-5.8,5.5-11.6,6-18.2c0.6-8.5-4.9-15-5.9-23.1c-0.1-0.6-0.1-1.3-0.1-2
		c0.1,0.1,0.3,0.1,0.4,0c7.7-4.6,17-3.4,25.6-3.9c4-0.2,7.9-1,11.6-2.4c4.1-1.6,7.9-4.3,11.6-6.6c7.6-4.7,14.9-9.8,22.5-14.5
		c8.3-5.2,17.1-9.4,26.3-12.9c0.2-0.1,0.2-0.3,0.1-0.4c0.2,0,0.4-0.1,0.5-0.1c0.3-0.1,0.3-0.5-0.1-0.5c-12.2,1.3-24.3,5.9-35.8,10
		c-6.1,2.1-12.1,4.3-18.1,6.4c-5.6,1.9-11.3,3.4-16.9,5.3c13.8-10.5,24.3-24.8,32.2-40.2c4.2-8.1,9.2-15.6,13.9-23.4
		c4.1-7,8.6-14.6,9.4-22.8c0,0,0,0,0,0c0.2-0.2,0.4-0.5,0.7-0.7c0.2-0.2-0.1-0.6-0.4-0.4c-4,3.4-7.9,6.8-12.2,9.8
		c-4.1,2.9-8.4,5.5-12.6,8.3c-7.9,5.3-15.5,11.5-20.2,20c-4.8,8.6-5.9,17.8-7.3,27.4c-0.7,4.5-1.7,8.9-3.7,13
		c-1.2,2.3-2.7,4.1-4.5,5.7c-0.1,0-0.1,0.1-0.2,0.1c-0.1,0.1-0.2,0.2-0.2,0.3c-0.9,0.7-1.8,1.4-2.7,2.1c6.1-9.1,2.9-20-1.4-29.5
		c-1.3-2.8-2.8-5.6-4-8.4c-1.7-3.8-2.3-8-2.8-12c-0.8-7.1-0.7-14.9-4.4-21.2c-0.1-0.1-0.1-0.1-0.2-0.1c-0.1-0.3-0.1-0.6-0.2-1
		c-0.1-0.5-0.8-0.4-0.8,0.1c0,5,0.2,9.7-0.4,14.7c-0.6,5.1-1.7,10-2.6,15.1c-1.5,8.7-2.8,18.1-0.4,26.7c1.5,5.5,4.3,10.7,5.8,16.2
		c0.7,2.6,1.1,5.4,0.3,8c-1.1,3.4-4.7,4.4-7.9,5c-0.3,0-0.5,0-0.8,0c-0.1-2.5-0.7-4.8-2.4-6.4c-2-1.9-6.4-1.5-4.9-5.8
		c0.9-2.8,1.8-3.8,1.2-6.8c-1.1-4.9-3.8-7.9-7-11.7c-4.2-5-8.9-9.6-14.1-13.5c-5.1-3.8-10.9-6.7-16.7-9.1c-5-2.1-10.3-3.1-15.6-2.4
		c2.4-2.3,3.1-6.2,3.3-9.3c0.3-4.2-1.3-8.1-4.1-11.1c-5.4-5.8-14.2-3.4-20.6-1.1c-3.9,1.4-8.5,4.2-12.8,3.7
		c-2.1-0.3-3.8-4.1-5.3-5.5c-8.9-8.6-21.1-2.6-29.7,3.1c-0.1,0.1-0.2,0.2-0.2,0.3c-2.4-2.3-5.2-4.1-8.3-5.9
		c-4.8-2.8-10.7-5.4-15.5-1.2c-1.6,1.4-2.3,3.6-3.5,5.3c-2.4,3.7-6.5,3.6-10.4,3.5c-5.1-0.1-9.9,1.3-9.7,7.3c0,1.5,0.3,2.9,0.5,4.4
		c-1,3.1-2.2,6-4.2,8.7c-2.4,3.3-5.5,6-8.6,8.6c-5.8,4.9-12.2,9.4-16.2,16.1c-2.5,4.2-3.8,8.7-4.1,13.3c0,0-0.1,0-0.1,0
		c-7.5,6.4-19.2,4.8-24.6,14c-4.7,8-1.9,20.4,3.2,27.7c-3.1,0.3-6.1,1.3-8.9,3.2c-8.4,5.6-5.6,17.8-3,25.7c1.9,5.7,4.5,11,6.7,16.6
		c3.2,8.1,2.6,15.8,0.3,24.1c-1.7,6.2-1,12.4,2.5,17.8c2.8,4.3,6.9,7,12,7.7c5,0.7,10.2-0.7,15-2.1c2.3-0.7,4.6-1.5,6.9-2.6
		c-2.8,2.4-5.6,4.8-8.1,7.5c-4.4,4.6-6.6,10.2-7.3,16.5c-1.4,12.3,3.2,27.4,13.2,35.3c2.6,2.1,5.8,3.2,8.7,4.9
		c2.4,1.4,4.4,3.8,6.5,5.7c3.5,3.2,7.3,5.5,12.2,3.9c4.8-1.5,8.3-5.6,10.7-9.9c0.5-0.8,0.9-1.6,1.3-2.4c-0.5,8.8-2.3,22.6,8,25.3
		c2.9,0.8,6,0.9,9,1.4c3.2,0.5,6,1.8,8.8,3.3c4.6,2.4,9.9,1.6,13.5-2.4c2-2.2,3.4-4.7,5-7.2c2.3-3.5,5.4-5.3,9.3-6.8
		c6-2.3,11.6-4.5,15.1-10.2c5.1-8.4,0.7-19.1-1.7-27.8c2.3,0.9,4.8,1.2,7.3,1.4c3.1,7,6.2,14,8.6,21.3c2.5,7.5,5.2,16.4,3.6,24.4
		c-0.1,0.5-0.2,0.9-0.4,1.3c-3.5,5.8-12,6.9-18.1,8c-6.7,1.2-14.8,1.5-20.6,5.5c-0.4,0.3-0.2,1,0.3,1c4.4,0.4,8.6,1.1,12.8,2.3
		c-10.2-0.5-19.2,6.7-26.1,13.5c-8.7,8.7-15.4,19.2-24.2,27.8c-0.4,0.4-0.2,1.2,0.4,1c13-2.9,27.1,0.7,39.6-4.5
		c4.8-2,8.7-5.4,12.2-9.2c3.4-3.6,6.8-7.6,9.6-11.7c-0.3,2.8-0.1,5.6-0.8,8.4c-0.1,0.4,0.4,0.7,0.7,0.5c5.6-3.2,9.5-7.9,11.7-13.9
		c2-5.6,2.9-13.2,1.6-19.1c0,0,0,0,0-0.1c1.3-2,2.5-4,3.2-6.1c0.2-0.7-0.7-1-1-0.4c-4.8,8.9-11,16.1-18.6,22.8
		c-3.7,3.3-7.7,6.4-11.8,9.3c-1.5,1.1-3.1,2.1-4.7,3.1c2.3-2.2,4.4-4.7,6.4-7.2c3.6-4.3,7-8.3,11.4-11.9c1.7-1.4,3.5-2.8,5.4-4.3
		c0.2,0,0.5,0,0.8-0.1c0.4-0.1,0.5-0.5,0.3-0.8c4.8-4.1,9.5-8.8,10.9-14.6c1.8-7.9-0.7-16.6-3.1-24.1c-2.4-7.6-5.4-15.4-9.4-22.3
		c0.3,0,0.6,0,0.9,0c0,0,0,0,0,0c2.6,4.6,5,9.2,7.2,14c0.1,0.1,0.2,0,0.2-0.1c-1.5-4.9-3.9-9.5-6.4-13.9c1.8,0,3.5,0.1,5.2,0.2
		c-0.1,0.1-0.1,0.2-0.1,0.3c2.2,8.2,2.6,16.8,4.9,24.9c2,7.1,5.8,15.6,14.3,15.7c0.3,0,0.5-0.2,0.6-0.4c1.6,0.3,3.2,0.6,4.8,0.9
		c0,0.3,0.3,0.5,0.7,0.4c0.2-0.1,0.5-0.1,0.8-0.2c1,0.1,2,0.3,3,0.4c3.5,0.4,7,0.6,10.5,0.8c-0.1,0-0.2,0.1-0.3,0.1
		c-0.2,0.1-0.2,0.2-0.3,0.3c-4,0-7.9,0-11.9-0.1c0,0,0,0,0,0c-0.1-0.1-0.2-0.1-0.3,0c-0.3,0-0.7,0-1,0c-2.6,0-5.3-0.2-8-0.3
		c-2.7-0.7-5.5-1.1-8.3-1.5c-0.3,0-0.7,0.2-0.7,0.5c0,9.1,4.1,18.1,8.7,25.7c3.9,6.4,11.3,15.7,19.7,15.9c0.7,0.1,1.4,0.2,2.1,0.2
		c-1.8,0.4-3.5,0.8-5.2,1.3c-0.4,0.1-0.6,0.4-0.5,0.8c3.9,8.8,11,16,13.8,25.3c-0.1,0.1-0.2,0.3-0.1,0.4c5,18.4,19.8,30.9,32.3,44.4
		c-9.9-7.2-18.8-16-25.8-26.1c0-0.2-0.1-0.3-0.2-0.3c-0.2-0.3-0.5-0.7-0.7-1c-7.5-11.3-10-25.7-20.6-34.8c-0.2-0.2-0.6,0.2-0.4,0.4
		c6.4,7.3,10,16.1,14.2,24.7c-5,11-12.3,21.3-14.1,33.4c-2.1,14.5,6.8,26,10.5,39.3c0.2,0.6,1.2,0.8,1.2,0c0.1-10.7,3.4-20.8,6.4-31
		c2.2-7.5,3.9-15,4.1-22.7c4.5,12.8,10.6,25.3,21.5,33.7c10.8,8.3,24.1,12.3,34,21.8c0.1,0.1,0.1,0.1,0.2,0.1
		C275.8,448.5,276,448.1,276.1,447.8z M164.3,309.9c-0.2-0.2-0.4-0.3-0.8-0.1c-4.3,2.6-9.2,2.9-14,4c-0.1,0-0.1,0.2,0,0.2
		c4.5-0.2,9.3-0.7,13.4-2.7c-0.2,0.2-0.4,0.4-0.5,0.6c-1.5,1.5-3.1,2.9-4.8,4.3c-3.6,0.4-7.3,0.6-10.9,0.8c-0.1,0-0.1,0.2,0,0.2
		c3.2,0.4,6.4,0.4,9.6,0.1c-1.6,1.4-3.3,2.7-4.9,4.1c-0.5,0.4-1,0.9-1.5,1.3c-0.1-0.1-0.2-0.1-0.4-0.1c-6.4,0.6-12.8,2.2-18.6,5.1
		c-0.1,0.1,0,0.2,0.1,0.2c5.8-2,11.7-3.5,17.8-4.1c-1.6,1.6-3.2,3.3-4.6,5c-0.1,0-0.1,0-0.2,0c-5.9,0.5-11.8,2.8-17,5.5
		c-0.2,0.1-0.1,0.4,0.2,0.4c5.4-2,10.5-4.1,16.2-4.8c-1.7,1.9-3.3,3.9-5,5.8c-0.1,0-0.1,0-0.2,0c-6.2,1.3-12.1,3.8-17.5,7
		c0,0,0,0.1,0,0.1c5.5-2.3,10.9-4.4,16.6-5.8c-1.9,2.1-3.9,4.1-6.2,5.8c-0.4,0.3-0.9,0.5-1.3,0.8c-1.9,0.9-3.7,1.8-5.8,2.5
		c-3,1-6,1.6-9,2.3c-0.1,0-0.1,0.1,0,0.1c3.1-0.3,6.7-0.6,10-1.6c-1.3,0.9-2.6,1.8-4,2.6c-4.7,2.7-9.6,4.7-14.6,6.5
		c-0.1,0,0,0.2,0,0.1c5-0.9,9.6-2.9,14-5.3c3-1.6,6.4-3.4,9.4-5.5c0.1,0,0.2,0,0.3-0.1c0.7-0.4,1.4-0.9,2-1.4
		c2.9-1.1,5.9-3.5,8.2-5.1c4.4-2.9,8.5-6.2,12.5-9.6c3.9-3.4,7.7-7.1,11.1-11c1.3-1.5,2.6-3,3.8-4.7c-0.1,2.4,0.2,4.8,0.1,7.1
		c-0.1,3-0.6,6-1.4,8.9c-1.6,6-5.4,10.9-10.6,14.2c0.5-2.7,0.5-5.6,0.3-8.3c0-0.1,0-0.1-0.1-0.1c0.1-0.1,0.2-0.3,0.3-0.4
		c0.2-0.3-0.2-0.8-0.5-0.5c-3.5,3.3-6.1,7.5-9.3,11.1c-3.8,4.5-8.2,8.3-13.6,10.8c-11.6,5.3-25.2,1.9-37.5,4
		c7.1-7.4,13.1-16,20-23.6c8.1-8.9,18-17.1,30.8-16.5c0.2,0,0.3-0.1,0.3-0.3c0.3-0.3,0.4-0.8-0.1-0.9c-4.5-1.5-9.1-2.4-13.8-2.9
		c3-1.6,6.5-2.2,9.7-2.9c4.3-0.8,8.7-1.4,13-2.3c3.6-0.7,8.7-1.9,12-4.5C166.5,307.4,165.4,308.7,164.3,309.9z M432.6,284.3
		c1.2,7.5-3.3,14.7-8.5,19.6c-4.7,4.4-10.6,7.3-16.2,10.2c-5.6,3-11,6.4-17,8.4c-11.8,4-24.8,3-35.8-2.6c-5.6-2.9-10.4-7.1-14.3-12
		c-4.5-5.6-6.9-12.4-11.4-17.9c0.4,0.1,0.7,0.2,1.1,0.3c-0.1,0.2-0.1,0.4,0,0.6c3.5,4.6,6.2,10,10.4,14c0.1,0.1,0.3-0.1,0.2-0.2
		c-3.3-4.6-6-9.6-9.5-14.1c1.3,0.3,2.6,0.5,3.8,0.7c0.1,0.2,0.2,0.4,0.4,0.7c-0.1,0.2-0.1,0.4,0.1,0.6c6.5,8.5,13.9,16.1,22.9,21.9
		c0.1,0.1,0.2-0.1,0.1-0.1c-8.3-6-15.1-13.6-21.4-21.6c-0.2-0.4-0.4-0.7-0.6-1.1c3.7,0.6,7.5,1.3,11.1,2.6c4.9,1.8,8.3,5.1,12.4,8.1
		c3,2.2,7.2,2.8,10.8,3.6c6.4,1.4,15.3,4.2,20.4-1.5c2.5-2.8,2.7-6.8,2-10.7c2,2.4,3.5,5,4.8,7.9c0.1,0.1,0.2,0.1,0.2-0.1
		c-1-3.6-2.9-6.7-5.3-9.5c-0.5-2.1-1.1-4-1.7-5.7c-1-2.7-2.1-5.2-3.4-7.8c6.8,5.6,12.5,12.1,17.4,19.6c0.1,0.1,0.2,0,0.1-0.1
		c-4.3-8.6-11.2-15.7-18.7-21.6c-0.2-0.4-0.4-0.7-0.6-1.1c5.9,3,11.2,6.8,16.3,11.1c0.1,0.1,0.3-0.1,0.2-0.2
		c-5-5.2-10.8-9.7-17.5-12.6c-1-1.6-1.9-3.2-3-4.7c2.3,1,4.7,1.7,7,2.8c2.9,1.4,5.5,3.3,8.1,5.2c4.9,3.7,8.9,8.2,12.9,12.8
		c0.1,0.1,0.3,0,0.2-0.2c-3.2-5.2-7.8-9.7-12.5-13.4c-3.8-3-9.1-6.9-14.2-7.9c0.9-0.1,1.8-0.3,2.7-0.5c0,0.1,0.1,0.2,0.2,0.2
		c3.2,1.4,6.4,2.5,9.4,4.3c3.2,1.9,6.3,4.2,9.4,6.2c0.2,0.1,0.4-0.2,0.2-0.3c-3.1-2.7-6.5-5-9.9-7.1c-2.3-1.4-5.2-3.2-8-3.6
		c0.9-0.3,1.7-0.6,2.6-0.9c0.5-0.2,1-0.3,1.4-0.5c0,0,0.1,0.1,0.2,0.1c9.4,3.6,16.4,10.3,23.9,16.8c0.1,0.1,0.3-0.1,0.2-0.2
		c-6-7.1-14-13.8-22.8-17.2c2.1-0.6,4.2-1,6.3-1.3c4.5,1.5,8.6,3.7,12.6,6.2c3,1.8,6.8,5,10.4,5.4c0,0,0.1-0.1,0-0.1
		c-3.7-2.4-7.7-4.6-11.4-7c-2.8-1.7-5.7-3.5-8.8-4.7c2.4,0,4.8,0.1,7.2,0.2c1.6,1,3.5,1.6,5.2,2.5c2.4,1.2,4.8,2.5,7.4,3.5
		c0.1,0,0.1-0.1,0.1-0.1c-2.4-1.2-4.7-2.6-7.1-4c-1-0.6-2.1-1.3-3.2-1.8c0.7,0,1.3,0,2,0c0.7,0,1.3-0.1,2-0.2c0,0.3,0.1,0.5,0.3,0.7
		c3.1,1.7,7.1,2.4,11,2.5C428.5,273.2,431.6,278.4,432.6,284.3z M353.1,245.8c-1.8-6.3-5-12-8.4-17.7c2.7,2.8,5.5,5.6,8,8.6
		c3.9,4.7,7.6,9.7,11.2,14.6c0.1,0.2,0.4,0,0.3-0.2c-3.4-5.1-7-10.1-10.8-14.9c-1.5-1.8-3-3.8-4.6-5.7c1.3,0.7,2.6,1.3,3.9,2
		c1.9,3.2,4.1,6.3,6.3,9.2c3.8,4.9,8.6,10.1,14.6,12.2c0.2,0.1,0.3-0.2,0.1-0.3c-8.7-4.1-14.6-12-19.5-20.3c2.1,1.3,4.1,2.6,6,4.2
		c-0.2,0.2-0.2,0.6,0.1,0.8c0.3,0.1,0.6,0.1,0.8,0c0.1,0.1,0.2,0.2,0.3,0.3c0,0.2,0.1,0.4,0.2,0.5c0.4,0.8,1.2,0.9,2,0.8
		c0.2,0,0.4-0.2,0.4-0.4c0-0.5,0.5-1,0.6-1.6c0.2-0.6-0.8-1.1-1.3-1.3c-0.5-0.2-1.1-0.1-1.6,0.1c-0.3,0.1-0.5,0.3-0.7,0.4
		c0,0-0.1,0.1-0.1,0.1c-2.2-2.3-4.9-4.3-7.8-5.8c-0.6-1-1.1-1.9-1.6-2.9c4.3,1.1,8.4,2.8,12.6,4.1c0.4,0.3,0.9,0.6,1.3,0.9
		c5.8,4.4,11.1,9.5,16.7,14.2c0.1,0.1,0.2-0.1,0.1-0.1c-4.6-5.3-10.2-9.9-15.7-14.2c0.7,0.2,1.3,0.4,2,0.6c0,0,0,0.1,0.1,0.1
		c0.6,0.6,1.3,0.7,2.1,0.5c0.3-0.1,0.4-0.3,0.4-0.6c0-0.3,0.1-0.7,0.2-1c0.1-0.2,0.1-0.4-0.1-0.5c-0.5-0.5-1.2-0.9-1.9-0.9
		c-0.6,0-1.1,0.4-1.7,0.4c-0.6,0-0.8,0.7-0.3,1c0.2,0.1,0.3,0.1,0.5,0.1c0.1,0.1,0.2,0.2,0.2,0.3c-1.2-0.5-2.3-1-3.5-1.5
		c-2.7-2.1-5.6-4.2-8.5-6.2c0.7,0,1.4,0,2.1-0.1c0.4,0,0.4-0.6,0-0.7c-1.2-0.1-2.4-0.2-3.6-0.3c-2.3-1.4-4.6-2.7-7-3.8
		c-0.3-0.1-0.6,0.3-0.3,0.5c1.6,1.1,3.3,2.2,4.9,3.2c-0.5,0-0.9,0-1.4,0c0,0,0,0,0,0c-0.5-0.1-1-0.3-1.5-0.4
		c-0.1-0.2-0.2-0.4-0.3-0.6c-0.2-0.4-0.8-0.1-0.7,0.3c0,0,0,0,0,0c-1.1-0.3-2.1-0.7-3.1-1c-0.7-0.5-1.5-1-2.2-1.6
		c-0.5-0.4-1-0.8-1.6-1.3c0.8,0,1.5,0,2.2-0.1c2.2,0.8,4.8,0.9,7,0.6c0.4-0.1,0.3-0.6-0.1-0.5c-3.1,0.3-5.7-0.9-8.6-1.6
		c-0.3-0.1-0.5,0.4-0.2,0.5c0.2,0.1,0.4,0.2,0.5,0.3c-0.3,0-0.6-0.1-0.9-0.1c0-0.1-0.1-0.3-0.2-0.4c-1-0.7-1.8-1.6-2.4-2.6
		c1.1,0.1,2.2-0.1,3.2-0.5c0.3-0.1,0.1-0.6-0.1-0.5c-0.8,0.2-1.6,0.3-2.5,0.3c-0.4,0-0.7-0.1-1-0.2c0-0.5,0.1-1,0.1-1.5
		c0-0.3,0.1-0.7,0.1-1c1.6-0.6,3.2-1.4,4.8-2c0.4-0.2,0.1-0.7-0.3-0.6c-1.4,0.4-3,0.8-4.4,1.4c0.1-1,0.4-1.9,0.7-2.8
		c0.1-0.1,0.2-0.3,0.3-0.4c-0.1,0.3,0.2,0.7,0.5,0.5c2.3-1.3,4.7-2.6,7-4c0.2-0.1,0.1-0.5-0.2-0.4c-2.4,1-5.1,2-7.2,3.6
		c0.4-0.5,0.8-1.1,1.2-1.7c0.1-0.2-0.1-0.3-0.2-0.2c-0.1,0.1-0.2,0.2-0.3,0.3c0,0,0.1-0.1,0.1-0.1c0.1-0.1,0-0.2-0.1-0.1
		c-0.4,0.4-0.8,0.9-1.1,1.4c-0.3,0.3-0.6,0.7-0.9,1c-0.5,0.5-1.1,1-1.7,1.5c-0.1-0.7-0.2-1.4-0.2-2.1c0-0.2-0.3-0.2-0.3,0
		c-0.1,0.9-0.2,1.8-0.1,2.7c-0.1,0.1-0.2,0.2-0.3,0.4c-0.2,0.3,0.1,0.7,0.4,0.6c0,0.4,0.1,0.9,0.2,1.3c-4.2,5.8-8.2,12-15.9,12.9
		c-0.1,0-0.1,0.2,0,0.2c7.7-0.2,12.1-6.3,16.2-11.9c0,0.1,0.1,0.3,0.1,0.4c0,0,0,0,0,0c-0.4-0.1-0.7,0.4-0.4,0.6
		c0.3,0.2,0.5,0.4,0.8,0.5c0,0.1,0.1,0.2,0.1,0.3c0,0.5-0.1,1.1-0.2,1.6c-6.2,8.7-12.3,17.2-22.6,21.3c-0.2,0.1-0.1,0.3,0.1,0.2
		c10.2-3.1,17.3-11.7,22.9-20.3c0,0.1,0.1,0.2,0.2,0.3c0.6,0.3,1.2,0.5,1.9,0.6c0.3,0.7,0.6,1.4,1,2.2c-0.3-0.1-0.8,0-0.8,0.5
		c-0.9,10.5-7.5,22.3-19.1,22.9c-0.2,0-0.1,0.2,0,0.3c11.7,1.6,19.3-12.1,20.2-22.2c0.3,0.4,0.6,0.7,0.9,1.1c0.3,0.6,0.7,1.3,1,1.9
		c0,0,0,0,0,0c0,4.6-0.9,9-2.7,13.3c-2,4.6-5.3,8.1-8.6,11.7c-0.1,0.1,0.1,0.3,0.2,0.2c7.4-5.4,11.7-14.3,12.2-23.3
		c0.6,1,1.1,2,1.7,3c0,0.1,0,0.2,0,0.3c3.1,9,0.7,19-4.7,26.5c-0.1,0.2,0.1,0.4,0.3,0.3c5.8-5.5,8-15.3,6.5-23.4
		c0.5,0.9,1,1.8,1.4,2.7c3.3,6.7,4.3,13.7,4.6,21.1c0.3,6.5-1,13.5-8.6,14.4c-6.5,0.7-13.4-2.6-18.9-5.7c-5.6-3-11.4-7-15.4-12
		c-5.7-7.1-6.6-15.2-3.5-23.6c2.7-7.2,7.6-13.3,11-20.3c2.8-5.8,4.4-12.1,4.8-18.5c0.4-6.6-0.8-13.1-1.2-19.7
		c-0.5-6.9,2.6-11,8.8-13.7c0,7.5,2.9,14.5,5.6,21.4c1.4,3.6,2.5,7.3,2.9,11.2c0.5,5.3-1.2,9.9-3,14.8c-0.2,0.6,0.7,1.2,1,0.6
		c0.6-1,1.1-2,1.5-3.1c1-1,2-1.8,3-2.5c0,0.5,0.1,1.1,0.3,1.7c0.1,0.3,0.5,0.1,0.5-0.1c-0.1-0.7,0-1.3,0-2c0.7-0.4,1.5-0.7,2.3-0.9
		c1,0,2-0.3,2.9-0.4c0.5-0.1,1.1-0.1,1.7-0.1c-1,0.6-2,1.1-3.1,1.5c-0.1,0.1-0.1,0.3,0.1,0.3c1.4-0.4,2.8-1,4-1.6
		c0.4,0.1,0.7,0.2,1,0.4c0,0,0,0,0,0c-0.1,0-0.1,0-0.2,0c-1.4,0.4-3.4,0.8-4.5,1.8c-0.1,0.1-0.1,0.3-0.1,0.4
		c-0.8,0.3-1.7,0.6-2.5,0.8c-1.4,0.4-2.9,0.4-4.2,1c-0.3,0.1-0.2,0.6,0.1,0.6c1.3,0.2,2.6-0.3,3.8-0.6c1.7-0.5,3.3-1,4.8-1.9
		c0.1,0,0.1-0.1,0.1-0.2c2.3-0.7,4.4-1.8,6.7-2.5c0.2-0.1,0.1-0.3-0.1-0.3c-1.3,0.1-2.6,0.4-3.9,0.8c0,0,0-0.1,0-0.1
		c-0.2-0.2-0.4-0.4-0.7-0.5c0.6-0.3,1.1-0.7,1.7-1c0.1,0,0.1,0,0.2,0.1c0.3,0.1,0.4-0.2,0.3-0.4c1.1-0.7,2.2-1.5,3.2-2.4
		c0.1-0.1,0.2-0.1,0.2-0.2c0.2,0.1,0.3,0.2,0.5,0.3c-0.5,0.9-1,1.8-1.6,2.7c-0.2,0.3,0.2,0.7,0.5,0.4c0.8-0.7,1.5-1.6,2.1-2.6
		c0.2,0.1,0.4,0.3,0.6,0.4c0.9,0.7,1.7,1.5,2.3,2.3c-2,1.1-4.1,2-6.1,3.1c0.4-0.3,0.8-0.6,0.9-1c0-0.1-0.1-0.2-0.2-0.2
		c-1,0.3-1.8,1-2.8,1.3c-1.2,0.4-2.5,0.6-3.8,1c-0.4,0.1-0.2,0.6,0.2,0.6c1.4,0,2.7-0.4,3.9-0.9c0.3-0.1,0.7-0.3,1.1-0.5
		c-0.3,0.2-0.6,0.4-0.8,0.6c-0.3,0.2,0,0.7,0.3,0.6c0.2-0.1,0.3-0.1,0.5-0.2c-0.2,0.1-0.4,0.2-0.6,0.3c-1.4,0.7-2.9,0.8-4.3,1.4
		c-0.3,0.1-0.3,0.5-0.1,0.7c-0.7,0.2-1.5,0.4-2.2,0.6c-1.1,0.3-2.3,0.4-3.4,0.8c-0.3,0.1-0.3,0.5-0.1,0.7c-0.3,0-0.5-0.1-0.8-0.1
		c-0.4,0-0.6,0.5-0.2,0.7c2.7,1.3,6.6,1,9.6,0.9c0.1,0,0.1-0.1,0.1-0.2c3.5,0,7.1,0.2,10.7-0.2c0.2,0,0.2-0.4,0-0.4
		c-3.6-0.2-7.3-0.5-11-0.3c-0.3,0-0.4,0.3-0.3,0.6c-1.1-0.2-2.1-0.3-3.2-0.4c1.3-0.5,2.6-1.2,3.8-2c0,0.1,0.1,0.2,0.2,0.2l0,0
		c-0.1,0.1-0.3,0.1-0.4,0.2c-0.3,0.2-0.2,0.7,0.2,0.6c0.1,0,0.1,0,0.2,0c0.1,0,0.1,0.1,0.2,0.1c1-0.1,2-0.4,3-0.8
		c0.9-0.2,1.7-0.5,2.6-0.7c0.5-0.1,1.1-0.2,1.6-0.3c-0.2,0.2-0.5,0.3-0.7,0.5c-0.3,0.3,0,0.8,0.4,0.7c3.2-1.4,6.2-3.4,9.3-5.1
		c2-1.1,4.3-2.1,5.9-3.8c0.1-0.1,0-0.2-0.1-0.1c-3.9,2.9-9,4.2-13.2,6.8c-0.8,0-1.7,0.1-2.5,0.2c0.7-0.5,1.3-1,1.8-1.5
		c0.2-0.2,0.1-0.4-0.1-0.4c0,0,0,0,0,0c0.1-0.2-0.1-0.4-0.3-0.3c-0.8,0.7-2.3,1.2-3.3,1.6c-1.1,0.5-2.3,0.8-3.5,1.3
		c0.2-0.1,0.4-0.3,0.5-0.4c0.1-0.1,0.1-0.2,0-0.3c1.3-0.6,2.4-1.5,2.9-2.5c1.5-0.8,3-1.7,4.5-2.6c0.5,0.7,1,1.4,1.5,2.1
		c0.1,0.1,0.2,0,0.2-0.1c-0.2-0.9-0.5-1.7-0.9-2.5c4.2-1.1,8.5-3.9,12.1-6.1c3.6-2.2,8.3-4.8,10.9-8.2c0,0,0-0.1,0,0
		c-3.8,2.3-7.3,5.3-11.1,7.6c-2.5,1.5-5.1,2.6-7.7,3.8c1.1-1,2.2-2.1,3-3.4c0,0.1,0.1,0.1,0.2,0.1c1.1-0.7,3.2-0.9,2.5-2.7
		c-0.1-0.4-0.5-1.2-0.9-1.3c-0.1,0-0.2-0.1-0.3-0.1c1.1-1,2.1-2.1,3.1-3.2c3.6-4,7.5-9.6,6-15.3c0-0.1-0.1,0-0.1,0
		c0.6,6-3.2,11.2-7.1,15.4c-2.2,2.3-4.6,4.4-7,6.4c-1.9,1.5-4.1,2.8-5.9,4.4c-0.4-0.4-0.9-0.7-1.4-1c0.4-0.8,0.8-1.6,1.2-2.4
		c0.1-0.2,0.2-0.4,0.2-0.5c1.8-1.6,3.5-3.3,5-5.1c0.2,0.4,0.8,0.2,0.8-0.3c0-0.2-0.1-0.4-0.1-0.6c0.1-0.3-0.1-0.6-0.4-0.6
		c-0.1-0.1-0.2-0.2-0.3-0.3c0,0,0.2-0.2,0.3-0.3c0.3,0,0.6,0,0.8,0.1c0.1,0,0.4,0.1,0.4,0.1c0.1,0.1,0.4,0,0.3-0.2
		c-0.2-0.3-0.2-0.5-0.6-0.7c-0.6-0.3-1.4-0.4-1.9,0.1c-0.4,0.4-0.7,1-0.4,1.5c0.1,0.1,0.2,0.3,0.3,0.4c-1,0.8-2,1.7-2.9,2.7
		c0.8-2,1.6-4.1,2.2-6.3c1.4-4.8,3.2-11.4,0.9-16.2c0-0.1-0.1,0-0.1,0c1.7,5.2-0.2,11.6-1.7,16.7c-0.9,2.8-2,5.4-3.3,7.9
		c-0.8,0.8-1.5,1.6-2.3,2.3c-0.2,0.2-0.5,0.4-0.7,0.6c-1.8-0.7-3.7-1-5.5-0.7c-0.3,0.1-0.4,0.3-0.4,0.5c-0.3,0-0.5,0-0.7,0
		c0.8-1.4,1.4-2.8,1.9-4.4c0.7-1.3,1.3-2.5,1.8-3.7c0.5,0.3,1,0.5,1.5,0.7c0.5,0.2,0.8-0.4,0.4-0.7c-0.8-0.6-1.9-1.1-2.6-1.9
		c0.1-0.6,0.1-1.2,0.1-1.8c0,0,0,0,0,0c0.5,0,1,0.4,1.5,0.5c0.5,0.1,0.6-0.6,0.2-0.8c-0.6-0.3-1.1-0.7-1.7-0.8
		c0.1-4.3-0.6-8.6-1.8-12.1c0-0.1-0.1,0-0.1,0c0.8,4,1.3,8.1,1.1,12.1c-0.7,0.3-0.8,1.1-0.8,1.8c0,0.6,0.2,1.1,0.5,1.5
		c-0.1,1-0.3,2.1-0.6,3.1c-0.9,1.5-1.7,3.1-2.7,4.5c-0.4,0.6-0.9,1.2-1.4,1.7c-0.9,0-1.9,0-2.8,0.2c-0.3,0-0.6,0.1-0.9,0.2
		c1.8-6.8-0.3-14.3-1-21.2c0,0,0,0,0,0c0.1,7.5,2.1,14.8-0.1,21.8c-0.1,0.1-0.1,0.1-0.2,0.2c0,0.1,0,0.2,0,0.3
		c-0.2,0.6-0.5,1.2-0.7,1.8c-0.1,0.1-0.2,0.3-0.3,0.4c0,0,0,0.1,0,0.1c-0.2,0.4-0.4,0.7-0.6,1.1c-0.1,0.1-0.1,0.2,0,0.3
		c-0.2,0.4-0.5,0.7-0.6,1.1c-0.1,0.3,0.2,0.6,0.5,0.4c0.8-0.6,1.3-1.6,1.8-2.5c0.2-0.3,0.3-0.6,0.5-0.9c0.2-0.2,0.4-0.3,0.6-0.4
		c-0.3,0.3-0.5,0.6-0.8,1c0,0,0,0,0,0c-0.1,0-0.1,0.1-0.1,0.2c-0.4,0.7-0.7,1.4-0.7,2.2c-0.8,0.4-1.6,0.9-2.3,1.4
		c1.7-5.9,1.3-12.2-0.6-18.1c-1.2-3.8-2.9-7.5-4.3-11.2c-1.4-3.8-2.4-7.7-2.9-11.7c0.1,0,0.1-0.1,0.2-0.1c0.2-0.2,0.4-0.4,0.6-0.6
		c0,0,0.1,0,0.1-0.1c0.2-0.2,0.4-0.4,0.5-0.6c0,0,0,0.1-0.1,0.1c-0.2,0.4,0.4,0.8,0.7,0.5c2.2-2,3.9-3.9,6.6-5.3
		c2.6-1.3,5.4-1.7,8.3-1.9c5.8-0.4,11.6,1.4,16.7,4c0,0,0.1,0,0-0.1c-4.9-3.5-10.9-5-16.8-4.9c-2,0-4.2,0.4-6.3,1
		c1-0.4,2.1-0.8,3.2-1.2c1.4-0.4,2.8-0.7,4.2-0.9c-0.1,0.1-0.1,0.1-0.2,0.2c-0.5,0.4,0.1,1.1,0.6,0.7c0.4-0.3,0.8-0.7,1.2-1.1
		c3.8-0.2,7.6,0.3,11.3,1.1c3.6,0.7,7.1,1.8,10.8,1.6c2.1-0.1,4.1-0.8,6-1.7c-3.1,2.9-6.3,5.6-10.9,6.2c-3.4,0.4-6-1.7-9.1-2.7
		c-2.6-0.9-5.8-0.7-8.5-0.3c-9.3,1.3-11.7,12.2-15.1,19.4c-0.2,0.4,0.4,0.7,0.6,0.4c2.7-3.4,3.9-7.9,5.9-11.8
		c2.8-5.4,7.6-7.2,13.5-6.9c3.2,0.1,5.7,1.7,8.6,2.8c2.2,0.8,4.8,0.6,7-0.1c5.1-1.7,8.8-5.8,12.4-9.6c0.5-0.4,1-0.8,1.5-1.2
		c5.1-3.6,11.4-6.2,17.4-4.1c5.5,1.9,10.4,6.6,14.5,10.6c3.9,3.8,8.6,8.4,7.6,14.3c-0.4,2.3-1.6,4.4-1.5,6.8
		c0.2,2.5,1.5,4.6,3.5,6.2c1.3,1.1,3.1,1.4,4.7,1.4c0.7,0,1.4-0.1,2.2,0c1.6,0.2,1.1,2.6,1,3.6c-0.7,7-8,10.7-11.1,16.5
		c-2.1,3.9-2.2,9.9-5.6,12.9c-2.3,2-6,2.8-8.9,3.5c-4.3,0.9-8.7,1-13,0.6c-3.2-0.3-6.6-0.8-9.7-1.6c-0.2-0.1-0.4,0.2-0.3,0.4
		c-3.4-1-6.9-2.2-10.3-3.2c-1.6-0.4-3.2-0.9-4.9-1.3c8.8,0.7,18.2-1.1,26.4-4c0.1,0,0-0.2-0.1-0.2c-9.8,2.8-19.5,3.8-29.6,3.2
		c-0.2,0-0.3,0.2-0.3,0.4c-0.9-0.1-1.8-0.1-2.6-0.1c0.4-0.3,0.9-0.5,1.3-0.8c0.2-0.1,0-0.5-0.2-0.4c-1.6,0.7-3.2,1.3-4.8,1.8
		c-1.4,0.4-2.8,0.4-4.1,0.9c-0.3,0.1-0.3,0.7,0.1,0.7c2,0.1,4.3-0.5,6.3-1.5c0.1,0.1,0.2,0.2,0.3,0.2c4.7,0.7,9.2,1.2,13.8,2.5
		c2.1,0.6,4.2,1.2,6.3,1.7c-0.4,0-0.8,0.1-1.2,0.2c-0.5,0.1-0.6,0.8-0.1,1c0.3,0.1,0.6,0.2,0.9,0.1c0,0.1,0,0.2,0.1,0.2
		c0.3,0.2,0.5,0.4,0.7,0.6c-6.9-3.4-16.1-5.8-23.7-4.9c-0.5,0.1-0.5,0.9,0,1c0.3,0,0.6,0,0.9,0c-1.9,0.4-3.8,0.6-5.8,0.5
		c-0.6,0-0.7,0.8-0.1,0.9c2.8,0.4,5.2-0.3,7.6-1.4c2.9,0.1,5.8,0.3,8.7,0.8c4.5,0.8,8.8,2.3,13.2,3.7c0.1,0,0.2,0,0.2-0.1
		c0.4,0.1,0.7,0,1.1-0.1c0.2-0.1,0.4-0.2,0.5-0.5c0-0.2,0.1-0.4,0.2-0.6c0.1-0.2,0.2-0.5,0-0.7c-0.2-0.2-0.4-0.3-0.6-0.5
		c0.8,0.2,1.7,0.3,2.5,0.4c-0.4,0-0.7,0.4-0.4,0.8c6.2,8,16.3,12.5,25.6,16c0.2,0.1,0.3-0.2,0.1-0.3c-8.8-4.5-17.5-8.2-24.2-15.6
		c9.6,5,20.4,9.8,31.4,10.4c0.2,0,0.2-0.2,0-0.3c-10.2-2-19.3-5.7-28.5-10c4.2,0.9,8.6,1,12.9,0.5c-1,1.3,5.5,2.7,6,2.8
		c3.8,0.9,9.5,2.6,13.3,1.1c0.1,0,0-0.2,0-0.2c-3.4,0.1-6.8-0.6-10-1.3c-0.6-0.1-8.7-2.4-8.8-2.3c0-0.1,0-0.2-0.1-0.2
		c0.6-0.1,1.1-0.1,1.7-0.2c1.7-0.2,3.6-0.6,5.5-1.2c5.2,0.8,10.6,1.3,15.8,0.4c0.3,0,0.2-0.4-0.1-0.4c-4.7,0.3-9.2-0.1-13.8-0.7
		c2.4-0.9,4.5-2.3,5.8-4.4c0,0,0,0,0-0.1c0.8,0.3,2.5-0.3,3.1-0.4c1.1-0.2,2.2-0.4,3.3-0.8c0.1,0,0.1-0.2,0-0.2
		c-1.1,0-2.2,0.1-3.3,0.2c-0.5,0.1-1.7,0-2.5,0.2c0.6-1.3,0.9-2.7,1.3-4c0.7-2.4,1.5-4.6,2.7-6.7c0.8,0.5,1.5,1.1,2.2,1.7
		c-0.1,0.3,0.1,0.7,0.5,0.7c0.1,0,0.1,0,0.2,0c1.5,1.5,2.6,3.2,3.5,5c-0.4,0.3-0.2,1.1,0.4,1l0,0c0.7,1.8,1.2,3.8,1.5,6
		c0.9,5.7,2.1,10.6,4.9,15.6c1.1,2,2.3,4,2.6,6.3c0.4,3.1-1.6,6.2-3.2,8.7c-3.2,5.1-9.2,8.7-14.4,11.3c-6.5,3.2-13.2,2.4-20.2,2.3
		c-5.8-0.1-10.6,1.8-16,3.5c-6.4,2-12.6-2.2-17.6-5.8c-2.9-2.1-5.6-4.6-8.2-7.2c-1.2-1.2-2.3-2.4-3.5-3.7c-0.8-0.9-3-2.6-3.2-3.8
		C354,245.1,353.1,245.2,353.1,245.8z M356.4,228.4c-1.8-0.9-3.9-1.5-6-1.6c-0.3-0.5-0.6-1.1-0.9-1.6c0.2,0,0.5,0.1,0.7,0.1
		c0,0.2,0.1,0.4,0.4,0.4c1,0.1,2,0.2,3.1,0.2c2.3,1.5,4.6,3,6.9,4.5c-1.9-0.8-3.8-1.5-5.7-2c0.5,0.1,1,0.2,1.4,0.3
		C356.5,228.8,356.6,228.5,356.4,228.4z M349.5,226.9c-0.2,0-0.4,0-0.6,0c-0.4,0-0.4,0.6,0,0.6c0.2,0,0.4,0.1,0.7,0.1
		c-0.2,0.2-0.1,0.6,0.2,0.7c0.1,0,0.3,0.1,0.4,0.1c0.4,0.8,0.9,1.7,1.4,2.5c-1-0.4-2-0.8-2.9-1.1c-0.2-0.1-0.3,0-0.4,0.2
		c-1.9-2.2-3.9-4.3-6-6c-0.2-0.4-0.4-0.7-0.6-1.1c2.2,1.1,4.6,1.7,7,2.2C348.9,225.7,349.1,226.3,349.5,226.9z M363.6,238.2
		c-0.1,0.2-0.2,0.5-0.3,0.7c0,0.1-0.1,0.2-0.1,0.3c-0.4,0-0.7-0.1-1-0.4c0,0,0,0,0,0c-0.1-0.1-0.2-0.3-0.3-0.5c0,0,0,0,0-0.1
		C362.5,237.8,363,237.8,363.6,238.2z M368.6,233.3c-0.1-0.1-0.1-0.1-0.2-0.2c0.1,0,0.1,0,0.2,0c0.6-0.2,1-0.2,1.5,0.1
		c0,0.2-0.1,0.4-0.1,0.6C369.4,233.9,369,233.8,368.6,233.3z M337.7,218.8c0.2-0.3,0.3-0.5,0.5-0.8c0.2,0.3,0.5,0.6,0.8,0.9
		C338.5,218.9,338.1,218.8,337.7,218.8C337.7,218.8,337.7,218.8,337.7,218.8z M336.9,212.4c-0.1-0.3-0.1-0.6-0.2-0.8
		c0.5-0.4,1-0.9,1.4-1.4c-0.2,0.7-0.4,1.4-0.6,2.1c-0.1,0-0.1,0.1-0.2,0.1C337.3,212.3,337.1,212.3,336.9,212.4z M344.5,200.5
		c-0.7,0.1-1.4,0.2-2,0.5c0.2-0.6,0.4-1.3,0.8-1.8c1.3-0.6,2.5-1.4,3.6-2.4c0.3,0,0.6,0,0.9,0.1c-0.1,0.2-0.3,0.5-0.4,0.7
		c-0.1,0.1-0.1,0.2,0,0.2c-1.2,0.2-2.4,0.6-3.4,1.3c-0.4,0.3,0,0.9,0.4,0.7c1.3-0.5,2.5-1,3.9-1.1c1.2-0.1,2.2,0.2,3.3,0.6
		c-0.5,0.3-1,0.7-1.5,1c-0.4-0.1-0.8-0.2-1.2-0.2C347.4,199.9,345.7,199.9,344.5,200.5z M350.4,197.1c-0.5-0.2-1-0.4-1.6-0.6
		c0.1-0.1,0.2-0.3,0.3-0.4c0.7,0,1.4,0,2.1,0c1.3,0,2.5,0.2,3.8,0.5c-0.9,0.7-1.8,1.4-2.7,2.1c-1.2-0.8-2.8-1.2-4.3-1.1
		c0.2-0.2,0.4-0.5,0.6-0.7c0.6,0.1,1.2,0.3,1.7,0.5C350.4,197.4,350.5,197.2,350.4,197.1z M369.7,191.6c0.2-0.4,0.3-0.7,0.8-0.7
		c0.2,0.3,0.5,0.7,0.6,1c0,0.2-0.2,0.4-0.4,0.5c-0.5,0.3-1,0.6-1.4,1.1c0.1-0.1,0.2-0.3,0.3-0.4c0-0.1-0.1-0.2-0.2-0.1
		c-1.7,2.5-4,4.4-6.5,6c-0.4,0.2-0.9,0.5-1.3,0.7c-0.4-0.6-0.8-1.1-1.3-1.6c2.3-1.1,4.5-3.1,6.4-4.7c0.5-0.4,1-0.9,1.5-1.3
		c0.1,0.1,0.2,0.2,0.4,0.2C369.1,192.2,369.4,192,369.7,191.6z M350.2,207.2c0.1,0,0.1-0.1,0.2-0.2c0.6-0.1,1.3-0.3,2-0.5
		c-2,1.2-4.2,2.1-6.4,2.9c-0.7-0.1-1.3-0.2-2-0.3C346.1,209,348.4,207.9,350.2,207.2z M343.4,196.6c0-0.1,0.1-0.2,0.1-0.3
		c0-0.1,0-0.1,0-0.2c0.4-0.2,0.7-0.3,1.1-0.4c0.7-0.2,1.4-0.3,2.1-0.4c-0.3,0.3-0.5,0.5-0.8,0.8
		C345.1,196.1,344.2,196.3,343.4,196.6z M383,221.1c0.1,0,0.2,0,0.3,0c0.6-0.1,1.1,0,1.6,0.3c0,0.1,0,0.2-0.1,0.3
		c-0.4,0.1-0.7,0.1-1.1-0.2C383.5,221.4,383.3,221.2,383,221.1z M472.8,195.2c1.1,3,1.8,6.2,1.2,9.3c-0.2,1.2-0.8,2.4-1.3,3.6
		c-0.8,1.8-1.3,3.3-3.4,3.5c-1.8,0.1-3.3,0.3-4.2,2c-1.1,2.1,0.5,4.7,1.4,6.6c1.3,2.8,0.6,6.5,0.2,9.5c-0.4,3.2-1.3,6.4-2.4,9.4
		c-2.3,6.3-6.1,12-10.9,16.7c-4.7,4.6-10.5,7.8-16.9,9.4c-5.8,1.4-13.4,1.2-19.1-1.3c0.2,0,0.4-0.1,0.6-0.1c0.1,0.3,0.3,0.5,0.6,0.4
		c11.8-2.5,24.3-6.3,34-13.7c0.1-0.1,0-0.4-0.2-0.3c-9.1,5.4-19,9.1-29.3,11.7c0.3-0.2,0.7-0.3,1-0.5c5.3-2.6,11.8-7.2,15.2-12.8
		c5.7-0.8,12.2-3.1,16.9-6.3c0.1-0.1,0-0.4-0.2-0.3c-2.6,1.3-5.4,2.4-8.2,3.2c-2.5,0.8-5.3,1.2-7.8,2.1c1.2-2.4,1.8-5.1,1.5-7.8
		c5.6-0.7,10.7-3.3,15.4-6.2c0.1-0.1,0-0.3-0.1-0.2c-5.1,2.2-9.9,4.7-15.5,5.4c-0.2-1-0.6-2.1-1.2-3.2c-0.5-1-1.1-2-1.6-3
		c2,0.3,4.4-0.7,6.2-1.2c2.5-0.7,5.7-1.5,7.8-3.2c0.1-0.1,0-0.2-0.1-0.2c-2.4,0.5-4.7,1.6-7.1,2.2c-2.3,0.6-5,0.6-7.2,1.5
		c-0.6-1.2-1.2-2.4-1.7-3.7c2.4-0.2,4.9-1.2,7.2-1.9c3.1-0.9,6.1-1.9,9-3.2c0.1,0,0.1-0.2-0.1-0.2c-3.1,0.9-6.1,1.7-9.2,2.5
		c-2.4,0.6-5,0.9-7.3,1.9c0-0.1-0.1-0.1-0.1-0.2c-0.8-2.4-1.2-4.9-1.5-7.5c5-0.4,11-2.2,15-5.2c0.2-0.2,0-0.5-0.2-0.4
		c-2.5,1.4-5.1,2.3-7.9,3c-2.3,0.6-4.8,0.8-7,1.6c-0.1-0.5-0.1-0.9-0.2-1.4c-0.3-1.6-0.7-3.1-1.2-4.5c4.9-0.7,9.9-1.6,14.6-3.3
		c0.2-0.1,0.1-0.3-0.1-0.3c-5,1.1-10,1.8-15,2.5c-0.9-1.9-2-3.6-3.5-5c2.6-0.5,5.1-1.1,7.6-1.6c3.1-0.6,6.2-1.2,9.2-2.3
		c0.2-0.1,0.1-0.3-0.1-0.3c-5.7,1-12.2,1.3-17.7,3.3c-0.8-0.6-1.7-1.2-2.7-1.7c0,0,0.1,0,0.1,0c3.2-0.5,6.4-1.7,9.5-2.6
		c2.7-0.8,6.2-1.8,8.2-4c0.1-0.1,0-0.1-0.1-0.1c-2.9,0.9-5.6,2.3-8.5,3.1c-2.7,0.8-5.7,1.2-8.4,2.2c0,0,0,0,0-0.1
		c1.8-2.4,3.9-4.5,5.7-6.7c1.2,0,2.7-0.6,3.8-1c2.1-0.7,4.2-1.5,6.3-2.4c0.2-0.1,0.1-0.3-0.1-0.3c-1.9,0.6-3.8,1.2-5.8,1.7
		c-1,0.2-2.1,0.4-3.2,0.6c1.1-1.6,2-3.3,2.5-5.3c1.4,0.3,3.4-0.8,4.6-1.2c2.5-0.8,5-1.8,7.4-2.8c0.2-0.1,0.1-0.3-0.1-0.3
		c-2.3,0.7-4.6,1.4-7,2.1c-1.4,0.4-3.3,0.5-4.7,1.2c0-0.3,0.1-0.5,0.1-0.8c0.3,0.1,0.6,0,0.8-0.3c1.2-1.5,2.2-3.1,3.1-4.7
		c0,0,0.1,0,0.1,0c1.2-0.1,2.6-1,3.8-1.5c2-0.7,4.1-1.3,6.2-1.8c0.2,0,0.2-0.3,0-0.3c-2,0.2-4,0.6-5.9,1.2c-0.9,0.3-2.4,0.5-3.4,1.1
		c1.9-3.6,3.2-7.5,3.9-11.4C456.4,174.8,468.1,181.8,472.8,195.2z M421.3,125.4c4.6,1,8.5,3.9,11.7,7.3
		c10.9,11.6,13.1,31.2,6.8,45.5c-1.1,2.5-2.5,4.8-4.1,6.9c-0.3-2.4-2.1-2.8-4.9-2.8c-3,0-5.2-2-6.3-4.7c-1.1-2.7,0.8-6,1.3-8.7
		c0.8-4.8-2.6-8.8-5.5-12.1c-3.9-4.4-8.4-8.3-13.4-11.4c-3.8-2.4-7.3-3.3-11.8-2.6c-0.6,0.1-1.1,0.2-1.7,0.3c2.7-2.1,5.1-4.7,6.3-8
		c0-0.1-0.1-0.2-0.2-0.1c-2.3,3.7-5.3,6.4-8.8,8.9c-2.1,0.8-4.1,1.9-5.9,3.3c2.5-3,4.3-6.6,3.9-10.6c0-0.2-0.4-0.2-0.4,0
		c-0.2,5.8-4,9.7-7.8,13.6c-0.1,0.1-0.1,0.2-0.1,0.3c-2.3,1.3-4.7,2.3-7.3,2.6c1.9-1.9,3.4-4.1,4.7-6.5c1.2-2.1,2.7-5,2.7-7.5
		c0,0-0.1-0.1-0.1,0c-1.1,1.8-1.6,3.9-2.6,5.8c-1.5,3.1-3.6,5.9-6.1,8.3c0,0,0,0,0,0.1c-0.5,0-1.1,0-1.7-0.1
		c-1.4-0.2-2.9-0.4-4.3-0.7c4.7-3.1,8.8-8.9,9.5-14.6c0-0.2-0.3-0.3-0.4-0.1c-2,5.9-5.1,9.9-9.8,13.9c-0.2,0.2-0.2,0.4-0.1,0.6
		c-2.9-0.6-5.8-1.3-8.7-1.7c-1.4-0.2-2.8-0.2-4.2-0.2c2.7-2.8,4.8-6.3,5.3-10.1c0-0.1-0.1-0.1-0.2,0c-1.4,4-3.6,7.3-6.6,10.2
		c-3.2,0.2-6.3,1-9.4,2.3c-0.4,0.2-0.8,0.3-1.2,0.5c0.5-0.5,1-1.2,1.5-1.7c1-1.3,2-2.6,2.9-4c0.2-0.2-0.2-0.5-0.4-0.3
		c-0.9,1.1-1.9,2.3-2.9,3.4c-0.9,1-2.1,1.9-2.8,3c-0.1,0.1,0,0.3,0.1,0.3c-2.4,1.3-4.8,3.1-6.4,5.2c-1.2-8.2,7.7-14.6,14.5-17.3
		c6.5-2.6,12.6-4.4,17.3-10c4.5-5.4,8.8-12.3,15.6-15c4.9-1.9,10.1,1.4,14.4,3.5c6,2.9,11.9,4.1,18.6,4.2
		C415.3,124.7,418.3,124.8,421.3,125.4z M408.8,120c4.4,1.1,9.6,2,13.9,4.2c-3.3-0.9-6.7-1.1-10.2-1.1c-7-0.1-13.1-1.6-19.4-4.7
		c-4-1.9-8-4.1-12.5-3.4c-6,1-10.7,6.9-14.3,11.3c-2,2.4-3.6,5-5.8,7.1c-3,3-7,4.6-10.9,6c-7.1,2.5-21.2,9.9-18.7,19.4
		c-0.1-0.1-0.3-0.1-0.5,0c-1.2,0.5-2.3,1.1-3.3,1.7c-2.6-9.2,3.7-16.3,10.7-21.6c7.4-5.6,15.9-9.5,23.6-14.7
		c4.4-2.9,7.9-6.9,12.2-9.8c5.9-3.9,12.1-3.7,18.5-1.3c3.1,1.2,6,2.9,9,4.3C403.4,118.5,406.1,119.3,408.8,120z M364.4,99.3
		c6.6-2,12.8-6,19.9-6c3,0,5.4,1.1,7.3,2.8c-10-4.9-20.9,1.2-29.1,7.2c-10.1,7.5-18.5,17.1-29.5,23.5c-0.5,0.3-0.2,1,0.3,0.8
		c4.6-1.6,8.5-5.2,12.2-8.3c4.7-4,9.2-8.3,14-12.3c9.3-7.7,20.5-15,32.7-10.2c4.9,5.2,6.7,14.8,11.2,20.1c-0.4-0.1-0.8-0.3-1.2-0.4
		c-3.6-1.4-6.9-3.5-10.5-4.9c-5.4-2.1-10.8-2.3-16.1,0.1c-5.6,2.6-9.4,7.5-14.4,10.9c-8.4,5.9-17.9,10-26,16.3
		c-6.8,5.4-12.5,13-9.7,22.1c0.1,0.2,0.1,0.3,0.2,0.5c-1.1,0.8-2,1.7-2.8,2.8c-0.6-2.9-0.9-5.7-0.4-8.8c0.6-3.8,2.3-7.5,4.3-10.8
		c3.6-6.1,8.7-10.9,13.2-16.2c0.1-0.1-0.1-0.2-0.1-0.1c-9.9,8.2-23.3,23.3-17.8,37.4c0,0,0,0.1-0.1,0.1c-1.7-5.8-3.7-11.2-3.6-17.4
		c0.1-5.6,2.2-10.8,5.2-15.4c3.1-4.7,7.2-8.7,11.2-12.6c4.8-4.7,9.6-9.4,14.5-14C353.8,102.1,358.7,101.1,364.4,99.3z M349.9,98.6
		c0.3,1.4,0.7,2.8,1.3,4.2c-5.4,3.7-9.8,9-14.5,13.5c-4.3,4.1-8.7,8.3-12.4,13c-7.1,9-9.1,19.6-5.9,30.6c0.7,2.5,1.7,4.9,2.4,7.4
		c0,0.1,0.1,0.3,0.2,0.3c-0.1,0.2-0.1,0.5-0.2,0.7c-0.2-0.1-0.3-0.1-0.5,0c-1.3,0.6-2.7,1.1-4.1,1.6c-0.6-3.2-1.5-6.3-1.8-9.6
		c-0.3-3.8-0.3-7.6-0.7-11.3c0-0.1-0.1-0.1-0.1,0c-0.3,6.6-1.3,15.1,1.7,21.2c-1.8,0.6-3.7,1.3-5.5,2.1c0-0.1,0-0.2,0-0.4
		c-7.1-13.3,4.1-26.9,4.4-40.5C322.7,117.5,334.8,104.6,349.9,98.6z M298.9,168.7c-2.4-4.6-2.1-8.7,0.2-13.2
		c1.8-3.6,4.5-6.7,6.9-9.9c2.2-3,3.8-6.2,5.6-9.5c0.7-1.3,1.5-2.7,2.3-4c-2.1,13.2-12.2,27.2-5.1,40.3c0.1,0.1,0.2,0.2,0.3,0.3
		c-1.1,0.5-2.2,1.1-3.2,1.8c-1.2,0.8-2.1,1.9-2.9,3C302.2,174.3,300.4,171.5,298.9,168.7z M303.8,178.7c3.2-5.6,11.2-6.7,16.7-9.1
		c-0.2,1.3-0.3,2.6-0.2,4c-5-0.6-9.8,4.6-11.9,8.4c-2.9,5.3-3.9,12.1-2.9,18c0,0.1,0.2,0.1,0.2,0c-0.1-5.4,0.6-10.8,2.7-15.8
		c1.1-2.6,2.7-5,4.9-6.8c2.2-1.9,4.6-2,7.1-2.8c0.2,3.7,1,7.6,1.2,11.1c0.5,7.3-0.2,14.5-2.7,21.4c-2.6,7.1-7.1,13.2-10.6,19.8
		c-3.2,6-5.2,12.5-3.9,19.2c1.2,6.3,5.4,11.5,10.1,15.5c4.8,4.1,10.4,7.5,16.2,10.1c5,2.2,10.8,4,16.3,2.9c9.7-2,8.1-14.4,7.4-21.7
		c-0.1-0.8-0.2-1.5-0.3-2.2c2.3,7.2,4.1,13.8,3.8,21.6c0,0.2,0.3,0.3,0.4,0c1.8-7.9-1.1-16.4-3.9-23.8c-0.1-0.4-0.5-0.4-0.7-0.1
		c-0.1-0.5-0.2-1.1-0.4-1.6c0.3,0.5,0.7,0.9,1.1,1.4c1.3,1.5,2.6,3,4,4.5c0.4,0.4,0.8,0.9,1.3,1.3c-0.1,0.1-0.2,0.3-0.1,0.5
		c2.8,5.4,3,11.2,3.1,17.1c0,0.2,0.3,0.1,0.3,0c0.8-5.4,0.2-11.3-2-16.3c1.6,1.6,3.3,3.1,5,4.6c1.8,4.9,3.5,9.8,4.7,15
		c0.1,0.3,0.6,0.3,0.5-0.1c-0.4-4.7-1.9-9.2-3.6-13.6c1,0.8,2.1,1.6,3.2,2.4c-0.2,0.1-0.3,0.3-0.2,0.6c2.9,5.5,5,11.1,6.8,17.1
		c0.1,0.2,0.3,0.1,0.3-0.1c-0.9-5.9-3.3-11.6-6-16.9c1.2,0.8,2.4,1.5,3.7,2.1c-0.1,0.1-0.1,0.3,0,0.5c4.3,7,6.5,14.7,7.1,22.9
		c0,0.2,0.3,0.2,0.3,0c0.5-8-2.2-16-6.2-22.8c1.5,0.6,3,1.1,4.5,1.3c1.1,1.8,2.3,3.7,3.3,5.6c-0.1,0.3,0,0.6,0.3,0.7
		c0.1,0,0.1,0.1,0.2,0.1c0.3,0.5,0.5,0.9,0.8,1.4c-0.1,0.2-0.2,0.5,0.1,0.6c0.1,0.1,0.3,0.2,0.4,0.3c2.8,5.4,5.1,11.2,6.1,17
		c0.7,4.5,0,9.3-4.5,11.5c-4.7,2.2-11.1,0.1-15.8-0.8c-2-0.4-4.1-0.9-6.1-1.4c0,0,0,0-0.1-0.1c-1.7-0.5-3.3-1.2-4.8-2.2
		c-1.2-0.9-2.3-1.9-3.5-2.9c-0.4-0.3-0.7-0.5-1.1-0.8c-3.1-2.9-5.9-6.2-9-8.6c-3.5-2.7-8-4.4-12-6.2c-5-2.3-9.9-4.6-14.5-7.8
		c-8.7-6.1-15-15.7-18.3-25.7c-1.7-5.1-2.5-10.6-2.4-16c0-5.4,1.4-10.4,2.2-15.7c0.1-0.4-0.6-0.6-0.8-0.2
		c-7.1,19.5,0.1,42.5,15.4,56c8.5,7.5,19.8,9.8,29.1,16c2.5,1.7,4.7,3.8,6.8,5.9c-4-2.2-8.4-3.6-13-4.4c-6.9-1.3-13.7-2.1-19.7-6.1
		c-6.8-4.6-11.3-12.4-14.8-19.5c-2.1-4.3-3.9-8.8-5.7-13.2c-1.8-4.6-3.8-9.3-4.6-14.3c-1.6-10.3,4-20.1,5-30.2
		c0.5-4.9,0.3-9.8,0.5-14.7C301.1,188,301.5,182.8,303.8,178.7z M299.5,192.4c-0.5,7.4,0,14.7-1.7,22c-1.8,7.9-4.8,15-3.9,23.3
		c0.4,3.6,1.8,6.9,3.1,10.3c1.4,3.8,2.9,7.7,4.5,11.4c3,7,6.5,13.8,11.3,19.7c0.5,0.6,0.9,1.1,1.4,1.6c-3-2-6.3-3.7-9.2-5.7
		c-4.6-3.1-8.7-6.8-11.9-11.4c-4-5.7-5.9-12-6.5-19c-0.5-6.1-0.1-12.3-1.6-18.3c0.1-0.1,0.1-0.3,0-0.4c0-0.1-0.1-0.1-0.1-0.2
		c0.7-2.8,1-5.8,1.6-8.7c0.7-3.2,1.4-6.4,1.8-9.6c0.6-5-0.3-9.6-2.6-13.9C290.8,196.8,297.8,197.9,299.5,192.4z M258,169.9
		c6.7-4.4,10.5-12,14.5-18.7c3.6-5.8,7.3-11.6,12.2-16.4c3.1-3.1,6.6-5.6,10.3-7.7c-5,3.4-9,9-12,13.5c-5.2,7.7-9.6,16.1-14.2,24.2
		c0,0,0,0.1,0.1,0.1c5.5-6.5,9-14.4,13.5-21.6c2.4-3.7,4.9-7.3,7.9-10.6c2.3-2.5,4.8-4.2,7.5-6c-4.8,5.9-7.8,12.9-10.7,20
		c-3.6,5.3-7,10.3-11.7,14.8c-4.9,4.7-10.7,8.1-16.9,10.8c0,0,0,0.1,0,0.1c6.4-1.4,11.9-5.1,16.8-9.4c3.3-2.9,6.6-6.5,9.2-10.3
		c-0.2,0.5-0.4,0.9-0.6,1.4c-2.8,6.4-6.5,11.8-12.7,15.3c-5.6,3.2-12.1,4.5-18.3,6.1c-0.6,0.2-0.5,1.1,0.1,1c0.1,0,0.3-0.1,0.4-0.1
		c0,0.1,0,0.1,0.1,0.2c3.8,3.1,8.7,4.4,13.3,5.7c5.5,1.5,10.2,3.5,14.1,7.5c0.4,0.6,1,1.2,1.6,1.8c4.1,5.1,4.9,11.2,4,17.6
		c-0.7,4.9-2.7,10-2.9,15c-3-7.6-2.9-15.7-4.3-23.7c-1.2-7.1-4.9-14.6-12.3-16.8c-0.1,0-0.1,0.1-0.1,0.1c3.7,2.4,6.8,4.8,8.8,8.8
		c1.8,3.4,2.4,7.3,3,11.1c0.8,5.9,0.8,12.4,2.8,18.2c-1.7-2.5-3.2-5.2-4.5-7.9c-0.9-4.4-2.4-8.7-3.8-13c-1.4-4.4-3.3-8.7-6.2-12.4
		c0-0.1-0.1,0-0.1,0.1c2.3,4,4,8.2,5.5,12.7c0.8,2.5,1.5,5.2,2.3,7.8c-1.4-3-2.7-6.1-4.2-9.1c-3.6-7.4-9.6-16.4-18.4-18.2
		c-0.6-0.1-0.7,0.7-0.2,0.9c0.3,0.2,0.6,0.3,0.9,0.5c7.4,13.8,12.3,29.3,8.9,45.1c-2.5,11.6-8.9,21.9-9.6,33.8
		c0-0.1-0.1-0.2-0.1-0.3c-0.1-3.3-0.1-6.5,0.4-9.8c0.6-4.1,1.9-8.1,3.1-12.1c2.1-7,4.3-13.9,4.1-21.2c0-0.1-0.1-0.1-0.1,0
		c-0.7,8.1-3.5,15.7-5.8,23.4c-1.4,4.6-2.8,9.8-2.9,14.9c-0.5-2-1-4-1.4-6c-0.1-8.3,1.7-16.2,3.7-24.2c2-7.9,3.9-16,2.7-24.2
		c0,0-0.1,0-0.1,0c0.3,8.9-1.8,17.4-3.9,25.9c-1.5,5.9-3,12.1-3.2,18.2c-0.3-1.7-0.5-3.4-0.7-5.1c-0.8-8.8,0.4-17.7,2.4-26.3
		c1.6-6.8,2.5-14.3,0.5-21.2c-2-7-6.5-12.6-11.9-17.4c-0.1-1.4-0.2-2.8-0.2-4.2C245.2,174.8,252.3,173.7,258,169.9z M293.1,89.4
		c-4.9,3.4-10.1,4.9-15.9,5.8c-5.4,0.8-10.9,1.2-16.3,2.1c-2.8,0.5-5.6,1.2-8.3,1.9c4-1.7,8.1-3.1,12.4-4.2c5.1-1.3,10.2-2.3,15.2-4
		c0.1,0,0-0.1,0-0.1c-7,1.7-15,2.5-22.2,4.7c2.4-4.4,2.8-9.5,2.6-14.5c-0.2-6.3-0.9-12.8-1.8-19c0-0.1-0.1-0.1-0.1,0
		c-1.1,5,0.3,10.7,0.8,15.7c0.6,6.2,0.6,12.6-2.7,18.1c0,0,0,0.1,0,0.1c-0.2,0.1-0.5,0.1-0.7,0.2c1.2-2.3,1-5.2,0.7-7.8
		c-0.5-4.1-1.1-8.2-1.9-12.2c-2.1-9.8-5.6-20.2-2.3-30.1c0,0,0-0.1-0.1,0c-5,6.6-1.8,17.5-0.2,24.8c1,4.3,1.9,8.6,2.5,13.1
		c0.5,4,2.5,9.8-0.7,13.1c0,0,0,0,0,0c-0.1,0-0.1,0-0.2,0.1c3.5-5.9-1.7-17-4-23.2c-3.5-9.1-2.5-19.1-0.9-28.5
		c1.4-8.7,4.4-18.6,3.3-27.6c1.7,5.9,2.3,11.9,2.9,18.1c0.6,6.6,2.3,12.1,5.2,18c5.2,10.7,10.5,23.2,2.1,33.8
		c-0.2,0.2-0.2,0.4-0.1,0.6c-0.1,0.1-0.2,0.1-0.2,0.2c-0.1,0.1,0,0.3,0.1,0.3c0.1,0,0.3-0.1,0.4-0.1c0.2,0.1,0.6,0.1,0.8-0.1
		c0,0,0.1-0.1,0.1-0.2c2.2-0.8,4-2,5.6-3.5c5.2-2,9-6.9,12-11.4c3.6-5.2,7-10.7,9.7-16.4c5.7-12,9.8-26.3,21.3-34.3c0,0,0-0.1,0-0.1
		c-10.7,5.3-15.4,18.7-20,28.8c-2.7,5.9-5.8,11.3-9.3,16.8c-2.5,3.9-5,7.8-8.2,11c4.6-5.8,7.5-13.3,10.2-20c4-9.7,8.3-19,13-28.4
		c0.1-0.1-0.1-0.2-0.2-0.1c-10.5,14.5-13.5,33.2-24,47.6c1.1-2.3,1.9-4.7,2.5-7.1c2.4-9.6,2.3-19.5,6.4-28.7
		c4.5-10.1,12.8-17.2,21.7-23.4c7.7-5.3,16.5-10.2,23-17.2c-4.3,16-15.2,28.8-22.8,43.3c-8.7,16.6-19.4,31.9-34.8,42.9
		c-0.6,0.5,0.1,1.4,0.8,1c0.1-0.1,0.3-0.2,0.4-0.3c5.7-0.8,11.4-2.9,16.9-4.7c6.1-2,12.1-4.2,18.1-6.4c6-2.2,12.1-4.4,18.2-6.3
		c5-1.6,10-2.8,15-4c-16.1,5.4-29.9,15.9-44.2,24.9c-4,2.5-8,5-12.2,7.1c-4.4,2.2-9.4,2.6-14.2,2.8c-8.2,0.3-16.5-0.4-23.9,3.9
		c0-1.2,0.1-2.6,0.1-3.9c0.1,0,0.2,0.1,0.4,0c5.6-1.6,11.2-3.1,16.9-4.1c5.8-1,11.6-1.3,17.4-2.2c4.6-0.7,8.7-2.3,12.6-4.7
		c4.4-2.8,8.2-6.5,12.7-9.3c0.1-0.1,0-0.2-0.1-0.2C300.6,83.9,296.9,86.8,293.1,89.4z M131.9,18.3c5.3-1.2,10.6,1,14.2,4.9
		c1.2,1.4,2,3.3,3.7,4.3c2.1,1.2,5,0.1,7.1-0.5c7.1-2.2,14.5-6.8,22.2-4.8c9.1,2.4,11,16.2,5,22.5c-0.3,0.1-0.6,0.1-0.9,0.2
		c-5.3,1.3-10.4,4.7-13.5,9c-3.2,4.5-4.4,10.4-9.4,13.4c-4.6-1.4-9.4-2.2-14.1-1.1c-13.8,3-11.2,19.8-18.1,28.9
		c-0.1,0.1-0.2,0.2-0.3,0.3c-0.2-2.3-0.5-4.7-1-7c1.3-7.3,7.1-12.7,10.4-19.2c0.1-0.1-0.1-0.3-0.2-0.1c-3.6,5.7-8.7,10.4-10.8,16.8
		c-0.7-2.5-1.5-5-2.5-7.3c-0.7-2.1-2-4-3.7-5.2c3.5-2.2,6.5-5.8,9-9c2.7-3.4,4.8-7.6,5.1-12c0-0.1-0.2-0.1-0.2,0
		c-1,4.6-3.3,8.5-6.3,12.2c-2.5,3.1-5.8,5.4-8.5,8.4c-0.2-0.1-0.5-0.2-0.8-0.3c7.8-7.5,8.7-19.3,6.8-29.4c-1-5.2-2.9-10.3-5.8-14.8
		c0,0,0.1,0,0.1-0.1c7.4-5.7,17.1-5.7,24.9-0.7c0.1,0.1,0.2-0.1,0.1-0.2c-7.1-5.6-18.8-6.6-25.7,0.1c0,0,0,0.1-0.1,0.1
		c-0.6-0.9-1.3-1.7-1.9-2.4c0,0,0,0,0,0C121.9,22.9,126.3,19.6,131.9,18.3z M188.1,213.2c1.9,4.4,1.9,8.9-2.7,11.4
		c-3.8,2.1-9,1.9-13.1,1.1c-9.9-2-20-10.1-25.1-18.8c7.7,5.2,13.8,13.1,23.7,13.7c2.7,0.2,5-1,6.9-2.9c2.6-2.6,4.6-5.2,8-7
		c5.6-3,12.2-2,18-4.1c5.8-2.1,6.2-8.4,5.5-13.6c1.9,2.6,3.9,5,5.1,8.1c1.8,4.7-0.4,9.4-5,11.1c-6.5,2.3-13.9-0.8-20.6,0.1
		C188.2,212.3,187.9,212.8,188.1,213.2z M45.5,134.5c0-0.1-0.1-0.1-0.1-0.2c2.2-3.3,4.8-6.2,7.9-8.7c0.3,0.1,0.8-0.2,0.8-0.6
		c5.1-4,11.3-6.6,18-7.1c0.6,1.8,1.1,3.7,1.5,5.7c-6.7-0.6-14.3,0.8-18.3,6.7c-0.1,0.2,0.1,0.4,0.3,0.2c4.9-5.3,11.3-6.4,18.2-5.8
		c0,0.2,0.1,0.4,0.1,0.7l0,0c-1.5,2.5-3.3,4.9-4.7,7.5c-0.1-0.2-0.3-0.4-0.6-0.4c-7.2,0.3-13,4.3-18.1,9.1c-0.1,0.1,0,0.2,0.1,0.1
		c5.4-4.4,11-7.7,18.1-8.1c0,0,0,0,0.1,0c-0.9,1.6-1.6,3.3-2,5.2c-0.2,0.7-0.2,1.4-0.3,2.1c-3.6,0.2-7.1,1.7-10,3.9
		c-0.1,0.1,0,0.2,0.1,0.2c3-1.8,6.3-2.7,9.8-3c-0.1,1.9,0.2,3.9,0.6,5.9c0,0,0,0,0,0c-2.7,0.8-5.1,2-8,2.3c-0.1,0-0.1,0.2,0,0.2
		c2.6,0.2,5.9-0.3,8.2-1.6c0.4,1.9,1,3.8,1.7,5.7c-2.4,0.1-4.8,0.9-7.1,1.3c-0.2,0-0.1,0.3,0,0.2c2.4-0.2,5-0.1,7.3-0.7
		c0.6,1.6,1.1,3.1,1.7,4.5c-0.8-0.2-1.7-0.2-2.5-0.1c-0.9,0-1.9,0.1-2.8,0.4c-0.1,0-0.1,0.2,0,0.2c0.9,0.1,1.8,0.1,2.7,0.2
		c0.8,0.1,1.8,0.3,2.6,0.2c0.1,0,0.2-0.1,0.2-0.1c0.1,0.1,0.1,0.3,0.2,0.4c0.8,2,1.5,3.9,2.3,5.9c-2,0.1-3.9,0.3-5.7,1.2
		c-0.2,0.1-0.1,0.4,0.1,0.3c1.9-0.4,3.8-0.6,5.8-0.4c0.1,0,0.2,0,0.2,0c0.7,1.7,1.4,3.4,2,5.1c1.2,3.1,2,6.2,2.9,9.3
		c-0.1,0-0.1,0-0.2,0c-6.1,1.8-11.5,5-18,5.7c-0.1,0-0.1,0.1,0,0.1c6.1,0.2,13.1-2.1,18.3-5.1c0,0,0,0,0.1-0.1
		c0.4,1.4,0.7,2.8,1.1,4.1c0.2,0.9,0.5,1.8,0.9,2.7c-3.7,5.9-9.8,8.2-16.3,9.6c-0.1,0-0.1,0.2,0,0.2c6.4,0.1,13.2-3.5,16.7-8.8
		c0.7,1.8,1.6,3.4,2.7,4.9c-1.4,3.2-2.5,6.2-4.8,9c-2.6,3.3-6.1,5.4-10.1,6.8c-0.2,0.1-0.1,0.3,0.1,0.3c4.1-0.5,7.4-2.9,10.2-5.8
		c2.2-2.3,4.5-5.8,5.4-9.1c1.2,1.7,2.6,3.2,4.1,4.7c-0.2,0.1-0.3,0.3-0.3,0.5c1.2,7.8-4.4,14.6-10.5,18.7c-0.1,0,0,0.2,0.1,0.1
		c6.9-3,12.6-10.8,11.6-18.6c2,1.9,4.1,3.6,6.4,5.2c-0.1,0.1-0.1,0.2-0.1,0.3c0.2,7.2-2.2,13.9-7.4,19c-0.1,0.1,0,0.4,0.2,0.2
		c6.1-4.1,8-12.1,8.1-19c1.9,1.4,3.8,2.7,5.7,4c2.4,8.1-1.5,14-5.2,20.8c-0.1,0.2,0.2,0.4,0.4,0.3c5.1-5.1,7.9-13,6.3-20.1
		c0.7,0.5,1.3,0.9,1.9,1.4c0.6,0.4,1.2,0.9,1.8,1.3c-0.2,0.1-0.3,0.3-0.2,0.5c1.5,6.5,1.4,14-4.1,18.6c-0.1,0.1,0,0.2,0.1,0.1
		c6.5-3,6.7-12.5,5.2-18.6c2.4,1.8,4.7,3.5,7.2,4.9c1.7,6.3-0.3,11.9-4.5,16.8c-0.1,0.1,0.1,0.3,0.2,0.2c5.1-3.4,7-10.4,5.6-16.2
		c1,0.5,2.1,1,3.2,1.4c0,0.1-0.1,0.2,0,0.3c1.2,3.4,3.3,6.4,4.3,10c1,3.6,0.8,6.9-0.8,10.3c-0.1,0.2,0.1,0.3,0.3,0.2
		c2.7-2.4,2.4-6.7,1.8-9.9c-0.7-3.4-2.1-7.8-4.5-10.5c0.7,0.2,1.4,0.4,2.1,0.5c0,0.1,0.1,0.3,0.2,0.4c4.2,3.2,7.3,7.1,10.1,11.4
		c0,0,0,0,0,0c-0.1,3.3-0.4,6.7-2.4,9.5c-1.7,2.4-4.9,2.8-7.6,2.6c-5.3-0.3-10.4-2.6-15.3-4.8c0,0-0.1-0.1-0.2-0.1
		c-1.6-0.7-3.2-1.5-4.8-2.1c-7.6-3.2-15.2-5.1-23.2-6.7c-8.9-1.8-17-5.1-21.9-13.3c-3.6-6.1-2.1-13.2-1.7-19.9
		c0.4-6.3-0.8-12.4-3.9-17.9c-2.9-5-7.1-9.1-10.3-13.9c-3.5-5.2-4.7-10.9-4.1-16.8c0.2-0.2,0.3-0.4,0.1-0.7c0.1-1,0.2-1.9,0.4-2.9
		c1-5.1,2.9-10,5.7-14.4C45.3,135.1,45.6,134.8,45.5,134.5z M77.3,121.1c0.2-0.5,0.3-1,0.5-1.5c0.2-0.1,0.3-0.3,0.3-0.5
		c0-0.1,0-0.2-0.1-0.3c0.6-2,0.9-4,1.1-6.2c0.1-0.6,0.1-1.2,0.2-1.7c4.4-4.7,9.4-7.7,15.5-9.7c0.2-0.1,0.1-0.3-0.1-0.3
		c-5.8,0.7-11,3.9-15.1,8c0.2-1.5,0.5-2.9,0.9-4.3c5.8-7.2,13.8-10.1,22.6-12.5c0.2,0,0.2-0.3,0-0.3c-7.6,0.8-15.8,4-21.3,9.6
		c0.3-0.5,0.6-1.1,0.9-1.6c0.2-0.1,0.3-0.3,0.3-0.5c0.6-0.9,1.3-1.7,2-2.5c0.6-0.6,1.2-1.1,1.8-1.6c0.4,0.1,0.8-0.2,0.7-0.6
		c6.7-5.3,15.9-7.7,23.9-9.9c0.4,2.2,0.4,4.1-0.6,6.5c-1.3,3.2-4.2,4.6-7.1,5.9c-5.1,2.4-10.6,5.7-13.2,10.9c-2,3.9-0.7,8.2,0.8,12
		c2.2,5.3,4.9,10.2,5.5,16c1.2,11.7-11.7,21-5.3,32.8c6.5,11.9,22.9,11.6,34,15.9c0.1,0,0.2,0,0.3,0c2.4,1.5,5,2.7,7.7,3.7
		c2.6,1,5.3,1.6,8.1,2.2c1.6,0.3,3.1,0.5,4.7,0.7c1.5,0.2,3-0.2,4.4,0.1c0.2,0,0.4,0,0.5-0.1c-3.7,10-7,22-15.6,28.9
		c-4.8,3.9-10.8,3.9-16.3,1.6c-1.1-0.5-2.1-1-3.1-1.6c6.1,2,14.1,0.8,18.3-3.2c0.2-0.2,0-0.4-0.2-0.3c-3.5,2.3-7.4,3.2-11.5,3.2
		c-3.8,0-6.9-1.4-10.2-3c7.2,1.6,15.7-0.1,21.3-3.9c0.1,0,0-0.2-0.1-0.1c-8.7,3.8-19.4,5.7-27.8,0c-0.1-0.1-0.2-0.1-0.4-0.1
		c-1.1-0.8-2.2-1.5-3.3-2.3c9.2,3,19.2,3.4,28.2-1c0.2-0.1,0.1-0.3-0.1-0.3c-10.6,4-20.8,2.9-31.2-1.2c-0.1,0-0.2,0-0.3,0
		c-1-0.7-2-1.4-3-2.2c8.1,3.1,17.2,2.7,25.2-1c0.3-0.1,0.1-0.5-0.2-0.4c-9.7,3-18.7,3.4-28-1.1c-0.1,0-0.1,0-0.2,0
		c-0.9-0.8-1.8-1.5-2.6-2.3c6.1,1.9,13.1,1.8,19-0.6c0.1-0.1,0.1-0.3-0.1-0.3c-7,1.6-13.9,1.6-20.7-1c-1-1.1-2-2.2-2.8-3.5
		c-0.1-0.2-0.2-0.3-0.3-0.5c0-0.1,0-0.2,0.1-0.4c0-0.3-0.3-0.5-0.5-0.3c-1.8-2.8-2.9-6-3.7-9.2c-1-4.4-2.3-8.6-3.8-12.8
		c-1-2.8-2.2-5.6-3.3-8.4c0,0,0,0,0,0c3,0.4,6.5-0.6,9.1-1.9c0.2-0.1,0.1-0.4-0.1-0.3c-3,1-5.9,1-9,1.5c-0.1,0-0.2,0.1-0.3,0.2
		c-0.6-1.4-1.1-2.9-1.7-4.3c1.6-0.2,3.2-0.7,4.8-1.1c1.5-0.3,2.9-0.7,4.4-1.2c0.3-0.1,0.1-0.5-0.1-0.5c-3,0.6-6.5,0.7-9.3,1.9
		c-0.9-2.6-1.8-5.1-2.5-7.8c3.9-3.2,8.2-4.4,13.1-5.2c0.2,0,0.2-0.4-0.1-0.4c-4.7,0-9.6,1.3-13.4,4.3c-0.3-1.1-0.5-2.1-0.7-3.2
		c-0.1-0.6-0.2-1.1-0.2-1.7c0.1,0,0.3,0,0.4-0.1c4.5-3.3,8.4-5.8,14.1-6.6c0.3-0.1,0.3-0.5-0.1-0.5c-5.1,0.1-11,2.3-14.5,6.2
		c-0.1-3,0.5-5.6,1.6-8c5.2-2.6,10.6-5.4,15.6-8.5c0.2-0.2,0-0.5-0.3-0.4c-4.7,2.1-10,4.1-14.4,7c1.1-2,2.3-4,3.7-6.1
		c0.5-0.7,0.9-1.4,1.3-2.2c0,0,0,0,0.1,0c3.6-3.9,7.2-8,10.9-11.9c0,0,0-0.1-0.1-0.1C83.3,115.5,80,118.1,77.3,121.1z M116.6,79.9
		c6.1,8.3,10.3,17.5,8.3,28c0,0.3,0.1,0.4,0.3,0.5c-0.4,1.4-1,2.8-1.6,4.1c-1.9-4.4-5.1-8.1-9.7-9.9c-0.2-0.1-0.2,0.2-0.1,0.2
		c4.4,2.5,7.5,6.3,9.1,11c-1.2,2.3-2.6,4.5-4.2,6.6c-3.2,4.2-6.7,8.2-9.1,13c-2.5,5.1-2.9,10.7-2.5,16.3c0.7,11.1,4.9,22.4,13,30.2
		c0.8,0.8,1.7,1.5,2.6,2.2c-11.3-3.5-26.5-4.7-31-17.1c-2.1-6,1.6-12.3,4-17.7c2.3-5.4,3.4-10.5,1.9-16.2c-1.2-5-4-9.5-5.7-14.3
		c-2.3-6.3,0.6-11,5.6-14.9c4.3-3.3,10.8-4.5,13.9-9.3c2.9-4.5,1.1-8.7,0.4-13.4c-0.4-2.6,0-4.8,2.7-5.9c3.6-1.4,7.2,2.2,8.6,5.3
		c0.8,3.2,1.7,6.3,2.4,9.5c-0.1,0.6-0.2,1.1-0.2,1.7c0,0.5,0.3,0.7,0.7,0.7c0.3,1.9,0.6,3.8,0.7,5.8c0,0,0,0,0,0
		c-0.2,0.2-0.1,0.5,0.1,0.6c0,0.6,0.1,1.2,0.1,1.9c0,0.9-0.1,1.7-0.1,2.6c-0.3-8.2-3.9-16.2-9.8-21.9
		C116.7,79.7,116.6,79.8,116.6,79.9z M139.3,111.4c1.9,0.9,3.9,1.8,6,2.3c1.7,0.4,3.3,0.4,4.9,0.3c-4.4,4.1-1.2,8.1,3.2,11.1
		c0,0.3,0.2,0.5,0.6,0.5c0.1,0,0.1,0,0.2,0c2.4,1.5,5,2.7,7,3.5c-9.1,4.6-2,21.3-1.5,28.7c0.5,8.1-5.9,19.4-5.2,28.3
		c0,0-0.1,0.1-0.1,0.1c-0.3,0.9-0.8,1.7-1.5,2.4c-0.6,0.6-1.4,0.8-2.1,1.2c-2.3-0.5-4.9-0.2-7.3-0.6c-2.9-0.4-5.8-1.2-8.6-2.1
		c-5.2-1.7-9.9-4.5-13.9-8.2c-1-0.9-1.9-1.9-2.8-3c0.3-0.2,0.5-0.3,0.8-0.6c1.2,0.3,2.5,0.5,3.7,0.6c0,0.2,0.2,0.4,0.5,0.3
		c0.6-0.1,1.1-0.2,1.7-0.3c0.4,0,0.8,0,1.1-0.1c1,0.9,2.1,1.7,3.1,2.6c2.7,2.3,5.3,4.7,8,7c0.1,0.2,0.2,0.4,0.4,0.5
		c0.2,0.2,0.5,0.3,0.7,0.3c0.1,0.1,0.3,0.2,0.4,0.3c0.1,0,0.1,0.1,0.2,0c0,0,0,0,0,0c0.3,0.5,1,0,0.8-0.5c-0.2-0.5-0.6-0.8-1.1-0.9
		c-0.1,0-0.4-0.1-0.4-0.2c-0.1-0.1-0.1-0.3,0-0.6c0.5-0.1,1.6-0.4,1.5,0.1c0,0.2,0.3,0.2,0.3,0c0.3-1.4-1.5-1.2-2.3-1
		c-0.2,0-0.3,0.1-0.4,0.3c0,0.2-0.1,0.4-0.1,0.5c-2.2-2-4.4-4-6.6-6.1c-1-0.9-2.1-1.9-3.1-2.9c1.4-0.3,2.7-0.7,4-1.4
		c1.3,0.7,2.5,1.5,3.8,2.2c3.7,2.2,7.4,4.3,11.4,5.9c0,0,0,0,0,0c0,0,0,0.1,0,0.1c0.4,0.4,0.8,0.7,1.4,0.7c0.4,0,1-0.3,1.3-0.2
		c0.4,0.2,0.7-0.4,0.4-0.6c-0.3-0.2-0.5-0.2-0.9-0.2c-0.6,0-0.9,0.1-1.3-0.2c0.1-0.5,0.3-1,0.6-1.4c0.3-0.3,0.7,0,0.9,0.1
		c0.6,0.4,1.2,0.8,1.9,1c0.2,0,0.2-0.2,0.1-0.3c-0.8-0.4-1.4-1.4-2.4-1.6c-1.2-0.3-1.7,1.3-2,2.1c0,0,0,0.1,0,0.1
		c-4-2.1-8-4.3-11.9-6.7c-0.8-0.5-1.7-1.1-2.5-1.6c0.5-0.3,0.9-0.7,1.4-1c1.6,0.7,3.3,1,4.9,1.6c1.4,0.6,2.8,1.3,4.1,2.1
		c0.1,0.1,0.3-0.1,0.2-0.2c-0.8-1.1-2.3-1.8-3.5-2.4c-1.5-0.7-3.3-1.6-5-1.8c0.2-0.2,0.4-0.4,0.6-0.6c0.6-0.7,1.2-1.6,1.6-2.4
		c1.4,0.4,2.9,0.9,4.3,1.4c3.2,1.1,6.1,2.8,9.3,4.1c0,0,0.1,0,0.1-0.1c-2-2.2-5.4-3.4-8.1-4.4c-1.6-0.6-3.3-1.3-5-1.9
		c0.6-1.4,1.1-2.8,1.4-4.3c0.9,0,1.7,0,2.6,0.1c3.8,0.2,7.4,0.8,11,2.1c0,0.5,0.2,1,0.6,1.4c0.3,0.2,0.9,0.4,1,0.7
		c0.2,0.5,1,0.3,0.9-0.3c0-0.2-0.1-0.4-0.2-0.5c0.2-0.1,0.5-0.3,0.6-0.4c0.3-0.2,0.4-0.6,0.3-0.9c-0.1-0.4-0.6-1-1-1
		c-0.5-0.1-1.2,0.1-1.7,0.1c-0.2,0-0.3,0.1-0.4,0.3c-3.1-1.5-6.5-2.1-10-2.4c-1.1-0.1-2.3-0.2-3.4-0.3c0.1-1,0.2-2,0.3-3
		c2.3-0.4,4.5-1,6.7-1.4c3.3-0.6,6.6-1.4,9.6-2.8c0.1,0.3,0.2,0.5,0.4,0.8c0.2,0.5,0.8,0.6,1.3,0.5c0.5-0.1,0.8-0.4,0.9-0.8
		c0.1-0.2,0.1-0.4,0.2-0.5c0-0.1,0.2-0.3,0.1-0.3c0.3-0.2,0.3-0.7-0.1-0.8c0-0.1-0.1-0.1-0.1-0.1c-0.8-0.6-1.9,0-2.6,0.5
		c-0.1,0.1-0.2,0.2-0.1,0.4c-3.5,1.1-7,2-10.6,2.6c-1.8,0.3-3.7,0.5-5.5,0.8c0-0.6,0-1.1-0.1-1.6c4.1-0.9,8.4-3.2,12-5.3
		c0.1,0.1,0.2,0.1,0.3,0.2c0.9,0.4,1.5-0.2,2.3-0.5c0.5-0.2,0.2-0.8-0.2-0.8c-0.3,0-0.7,0.1-1,0.2c-0.4,0.1-0.6,0.1-0.9-0.1
		c0-0.3,0-0.7,0.1-1c0.5-0.1,0.9-0.1,1.4,0.2c0.3,0.2,0.7,0.4,1.1,0.5c0.2,0,0.4-0.3,0.2-0.5c-0.5-0.4-1-0.9-1.7-1.1
		c-0.4-0.1-0.8-0.1-1.1-0.1c-0.6,0.1-0.8,0.4-0.9,1c-0.1,0.6-0.2,1.2,0.1,1.6c-3.9,1.7-7.9,3.1-11.7,4.9c0-0.5-0.1-1.1-0.2-1.6
		c-0.1-0.3-0.1-0.7-0.2-1c2.4-1,4.8-2.2,7-3.4c3.5-1.9,6.9-4.4,9.4-7.5c0.2,0,0.4-0.2,0.4-0.4c0,0,0-0.1,0-0.1
		c0-0.1,0.1-0.1,0.1-0.2c0.1-0.2-0.1-0.4-0.3-0.3c-0.1-0.1-0.2-0.3-0.3-0.4c-0.3-0.5-0.2-0.9,0-1.4c0.4-0.2,1-0.3,1.2,0.2
		c0.3,0.5,0.3,1.1,0.6,1.6c0.1,0.1,0.3,0.1,0.2-0.1c-0.2-1.1,0-2.8-1.6-2.7c-0.3,0-1,0-1.2,0.3c-0.3,0.4-0.5,1-0.5,1.5
		c0,0.7,0.5,1,0.8,1.6c-3,3-6.4,5.4-10.3,7.4c-2,1-4,1.8-6.1,2.5c-0.5-2.1-1.3-4.1-2.3-6c0.3-0.2,0.6-0.4,0.9-0.6
		c0.2,0.8,0.4,1.8,0.3,2.7c0,0.2,0.3,0.2,0.3,0c0.3-1.2,0.3-2.3,0.1-3.3c0.7-0.5,1.4-0.9,2.1-1.4c3.7-2.4,7.3-5.2,10-8.7
		c0.4,0.2,0.9,0.2,1.3,0.4c0.4,0.2,0.6-0.4,0.4-0.6c-0.3-0.3-0.7-0.4-1.1-0.6c0,0,0-0.1,0.1-0.1c0.2-0.2-0.2-0.4-0.3-0.3
		c0,0,0,0,0,0c0-0.3,0.2-0.5,0.6-0.6c0.9-0.4,1.6,0.5,2.4,0.5c0.2,0,0.2-0.3,0-0.3c-0.5-0.3-1-0.7-1.5-0.9c-0.6-0.3-1.6,0-2.1,0.4
		c-0.4,0.3-0.4,1.2-0.2,1.7c-3.1,3.2-6.4,5.9-10.2,8.3c-0.6,0.4-1.2,0.8-1.8,1.1c-0.5-1.3-1.3-2.4-2.4-3.3c0.7-0.6,1.5-1.3,2.2-1.9
		c3.7-3.2,7.1-7.1,8.8-11.8c0.1,0,0.1,0.1,0.2,0.1c0.3,0.4,1,0,0.8-0.5c-0.2-0.5-0.5-0.8-1-1c-0.1-0.1-0.3-0.1-0.3-0.2
		c0,0,0.1-0.3,0.2-0.5c0.4-0.2,0.9-0.6,1.2-0.1c0.3,0.4,0.5,0.8,0.9,1.1c0.1,0.1,0.3-0.1,0.2-0.2c-0.3-0.5-0.3-1.2-0.7-1.7
		c-0.4-0.6-1.3-0.3-1.9-0.1c-0.5,0.2-0.7,0.5-0.9,1c-0.1,0.4-0.1,0.7,0.1,1.1c0.2,0.4,0.7,0.5,1.1,0.8c-2.3,4.7-5.8,8.5-9.8,11.9
		c-0.6,0.5-1.2,0.9-1.8,1.4c-1.4-1-3-1.7-4.6-2.2c0.8-0.8,1.5-1.7,2.2-2.6c1.1,0.7,2.1,1.6,2.9,2.9c0.1,0.1,0.3,0,0.2-0.1
		c-0.7-1.4-1.7-2.4-2.8-3.2c3.6-4.7,6.2-10.2,6.7-15.8c0,0,0-0.1,0-0.1c0.1-0.1,0.2-0.2,0.2-0.4c-0.1-0.3-0.5-1.9-0.1-2.1
		c0.2-0.1,0.6,0.1,0.8,0.2c0.5,0.2,1,0.5,1.5,0.9c0.1,0.1,0.2-0.1,0.1-0.2c-0.6-0.7-1.7-2-2.7-1.6c-1.1,0.4-0.6,2.3-0.4,3.1
		c0,0.1,0.1,0.2,0.2,0.2c-1.6,5.8-4.1,10.7-7.5,15c-1.2-0.6-2.6-1-4-1.3c2.1-4.8,3.5-10,4.4-15.1c0-0.1-0.1-0.1-0.2,0
		c-1.3,5.1-2.9,10.2-5.2,14.9c-1.4-0.2-2.9-0.2-4.3-0.2c-0.3,0-0.3,0.3-0.2,0.5c-0.6,0.8-1.2,1.6-1.9,2.4c-0.6,0-1.2,0.2-1.8,0.3
		c0.4-0.6,0.7-1.2,1-1.9c0.5-0.1,0.9-0.2,1.4-0.3c0.1,0,0.1-0.2,0-0.2c-0.4,0.1-0.8,0.1-1.2,0.2c0.3-0.6,0.6-1.2,0.8-1.8
		c0.8,0.5,1.9,0.3,3,0.5c0.4,0,0.5-0.5,0.2-0.7c-0.6-0.3-1.1-0.4-1.7-0.4c-0.5,0-0.8-0.1-1.1-0.4c0.4-0.5,0.9-0.7,1.6-0.7
		c0.6,0,1,0,1.6-0.1c0.2,0,0.2-0.3,0-0.3c-0.7-0.1-1.4-0.4-2.1-0.4c-0.9,0-1.6,0.5-2.2,1.2c-0.2,0.2-0.1,0.4,0,0.6
		c0.1,0.2,0.3,0.4,0.5,0.5c-0.4,0.7-0.8,1.4-1.2,2.1c-1.8,0.4-3.5,0.9-5.1,1.8c-0.2,0.1-0.1,0.4,0.1,0.3c1.5-0.8,3.1-1.4,4.8-1.8
		c-0.4,0.7-0.9,1.4-1.4,2c-1.5,0.5-2.9,1.2-4.1,2.2c-0.4,0.3,0,1,0.5,0.8c0.2-0.1,0.3-0.1,0.5-0.2c0,0,0,0.1,0,0.1
		c-0.9,0.4-1.7,0.9-2.5,1.4c-0.2,0.1,0,0.4,0.2,0.3c0.5-0.2,0.9-0.5,1.4-0.7c-0.4,0.8-0.7,1.7-1.3,2.4c-0.1,0.1,0.1,0.3,0.2,0.2
		c0.6-0.8,0.9-1.9,1.4-2.7c0.3-0.1,0.6-0.3,0.9-0.4c0.1,0,0.1,0.1,0.2,0.1c-0.8,1-1.7,2.1-2.4,3.2c0,0,0,0.1,0,0.1
		c-0.9,0.7-1.7,1.4-2.5,2.2c0,0,0,0,0,0c0.1-5.4,1.8-10.3,4.7-14.8c3.3-5,7.7-9.3,10.6-14.6c1.5-2.8,2.6-5.7,3.2-8.7
		c3.6,0,6.7,1.4,9.8,3c0.1,0.1,0.1,0.1,0.2,0.1c0.6,0.3,1.2,0.6,1.9,0.9C138.8,111.3,139,111.5,139.3,111.4
		C139.3,111.4,139.3,111.4,139.3,111.4z M119.6,173.1c-0.1,0.3-0.2,0.6-0.4,0.9c-0.5-0.1-1-0.2-1.5-0.3c-0.5-0.1-0.8,0.4-0.7,0.8
		c-0.5-0.7-1-1.4-1.5-2.2c0.3-0.2,0.6-0.4,0.9-0.6c1.5,0.5,3.2,0.4,4.8,0.1c1,1,2,1.9,3,2.8c-1.5,0-3-0.2-4.5-0.5
		c0.1-0.3,0.2-0.6,0.3-0.9C120.2,172.9,119.7,172.8,119.6,173.1z M122.5,171.5c0.8-0.3,1.6-0.7,2.3-1.1c0.4,0.3,0.9,0.6,1.3,0.8
		c-0.4,0-0.8,0.1-1.2,0.1c-0.4,0-0.4,0.6,0,0.7c0.9,0.2,1.8,0.2,2.7,0.1c0.8,0.5,1.6,0.9,2.3,1.4c-0.4,0.2-0.8,0.3-1.2,0.4
		c0.1-0.1,0.2-0.2,0.3-0.3c0.2-0.2-0.2-0.6-0.4-0.4c-0.5,0.5-1.1,0.8-1.7,1.1c-0.3,0.1-0.6,0.1-0.9,0.1
		C124.8,173.4,123.7,172.4,122.5,171.5z M118.7,169c-0.6,0.5-1.3,0.9-1.9,1.4c-0.1,0.1-0.3,0.2-0.5,0.3c-0.3,0-0.5-0.1-0.8-0.1
		c-0.4,0-0.5,0.5-0.2,0.7c0,0,0.1,0,0.1,0c-0.1,0.1-0.3,0.2-0.4,0.3c-3.6-5.9-5.6-12.8-6.4-19.6c0.3-0.2,0.6-0.4,0.9-0.7
		c0,1,0.1,1.9,0.1,2.9c-0.1,0.2-0.1,0.4,0.1,0.5c0.3,2.9,1,5.7,1.9,8.4c0.1,0.3,0.7,0.2,0.6-0.2c-0.4-2.2-0.8-4.3-1.1-6.4
		c0,0,0,0,0.1,0.1c0.5,0.1,0.9,0.2,1.4,0.2c0,0.3,0.5,0.6,0.7,0.3c0.1-0.1,0.1-0.2,0.2-0.3c1.2-0.1,2.4-0.4,3.4-0.6
		c0.3-0.1,0.2-0.5-0.1-0.5c-0.9,0.1-1.7,0.1-2.6,0.2c1.4-1.7,3-2.7,5-3.4c-0.9,1-1.9,1.8-3.1,2.5c-0.3,0.2,0,0.6,0.3,0.5
		c1.7-0.6,3-1.8,3.8-3.3c0.4-0.1,0.8-0.2,1.2-0.3c0.3,0,0.3-0.5,0-0.5c-0.3,0-0.6,0-0.9,0c0.3-0.6,0.4-1.2,0.5-1.9
		c0.2-0.1,0.2-0.4,0-0.5c-1.1-0.2-2.2-0.1-3.3,0.1c0.3-0.2,0.6-0.4,0.8-0.6c0.1-0.1,0-0.2,0-0.2c1.2,0,2.4,0.3,3.6,1
		c0.2,0.1,0.3-0.2,0.2-0.3c-2-1.6-4.5-1.8-6.9-1.3c0.7-0.5,1.3-1.1,1.9-1.7c0.7,0,1.4,0.1,2,0.3c0.1,0.2,0.3,0.3,0.5,0.3
		c0.1,0,0.1,0,0.2-0.1c0.7,0.3,1.4,0.6,2.1,1.1c0.1,0.1,0.2,0,0.2,0c-0.1,0.2,0,0.5,0.3,0.5c0,0-0.1,0.1-0.1,0.1
		c-0.3,0.3,0,0.9,0.4,0.7c2.9-1.4,5.6-3.4,8.3-5.5c0.8,0.8,1.5,1.8,2.1,2.8c-2.2,1.3-4.5,2.6-6.4,4.2c-0.4,0.3,0,0.9,0.4,0.7
		c2.2-1.1,4.4-2.5,6.6-3.9c1,1.8,1.6,3.8,2.1,5.7c-0.9,0.3-1.9,0.7-2.8,1.1c-0.6,0-1.3,0-1.9,0.1c0.7-0.4,1.3-0.9,1.9-1.4
		c0.7-0.5,1.8-1.1,2.1-2c0.1-0.2-0.1-0.2-0.2-0.2c-2,1.2-4,2.5-5.9,3.8c-0.1,0-0.2,0-0.3,0.1c-0.5,0.1-0.4,0.7,0.1,0.7
		c0.1,0,0.2,0,0.3,0c0,0,0,0,0.1,0c0.9-0.1,1.9-0.2,2.8-0.4c0,0.2,0.1,0.5,0.4,0.4c1.2-0.2,2.5-0.5,3.7-0.9c0.3,1.6,0.4,3.2,0.4,4.8
		c-1.2,0.3-2.4,0.6-3.5,1c-0.3,0.1-0.2,0.6,0.2,0.5c1.1-0.1,2.2-0.3,3.4-0.5c0,0.9-0.1,1.8-0.3,2.6c-2.8-0.1-5.7-0.2-8.4,0
		c-0.4,0-0.4,0.7,0,0.7c2.7,0.4,5.5,0.4,8.2,0.4c-0.3,1.3-0.7,2.6-1.3,3.8c-1.7-0.6-3.4-1.1-5.2-1.5c-0.4-0.1-0.5,0.5-0.2,0.6
		c0.6,0.3,1.3,0.6,1.9,0.8c-1.3,0.2-2.6,0.4-3.9,0.4c-0.5,0-0.6,0.7-0.1,0.8c1.8,0.3,3.6-0.1,5.2-0.7c0.5,0.2,1.1,0.4,1.6,0.6
		c-0.2,0.4-0.5,0.8-0.8,1.2c-1,1.4-2.1,2.4-3.4,3.2c-0.6-0.4-1.2-0.8-1.8-1.1c0.8-0.1,1.6-0.3,2.3-0.4c0.4-0.1,0.3-0.7-0.1-0.7
		c-1.2,0.1-2.4,0.2-3.6,0.3c-0.7-0.4-1.5-0.9-2.2-1.3c0,0,0.1,0,0.1-0.1c0.2-0.1,0-0.5-0.2-0.3c-0.1,0.1-0.2,0.1-0.4,0.2
		c-0.5-0.3-1-0.5-1.5-0.8c-0.3-0.2-0.6,0.4-0.3,0.6c0.3,0.2,0.7,0.4,1,0.7c-0.8,0.4-1.6,0.7-2.5,0.9c-0.2-0.2-0.4-0.3-0.7-0.5
		c-0.3-0.2-0.8,0.2-0.5,0.5c0,0,0.1,0.1,0.1,0.1c-1,0.1-2,0-3-0.1c0.6-0.4,1.1-0.9,1.6-1.4C119.4,169.2,119.1,168.7,118.7,169z
		 M109,148.9c0.3-0.2,0.5-0.5,0.7-0.8c-0.1,0.7-0.1,1.4-0.1,2.1c-0.4,0.2-0.7,0.4-1,0.7c-0.1-0.7-0.1-1.5-0.2-2.2
		C108.5,148.9,108.8,149,109,148.9z M108.9,145.7c1.4-1,2.8-1.9,4.2-2.8c0.1-0.1,0.2-0.1,0.3-0.2c2.6-1.5,5.2-2.8,8.1-3.1
		c-0.3,0.4-0.5,0.7-0.8,1.1c-0.9,0.1-1.9,0.5-2.6,0.8c-1.3,0.5-2.7,1.3-3.6,2.4c-0.2,0.2-0.1,0.5,0.1,0.6c-0.3,0.1-0.6,0.3-0.8,0.5
		c-0.1,0-0.1,0-0.1,0.1c0,0,0,0,0,0.1c-0.8,0.6-1.6,1.3-2.2,2.1c-0.2,0.3,0.2,0.7,0.5,0.5c0,0,0,0,0.1,0c-0.3,0.3-0.6,0.6-0.7,0.9
		c-0.1,0.2,0.1,0.4,0.3,0.3c0.7-0.3,1.2-1.1,1.6-1.7c0-0.1,0.1-0.1,0.1-0.2c0.8-0.3,1.6-0.6,2.4-0.7c-0.2,0.2-0.5,0.4-0.7,0.7
		c-0.4,0.3-0.1,0.8,0.2,0.9c-1.6,0.4-3.2,1.1-4.5,1.8c0,0,0,0,0,0c0-1,0.1-2,0.2-3c0.5-0.5,1-1,1.4-1.6c0.1-0.2-0.1-0.5-0.3-0.3
		c-0.4,0.2-0.7,0.5-1.1,0.8c0-0.1,0-0.2,0-0.3c0.1-0.6-0.8-0.7-0.9-0.1c-0.1,0.5-0.2,1-0.3,1.5c-0.6,0.6-1.2,1.1-1.5,1.9
		c0-1-0.1-1.9-0.1-2.9C108.5,145.7,108.7,145.8,108.9,145.7z M123,136.8c-1.4,0-2.8,0.1-4.2,0.3c0.1-0.1,0.1-0.2,0.2-0.3
		C120.3,136.5,121.7,136.4,123,136.8z M119.7,135.7c0.5-0.8,0.9-1.5,1.3-2.2c0,0,0,0,0,0c1.3,0.1,2.6,0.2,3.9,0.3
		c-0.4,0.9-0.9,1.7-1.4,2.6C122.4,135.8,121,135.6,119.7,135.7z M126,133.9c1.4,0.2,2.7,0.5,4,1c-0.8,1-1.6,2-2.5,3
		c-0.2,0-0.3-0.1-0.5-0.1c-0.4-0.1-0.9-0.3-1.4-0.3c-0.3-0.3-0.7-0.5-1-0.7C125.1,135.9,125.5,134.9,126,133.9z M123,137.3
		c-1.8,0.1-3.7,0.6-5.4,1.4c0.2-0.3,0.4-0.6,0.6-0.9C119.7,137.5,121.3,137.3,123,137.3z M114.2,140.6c-0.2,0.1-0.4,0.3-0.7,0.4
		c0.7-0.8,1.3-1.6,1.9-2.4c0.5-0.2,0.9-0.3,1.4-0.4C116,139.1,115.1,139.9,114.2,140.6z M131.5,140.8c-0.3-0.4-0.7-0.8-1.1-1.1
		c0.9,0.4,1.7,0.8,2.4,1.3c-0.2,0.1-0.3,0.2-0.5,0.4c0,0,0,0-0.1,0c-0.2,0-0.5,0-0.7,0.1c-0.6-0.6-1.3-1.1-2-1.5
		c-0.5-0.3-0.9-0.5-1.4-0.7c0.1-0.1,0.1-0.1,0.2-0.2c0.1,0,0.1,0,0.2,0.1c1,0.4,1.9,1.1,2.7,1.9C131.4,141.1,131.6,141,131.5,140.8z
		 M124.3,142.7c0.9-0.8,1.9-1.6,2.8-2.4c0.2,0.1,0.4,0.1,0.6,0.2c0.6,0.3,1.2,0.6,1.7,1c-0.3,0.1-0.6,0.2-0.8,0.4
		C127.2,142.1,125.7,142.4,124.3,142.7z M125.6,139.8c-1.1,1.1-2.2,2.1-3.5,3.2c-0.1,0.1-0.2,0.3-0.2,0.4c-0.5-0.1-1.1-0.2-1.7-0.2
		c1-1.2,1.9-2.4,2.8-3.7C123.9,139.5,124.7,139.6,125.6,139.8z M115.8,143.9c0.8-0.7,1.7-1.3,2.7-1.8c0.6-0.3,1.1-0.5,1.7-0.7
		c-0.5,0.6-1,1.2-1.5,1.8C117.7,143.4,116.7,143.6,115.8,143.9z M124.7,144.9c0.5,0.2,1,0.5,1.5,0.8c-0.3,0.2-0.7,0.5-1,0.7
		c-0.8,0.3-1.6,0.6-2.3,1.1c0,0,0,0,0,0c0-0.1,0-0.2-0.1-0.2c-0.5-0.5-1-0.8-1.6-1.1c0.4-0.2,0.8-0.5,1.2-0.8c0,0.2,0.2,0.4,0.5,0.4
		C123.5,145.5,124.1,145.2,124.7,144.9z M120.1,145.6c-0.5-0.2-1.1-0.4-1.6-0.4c0.3-0.3,0.6-0.6,0.9-0.9c1-0.1,2-0.1,3,0
		C121.5,144.6,120.7,145,120.1,145.6z M125.3,144.6c0.5-0.3,0.9-0.6,1.4-0.8c0.5-0.3,1-0.6,1.4-0.9c0.8-0.2,1.6-0.4,2.4-0.6
		c0.1,0.1,0.2,0.1,0.3,0.2c-1.4,1-2.9,1.9-4.3,2.9C126.1,145.1,125.7,144.8,125.3,144.6z M133.7,141.7c1,0.9,1.8,1.9,2.4,3.1
		c-0.4,0.2-0.8,0.4-1.1,0.7c-0.7-1-1.4-2-2.2-2.9C133,142.3,133.4,142,133.7,141.7z M110.8,150.5c0.7-0.3,1.4-0.5,2.1-0.7
		c0.2,0,0.2-0.2,0.2-0.3c1.9-0.6,3.7-1.2,5.6-1.2c-0.7,0.3-1.3,0.7-1.9,1.1c-1.8,0.5-3.6,1.4-5,2.5c-0.4,0.3,0,0.9,0.4,0.7
		c0.3-0.1,0.5-0.3,0.8-0.4c0.1,0.1,0.2,0.2,0.4,0.1c0.8-0.3,1.6-0.9,2.3-1.4c0.2-0.1,0.3-0.1,0.5-0.2c1.6-0.6,3.3-0.8,5-1.1
		c-0.2,0.7-0.5,1.3-0.9,1.9c-2.8,0.3-5.5,2.1-6.9,4.4c-0.6,0-1.2,0-1.9,0.1c-0.1,0-0.2,0.1-0.2,0.1c-0.1-0.5-0.1-1-0.2-1.5
		c1.4-0.6,2.8-1.7,3.9-2.6c0.2-0.1,0-0.4-0.2-0.3c-0.8,0.5-1.5,0.9-2.3,1.3c-0.5,0.3-1,0.5-1.5,0.7
		C110.8,152.6,110.8,151.6,110.8,150.5z M153.2,166.3c-0.1-0.1-0.2-0.1-0.3-0.2c0.2,0,0.5-0.1,0.7-0.1c0.3-0.1,0.6,0.2,0.5,0.5
		c-0.1,0.2-0.2,0.4-0.4,0.6c-0.2-0.2-0.5-0.4-0.7-0.6c0,0,0,0,0,0C153.2,166.6,153.4,166.4,153.2,166.3z M155.7,155.4
		c0.3-0.2,0.7-0.5,1.1-0.5c0,0,0,0,0,0c-0.1,0.1-0.2,0.3-0.2,0.4c-0.1,0.4-0.1,0.7-0.6,0.7C155.9,155.8,155.8,155.6,155.7,155.4z
		 M160.5,223.9c0.2-0.1,0.1-0.3-0.1-0.3c-8.3,1.6-16.2,1.9-24.3,1.2c5.2-1.2,10.3-3.9,14.8-6.3c0.2-0.1,0.1-0.5-0.2-0.4
		c-3.6,1.4-7,3.1-10.7,4.4c-3.2,1.1-6.2,1.5-9.4,1.7c2.3-0.7,4.5-1.8,6.4-3.4c4.2-3.5,7.1-8.3,9.4-13.5c2.5,4.9,6.6,8.9,10.9,12.3
		c3.9,3.1,8.5,5.7,13.4,7c-7.2,1.3-14,3.3-21.4,3.3c-3.6,0-7.2-0.5-10.7-1.2c-3.3-0.7-6.4-2-9.5-3.2c0.6,0.1,1.3,0.1,1.9,0.1
		C140.9,226.8,151,226.8,160.5,223.9z M207.1,202.5c-1.3,2.3-4,3.2-6.4,3.7c-5.2,1.1-10.6,0.9-15.5,3.3c-2.4,1.2-4.4,3-6.2,4.9
		c-2,2.2-3.7,4.4-6.9,4.9c-4.8,0.6-9.9-2.2-13.6-4.9c-3.8-2.7-7.1-5.9-11-8.4c-0.1-0.1-0.2-0.1-0.3-0.1c2-5,3.5-10.2,5-15
		c0-0.1,0-0.2,0-0.2c0.6-0.3,1.3-0.8,1.7-1.3c0.4-0.5,0.8-1,1-1.5c0.2,1,0.6,2,1,2.9c-0.2-0.2-0.6-0.3-0.7,0.1
		c-1.2,3.8,2.2,9.1,4.2,12.1c2.7,4.2,6.7,8.7,11.4,10.6c0.2,0.1,0.3-0.2,0.1-0.3c-4.1-2.2-7.2-5.8-9.9-9.5c-1.5-2.1-2.7-4.4-3.7-6.7
		c-0.8-2-0.9-3.9-1.3-6c0.6,1.2,1.5,2.4,2.7,3.4c0,0.1,0.1,0.1,0.2,0.2c0.2,0.2,0.4,0.3,0.6,0.4c0.1,0.1,0.2,0.1,0.3,0.2
		c1.7,6.8,10.2,11.2,16.5,12c0.2,0,0.3-0.3,0.1-0.4c-6.5-1.8-11.8-4.9-15-10.7c2.5,1.3,5.1,1.9,7.8,2.1c4.5,2.8,9.5,5,14.8,3.8
		c0.2,0,0.2-0.4,0-0.3c-4.8,0.6-9.1-1.1-13.1-3.4c3.5,0,7-0.8,10.4-2.1c3.7,1.2,7.5,1.7,11.3,1.4c0.2,0,0.2-0.3,0-0.3
		c-3.4-0.1-6.7-0.7-9.9-1.6c3.7-1.5,7.1-3.5,10.1-5.6c5.5-3.9,10.3-8.9,14.5-14.1c3.8-4.7,7.7-10.2,9.5-16.1
		c0.1-0.2-0.2-0.3-0.3-0.2c-6.4,10.5-12.9,20.2-22.6,27.9c-3.9,3.1-8.3,5.8-13.1,7.4c-0.2-0.1-0.4,0-0.5,0.2c-1,0.3-1.9,0.6-2.9,0.9
		c-3,0.7-6,0.9-9,0.5c-2.8-0.3-5.1-1.4-7.6-2.4c-2-1.4-3.2-3.2-4-5.1c5.8,3.3,14.2,3.7,20.6,3c0.2,0,0.2-0.3,0-0.3
		c-3.4-0.2-6.7-0.5-10-1c-3.6-0.6-6.9-1.8-10.4-2.9c-0.2-0.1-0.3,0-0.4,0.1c-0.9-3.4-0.4-7.4,0.5-11.4c6.1,3.1,13.1,4.1,19.7,1.9
		c0.2-0.1,0.1-0.3-0.1-0.3c-6.9,1-13,0.3-19.3-2.8c0.4-1.6,0.9-3.2,1.3-4.9c0,0,0,0.1,0,0.1c1.4,1.5,3.9,2.1,5.8,2.5
		c3,0.7,6,1,9,0.2c0.2-0.1,0.2-0.4-0.1-0.4c-3,0.3-5.8-0.1-8.7-0.9c-2-0.5-3.7-1.6-5.7-2.1c-0.1,0-0.2,0-0.3,0.1
		c0.6-2,1.1-3.9,1.6-5.7c3.8,1.6,8.1,2.8,12.2,2c0.3-0.1,0.3-0.5-0.1-0.5c-4.2,0.1-7.8-1.3-11.7-2.6c0,0-0.1,0-0.1,0
		c0.3-1.6,0.6-3.1,0.6-4.5c0-0.5,0-1.1-0.1-1.7c6.9,2.9,14.8,4.8,22.2,2.8c0.1,0,0.1-0.2,0-0.2c-7.8,1.3-14.8-1.2-22-3.7
		c-0.1,0-0.2,0-0.3,0c-0.3-2.3-0.9-4.8-1.5-7.4c0,0,0,0.1,0.1,0.1c7.6,4.5,17.5,5.9,25.8,2.6c0.2-0.1,0.1-0.5-0.1-0.4
		c-9,2-16.9,1.1-25.1-3.2c-0.3-0.2-0.7,0.1-0.8,0.4c-0.6-2.4-1.1-4.9-1.4-7.3c7.9,4,17.3,6.8,26.1,5c0.2,0,0.2-0.3,0-0.3
		c-9.3,0.4-17.7-1.7-25.9-6c-0.1-0.1-0.2-0.1-0.3-0.1c-0.2-4.1,0.6-7.8,3.9-10.2c0.4,0.2,0.8,0.3,1.1,0.4c5.8,2,11.9,3.3,17.9,4.7
		c0,0.3,0.1,0.6,0.5,0.6c0.7,0,1.4,0,2.1,0c6.5,1.3,13.1,1.4,19.1-2c5.3-3,9.1-7.8,10.8-13.2c3.5,0.7,6.8,1.8,9.8,3.4
		c0,0.2,0.1,0.4,0.4,0.5c0.2,0,0.4,0.1,0.6,0.1c4,2.4,7.3,5.7,9.3,10.5c3.4,8.6-0.9,16.4-6.5,22.7c-5.1,5.8-10.2,11.6-14.3,18.1
		c-2.4,3.8-5.4,9.4-4.9,14.3c-0.3,0.1-0.5,0.5-0.3,0.8c0.2,0.4,0.5,0.8,0.7,1.1c0.1,0.4,0.3,0.7,0.4,1
		C208.6,195.6,208.8,199.5,207.1,202.5z M203.4,130.7c-4.7,3.6-10.3,4.3-16,3.7c6-0.9,12.5-3.2,16.3-7.3c0.1-0.1-0.1-0.3-0.2-0.2
		c-5.3,4.3-13.7,6.6-20.7,6.8c-3.2-0.6-6.5-1.5-9.6-2.4c6.7-0.5,13.6-3.4,19.3-6.1c0.3-0.1,0.1-0.5-0.2-0.4c-4,1.3-8,2.8-12.1,3.9
		c-3.9,1-7.7,1.1-11.7,1.3c-0.9-0.2-1.8-0.5-2.6-0.7c-0.8-0.2-1.8-0.5-2.9-0.8c8.7-0.5,16.8-4,23.2-10.1c0.1-0.1,0-0.3-0.2-0.2
		c-7.5,5.7-15.9,9.3-25.4,9.1c-0.2,0-0.3,0.1-0.4,0.1c-1.4-0.6-2.8-1.2-4.2-2c8.8-0.4,17.5-3.9,23.7-10.2c0.1-0.1,0-0.3-0.2-0.2
		c-7.4,5.8-16,9.3-25.4,9.1c-0.1,0-0.2,0-0.2,0c-1.5-1-2.8-2.2-3.6-3.4c4,0.9,8.8-1.2,12.4-2.7c4.9-2.1,9.6-4.8,13.9-7.9
		c0.2-0.2,0-0.6-0.3-0.4c-4.1,2.3-8.2,4.6-12.5,6.5c-4.6,2.1-8.9,3-13.8,3.3c-0.1,0-0.2,0.1-0.3,0.1c-0.7-1.7-0.5-3.5,1-5.5
		c0.1-0.1,0.1-0.3,0-0.4c4.3-0.6,8.3-2.7,11.9-5.1c5.9-4,10.7-9.4,14.8-15.2c1.8-2.5,3.5-5.4,4.1-8.4c1.3,0.3,2.5,0.6,3.8,1
		c0.1,0,0.1,0.1,0.2,0.1c8.7,2.7,16.8,7.7,22.5,14.8c3.2,4,5.3,9,4.9,14.2C212.6,121.5,208.2,127,203.4,130.7z M174.6,95
		c-4.1,5.3-8.7,9.9-14.3,13.6c-3.4,2.2-6.9,3.7-10.5,4c6.3-1.7,13.2-5.9,15.5-11.8c0.1-0.1-0.2-0.2-0.2-0.1
		c-3.3,6.7-11.9,10.1-18.8,11.4c-0.2,0-0.3,0.2-0.4,0.3c-1.5-0.2-3-0.7-4.5-1.4c0,0-0.1,0-0.1,0c4.8-1.2,9.5-3,13.7-5.6
		c4.4-2.7,9.1-6.3,10.5-11.5c0,0,0,0-0.1,0c-4.1,9.5-16.3,14.4-25.8,16.4c-0.4-0.2-0.7-0.3-1.1-0.5c6.7-2.2,12.7-6.2,18-10.8
		c0.1-0.1,0-0.3-0.2-0.2c-5.9,4.4-12.2,8.4-19.4,10.3c-0.8-0.4-1.6-0.7-2.4-1.1c4.5-0.9,9.1-4.2,12.8-6.8c3.7-2.6,7.6-6,9.7-10
		c0-0.1-0.1-0.1-0.1-0.1c-3,3.6-6.3,6.7-10.1,9.4c-4,2.8-8.4,4.5-12.6,6.7c-0.2,0.1-0.3,0.3-0.2,0.5c-0.8-0.3-1.7-0.6-2.6-0.8
		c6.7-2.3,13-6.4,17.3-12.1c0.1-0.2-0.1-0.4-0.3-0.2c-4.9,5.2-10.9,9-17.7,11.3c-0.4,0.1-0.4,0.5-0.3,0.7c-1.1-0.2-2.2-0.4-3.4-0.4
		c0.1-0.3,0.1-0.6,0.2-0.9c0.1,0.1,0.3,0.2,0.5,0.1c7-3.4,14.6-7.6,18.5-14.7c0.1-0.2-0.2-0.4-0.4-0.2c-4.6,6.6-11.5,10.4-18.5,14
		c0.4-2.6,0.5-5.2,0.4-7.9c7.9-6.9,5.1-19.9,13.5-26.7c5.9-4.7,14.4-2.8,20.9-0.5c2.3,0.8,4.9,1.7,7.4,2.9c0,0.2,0.2,0.5,0.5,0.4
		c0.1,0,0.3,0,0.4-0.1c3.5,1.6,6.7,3.7,8.8,6.5c1.1,1.5,1.4,3.2,1.2,4.9c-0.1,0.1-0.1,0.3-0.1,0.5C179.7,88.4,176.6,92.3,174.6,95z
		 M70,34.1c-0.5-5.9,4.3-6.6,9-6.6c5.6,0.1,9.3-1.1,12.1-6.2c1.8-3.3,4.3-5.3,8.3-4.9c3.9,0.4,7.6,3.2,10.9,5.2
		c4.8,2.8,7.9,7,10.3,12c5.4,11.6,6.4,28.7-3.1,38.4c-0.1,0.1-0.1,0.2-0.1,0.3c-1.1-0.2-2.2-0.2-3.4,0.2c2.9-13.1,0.7-28.1-3.8-40.5
		c0-0.1-0.2-0.1-0.2,0.1c1.4,6.6,2.9,13.2,3.6,19.9c0.7,6.9,0.3,13.7-0.7,20.6c0,0.2,0,0.3,0.1,0.4c-3.5,1.9-2.3,7-1.6,10.2
		c-4,1.1-8.4,2.4-12.7,3.9c5.2-8.3,11.9-18.4,9.2-28.6c0-0.1-0.1-0.1-0.1,0c1.3,10.4-5.2,20-10.4,28.4c-0.1,0.2-0.1,0.5,0,0.7
		c-1.9,0.8-3.8,1.6-5.7,2.6C90.7,80,98.8,71.3,98.8,61c0-0.1-0.2-0.2-0.2,0c-0.6,10.6-9.4,19.1-8.3,29.9c-1.1,0.7-2.2,1.4-3.2,2.2
		c-3-8.4,0.5-17.4,3-25.5c0-0.2-0.2-0.2-0.2-0.1c-3.2,7.9-7.3,18-3.8,26.4c-1.4,1.1-2.6,2.4-3.7,3.8c-2-4.3-3.7-8.7-4.6-13.4
		c-1.1-5.6-0.3-10.7,1.7-16c0.1-0.2-0.2-0.4-0.4-0.2c-6.2,9.1-1.9,21.6,2.5,30.7c-0.3,0.5-0.7,1-1,1.5c-0.8,1.5-1.4,3.1-1.8,4.7
		c-0.1,0.1-0.1,0.2-0.1,0.3c0,0.1,0,0.2-0.1,0.3c-2.3-5.5-5.8-10.4-8.5-15.7c-3.6-6.8-4.6-13.7-2.8-21.2c0-0.1-0.1-0.1-0.2,0
		c-2.1,6.7-1.8,13,0.9,19.5c2.8,6.7,7.2,12.8,10.2,19.4c0,0,0,0,0,0.1c-0.4,2.7-0.6,5.5-1,8.2c-1.4-4-4-7.6-6.2-11.1
		c-3.7-5.7-7.2-11.3-7.5-18.2c0-0.2-0.3-0.2-0.3,0c-0.6,5.4,1.8,10.5,4.5,15c3.3,5.5,6.9,10.6,9.1,16.7c-0.3,1.5-0.8,2.9-1.4,4.3
		c-0.2,0.4-0.4,0.7-0.6,1.1c-0.9-6.6-3.7-12.1-7.3-17.7c-2.2-3.5-4.6-6.9-6.4-10.6c-1.9-4-2.9-8.4-3.2-12.8
		c-0.6-8.1,1.6-16.7,6.2-23.3c3.3-4.7,7.7-9.7,7.3-15.9C71.2,40.3,70.3,37.2,70,34.1z M43.5,69c4.7-6.1,11.4-10.5,17-15.7
		c3.7-3.5,7.9-8.1,9.1-13.3c0.2,1,0.3,1.9,0.4,2.9c0.4,4.1-1.7,8.1-3.9,11.4c-3.4,4.9-6.4,9.1-8.1,14.9c-1.9,6.3-2,13-0.6,19.4
		c1.4,6.6,5,12,8.7,17.5c2.3,3.4,4.1,6.8,5.5,10.4c-3.1,0.3-6,0.9-8.8,2c-0.8-5-1.6-9.9-2.1-14.9c0-0.1-0.2-0.1-0.2,0
		c-0.5,5.1,0.6,10.3,1.3,15.3c-1.6,0.7-3.2,1.4-4.6,2.3c-2.1-8.2-4.8-16.4-4-25c0-0.1-0.2-0.2-0.2,0c-1.9,8.6,1,17.3,3.1,25.7
		c-0.7,0.5-1.4,1-2.1,1.5c-0.8-5.1-2.7-9.9-4.7-14.7c-2.6-6.2-4.6-12.4-4.6-19.2c0-0.2-0.2-0.2-0.3,0c-1.9,12.4,6.9,22.9,8.5,34.8
		c-0.9,0.7-1.7,1.4-2.5,2.2c-0.1-1.3-0.2-2.7-0.7-3.8c-2.1-8.1-6.9-15.6-9.7-23.5C36.1,88.7,36.7,77.9,43.5,69z M16,125.9
		c-5.4-8.3-8.6-22.4-0.5-30.2c5.6-5.3,16.4-3.6,20.5-10.6c-0.2,3.9,0.4,7.9,1.6,11.8c1.4,4.6,3.4,9,5.4,13.4c2,4.3,3.6,8.7,5.3,13.1
		c0.1,0.5,0.3,1,0.4,1.5c0.2,0.7,0.3,1.5,0.5,2.2c-0.8,0.8-1.5,1.7-2.3,2.6c-0.9-5.5-3.7-11.1-6.4-15.9c-3.1-5.6-7-10.7-11.4-15.3
		c-0.1-0.1-0.2,0-0.1,0.1c3.9,5,7.5,10.1,10.5,15.6c2.8,5.3,4.4,10.8,6.5,16.3c0,0.1,0.1,0.1,0.1,0.2c-0.5,0.7-1,1.4-1.5,2
		c-2.6-5.5-6.2-10.8-9.6-15.7c-4-5.9-8.7-11.3-14.8-15.2c-0.1,0-0.1,0-0.1,0.1c5.5,4.6,10.1,9.8,14.1,15.7c3.5,5.1,6,11.1,9.6,16.1
		c-0.3,0.5-0.6,1.1-1,1.6c-1.4-4.1-5.1-7.4-8.4-10c-4.7-3.8-10.1-6.8-14.8-10.6c-0.2-0.1-0.4,0.1-0.3,0.3c3.5,3.6,7.7,6.3,11.7,9.2
		c4.8,3.5,8.3,7.1,11,12.4c0,0,0,0,0,0c-6.8-5.6-16.9-10.8-26.2-10.4C16.1,126.1,16.1,126,16,125.9z M32.3,219.3
		c-6.3,1.3-12.8,0.5-17.2-4.5c-2.2-2.5-3.4-5.7-4.3-8.8c-1.2-4.4,0.2-8.6,1.4-12.8c1.8-6.8,1.7-13.7-0.7-20.4
		c-3.7-10.7-10.8-21.4-9.7-33.2c0.6-6.2,4.9-9.9,10.7-11.3c8.1-1.9,16.7,1.6,23.7,5.4c2,1.1,3.9,2.3,5.8,3.6
		c-0.1,0.2-0.2,0.4-0.3,0.6c-2,4-3.5,8.4-4.1,12.9c-5-4.9-12.1-9.7-18.9-10.5c-0.1,0-0.2,0.2-0.1,0.3c3.9,1.3,7.4,2.9,10.8,5.3
		c2.8,2,5.3,4.4,8,6.5c-0.2,1.5-0.3,3.1-0.2,4.6c0,0.1,0,0.1,0,0.2c-6.5-1.7-12.1-4.6-17.3-9c-0.1-0.1-0.3,0.1-0.2,0.2
		c4.8,4.9,10.9,8.4,17.6,9.9c0.2,2.3,0.8,4.5,1.6,6.6c-4.7-0.8-9.4-1.2-13.9-3c-0.2-0.1-0.3,0.2-0.1,0.3c4.5,2.4,9.5,3.1,14.5,4
		c1.1,2.4,2.5,4.6,4.1,6.7c0.2,0.2,0.3,0.4,0.5,0.7c-6,0.1-12.2-0.1-18.1,0.7c-0.1,0-0.1,0.2,0,0.3c6.1,1,12.7,0.2,18.8,0.2
		c0.1,0,0.1,0,0.2,0c1.6,2.1,3.3,4.1,4.8,6.2c-7.1,2.2-14,3.8-21.4,4.6c-0.2,0-0.2,0.3,0,0.4c7.4,0.9,15.2-1.7,22.2-3.9
		c1.3,1.9,2.5,3.9,3.4,6.1c0.1,0.2,0.2,0.4,0.2,0.6c-0.1-0.2-0.3-0.3-0.6-0.2c-3.7,1.4-7,3.6-10.7,5c-4,1.6-8,2.3-12.2,2.6
		c-0.1,0-0.1,0.1,0,0.1c7.8,1.1,17.1-2.6,23.4-7c0.2-0.1,0.2-0.3,0.2-0.4c1.1,2.9,1.4,5.8,1.5,8.8c-0.1,0-0.2,0-0.2,0.1
		c-10.2,6.6-23.6,9-34.9,3.8c-0.1,0-0.2,0.1-0.1,0.2c10.9,6.7,24.9,3.9,35.2-2.6c0,2.2-0.2,4.5-0.4,6.7c-9.6,4.1-19.4,7.2-29.9,7.5
		c-0.1,0-0.1,0.2,0,0.2c10.1,1.2,20.6-2.2,29.8-6.3c0,0.5-0.1,1-0.1,1.5c-0.2,0-0.4,0-0.5,0.2C48.4,214.8,40.3,217.6,32.3,219.3z
		 M150.8,279.6c-2.5,5.6-8.5,8.3-13.9,10.2c-2.8,1-5.6,2.1-7.8,4c-2,1.7-3.4,4.2-4.7,6.4c-3.2,5.1-8,9.6-14.2,6.7
		c-2.2-1-4.3-2.2-6.6-2.9c-2.7-0.8-5.4-1-8.1-1.3c-3-0.4-5.9-0.9-8-3.4c-1.8-2.1-2.4-5-2.8-7.7c-0.7-4.6-0.7-9.4-1-14.2
		c0.7-1.7,1.4-3.3,1.9-5.1c0.5-1.7,1.3-4.1,0.9-5.9c-0.2-0.9-1.4-0.7-1.4,0.2c0.1,4-2.4,9.2-4.3,12.6c-2.4,4.4-6.1,8.9-11.2,9.9
		c-5.2,1-8.9-3.3-12.3-6.6c-4.2-3.9-9.6-5.6-13.9-9.3c-9-7.8-12.2-22.7-10.8-34.1c0.8-6.1,3.7-10.9,7.8-15.3c3-3.2,6.5-6,9.5-9.2
		c1.8-1.1,3.6-2.4,5.2-3.8c0,0.5,0,1.1,0.1,1.6c-3.9,4.9-7.8,9.9-11.2,15.2c-2.8,4.5-5.3,9.6-5.2,15c0,0.1,0.2,0.1,0.2,0
		c1.1-11.1,9.9-19.8,16.3-28.4c0.3,2.1,0.8,4,1.6,5.9c-0.1,0-0.2,0.1-0.3,0.2c-3.7,6.1-6.8,12.5-10.8,18.4c-0.1,0.1,0.1,0.2,0.2,0.1
		c4.8-5.1,7.7-11.7,11.3-17.6c0.7,1.5,1.7,2.9,2.8,4.3c0,0,0,0,0,0c-2.8,6-6.3,11.5-10.1,16.9c-0.1,0.1,0.1,0.2,0.2,0.1
		c4.4-4.7,8.1-10.3,10.7-16.2c1.1,1.3,2.4,2.4,3.7,3.3c-2.8,6.6-6.7,11.9-11.9,16.8c-0.1,0.1,0,0.3,0.1,0.2
		c5.6-3.8,10.6-9.9,12.7-16.4c0.8,0.5,1.6,1,2.4,1.4c-3.6,8.3-8.4,15.7-13.2,23.3c-0.1,0.2,0.1,0.4,0.2,0.2
		c6.1-6.2,10.4-15.1,13.9-23.1c2.1,1.1,4.4,1.9,6.8,2.6c-0.2,0-0.3,0.1-0.4,0.3c-3,8.9-7.7,16.5-13.6,23.8c-0.1,0.1,0.1,0.3,0.2,0.2
		c6.9-6.1,11.4-15,14.4-23.6c0.1-0.2,0-0.4-0.1-0.6c0.9,0.3,1.9,0.5,2.8,0.7c2.3,0.5,4.5,1,6.7,1.5c0,0.1-0.1,0.1-0.1,0.2
		c-1.5,6-3.7,11.6-6.4,17.1c-2.9,5.8-6.7,11.1-10.1,16.7c-0.1,0.1,0.1,0.2,0.2,0.1c8.4-9.1,14.8-21.8,17.4-33.8c0,0,0-0.1,0-0.1
		c3.6,0.8,7.1,1.7,10.6,2.9c0,0,0,0,0,0c0.2,8.3-3,15.6-4.6,23.6c0,0.1,0.1,0.1,0.2,0c3.4-7.1,5.6-15.4,5.5-23.3
		c0.8,0.3,1.6,0.5,2.4,0.8c2.5,1,4.9,2.1,7.4,3.2c-0.4,7.2-2,14.1-4.7,20.7c-2.8,7-7.4,13-10.6,19.8c-0.1,0.1,0.1,0.2,0.2,0.1
		c5.1-5.3,8.8-12.7,11.6-19.4c2.8-6.6,4.3-13.6,4.7-20.7c2.4,1.1,4.9,2.1,7.4,2.9c-0.8,4.9-1.7,9.8-3.1,14.5
		c-1.4,4.8-3.6,8.9-6.1,13.2c-0.1,0.1,0.1,0.3,0.2,0.2c6.9-6.7,8.6-18.4,10-27.6c0.6,0.2,1.2,0.4,1.9,0.5c2.2,0.5,4.8,1,7.3,0.8
		c-1.7,6.5-3.4,13-5.9,19.2c-2.7,6.8-6.7,12.1-11.6,17.4c-0.1,0.1,0.1,0.3,0.2,0.2c5.8-3.6,9.5-10.3,12.1-16.3
		c2.9-6.6,4.8-13.7,6.4-20.7c1-0.2,2-0.6,2.8-1.2c3.7-2.5,4.2-7,4-11.1c0.1,0.2,0.2,0.4,0.3,0.5c-0.4,6.3,0.3,12.8,0.6,19.1
		c0.3,7.7-0.7,14.9-3,22.3c-0.1,0.2,0.2,0.3,0.3,0.1c5.9-12,3.7-26.6,3.3-39.6c0.6,0.9,1.2,1.9,1.8,2.8c0,0.1-0.1,0.2,0,0.4
		c5.8,11.2,11.8,25.6,5,37.8c0,0.1,0.1,0.2,0.1,0.1c4.1-5.1,4.2-12.1,3.3-18.3c-0.7-4.7-2.1-9.7-4.2-14.3c1.4,1.6,3.1,3.1,5,4.3
		c0.2,0.1,0.5,0.3,0.7,0.4c0,0,0,0.1,0,0.1C150.1,261.3,154.6,271.1,150.8,279.6z M170.5,254.1c-4.3-0.7-8.8-0.4-13.1-0.5
		c-4.8-0.2-8.8-1.8-12.5-4.9c-1.9-1.6-3.5-3.6-4.9-5.6c8.2,6,19.1,9.5,29.1,7.8c0.2,0,0.1-0.3,0-0.2c-11,0.9-22.6-3.2-30.9-10.4
		c-0.1-0.1-0.1-0.1-0.2-0.1c-0.6-0.9-1.2-1.9-1.7-2.8c0-0.1,0-0.3,0-0.4c0-0.3-0.3-0.5-0.5-0.4c-0.6-0.9-1.1-1.8-1.7-2.7
		c5.4,3.6,11.6,6.5,17.7,8.8c6.9,2.6,14.7,4.7,22.1,4.4c0.1,0,0.1-0.2,0-0.2c-7.5-1.1-14.6-2.5-21.7-5.2c-7.1-2.7-13.5-6.6-20-10.5
		c-1.1-1.5-2.3-2.9-3.7-4.1c0.4,0.2,0.8,0.3,1.2,0.5c-0.1,0.2-0.2,0.4,0,0.6c4.9,4.9,12.8,7.5,19.3,9.1c7.4,1.9,15.6,2.1,23,0.1
		c0.2,0,0.1-0.3,0-0.3c-7.4,1.2-14.7,1-21.9-0.7c-3.6-0.8-7.1-2.1-10.5-3.6c-2.7-1.2-5.1-2.8-7.6-4.3c5.3,1.8,11.1,2.7,16.3,2.8
		c7.8,0.3,16.8-1,24-4.2c0.7,0.1,1.3,0.3,2,0.4c4.6,0.6,9.9,0.1,13.6-2.8c3.5-2.7,3.2-7.2,1.8-10.9c7.5-0.5,16.2,3.1,23-1.6
		c3.7-2.5,4.2-6.1,3.3-9.8c3.1,0.8,6.2,1.7,9.3,2.5c0.2,0.1,0.4-0.2,0.1-0.3c-3.1-1.3-6.4-2.5-9.8-3.2c-0.7-2.2-1.9-4.3-3.2-6.3
		c1.8,0.9,4.1,1.2,5.8,1.5c2.1,0.4,5.1,0.8,7.1-0.2c0.1-0.1,0.1-0.3,0-0.3c-2.4-0.1-4.6-0.1-7-0.5c-2.5-0.5-4.6-1.7-7-2.2
		c0,0-0.1,0-0.1,0c-0.6-0.8-1.2-1.5-1.8-2.2c-0.2-0.8-0.3-1.6-0.3-2.5c5.2-0.1,10.4,0.4,15.6,0.2c0.3,0,0.2-0.4,0-0.4
		c-5.2-0.4-10.4-1-15.6-0.8c0.1-1.9,0.6-3.8,1.3-5.6c0.1,0.1,0.1,0.2,0.3,0.2c2,0.3,4.1,0,6.1,0c2.6-0.1,5.1,0,7.7-0.2
		c0.2,0,0.2-0.3,0-0.4c-4.3-0.6-9.5-1-13.8-0.3c0,0,0,0,0,0c0.7-1.6,1.6-3.2,2.5-4.7c0,0.2,0.2,0.3,0.4,0.4
		c4.3,0.5,9.4,0.4,13.2-1.8c0.2-0.1,0.1-0.4-0.1-0.3c-4.2,1.5-8.6,1.7-12.9,1.1c-0.1,0-0.1,0-0.1,0c1.2-1.8,2.5-3.6,3.6-5.1
		c0.1,0.2,0.2,0.3,0.4,0.3c4.1,0.7,8.5,0.5,12.7,0.2c0.1,0,0.1-0.2,0-0.2c-4.2,0-8.3-0.5-12.5-1l0,0c1.2-1.6,2.5-3.2,3.9-4.7
		c0,0.2,0.2,0.3,0.4,0.3c3,0,6.1-0.2,8.9-1.2c0.2-0.1,0.1-0.5-0.1-0.4c-2.9,0.5-5.7,0.5-8.6,0.5c3.6-4.1,7.4-8.1,10.3-12.7
		c6.2-9.9,2.5-21.3-5.5-27.7c2.8,0.5,5.5,1.1,8.3,1.4c0.2,0,0.3-0.3,0.1-0.3c-3.4-1-7-2.1-10.5-2.5c-3-1.9-6.4-3.1-10.1-3.5
		c2.9-0.1,5.7-0.6,8.6-0.7c3.4-0.1,6.8,0.4,10.1,0.1c0.2,0,0.1-0.2,0-0.3c-3.2-0.8-6.8-0.7-10.1-0.8c-3-0.1-6.5-0.3-9.4,0.8
		c-0.4,0.2-0.3,0.6,0,0.8c-0.3,0-0.6,0-0.9-0.1c0.8-2.8,0.9-5.8,0.4-8.8c0.1,0,0.1,0.1,0.2,0.1c1.8,0.1,3.7-0.6,5.5-1
		c2.1-0.5,4.3-1,6.4-1.7c0.2-0.1,0.1-0.5-0.1-0.4c-2.1,0.4-4.3,0.8-6.4,1.3c-1.8,0.3-3.8,0.4-5.5,1c-0.1,0-0.1,0.1-0.2,0.2
		c-0.5-2.2-1.3-4.3-2.5-6.4c-5-8.1-13.5-14.1-22.6-17.4c4.2-0.8,8.1-2.7,11.2-5.6c0.1-0.1,0-0.3-0.2-0.2c-4.1,2.9-8.4,4.5-13.3,5.1
		c-1.5-0.5-3.1-0.9-4.6-1.2c0.1-1.5-0.1-2.9-0.8-4.4c-0.9-2-2.6-3.6-4.5-4.9c5-0.6,9.3-4.9,12.5-8.5c0.1-0.2-0.1-0.4-0.3-0.3
		c-1.7,1.7-3.5,3.2-5.5,4.6c-2.2,1.6-4.6,2.3-7.1,3.3c-0.2,0.1-0.2,0.2-0.2,0.4c-1.2-0.7-2.4-1.4-3.7-2c3.9-1.3,7.5-5,9.2-8.3
		c0.1-0.2-0.2-0.4-0.3-0.2c-1.5,2-3.2,3.8-5.3,5.3c-1.6,1.2-3.4,1.8-5.2,2.5c-1.7-0.7-3.3-1.4-4.7-2c-0.3-0.1-0.6-0.2-0.8-0.3
		c4.7-1.6,9-4.3,12.7-7.6c0.2-0.1,0-0.4-0.2-0.3c-4.5,3-9,5.5-14.1,7.2c-0.7-0.3-1.4-0.5-2.1-0.8c4.7-3,6.3-8.4,9.4-13
		c5-7.5,14.8-10.2,23.2-8.5c8.3,1.7,16.8,6.4,23.4,11.4c6.4,4.9,12.2,11.1,17.1,17.5c1.8,2.3,3.7,6.7,2.8,9.6
		c-0.7,2.1-2.7,4.7-1,6.9c1.5,2,5,2.1,6,4.4c1.7,4.2,0.8,9,1.1,13.4c0.3,3.8,1.9,7.3,3.4,10.7c1.9,4.5,2.8,8.8,2.3,13.7
		c-0.7,6.8-4.2,12.9-7.2,18.9c-1.9,4-3.4,8-4.2,12.4c-0.9,4.8-0.4,9.9,0,14.8c1,10.7,3.3,23.4-5.4,31.5c-3.1,2.9-5.9,5.4-7.8,9.2
		c-1.5,3-2.2,6.2-2.9,9.5c-0.5,2.4-0.9,5.5-3.4,6.5c-4.1,1.7-8.5-1.8-12.6-1.2c-1.1,0.2-0.8,1.8,0.2,1.7c1.6-0.2,3.4,0.2,5.1,0.7
		c1.5,4,0.4,7-3.5,9.6c-3.7,2.4-7.9,4.1-11.8,6.1c-3.6,1.9-7.4,3.8-11.6,3.5C179.5,256.6,175,254.9,170.5,254.1z M201,299.8
		c0,0.2,0.2,0.3,0.4,0.3c6.8,0.8,12.9,3.8,19.3,5.9c0.3,0.1,0.5-0.3,0.2-0.5c-5.3-2.2-10.5-4.6-16-5.7c0.6,0,1.1,0,1.7,0
		c3.3,0,6.6-0.1,9.9-0.2c6.4,1.4,12.2,4.3,18.4,6.3c0.1,0,0.2-0.2,0.1-0.2c-5.2-2.2-10.4-4.7-15.8-6.2c4.3-0.2,8.5-0.5,12.8-0.9
		c3,1.1,6.3,1.6,9.2,2.4c4.1,1,8.2,2,12.4,2.7c0.2,0,0.3-0.3,0.1-0.4c-3.7-1-7.5-1.9-11.3-2.9c-2.5-0.6-5.1-1.5-7.6-2.2
		c1.5-0.2,3-0.3,4.4-0.5c3.5,0,7.1,0.3,10.7,0.9c5.8,0.9,11.5,2.2,17.4,2c0.3,0,0.2-0.4,0-0.4c-4.1-0.4-8.1-1.1-12.1-1.7
		c4-0.2,8.1-0.4,12-1.1c0.2,0,0.2-0.4-0.1-0.4c-5.3,0.4-10.5,0.5-15.8,0.8c-1.1-0.2-2.3-0.4-3.4-0.6c-2-0.3-4.1-0.6-6.3-0.7
		c6.1-1.4,12.3-1.8,18.6-2.3c0.1,0,0.1-0.2,0-0.2c-7.2,0-14.8,0.2-21.8,2.4c-1.4,0-2.8,0.1-4.1,0.3c-0.5,0-1,0-1.5,0.1
		c6.4-2.4,12.5-5.1,19.3-6.2c0.2,0,0.2-0.3,0-0.3c-8,0.6-15.2,4-22.7,6.6c-3.5,0.1-7.1,0.2-10.6,0.2c3.4-0.9,6.7-2.4,9.8-3.6
		c6.5-2.6,12.9-5,19.9-5.7c0.1,0,0.1-0.2,0-0.2c-6.1-0.1-11.9,1.8-17.6,3.9c-3,1.1-6,2.4-9.1,3.5c-2.9,1-5.7,1.5-8.7,2.1
		c-0.7,0-1.3,0-2,0c8.2-3.4,16.1-8.5,23.1-13.6c0.1-0.1,0-0.3-0.1-0.2c-8.5,5.1-17,9.8-26.1,13.7c-2.1-0.1-4.2-0.2-6.3-0.3
		c2.5-0.7,5-1.9,7.2-2.9c4.9-2.3,9.6-5.1,14.4-7.5c0.2-0.1,0.1-0.4-0.1-0.3c-4.5,1.5-8.6,3.9-12.9,6c-4.2,2.1-8.4,3.3-12.8,4.5
		c-1.2-0.1-2.3-0.2-3.5-0.2c7.3-2.3,15.6-6.1,19.4-12.7c0.1-0.2-0.2-0.3-0.3-0.2c-6,6.5-13.6,10-21.9,12.7c-1.9-0.2-3.9-0.3-5.8-0.5
		c0-0.1,0-0.3-0.1-0.4c15.6-3.7,22.6-22.8,38.8-25.1c-3.3,3.9-5.9,8.3-9.1,12.3c-0.3,0.4,0.1,1.2,0.6,1c12.3-3,24.4-1.4,36.2,2.9
		c10.9,4,21,9.7,31.5,14.5c-12.4,2.4-24.2,7.4-36.7,9.4c-14,2.3-27.4-2.2-41.3-3.2c-0.2,0-0.3,0-0.4,0.1c-3.4-3.1-7.4-5.6-11.5-7.4
		c0,0,0-0.1,0-0.1C196.1,299.8,198.5,299.8,201,299.8z M207.9,298.3c0.8,0,1.7,0.1,2.5,0.1c1.1,0,2.3,0,3.4,0.1
		c-2.1,0.1-4.1,0.1-6.2,0.1c-0.2,0-0.3,0-0.5,0C207.3,298.5,207.6,298.4,207.9,298.3z M191.1,299.7c0.3,0,0.6,0,0.9,0
		c0.3,0.2,0.5,0.3,0.8,0.5c0.1,0.2,0.2,0.4,0.3,0.6c-0.4,5.9,4.3,11.5,8.1,15.6c0.2,0.2,0.6,0,0.4-0.3c-2.5-5-7.1-8.4-7.9-13.9
		c3.6,6.3,11.8,9.7,15.2,16.3c0.3,0.5,1,0.2,0.8-0.3c-3.3-7.4-11.7-10.5-15.9-17.3c9.4,5.9,19,13,20,24.8
		c-10.8-6.6-26.3-11.3-27.9-25.8c0-0.1,0-0.1,0-0.2C187.6,299.7,189.4,299.7,191.1,299.7z M210.9,339.2L210.9,339.2
		c1.9,1,4.1,1.5,6.1,2c2.2,0.6,4.4,1.2,6.7,1.7c0.2,0,0.2-0.2,0.1-0.3c-2.1-0.9-4.3-1.5-6.4-2.2c-1.2-0.4-2.4-0.9-3.7-1.3
		c2.6-0.1,5.2-0.2,7.8-0.4c0,0.1,0.1,0.2,0.3,0.3c4.5,1.4,9,2.8,13.6,3.8c0.2,0,0.2-0.2,0.1-0.3c-3.9-1.4-7.9-2.8-11.9-4
		c1.8-0.1,3.5-0.3,5.3-0.4c0.7-0.1,1.5-0.1,2.2-0.2c0,0.1,0.1,0.1,0.2,0.1c6.9,2.3,14.1,3.6,21.3,3.8c0,0,0.1-0.1,0-0.1
		c-6.5-1-12.9-2.2-19.2-4.1c1.8-0.2,3.5-0.3,5.3-0.5c1.5,0,3,0,4.5,0c4.7,2.4,10.8,3.1,15.9,3.4c0.2,0,0.2-0.2,0-0.2
		c-2.7-0.6-5.4-1-8-1.6c-1.9-0.4-3.7-1-5.5-1.6c3.1,0,6.2-0.1,9.3-0.2c3.5,1.4,7.4,1.8,11,0.7c0.3-0.1,0.2-0.5-0.1-0.4
		c-2.8,0.4-5.5,0.3-8.1-0.4c1.2,0,2.4-0.1,3.6-0.2c0.7,0,0.7-1.1,0-1.2c-8.5-0.6-17-0.1-25.5,0.6c-7.4,0.1-14.8,0.4-22.2,1.4
		c9.5-3.9,19.3-6.7,29.2-8.2c-1.2,0.5-2.4,1.1-3.4,1.8c-0.1,0.1,0,0.2,0.1,0.2c3-1.2,6.1-1.8,9.2-2.7c1.2-0.1,2.4-0.2,3.7-0.3
		c-2.6,1.1-5,2.5-7.1,4c-0.1,0,0,0.2,0.1,0.1c3.5-1.8,7.1-3.1,10.7-4.3c3.4-0.1,6.7,0,10.1,0.2c-3.3,0.5-6.5,1.4-9.8,2
		c-0.1,0-0.1,0.1,0,0.1c4.8-0.5,9.5-1.5,14.3-1.8c1.9,0.2,3.8,0.5,5.7,0.8c-3.1,0.7-6.2,1.8-8.9,2.8c-0.1,0-0.1,0.2,0.1,0.2
		c3.9-0.9,8.1-1.4,12.1-2.4c3.6,0.8,7.1,1.7,10.6,2.9c-4.8-0.7-9.9-0.9-14.6-0.4c-0.3,0-0.2,0.4,0.1,0.4c6-0.1,11.8,0.9,17.8,1.2
		c0.1,0,0.2,0,0.2-0.1c1.7,0.6,3.4,1.3,5.1,2.1c-15.4,3.5-28.7,12.9-44.1,16.2c-16.3,3.5-32.1-3.4-44.7-13.3
		C210.4,339.3,210.6,339.3,210.9,339.2z M208.2,443.2c-3.9-11.5-10.7-21.9-9.5-34.6c1.2-12.4,9.5-22.3,13.3-33.8
		c0.4,0.9,0.9,1.8,1.4,2.7c0.7,2.6,0.7,5.1,0.3,7.7c0,0,0,0,0,0c-0.3,3.1-2.2,5.5-4.3,7.6c-1.5,1.5-3.7,2.8-4.7,4.8
		c-0.1,0.3,0.2,0.7,0.5,0.5c2.3-1.2,4.4-3.8,6.1-5.8c0.4-0.4,0.7-0.9,0.9-1.3c-0.8,2.5-1.9,4.9-2.9,7.3c-3.1,2.5-6.1,6-7.6,9.8
		c-0.1,0.4,0.3,0.6,0.6,0.3c1.2-1.5,2.1-3.3,3.2-4.9c1.1-1.6,2.3-3.1,3.5-4.5c-0.4,0.9-0.8,1.8-1.1,2.7c-1.1,2.6-2.2,5.5-2.9,8.6
		c-0.2-0.1-0.6,0.1-0.5,0.4c0.1,0.3,0.2,0.6,0.2,0.9c-0.1,0.7-0.3,1.4-0.4,2.1c-0.9,2.8-1.2,6-0.6,8.8c0.1,0.5,0.8,0.4,0.7-0.1
		c0-0.9,0-1.8,0-2.7c0.4,2.1,1.2,4,2.6,5.7c0.2,0.2,0.5,0,0.5-0.3c-1.1-3.6-2-6.8-1.8-10.3c0.8,2.2,1.9,4.4,3.2,6.3
		c0.1,0.2,0.5,0,0.4-0.2c-1.4-2.7-2.5-5.3-3.4-8.1c0-0.4,0.1-0.7,0.1-1.1c0.7-3.8,2.2-7.4,3.7-10.9c0.7,4.8,0.3,9.9,1.5,14.6
		c0.1,0.4,0.7,0.4,0.7,0c0-5-0.3-10.6-1.9-15.4c0.2-0.6,0.5-1.1,0.7-1.7c1.3-3,2.5-6,3.3-9.1c0.3,2.2,0.5,4.4,0.6,6.6
		c0.1,2.8-0.2,5.8,0.3,8.6c0.1,0.4,0.6,0.4,0.7,0c1-5,0.2-11.3-1.2-16.1c0,0,0-0.1-0.1-0.1c0.6-2.8,0.8-5.7,0.3-8.5
		c0.9,1.7,1.9,3.3,2.9,4.9c-0.2,0.1-0.3,0.4-0.2,0.7c0.5,1.5,1,3.1,1.5,4.7C219,408.4,209.6,425.1,208.2,443.2z M243.2,426.8
		c-12.5-8.8-18.8-23-23.5-37.1c0-0.6,0-1.1-0.1-1.7c2.2,3.1,4.6,6,7.2,8.8c0.6,3.2,2.6,6.5,4.1,9.4c1.5,2.9,3.3,6.6,6,8.6
		c0.2,0.2,0.6-0.1,0.5-0.4c-1.9-3.2-4.3-6.1-6.1-9.4c-1.3-2.4-2.3-5.1-3.7-7.4c2.3,2.4,4.6,4.7,7.1,6.9c0,0,0,0,0,0
		c1.4,3.8,3.3,7.5,5.4,11c2.1,3.5,4.8,7.7,8.4,9.8c0.3,0.2,0.7-0.2,0.4-0.4c-2.6-3-5.4-5.7-7.6-9.1c-2.3-3.4-4.2-7.1-6-10.8
		c2.6,2.3,5.3,4.4,8.1,6.5c2.6,6.2,6.9,12.1,11.5,16.8c0.3,0.3,0.7-0.1,0.5-0.4c-3.8-5.3-7.7-10.2-11-15.8c1.4,1,2.7,1.9,4.1,2.8
		c0.1,0.1,0.3,0.1,0.4,0.1c0,0.1,0.1,0.1,0.1,0.2c0.2,0.1,0.4,0.3,0.6,0.4c1.2,2.5,3.7,4.8,5.3,6.9c2.7,3.5,5.2,7.8,8.4,10.7
		c0.2,0.2,0.6-0.1,0.5-0.4c-0.6-1.5-1.9-2.8-2.8-4.1c-1.6-2.1-3.3-4.2-4.9-6.3c-1.5-1.9-3-3.8-4.6-5.6c-0.1-0.1-0.1-0.2-0.2-0.3
		c3,1.8,6.2,3.6,9.4,4.9c0.2,0.1,0.3-0.2,0.1-0.3c-3.8-2.1-7.4-4.6-11.3-6.7c0,0,0,0-0.1,0c0-0.1,0-0.2-0.1-0.3
		c-1.7-1.8-3.4-3.6-5.1-5.5c4.8,2,9.3,4.1,13.6,7c0.1,0.1,0.2-0.1,0.1-0.2c-4.3-3.4-9.2-5.8-14.3-7.9c-0.2-0.1-0.3,0-0.4,0.1
		c-2.4-2.4-4.7-4.9-7.1-7.4c6.4,3.1,13,5.8,19.2,9.3c0.2,0.1,0.3-0.2,0.2-0.3c-6.1-4.2-13.1-7.2-19.9-10.4c-0.2-0.1-0.4,0-0.6,0.2
		c-2-2.1-4-4.3-5.9-6.5c6.1,3.6,12.9,5.9,19,9.5c0.1,0.1,0.2-0.1,0.1-0.1c-6.4-4.9-14.4-7.3-21.1-11.8c-0.1,0-0.1-0.1-0.2-0.1
		c-3.2-4-6.2-8.1-8.6-12.6c2.8,5.5,8.2,8.8,13.4,11.6c6.7,3.6,13.8,6.5,20.1,10.8c14.9,10.3,15,30.2,21.9,45.6
		C264.5,437.9,253,433.8,243.2,426.8z"/>
</g>
</svg>