<!-- Generator: Adobe Illustrator 17.1.0, SVG Export Plug-In  -->
<svg version="1.1"
	 xmlns="http://www.w3.org/2000/svg" xmlns:xlink="http://www.w3.org/1999/xlink" xmlns:a="http://ns.adobe.com/AdobeSVGViewerExtensions/3.0/"
	 x="0px" y="0px" width="309.8px" height="248.9px" viewBox="0 0 309.8 248.9" enable-background="new 0 0 309.8 248.9"
	 xml:space="preserve">
<defs>
</defs>
<g>
	<path fill="#FFFFFF" d="M0,196.2h12.1c1.4,0,2.8,0.2,4.2,0.6c1.3,0.4,2.6,0.9,3.7,1.6c1.1,0.7,2.2,1.5,3.1,2.4c0.9,1,1.7,2,2.4,3.2
		c0.7,1.2,1.2,2.4,1.5,3.8c0.4,1.3,0.5,2.7,0.5,4.2c0,1.5-0.2,2.9-0.5,4.2c-0.4,1.3-0.9,2.6-1.5,3.8c-0.7,1.2-1.5,2.2-2.4,3.2
		c-0.9,1-2,1.8-3.1,2.5c-1.1,0.7-2.4,1.2-3.7,1.6c-1.3,0.4-2.7,0.6-4.2,0.6H0V222h2.5v-20.1H0V196.2z M9.4,201.9V222h2.6
		c1.1,0,2.2-0.3,3.2-0.8c1-0.5,1.9-1.2,2.6-2.2c0.7-0.9,1.3-2,1.7-3.2c0.4-1.2,0.6-2.5,0.6-4c0-1.4-0.2-2.7-0.6-3.9
		c-0.4-1.2-1-2.3-1.7-3.2c-0.7-0.9-1.6-1.6-2.6-2.1c-1-0.5-2.1-0.8-3.2-0.8H9.4z"/>
	<path fill="#FFFFFF" d="M48.2,228c-1.4,0-2.8-0.2-4.1-0.6c-1.3-0.4-2.5-0.9-3.7-1.6s-2.2-1.5-3.1-2.5c-0.9-1-1.7-2.1-2.4-3.3
		c-0.7-1.2-1.2-2.5-1.5-3.8c-0.4-1.4-0.5-2.8-0.5-4.3c0-1.5,0.2-2.9,0.5-4.3c0.4-1.4,0.9-2.7,1.5-3.9c0.7-1.2,1.5-2.3,2.4-3.3
		c0.9-1,2-1.8,3.1-2.5c1.1-0.7,2.4-1.2,3.7-1.6c1.3-0.4,2.7-0.6,4.1-0.6c1.4,0,2.8,0.2,4.2,0.6c1.3,0.4,2.6,0.9,3.7,1.6
		c1.1,0.7,2.2,1.5,3.1,2.5c0.9,1,1.7,2.1,2.4,3.3c0.7,1.2,1.2,2.5,1.5,3.9c0.4,1.4,0.5,2.8,0.5,4.3c0,1.5-0.2,2.9-0.5,4.3
		c-0.4,1.4-0.9,2.7-1.5,3.9c-0.7,1.2-1.5,2.3-2.4,3.3c-0.9,1-2,1.8-3.1,2.5s-2.4,1.2-3.7,1.6C51.1,227.8,49.7,228,48.2,228z
		 M48.2,221.6c1.2,0,2.3-0.3,3.4-0.8c1-0.5,1.9-1.2,2.6-2.1c0.7-0.9,1.3-1.9,1.7-3.1c0.4-1.2,0.6-2.4,0.6-3.7c0-1.3-0.2-2.6-0.6-3.8
		c-0.4-1.2-1-2.2-1.7-3.1c-0.7-0.9-1.6-1.6-2.6-2.1c-1-0.5-2.1-0.8-3.3-0.8c-1.2,0-2.3,0.3-3.3,0.8c-1,0.5-1.9,1.2-2.6,2.1
		c-0.7,0.9-1.3,1.9-1.7,3.1c-0.4,1.2-0.6,2.4-0.6,3.8c0,1.3,0.2,2.6,0.6,3.7c0.4,1.2,1,2.2,1.7,3.1c0.7,0.9,1.6,1.6,2.6,2.1
		C45.9,221.3,47,221.6,48.2,221.6z"/>
	<path fill="#FFFFFF" d="M206.4,228c-1.4,0-2.8-0.2-4.1-0.6c-1.3-0.4-2.5-0.9-3.7-1.6c-1.1-0.7-2.2-1.5-3.1-2.5
		c-0.9-1-1.7-2.1-2.4-3.3c-0.7-1.2-1.2-2.5-1.5-3.8c-0.4-1.4-0.5-2.8-0.5-4.3c0-1.5,0.2-2.9,0.5-4.3c0.4-1.4,0.9-2.7,1.5-3.9
		c0.7-1.2,1.5-2.3,2.4-3.3c0.9-1,2-1.8,3.1-2.5c1.1-0.7,2.4-1.2,3.7-1.6c1.3-0.4,2.7-0.6,4.1-0.6c1.4,0,2.8,0.2,4.2,0.6
		c1.3,0.4,2.6,0.9,3.7,1.6c1.1,0.7,2.2,1.5,3.1,2.5c0.9,1,1.7,2.1,2.4,3.3c0.7,1.2,1.2,2.5,1.5,3.9c0.4,1.4,0.5,2.8,0.5,4.3
		c0,1.5-0.2,2.9-0.5,4.3c-0.4,1.4-0.9,2.7-1.5,3.9c-0.7,1.2-1.5,2.3-2.4,3.3c-0.9,1-2,1.8-3.1,2.5c-1.1,0.7-2.4,1.2-3.7,1.6
		C209.2,227.8,207.8,228,206.4,228z M206.4,221.6c1.2,0,2.3-0.3,3.4-0.8c1-0.5,1.9-1.2,2.6-2.1c0.7-0.9,1.3-1.9,1.7-3.1
		c0.4-1.2,0.6-2.4,0.6-3.7c0-1.3-0.2-2.6-0.6-3.8c-0.4-1.2-1-2.2-1.7-3.1c-0.7-0.9-1.6-1.6-2.6-2.1c-1-0.5-2.1-0.8-3.3-0.8
		c-1.2,0-2.3,0.3-3.3,0.8c-1,0.5-1.9,1.2-2.6,2.1c-0.7,0.9-1.3,1.9-1.7,3.1c-0.4,1.2-0.6,2.4-0.6,3.8c0,1.3,0.2,2.6,0.6,3.7
		c0.4,1.2,1,2.2,1.7,3.1c0.7,0.9,1.6,1.6,2.6,2.1C204,221.3,205.1,221.6,206.4,221.6z"/>
	<path fill="#FFFFFF" d="M100.5,196.2H114v5.7h-2.8l-7.3,25.8h-9L90.2,208l-4.9,19.7h-8.9L69,201.9h-3.2v-5.7h13.5v5.7h-3.3l4.6,17
		l5.6-22.7H94l5.5,22.7l4.7-17h-3.7V196.2z"/>
	<path fill="#FFFFFF" d="M139.9,196.2h12v5.7h-2.6v25.8h-6.9l-13.1-20.4V222h2.6v5.7h-12V222h2.6v-20.1H120v-5.7h9.5l13,20.7v-14.9
		h-2.7V196.2z"/>
	<path fill="#FFFFFF" d="M165.8,222h3.3v-20.3h-3.8v4.1h-6.8v-9.6h28.7v9.6h-6.8v-4.1H176V222h3.3v5.7h-13.5V222z"/>
	<path fill="#FFFFFF" d="M258.3,196.2h13.5v5.7h-2.8l-7.3,25.8h-9l-4.8-19.7l-4.9,19.7h-8.9l-7.4-25.8h-3.2v-5.7h13.5v5.7h-3.3
		l4.6,17l5.6-22.7h7.7l5.5,22.7l4.7-17h-3.7V196.2z"/>
	<path fill="#FFFFFF" d="M297.8,196.2h12v5.7h-2.6v25.8h-6.9l-13.1-20.4V222h2.6v5.7h-12V222h2.6v-20.1h-2.6v-5.7h9.5l13,20.7v-14.9
		h-2.7V196.2z"/>
</g>
<g>
	<path fill="#FFFFFF" d="M81.3,248.8v-11.3h4.2c0.9,0,1.8,0.1,2.5,0.4c0.7,0.3,1.3,0.7,1.8,1.2c0.5,0.5,0.8,1.1,1.1,1.8
		c0.2,0.7,0.4,1.4,0.4,2.2c0,0.9-0.1,1.6-0.4,2.3c-0.3,0.7-0.6,1.3-1.1,1.8c-0.5,0.5-1.1,0.9-1.8,1.2c-0.7,0.3-1.5,0.4-2.3,0.4H81.3
		z M88.5,243.1c0-0.5-0.1-1-0.2-1.4c-0.1-0.4-0.3-0.8-0.6-1.1c-0.3-0.3-0.6-0.5-0.9-0.7c-0.4-0.2-0.8-0.2-1.3-0.2h-1.6v6.7h1.6
		c0.5,0,0.9-0.1,1.3-0.3c0.4-0.2,0.7-0.4,0.9-0.7c0.3-0.3,0.4-0.7,0.6-1.1C88.4,244,88.5,243.6,88.5,243.1z"/>
	<path fill="#FFFFFF" d="M108.7,246.5v2.3h-8v-11.3h7.8v2.3h-5.2v2.2h4.5v2.1h-4.5v2.4H108.7z"/>
	<path fill="#FFFFFF" d="M124.8,240.7c0,0-0.1-0.1-0.3-0.2c-0.2-0.1-0.4-0.2-0.7-0.4c-0.3-0.1-0.6-0.2-0.9-0.3
		c-0.3-0.1-0.7-0.1-1-0.1c-0.9,0-1.4,0.3-1.4,0.9c0,0.2,0.1,0.4,0.2,0.5c0.1,0.1,0.3,0.2,0.4,0.3c0.2,0.1,0.4,0.2,0.7,0.3
		c0.3,0.1,0.6,0.2,1,0.3c0.5,0.1,1,0.3,1.5,0.5c0.4,0.2,0.8,0.4,1.1,0.7c0.3,0.3,0.5,0.6,0.7,1c0.2,0.4,0.2,0.8,0.2,1.3
		c0,0.6-0.1,1.2-0.4,1.6c-0.2,0.4-0.6,0.8-1,1.1c-0.4,0.3-0.8,0.5-1.4,0.6c-0.5,0.1-1,0.2-1.6,0.2c-0.4,0-0.8,0-1.3-0.1
		c-0.4-0.1-0.9-0.2-1.3-0.3c-0.4-0.1-0.8-0.3-1.2-0.4c-0.4-0.2-0.7-0.4-1.1-0.6l1.2-2.3c0,0.1,0.2,0.2,0.4,0.3
		c0.2,0.1,0.5,0.3,0.9,0.4c0.3,0.1,0.7,0.3,1.2,0.4c0.4,0.1,0.9,0.2,1.3,0.2c0.9,0,1.4-0.3,1.4-0.8c0-0.2-0.1-0.4-0.2-0.5
		c-0.1-0.1-0.3-0.3-0.6-0.4c-0.2-0.1-0.5-0.2-0.9-0.3c-0.3-0.1-0.7-0.2-1.1-0.3c-0.5-0.2-1-0.3-1.4-0.5c-0.4-0.2-0.7-0.4-1-0.6
		s-0.4-0.5-0.6-0.8c-0.1-0.3-0.2-0.7-0.2-1.1c0-0.6,0.1-1.1,0.3-1.6c0.2-0.5,0.5-0.8,0.9-1.2c0.4-0.3,0.8-0.6,1.3-0.7
		c0.5-0.2,1-0.2,1.6-0.2c0.4,0,0.8,0,1.2,0.1c0.4,0.1,0.8,0.2,1.1,0.3c0.4,0.1,0.7,0.3,1,0.4c0.3,0.1,0.6,0.3,0.8,0.4L124.8,240.7z"
		/>
	<path fill="#FFFFFF" d="M135.9,248.8v-11.3h2.6v11.3H135.9z"/>
	<path fill="#FFFFFF" d="M156.4,247.6c-0.9,0.8-1.9,1.2-3,1.2c-0.7,0-1.4-0.1-2.1-0.4c-0.7-0.3-1.2-0.7-1.7-1.2
		c-0.5-0.5-0.9-1.1-1.2-1.8c-0.3-0.7-0.4-1.5-0.4-2.4c0-0.8,0.1-1.5,0.4-2.2c0.3-0.7,0.7-1.3,1.2-1.8c0.5-0.5,1.1-0.9,1.8-1.2
		c0.7-0.3,1.4-0.4,2.2-0.4c1.1,0,2,0.2,2.8,0.7c0.8,0.4,1.4,1,1.8,1.8l-1.9,1.5c-0.3-0.5-0.6-0.9-1.1-1.2c-0.5-0.3-1-0.4-1.6-0.4
		c-0.4,0-0.8,0.1-1.2,0.3c-0.4,0.2-0.7,0.4-0.9,0.7c-0.3,0.3-0.5,0.7-0.6,1.1c-0.1,0.4-0.2,0.9-0.2,1.3c0,0.5,0.1,0.9,0.2,1.4
		c0.1,0.4,0.4,0.8,0.6,1.1c0.3,0.3,0.6,0.5,1,0.7c0.4,0.2,0.8,0.3,1.2,0.3c1,0,1.9-0.5,2.8-1.4v-0.4h-2.2v-1.9h4.4v5.9h-2.2V247.6z"
		/>
	<path fill="#FFFFFF" d="M171,242.3v6.5h-2.6v-11.3h2l5.3,6.7v-6.7h2.6v11.3h-2.1L171,242.3z"/>
	<path fill="#FFFFFF" d="M199.5,243c0-0.7,0.1-1.4,0.4-2c0.3-0.7,0.6-1.3,1.1-1.8c0.5-0.5,1.1-1,1.8-1.3c0.7-0.3,1.5-0.5,2.4-0.5
		c1.1,0,2,0.2,2.8,0.7c0.8,0.5,1.4,1.1,1.8,1.8l-2,1.4c-0.1-0.3-0.3-0.5-0.5-0.7c-0.2-0.2-0.4-0.4-0.6-0.5c-0.2-0.1-0.5-0.2-0.7-0.3
		c-0.2,0-0.5-0.1-0.7-0.1c-0.5,0-0.9,0.1-1.3,0.3c-0.4,0.2-0.7,0.5-0.9,0.8c-0.2,0.3-0.4,0.7-0.5,1.1c-0.1,0.4-0.2,0.8-0.2,1.2
		c0,0.4,0.1,0.9,0.2,1.3c0.1,0.4,0.3,0.8,0.6,1.1c0.3,0.3,0.6,0.6,0.9,0.8c0.4,0.2,0.8,0.3,1.2,0.3c0.2,0,0.5,0,0.7-0.1
		c0.3-0.1,0.5-0.1,0.7-0.3c0.2-0.1,0.4-0.3,0.6-0.5c0.2-0.2,0.3-0.4,0.5-0.7l2.1,1.3c-0.2,0.4-0.4,0.8-0.8,1.1
		c-0.3,0.3-0.7,0.6-1.2,0.8c-0.4,0.2-0.9,0.4-1.4,0.5c-0.5,0.1-1,0.2-1.4,0.2c-0.8,0-1.6-0.2-2.3-0.5c-0.7-0.3-1.3-0.8-1.8-1.3
		c-0.5-0.6-0.9-1.2-1.2-1.9C199.7,244.4,199.5,243.7,199.5,243z"/>
	<path fill="#FFFFFF" d="M223.9,246.6c-0.7,0-1.3-0.1-1.8-0.4c-0.6-0.3-1-0.6-1.4-1c-0.4-0.4-0.7-0.9-0.9-1.5
		c-0.2-0.6-0.3-1.1-0.3-1.7c0-0.6,0.1-1.2,0.3-1.7c0.2-0.6,0.5-1,0.9-1.5c0.4-0.4,0.9-0.8,1.4-1c0.6-0.3,1.2-0.4,1.8-0.4
		c0.7,0,1.3,0.1,1.8,0.4c0.6,0.3,1,0.6,1.4,1.1c0.4,0.4,0.7,0.9,0.9,1.5c0.2,0.6,0.3,1.1,0.3,1.7c0,0.6-0.1,1.2-0.3,1.7
		c-0.2,0.6-0.5,1-0.9,1.5c-0.4,0.4-0.9,0.8-1.4,1C225.2,246.5,224.6,246.6,223.9,246.6z M221.6,242c0,0.4,0.1,0.7,0.2,1
		c0.1,0.3,0.3,0.6,0.5,0.9c0.2,0.3,0.5,0.5,0.8,0.6c0.3,0.2,0.6,0.2,1,0.2c0.4,0,0.8-0.1,1.1-0.2c0.3-0.2,0.5-0.4,0.7-0.6
		c0.2-0.3,0.3-0.6,0.4-0.9c0.1-0.3,0.1-0.7,0.1-1c0-0.4-0.1-0.7-0.2-1c-0.1-0.3-0.3-0.6-0.5-0.9c-0.2-0.3-0.5-0.5-0.8-0.6
		c-0.3-0.1-0.6-0.2-1-0.2c-0.4,0-0.8,0.1-1,0.2c-0.3,0.2-0.5,0.4-0.7,0.6c-0.2,0.3-0.4,0.5-0.4,0.9
		C221.6,241.3,221.6,241.6,221.6,242z"/>
	<path fill="#FFFFFF" d="M219.9,248.8v-1.5h8.2v1.5H219.9z"/>
</g>
<path fill="#FFFFFF" d="M233.2,55.1H225h-10.6V37.3V36c0-4.6-3.8-8.4-8.4-8.4h-13.2h-6h-16.9h-3.3h-17.1v16.9h20.5v10.6h-25.4v-9.3
	h0V19.6h0v-2.6h2.6h22.9v5.6h16.9v-14c0-4.7-3.8-8.6-8.6-8.6h-8.4h-22.9h-2.6h-22.9v16.9h5.9v10.6h-22.7c-4.8,0-8.8,3.9-8.8,8.8v8.2
	h4.6V50h16.9v-5.5h10v10.6h-7.8h-2.1h-16.9h-7.2H67.8V72h4.7v25.4h-4.7v16.9h27.9V97.5h-6.2V72h11.2v25.4h0v16.9h0v11h-4.6v8.2
	c0,4.8,3.9,8.8,8.8,8.8h22.7v10.1v0.1h-5.9v16.9h5.9h16.9h2.6h22.9h8.4c4.7,0,8.6-3.8,8.6-8.6v-18.6h19.2c4.6,0,8.4-3.8,8.4-8.4
	v-0.1v-8.2v-0.3v-11H225h8.1c4.9,0,8.8-3.9,8.8-8.8v-8.1V72v-8.1C242,59,238,55.1,233.2,55.1z M127.6,125.4h-10v-11h10V125.4z
	 M127.6,97.5h-10V72h10V97.5z M169.9,146.8L169.9,146.8l0,5.8h-22.9h-2.6v-0.1v-10.1h20.4v-16.9h-20.4v-11h25.4v6.2h0V146.8z
	 M197.5,125.4L197.5,125.4l-10.6,0v-11h10.6V125.4z M225,97.5h-10.6v-5.7h-16.9v5.7h-4.7v0h-26.2v0h-22.1V72h25.4v20.4h16.9V77.6V72
	V55.1v-3.7v-6.9h10.6v10.6h-5.6V72h5.6v5.8h16.9V72H225V97.5z"/>
</svg>