<!-- Generator: Adobe Illustrator 17.1.0, SVG Export Plug-In  -->
<svg version="1.1"
	 xmlns="http://www.w3.org/2000/svg" xmlns:xlink="http://www.w3.org/1999/xlink" xmlns:a="http://ns.adobe.com/AdobeSVGViewerExtensions/3.0/"
	 x="0px" y="0px" width="353.7px" height="125.4px" viewBox="0 0 353.7 125.4" enable-background="new 0 0 353.7 125.4"
	 xml:space="preserve">
<defs>
</defs>
<path fill="#FFFFFF" d="M31,13c0,0-1.5-7.3-11.7-7.3C8.1,5.7,1.4,14.5,0.1,39.5C-0.1,44.3,0,65.6,0,69.9C0,80,0,99.3,0,99.3
	s-0.3,26.1,18.9,26.1c16.9,0,19.5-11.4,21-17.2c0.7-2.7,1.2-5.4,1.3-8.6c0.3-7.5,2.6-20.4-9.5-19.6c0,0-7.3-4.1-12.6,0.9
	c-0.3,0.3-0.2,0.9,0.2,1c2.2,0.8,7.4,3.7,7.4,14.6c0,13.7,0.4,19.3-5.7,19.3c-9.6,0-6.1-46.8-6.1-46.8s0-24.5,0-29.4
	c0-9.5,1.5-23.8,6.1-23.8c0,0,4-0.4,2,5.8c-1.9,6-5,19,10.6,19.5c0.5,0,0.8-0.5,0.6-0.9c-0.4-0.7-0.8-1.7-0.6-2.4c0,0,4.2,1,6.3-0.7
	c0.2-0.2,0.3-0.5,0.1-0.7c-0.9-1.6-4.2-8.2-0.7-15C43.3,13.5,50.8,0.4,36.9,0c-0.4,0-0.7,0.3-0.6,0.7C36.6,2.6,37,8.3,31,13z"/>
<path fill="#FFFFFF" d="M129.4,70.2c0,0,0,21.5,0,28.5c0,4.5-2.7,9-4.7,10.6c-0.5,0.4-0.2,1.1,0.4,1.1c5.6-0.4,16.5-1.4,20.8-1.6
	c0.5,0,0.8-0.7,0.4-1c-3.1-2.7-4.4-9.6-4.4-9.6s0-22.5,0-26.5c0-1.8,0.2-32.7,0.2-39.8c0-5.4,3.5-7.3,4.9-9c0.3-0.4,0.1-0.9-0.4-1
	l-21.3,0.4c-0.6,0-1.2,0.8-0.7,1.2c2.5,2.1,4,5.4,4.5,8c0.1,0.7,0.2,1.5,0.2,2.2v17.9V70.2z"/>
<path fill="#FFFFFF" d="M263.9,111.6c0,0.3,0.2,0.6,0.5,0.6l15.1,1.9c0.6,0.1,1-0.6,0.6-1.1c-1.1-1.4-1.9-3.7-2.5-5.6
	c-0.7-2.2-1-6.7-1-9V63.1c0,0,4.8,22.5,9,39.1c4.9,19.1,31.6,17.2,39,19c5.9,1.4,10.7,3,12.4,3.9c0.4,0.2,0.8,0,0.9-0.4
	c0.6-4.2-2.9-8.8-2.9-8.8c-1.3-1-2.3-2.7-3-4.6c-1.2-3-1.7-6.2-1.7-9.5l-0.5-76.2c17.6,3.4,22.4-10.3,23.8-17.3
	c0.1-0.6-0.7-0.9-1.1-0.4c-3.1,4.4-12.4,10.2-39.3-0.5C284.3-4.1,270.8,2.2,266,5.9c-0.5,0.4-0.1,1.2,0.6,1
	c17.2-6.4,22,1.1,48.8,13.2c0,2,0,84.8,0,84.8s-0.5,8.5-4.6,8.1c-6.1-0.6-4.5-8.5-4.5-8.5s0-19.1,0-22c0-1.3,0.1-37.3,0.1-40.8
	c0-5.3,2.4-11.5,3.3-12.8c0.3-0.4,0.1-0.9-0.4-1l-17.6-1.8c-0.6-0.1-0.9,0.5-0.6,1c2.7,3.2,2.4,14.1,2.4,14.1v53
	c0,0-6-29.5-10.7-52.8c-3.7-18.6-19.8-18.2-26.2-16.8c-0.6,0.1-0.6,1,0,1.1c7.9,2,7,10.2,7,10.2L263.9,111.6z"/>
<path fill="#FFFFFF" d="M254.1,86.6l-5.6-32c-0.9-5.4-3.5-16.4-3.2-19.3c0.3-2.9,3.2-9.9,4.4-11.5c0.3-0.4,0.1-0.9-0.4-1l-16.8-0.5
	c-0.5-0.1-0.9,0.6-0.5,1c3.6,4.1,2.2,9.2,2.2,9.2l-6.3,36c-9-10.3-3.4-19.7-1.2-22.4c0.4-0.5,0.1-1.4-0.5-1.4
	c-3.3-0.2-13.1,1.7-13.1,12.1c0,14.8,13.5,19.8,13.5,19.8s-3.1,19.7-4.4,24.4c-0.9,3.5-4.5,4.8-6,6.4c-0.3,0.4-0.1,0.9,0.4,1
	l12.5,0.8c0.6,0.1,1-0.5,0.7-1c-0.4-0.8-0.7-1.8-1-2.8c-0.4-1.5-0.4-3.1-0.1-4.7l3.4-19.1c5.9,3.3,11.3,15.5,12.1,22
	c0.5,4.6-0.5,4.4-1.5,5.7c-0.3,0.4-0.1,0.9,0.4,1l14.4,1.4c0.4,0,0.7-0.3,0.6-0.7L254.1,86.6z M233.4,73.3l2.5-13.1
	c1.5,4.4,3.4,17.3,3.4,17.3L233.4,73.3z"/>
<path fill="#FFFFFF" d="M62.3,116.1c-0.5-0.7-0.9-1.6-1.2-2.5c-0.9-2.5-1.7-6.2-1.7-8.8V77.7c0,0,8.5-4.1,9.2,18.6
	c0,0-0.2,20.9,39.9,15.5c1.3-0.2,3.1-0.9,4.3-1.4c4.5-2,9.3-5.6,9.3-15.4c0-17.1,0-23.5,0-23.5L122,52.2V41.4
	c0,0,1.2-17.8-16.5-17.8c-17.7,0-18.1,15.8-18.1,15.8s0,4.6,0,15c0,4.1,0,16.8,0,16.8s0,6.4,0,21.1c0,9.2,4.1,13.3,4.1,13.3
	c-12.8,0-10.1-20.4-10.1-20.4c0-17.1-14.2-15.4-14.2-15.4c16.2-5.1,14.2-22.5,14.2-22.5C79.8,21.7,50.2,27.7,42.2,29
	c-0.4,0.1-0.5,0.7-0.2,0.9c4,1.4,4.8,9.7,4.8,9.7V78c0,0,0,21.1,0,29.1c0,5.4-3.7,10.9-6,13.1c-0.4,0.4,0,1.1,0.5,1l20.2-3.5
	C62.3,117.6,62.7,116.7,62.3,116.1z M59.4,66.2V33.1c0,0,9.2-2,9.2,14.5S59.4,66.2,59.4,66.2z M104.2,103.6c-4.3,0-4.1-7.7-4.1-7.7
	V72.5c0,0,0-12.4,0-13.9V38.9c0,0,0.2-6.2,4.5-6.2s4.7,6,4.7,6s0,31.1,0,33.6c0,5.7,0,23.6,0,23.6S110,103.6,104.2,103.6z"/>
<path fill="#FFFFFF" d="M204.1,57.1c3.5-1.7,3.7-5.8,3.7-7.4c0-0.4,0.2-1.9-0.2-1.8C193.1,53,183,24.1,194.4,23.2
	c3.1-0.2,4.6,2.4,4.8,4.1c0.6,4.8-4.1,6.9-4.1,6.9c3.2,4.8,8.8,1,8.8,1c-1,2.1-2.6,3.2-3.4,3.8c-0.3,0.2-0.4,0.7-0.1,1
	c3.9,3.8,14.3,2,14.3-7.4c0-7.9-5.6-17.2-16.4-19.2c-10.8-2-17.6,6.1-17.6,6.1c-4.9-4.5-11.1-4.4-11.1-4.4c-10,0-15.9,9.1-15.9,15.2
	c0,7.6,4,11.6,4,11.6c-4.7-1.5-6.2,2.7-7,4.4c-0.2,0.4,0.1,0.7,0.4,0.8c31.9,5.3,30,29.2,28.1,38c-1.2,5.4-4.4,7.9-7.7,8.9
	c-4.2,1.3-8.9-2-8.9-6.5c0-4.8,4-7.4,6.9-7.4c1.7,0,2.9,0.5,3.5,0.9c0.3,0.2,0.7,0.1,0.9-0.2c2.3-4.5-0.4-14.3-7.2-14.3
	c-7.1,0-9.4,4.9-9.4,4.9c-11.5-1.6-11.6,10.4-11.6,10.4c0,25.8,25.9,33.2,38.4,33.2c13.3,0,27.4-5.6,31.3-26.9
	C219.1,69.7,204.1,57.1,204.1,57.1z M164.9,100.3c0,0,2.3,2.1,6.8,2.6c9.3,1,22-5.3,22.8-24.3c1-22.5-27.8-37.8-27.8-48.3
	c0-2.6,1.9-4.6,4.7-4.6c0,0,5.9-0.3,4.9,8.1c-1.2,9.9,22.2,24.9,23.5,47.6C201.5,111,172.8,113.3,164.9,100.3z"/>
</svg>