<!-- Generator: Adobe Illustrator 17.1.0, SVG Export Plug-In  -->
<svg version="1.1"
	 xmlns="http://www.w3.org/2000/svg" xmlns:xlink="http://www.w3.org/1999/xlink" xmlns:a="http://ns.adobe.com/AdobeSVGViewerExtensions/3.0/"
	 x="0px" y="0px" width="121.6px" height="129.4px" viewBox="0 0 121.6 129.4" enable-background="new 0 0 121.6 129.4"
	 xml:space="preserve">
<defs>
</defs>
<g>
	<path d="M52.5,63.3c0-12.8,7.3-23.9,17.9-29.3c1.1-0.5,0.9-2.1-0.2-2.4c-3.3-0.9-6.9-1.3-10.6-1.1c-16.3,0.9-29.6,14-30.8,30.3
		c-1.4,19.3,13.8,35.4,32.8,35.4c3,0,5.9-0.4,8.6-1.1c1.1-0.3,1.3-1.9,0.2-2.4C59.8,87.1,52.5,76.1,52.5,63.3z"/>
	<path d="M63.4,73c0,0.7,0.6,1.3,1.3,1.3h1.5c0,0,10.4-0.2,10.4,8.9v7c0,1,1.1,1.6,1.9,1.2c4.1-2.2,13.4-8.7,15.5-23.3
		c0.1-0.8-0.5-1.5-1.3-1.5h-28c-0.7,0-1.3,0.6-1.3,1.3V73z"/>
	<path d="M73.3,44.7c-7.5,5.6-4.1,17.9,5.3,18.4c0.2,0,0.5,0,0.7,0c0.3,0,0.5,0,0.8,0c9.1-0.6,13.8-11.1,8.5-18.5
		C86.8,42,84,38.8,79.8,36c-1-0.7-2.3,0.3-2,1.5c0.5,1.9,0.3,4-2.1,5.6C74.9,43.6,74,44.2,73.3,44.7z"/>
</g>
<g>
	<g>
		<path d="M5.4,38.3c-0.4,0.1-0.8,0.2-1.2,0.5c-0.3,0.3-0.6,0.6-0.8,1c-0.1,0.4-0.2,0.7-0.2,1.1c0,0.4,0.1,0.7,0.3,1
			c0.2,0.3,0.4,0.6,0.7,0.9c0.3,0.3,0.6,0.5,1,0.6c0.4,0.2,0.9,0.3,1.3,0.3s0.7-0.1,1.1-0.2c0.3-0.1,0.6-0.3,0.9-0.5
			c0.3-0.2,0.5-0.5,0.6-0.9c0.2-0.5,0.3-1,0.2-1.4c-0.1-0.5-0.4-0.9-0.8-1.4l0.7-0.7c0.3,0.3,0.5,0.6,0.7,1c0.2,0.4,0.3,0.9,0.3,1.4
			c0,0.5-0.1,1-0.3,1.5c-0.2,0.5-0.5,0.9-0.8,1.2c-0.3,0.3-0.8,0.6-1.2,0.8c-0.5,0.2-1,0.3-1.5,0.2c-0.5,0-1-0.1-1.5-0.3
			c-0.5-0.2-1-0.5-1.3-0.8c-0.4-0.3-0.7-0.7-0.9-1.2c-0.2-0.4-0.3-0.9-0.4-1.4c0-0.5,0.1-1,0.3-1.5C2.8,39,3,38.7,3.2,38.4
			c0.2-0.3,0.5-0.5,0.8-0.6c0.3-0.2,0.5-0.3,0.8-0.3L5,36.9l0.8,0.3L5.4,38.3z"/>
		<path d="M5.8,32.9l1.3-2.1l0.7,0.5l-0.4,0.7l3,1.9c0.4,0.2,0.7,0.4,1,0.5c0.3,0.1,0.6,0.1,0.8,0c0.3,0,0.5-0.1,0.7-0.3
			c0.2-0.2,0.4-0.3,0.5-0.6c0.2-0.2,0.3-0.5,0.3-0.7c0.1-0.2,0.1-0.5,0-0.7c-0.1-0.2-0.2-0.5-0.4-0.7c-0.2-0.2-0.5-0.5-0.9-0.7
			l-3-1.9L9,29.3l-0.7-0.5l1.3-2.1l0.7,0.5L10,27.8l2.9,1.8c0.5,0.3,0.8,0.6,1.1,1c0.3,0.4,0.5,0.7,0.6,1.1c0.1,0.4,0.1,0.8,0.1,1.1
			c-0.1,0.4-0.2,0.8-0.4,1.1c-0.2,0.3-0.5,0.6-0.8,0.8c-0.3,0.2-0.7,0.4-1,0.4s-0.8,0.1-1.2,0c-0.4-0.1-0.9-0.3-1.3-0.6l-3-1.9
			l-0.4,0.6L5.8,32.9z"/>
		<path d="M17.3,28c-0.2,0-0.4-0.1-0.6-0.2l-0.2,0.3l-0.7-0.6l0.8-1c0.3,0.2,0.5,0.4,0.7,0.4s0.3,0,0.5,0c0.2,0,0.3-0.1,0.5-0.2
			c0.2-0.1,0.3-0.3,0.5-0.4c0.1-0.2,0.3-0.3,0.3-0.5c0.1-0.2,0.1-0.3,0.1-0.5c0-0.2,0-0.3-0.1-0.5c-0.1-0.1-0.2-0.3-0.3-0.4
			c-0.2-0.1-0.3-0.2-0.5-0.2c-0.2,0-0.3,0-0.5,0c-0.2,0-0.3,0.1-0.5,0.2c-0.2,0.1-0.3,0.2-0.4,0.2l-1,0.6c-0.2,0.1-0.4,0.2-0.6,0.3
			c-0.2,0.1-0.4,0.1-0.7,0.1c-0.2,0-0.4,0-0.7-0.1c-0.2-0.1-0.4-0.2-0.7-0.4c-0.2-0.2-0.4-0.4-0.5-0.7c-0.1-0.3-0.2-0.5-0.2-0.8
			c0-0.3,0.1-0.6,0.2-0.9c0.1-0.3,0.3-0.6,0.6-0.9c0.2-0.2,0.4-0.4,0.6-0.5c0.2-0.1,0.4-0.2,0.6-0.3c0.2-0.1,0.4-0.1,0.6-0.1
			c0.2,0,0.4,0,0.6,0.1l0.2-0.3l0.7,0.6L16,22.2c-0.2-0.2-0.4-0.3-0.6-0.3c-0.2,0-0.3,0-0.5,0c-0.1,0-0.3,0.1-0.4,0.2
			c-0.1,0.1-0.2,0.2-0.4,0.3c-0.2,0.2-0.3,0.4-0.4,0.6c-0.1,0.2-0.1,0.4-0.1,0.5c0,0.2,0,0.3,0.1,0.4c0.1,0.1,0.1,0.3,0.3,0.3
			c0.2,0.1,0.3,0.2,0.5,0.3c0.2,0,0.3,0,0.4,0c0.1,0,0.3-0.1,0.4-0.2c0.1-0.1,0.3-0.2,0.4-0.2l0.9-0.6c0.3-0.2,0.5-0.3,0.8-0.4
			c0.2-0.1,0.5-0.1,0.7-0.2c0.2,0,0.5,0,0.7,0.1c0.2,0.1,0.4,0.2,0.7,0.4c0.2,0.2,0.4,0.4,0.5,0.7c0.1,0.3,0.2,0.6,0.2,0.9
			c0,0.3-0.1,0.6-0.2,0.9c-0.1,0.3-0.3,0.6-0.6,0.9c-0.3,0.3-0.5,0.5-0.8,0.7c-0.2,0.2-0.5,0.3-0.7,0.3C17.7,28,17.5,28,17.3,28"/>
		<path d="M23.6,21.2l0.5-0.5l-3.9-4.5L19,17.4l0.8,0.9L18.9,19l-1.3-1.5l5.2-4.4l1.3,1.5l-0.8,0.7l-0.8-0.9L21,15.6l3.9,4.5
			l0.6-0.5l0.6,0.7l-1.9,1.6L23.6,21.2z"/>
		<path d="M32.9,15.7c-0.5,0.3-0.9,0.4-1.4,0.5c-0.5,0.1-1,0-1.4-0.1c-0.5-0.1-0.9-0.4-1.3-0.7c-0.4-0.3-0.8-0.7-1-1.2
			c-0.3-0.5-0.5-1-0.6-1.5c-0.1-0.5-0.1-1,0-1.5c0.1-0.5,0.3-0.9,0.6-1.3c0.3-0.4,0.6-0.8,1.1-1c0.5-0.3,0.9-0.4,1.4-0.5
			c0.5-0.1,1,0,1.4,0.1s0.9,0.4,1.3,0.7s0.7,0.7,1,1.2c0.3,0.5,0.5,1,0.6,1.5c0.1,0.5,0.1,1,0,1.5c-0.1,0.5-0.3,0.9-0.6,1.3
			C33.8,15,33.4,15.4,32.9,15.7z M32.4,14.9c0.3-0.2,0.6-0.5,0.8-0.8c0.2-0.3,0.3-0.6,0.4-1c0.1-0.4,0-0.7,0-1.1
			c-0.1-0.4-0.2-0.7-0.4-1.1c-0.2-0.4-0.5-0.7-0.8-0.9c-0.3-0.3-0.6-0.4-1-0.6c-0.3-0.1-0.7-0.1-1.1-0.1c-0.4,0-0.7,0.2-1,0.3
			c-0.3,0.2-0.6,0.5-0.8,0.8c-0.2,0.3-0.3,0.6-0.4,1c-0.1,0.4,0,0.7,0,1.1c0.1,0.4,0.2,0.7,0.4,1.1c0.2,0.4,0.5,0.7,0.8,1
			c0.3,0.2,0.6,0.4,0.9,0.5c0.3,0.1,0.7,0.1,1,0.1C31.8,15.2,32.1,15.1,32.4,14.9z"/>
		<path d="M38.2,11.5l0.7-0.2L37,5.8L36.3,6L36,5.1l2.3-0.8l4.5,5.4l0.1-7.1l2.2-0.8l0.3,0.9l-0.7,0.2l1.9,5.5l0.7-0.2l0.3,0.8
			L45.3,10L45,9.2l0.8-0.3l-1.9-5.6l-0.3,7.3l-0.8,0.3l-4.8-5.5l1.9,5.6l0.7-0.3l0.3,0.8l-2.3,0.8L38.2,11.5z"/>
		<path d="M54.4,0.3l2.5-0.2L56.9,1l-0.8,0.1L56.6,7l2.6-0.2c0.1,0,0.1,0,0.2,0c0.1,0,0.1-0.1,0.1-0.1c0,0,0.1-0.1,0.1-0.1
			c0-0.1,0-0.1,0-0.2l-0.1-1l1-0.1l0.2,2.3L54.9,8l-0.1-0.9l0.7-0.1l-0.4-5.9l-0.7,0.1L54.4,0.3z"/>
		<path d="M63.8,0l5.5,0.4l-0.2,2.2l-1-0.1l0.1-1.3L65.5,1l-0.2,2.4l2.3,0.2l-0.1,0.9l-2.3-0.2L65,6.9l2.7,0.2l0.1-1.3l1,0.1
			l-0.2,2.2l-5.5-0.4l0.1-0.9L64,6.8l0.5-5.9l-0.7-0.1L63.8,0z"/>
		<path d="M73.2,8l0.7,0.2l1.4-5.8L73.6,2l-0.3,1.2l-1-0.2l0.5-2l6.6,1.6l-0.5,2l-1-0.2l0.3-1.2l-2-0.5l-1.4,5.8l0.8,0.2l-0.2,0.8
			L73,8.9L73.2,8z"/>
		<path d="M82,10.7l0.6,0.3L85,5.4l-1.6-0.7l-0.5,1.1l-1-0.4l0.8-1.9L89,6.2l-0.8,1.9l-1-0.4l0.5-1.1l-1.9-0.8l-2.3,5.5l0.7,0.3
			L84,12.4l-2.3-1L82,10.7z"/>
		<path d="M92.5,8.1l4.7,2.9L96,12.8l-0.9-0.5l0.7-1.1l-2.3-1.4l-1.3,2.1l2,1.2l-0.5,0.7l-2-1.2l-1.4,2.2l2.3,1.4l0.7-1.1l0.9,0.5
			l-1.1,1.8l-4.7-2.9l0.5-0.7l0.6,0.4l3.1-5L92,8.8L92.5,8.1z"/>
		<path d="M100.4,13.4l2.4,2.1c0.3,0.2,0.5,0.5,0.6,0.7c0.2,0.3,0.3,0.5,0.3,0.8c0,0.3,0,0.5,0,0.8c-0.1,0.3-0.2,0.5-0.4,0.8
			c-0.1,0.1-0.3,0.3-0.4,0.4c-0.2,0.1-0.4,0.2-0.6,0.2c-0.2,0-0.4,0.1-0.6,0c-0.2,0-0.4-0.1-0.6-0.1c0,0.1,0.1,0.2,0.1,0.3
			c0,0.1,0,0.2,0,0.3c0,0.1,0,0.3-0.1,0.4c0,0.1-0.1,0.3-0.2,0.4l-0.8,1.5l0.5,0.4l-0.6,0.7l-1.1-1L100,20c0.2-0.4,0.3-0.7,0.2-1
			c0-0.3-0.2-0.6-0.5-0.8L99,17.6l-1.7,2l0.6,0.5l-0.6,0.7l-1.9-1.6l0.6-0.7l0.6,0.5l3.9-4.5L99.8,14L100.4,13.4z M101.1,15.1
			L99.5,17l1.1,1c0.1,0.1,0.3,0.2,0.4,0.3c0.2,0.1,0.3,0.1,0.5,0.1c0.2,0,0.3,0,0.5-0.1c0.1-0.1,0.3-0.2,0.4-0.3
			c0.2-0.3,0.4-0.6,0.3-0.9c0-0.3-0.2-0.6-0.6-1L101.1,15.1z"/>
		<path d="M107.9,20.3l1.6,1.8l-0.7,0.6l-0.5-0.5l-4.4,3.9l0.5,0.5l-0.6,0.6l-1.6-1.8l0.6-0.6l0.5,0.5l4.4-3.9l-0.5-0.5L107.9,20.3z
			"/>
		<path d="M114.9,29.5l1.4,2.1l-0.7,0.5l-0.4-0.5l-5.7,3.8l-0.7-1.1l3.3-6.5l-4.6,3l0.4,0.7l-0.7,0.5l-1.4-2.1l0.7-0.5l0.4,0.6
			l4.9-3.3l-0.4-0.6l0.7-0.5l1.1,1.7l-3.3,6.4l0.2-0.1l4.3-2.9l-0.5-0.7L114.9,29.5z"/>
		<path d="M113.4,43.6l1.4-0.6c-0.3,0-0.6-0.1-0.8-0.2c-0.3-0.1-0.5-0.2-0.7-0.4c-0.2-0.2-0.4-0.4-0.6-0.6c-0.2-0.2-0.3-0.5-0.4-0.7
			c-0.2-0.5-0.3-0.9-0.3-1.4c0-0.5,0.1-0.9,0.3-1.4c0.2-0.5,0.5-0.9,0.9-1.2c0.4-0.4,0.8-0.6,1.3-0.9c0.5-0.2,1-0.3,1.5-0.4
			c0.5,0,1,0,1.5,0.2c0.5,0.2,0.9,0.4,1.2,0.7c0.4,0.3,0.7,0.7,0.9,1.2c0.2,0.4,0.3,0.9,0.3,1.2c0,0.4,0,0.7-0.1,1
			c-0.1,0.3-0.2,0.6-0.3,0.8l0.2,0.5l-0.8,0.4l-0.4-1c0.3-0.4,0.4-0.8,0.5-1.2c0.1-0.4,0-0.9-0.2-1.3c-0.2-0.4-0.4-0.6-0.6-0.9
			c-0.3-0.2-0.6-0.4-0.9-0.5c-0.3-0.1-0.7-0.1-1.1-0.1c-0.4,0-0.8,0.1-1.1,0.3c-0.4,0.2-0.8,0.4-1.1,0.7c-0.3,0.3-0.5,0.6-0.6,0.9
			c-0.1,0.3-0.2,0.6-0.2,1c0,0.4,0.1,0.7,0.2,1.1c0.3,0.6,0.6,1,1.1,1.3c0.5,0.3,1,0.3,1.7,0.2l-0.8-2l0.8-0.3l1.3,3l-3.4,1.4
			L113.4,43.6z"/>
	</g>
	<g>
		<path d="M5.2,100l1.3-0.8c-0.3,0-0.6,0-0.8,0c-0.3-0.1-0.5-0.2-0.8-0.3c-0.2-0.1-0.4-0.3-0.6-0.5c-0.2-0.2-0.4-0.4-0.5-0.6
			c-0.3-0.4-0.4-0.9-0.5-1.3C3.2,96,3.2,95.5,3.3,95c0.1-0.5,0.4-0.9,0.7-1.3c0.3-0.4,0.7-0.8,1.2-1.1c0.5-0.3,0.9-0.5,1.5-0.6
			c0.5-0.1,1-0.1,1.5,0c0.5,0.1,0.9,0.3,1.3,0.5c0.4,0.3,0.8,0.6,1,1.1c0.3,0.4,0.4,0.8,0.5,1.2c0.1,0.4,0.1,0.7,0,1
			c0,0.3-0.1,0.6-0.2,0.8l0.3,0.4l-0.8,0.5l-0.6-0.9c0.2-0.4,0.3-0.8,0.3-1.2c0-0.4-0.1-0.8-0.4-1.2c-0.2-0.3-0.5-0.6-0.8-0.8
			c-0.3-0.2-0.6-0.3-1-0.4c-0.4,0-0.7,0-1.1,0.1s-0.7,0.2-1.1,0.4C5.4,93.7,5,94,4.8,94.3c-0.3,0.3-0.4,0.6-0.5,1
			c-0.1,0.3-0.1,0.6-0.1,1c0,0.4,0.2,0.7,0.4,1c0.3,0.5,0.8,0.9,1.2,1.1c0.5,0.2,1.1,0.2,1.7,0l-1.1-1.8l0.7-0.5l1.7,2.7l-3.1,1.9
			L5.2,100z"/>
		<path d="M14.8,100.1l2.1,2.4c0.2,0.3,0.4,0.5,0.5,0.8s0.2,0.5,0.2,0.8c0,0.3,0,0.5-0.2,0.8c-0.1,0.3-0.3,0.5-0.5,0.7
			c-0.1,0.1-0.3,0.2-0.5,0.3c-0.2,0.1-0.4,0.1-0.6,0.1c-0.2,0-0.4,0-0.6,0c-0.2,0-0.4-0.1-0.6-0.2c0,0.1,0,0.2,0.1,0.3
			c0,0.1,0,0.2,0,0.3c0,0.1-0.1,0.2-0.1,0.4c-0.1,0.1-0.1,0.3-0.2,0.4l-1,1.4l0.4,0.5l-0.7,0.6l-1-1.1l1.3-2c0.2-0.4,0.4-0.7,0.4-1
			c0-0.3-0.1-0.6-0.4-0.8l-0.7-0.7l-2,1.8l0.5,0.6l-0.6,0.6l-1.7-1.8l0.6-0.6l0.5,0.5l4.4-4l-0.5-0.5L14.8,100.1z M15.3,101.9
			l-1.8,1.6l1,1.1c0.1,0.1,0.3,0.3,0.4,0.3c0.1,0.1,0.3,0.1,0.4,0.2c0.2,0,0.3,0,0.5,0c0.2-0.1,0.3-0.1,0.5-0.3
			c0.3-0.3,0.4-0.5,0.4-0.9s-0.2-0.7-0.5-1L15.3,101.9z"/>
		<path d="M21,115.3l0.5,0.4l0.6-1.7l-2.3-1.8l-1.5,1l0.6,0.5l-0.5,0.7l-2-1.5l0.5-0.7l0.5,0.4l6.1-3.9l1.2,0.9l-2.3,6.8l0.6,0.5
			l-0.5,0.7l-2-1.5L21,115.3z M20.5,111.7l1.9,1.5l1.2-3.4L20.5,111.7z"/>
		<path d="M30,113.3l2.7,1.5c0.3,0.2,0.6,0.4,0.8,0.6c0.2,0.2,0.4,0.5,0.5,0.7c0.1,0.3,0.1,0.5,0.1,0.8c0,0.3-0.1,0.6-0.3,0.9
			c-0.1,0.2-0.3,0.4-0.5,0.6c-0.2,0.2-0.5,0.3-0.7,0.3c-0.3,0.1-0.6,0.1-0.9,0c-0.3,0-0.6-0.2-0.9-0.3l-1.2-0.7l-1.3,2.3l0.7,0.4
			l-0.4,0.8l-2.2-1.2l0.4-0.8l0.6,0.3l2.8-5.2l-0.6-0.3L30,113.3z M31.1,114.9L30,117l1.2,0.7c0.2,0.1,0.3,0.2,0.5,0.2
			c0.2,0,0.3,0,0.5,0c0.1,0,0.3-0.1,0.4-0.2c0.1-0.1,0.2-0.2,0.3-0.4c0.2-0.3,0.2-0.6,0.1-0.9c-0.1-0.3-0.4-0.6-0.8-0.8L31.1,114.9z
			"/>
		<path d="M43.1,119.1l2.4,0.8l-0.3,0.8l-0.7-0.2l-1.9,5.6l0.7,0.2l-0.3,0.8l-2.4-0.8l0.3-0.8l0.7,0.2l0.9-2.6l-4.2-1.4l-0.9,2.6
			l0.7,0.2l-0.3,0.8l-2.4-0.8l0.3-0.8l0.7,0.2l1.9-5.6l-0.7-0.2l0.3-0.8l2.4,0.8l-0.3,0.8l-0.7-0.2l-0.7,2.2l4.2,1.4l0.7-2.2
			l-0.7-0.2L43.1,119.1z"/>
		<path d="M49.4,120.6l2.4,0.4l-0.1,0.9l-0.7-0.1l-1,5.8l0.7,0.1l-0.1,0.9l-2.4-0.4l0.1-0.9l0.7,0.1l1-5.8l-0.7-0.1L49.4,120.6z"/>
		<path d="M61.3,123.7c-0.2-0.4-0.5-0.7-0.9-0.9c-0.4-0.2-0.8-0.3-1.2-0.4c-0.4,0-0.7,0.1-1.1,0.2c-0.3,0.2-0.6,0.4-0.8,0.6
			c-0.2,0.3-0.4,0.6-0.6,1c-0.1,0.4-0.2,0.7-0.2,1.1c0,0.5,0.1,0.9,0.2,1.3c0.1,0.4,0.3,0.7,0.5,0.9c0.2,0.2,0.5,0.5,0.8,0.6
			c0.3,0.2,0.7,0.3,1,0.3c0.5,0,1-0.1,1.4-0.4c0.4-0.2,0.7-0.7,1-1.2l0.9,0.4c-0.1,0.4-0.4,0.7-0.7,1c-0.3,0.3-0.7,0.6-1.2,0.8
			c-0.5,0.2-1,0.3-1.5,0.3c-0.5,0-1-0.1-1.4-0.3c-0.4-0.2-0.8-0.5-1.1-0.9c-0.3-0.4-0.6-0.8-0.8-1.3c-0.2-0.5-0.2-1-0.2-1.6
			c0-0.5,0.1-1.1,0.3-1.5c0.2-0.5,0.5-0.9,0.8-1.2c0.3-0.4,0.7-0.6,1.2-0.8c0.5-0.2,0.9-0.3,1.5-0.3c0.5,0,0.9,0.1,1.2,0.2
			c0.3,0.1,0.6,0.3,0.9,0.5c0.2,0.2,0.4,0.4,0.6,0.6l0.5,0l0,0.9L61.3,123.7z"/>
		<path d="M71,120.7l2.8-0.7c0.3-0.1,0.7-0.1,1-0.1c0.3,0,0.6,0.1,0.9,0.2s0.6,0.2,0.9,0.4c0.3,0.2,0.5,0.4,0.7,0.6
			c0.2,0.2,0.4,0.5,0.6,0.8s0.3,0.6,0.4,1c0.1,0.3,0.1,0.7,0.1,1c0,0.3-0.1,0.7-0.1,1c-0.1,0.3-0.2,0.6-0.4,0.9
			c-0.2,0.3-0.4,0.5-0.6,0.8s-0.5,0.4-0.8,0.6c-0.3,0.2-0.6,0.3-0.9,0.4l-2.8,0.7l-0.2-0.8l0.7-0.2l-1.4-5.8l-0.7,0.2L71,120.7z
			 M72.9,121.2l1.4,5.8l1.2-0.3c0.3-0.1,0.6-0.2,0.9-0.5c0.3-0.2,0.5-0.5,0.6-0.8c0.2-0.3,0.3-0.7,0.3-1c0-0.4,0-0.8-0.1-1.2
			c-0.1-0.4-0.3-0.8-0.5-1.1c-0.2-0.3-0.5-0.6-0.8-0.8c-0.3-0.2-0.6-0.3-0.9-0.4c-0.3-0.1-0.7-0.1-1,0L72.9,121.2z"/>
		<path d="M80.8,118l5.1-2.1l0.8,2l-1,0.4l-0.5-1.2l-2.5,1.1l1,2.3l2.1-0.9l0.3,0.8l-2.1,0.9l1,2.4l2.5-1.1l-0.5-1.2l1-0.4l0.8,2
			l-5.1,2.1l-0.3-0.8l0.7-0.3l-2.3-5.4l-0.7,0.3L80.8,118z"/>
		<path d="M93,113.4c-0.2-0.1-0.3-0.1-0.5-0.1c-0.2,0-0.3,0-0.5,0.1c-0.2,0-0.3,0.1-0.4,0.2c-0.2,0.1-0.4,0.3-0.5,0.4
			s-0.2,0.3-0.3,0.5c-0.1,0.2-0.1,0.3-0.1,0.5s0.1,0.3,0.1,0.4c0.1,0.2,0.2,0.3,0.4,0.4c0.1,0.1,0.3,0.1,0.4,0.1s0.3,0,0.4,0
			c0.1,0,0.3-0.1,0.4-0.1l1-0.3c0.3-0.1,0.6-0.1,0.9-0.1c0.3,0,0.5,0,0.7,0.1s0.4,0.2,0.6,0.3c0.2,0.1,0.4,0.3,0.5,0.6
			c0.2,0.3,0.3,0.6,0.3,0.8c0,0.3,0,0.6-0.1,0.9c-0.1,0.3-0.2,0.6-0.5,0.8c-0.2,0.3-0.5,0.5-0.8,0.7c-0.3,0.2-0.6,0.3-0.9,0.4
			c-0.3,0.1-0.5,0.1-0.8,0.1c-0.2,0-0.5-0.1-0.7-0.2c-0.2-0.1-0.4-0.2-0.5-0.4l-0.3,0.2l-0.5-0.7l1.1-0.7c0.2,0.3,0.4,0.5,0.5,0.6
			c0.1,0.1,0.3,0.1,0.5,0.2c0.2,0,0.4,0,0.6-0.1c0.2-0.1,0.4-0.1,0.6-0.3c0.2-0.1,0.4-0.3,0.5-0.4c0.1-0.1,0.2-0.3,0.3-0.4
			c0.1-0.2,0.1-0.3,0.1-0.5c0-0.2-0.1-0.3-0.2-0.5c-0.1-0.2-0.2-0.3-0.4-0.4s-0.3-0.1-0.5-0.1c-0.2,0-0.3,0-0.5,0
			c-0.2,0-0.3,0.1-0.5,0.1l-1.1,0.3c-0.2,0.1-0.5,0.1-0.7,0.1c-0.2,0-0.5,0-0.7-0.1c-0.2-0.1-0.4-0.2-0.6-0.3
			c-0.2-0.1-0.3-0.3-0.5-0.6c-0.2-0.2-0.2-0.5-0.3-0.8c0-0.3,0-0.6,0.1-0.8c0.1-0.3,0.2-0.6,0.5-0.8c0.2-0.3,0.5-0.5,0.9-0.7
			c0.2-0.1,0.5-0.2,0.7-0.3s0.5-0.1,0.7-0.1c0.2,0,0.4,0,0.6,0.1c0.2,0.1,0.4,0.2,0.6,0.3l0.3-0.2l0.5,0.7l-1.1,0.6
			C93.4,113.6,93.2,113.5,93,113.4z"/>
		<path d="M96.4,109.3l1.9-1.5l0.6,0.7l-0.6,0.5l3.7,4.6l0.6-0.5l0.5,0.7l-1.9,1.5l-0.5-0.7l0.6-0.5l-3.7-4.6l-0.6,0.5L96.4,109.3z"
			/>
		<path d="M111,105.9l-1.1-1c0.1,0.3,0.2,0.5,0.2,0.8c0,0.3,0,0.5-0.1,0.8c-0.1,0.3-0.2,0.5-0.3,0.8c-0.1,0.2-0.3,0.5-0.5,0.7
			c-0.3,0.4-0.7,0.7-1.1,0.9c-0.4,0.2-0.9,0.3-1.4,0.3c-0.5,0-1-0.1-1.5-0.3c-0.5-0.2-0.9-0.5-1.3-0.9c-0.4-0.4-0.7-0.8-1-1.2
			s-0.4-0.9-0.4-1.4c0-0.5,0-1,0.2-1.4s0.4-0.9,0.8-1.3c0.3-0.4,0.7-0.6,1-0.8c0.3-0.2,0.7-0.3,1-0.3s0.6-0.1,0.8-0.1l0.3-0.4
			l0.7,0.6l-0.7,0.8c-0.4-0.1-0.9-0.1-1.3,0.1c-0.4,0.1-0.8,0.4-1.1,0.7c-0.3,0.3-0.4,0.6-0.5,1c-0.1,0.4-0.1,0.7-0.1,1.1
			c0.1,0.4,0.2,0.7,0.4,1c0.2,0.3,0.4,0.6,0.7,0.9c0.3,0.3,0.7,0.5,1.1,0.7c0.4,0.2,0.7,0.2,1.1,0.2c0.3,0,0.7-0.1,1-0.2
			c0.3-0.1,0.6-0.3,0.9-0.6c0.4-0.5,0.7-1,0.7-1.5c0-0.5-0.1-1.1-0.5-1.6l-1.4,1.6l-0.6-0.6l2.2-2.4l2.7,2.5L111,105.9z"/>
		<path d="M111,92.6l1.3-2.1L113,91l-0.3,0.6l5.8,3.6l-0.7,1.1l-7.3-0.3l4.7,2.9l0.4-0.7l0.7,0.5l-1.3,2.1l-0.7-0.5l0.4-0.6l-5-3.1
			l-0.4,0.6l-0.8-0.5l1.1-1.8l7.2,0.3l-0.2-0.2l-4.4-2.7l-0.5,0.7L111,92.6z"/>
	</g>
	<g>
		<path d="M119.2,62.8h2.5v0.9h-0.6l-2.1,2.9l2.2,3h0.5v0.9h-2.5v-0.9h0.9l-1.6-2.3l-1.6,2.3h0.9v0.9h-2.5v-0.9h0.5l2.2-3l-2.1-2.9
			h-0.6v-0.9h2.5v0.9H117l1.5,2.1l1.5-2.1h-0.8V62.8z"/>
	</g>
	<g>
		<path d="M3.9,62.8h2.5v0.9H5.9l-2.1,2.9l2.2,3h0.5v0.9H3.9v-0.9h0.9l-1.6-2.3l-1.6,2.3h0.9v0.9H0v-0.9h0.5l2.2-3l-2.1-2.9H0v-0.9
			h2.5v0.9H1.7l1.5,2.1l1.5-2.1H3.9V62.8z"/>
	</g>
</g>
</svg>