<!-- Generator: Adobe Illustrator 17.1.0, SVG Export Plug-In  -->
<svg version="1.1"
	 xmlns="http://www.w3.org/2000/svg" xmlns:xlink="http://www.w3.org/1999/xlink" xmlns:a="http://ns.adobe.com/AdobeSVGViewerExtensions/3.0/"
	 x="0px" y="0px" width="259.2px" height="89.2px" viewBox="0 0 259.2 89.2" enable-background="new 0 0 259.2 89.2"
	 xml:space="preserve">
<defs>
</defs>
<g>
	<path fill="#425661" d="M27.6,37.3c-0.6,0-1.1-0.1-1.6-0.4c-0.5-0.2-0.9-0.6-1.2-1c-0.3-0.4-0.6-0.9-0.8-1.4
		c-0.2-0.5-0.3-1.1-0.3-1.6c0-0.6,0.1-1.2,0.3-1.7c0.2-0.5,0.5-1,0.8-1.4c0.3-0.4,0.8-0.7,1.2-0.9c0.5-0.2,1-0.3,1.6-0.3
		c0.7,0,1.3,0.2,1.8,0.5c0.5,0.3,1,0.8,1.3,1.3v-1.7h1.3v8.3c0,0.6-0.1,1.1-0.3,1.6c-0.2,0.5-0.5,0.8-0.9,1.2
		c-0.4,0.3-0.8,0.6-1.4,0.7c-0.5,0.2-1.1,0.2-1.7,0.2c-1,0-1.7-0.2-2.3-0.5s-1.1-0.8-1.5-1.4l0.8-0.7c0.3,0.5,0.8,0.9,1.3,1.1
		c0.5,0.2,1.1,0.4,1.7,0.4c0.4,0,0.8-0.1,1.1-0.2c0.4-0.1,0.7-0.3,0.9-0.5c0.3-0.2,0.5-0.5,0.6-0.8c0.2-0.3,0.2-0.7,0.2-1.1v-1.5
		c-0.2,0.3-0.4,0.5-0.6,0.7c-0.2,0.2-0.5,0.4-0.7,0.5c-0.3,0.1-0.5,0.3-0.8,0.3C28.2,37.3,27.9,37.3,27.6,37.3z M28.1,36.1
		c0.3,0,0.6-0.1,0.9-0.2c0.3-0.1,0.5-0.3,0.8-0.4c0.2-0.2,0.4-0.4,0.6-0.6c0.2-0.2,0.3-0.5,0.3-0.7v-2.4c-0.1-0.3-0.3-0.6-0.5-0.8
		c-0.2-0.2-0.4-0.4-0.6-0.6c-0.2-0.2-0.5-0.3-0.8-0.4c-0.3-0.1-0.6-0.1-0.8-0.1c-0.4,0-0.8,0.1-1.2,0.3c-0.3,0.2-0.6,0.4-0.9,0.7
		c-0.2,0.3-0.4,0.6-0.6,1s-0.2,0.8-0.2,1.2c0,0.4,0.1,0.8,0.2,1.2c0.1,0.4,0.4,0.7,0.6,1c0.3,0.3,0.6,0.5,0.9,0.7
		C27.3,36,27.7,36.1,28.1,36.1z"/>
	<path fill="#425661" d="M34.4,40.2c-0.4,0-0.7-0.1-1.1-0.2c-0.3-0.1-0.6-0.3-0.9-0.5l0.7-1c0.2,0.1,0.3,0.2,0.5,0.3
		c0.2,0.1,0.4,0.1,0.6,0.1c0.2,0,0.3,0,0.5-0.1c0.2-0.1,0.3-0.2,0.4-0.3c0.1-0.1,0.2-0.3,0.3-0.4c0.1-0.2,0.1-0.4,0.1-0.5v-8.8H37
		v8.7c0,0.4-0.1,0.8-0.2,1.1c-0.1,0.3-0.3,0.6-0.6,0.9c-0.2,0.2-0.5,0.4-0.8,0.6C35.1,40.1,34.7,40.2,34.4,40.2z M35.6,27.2v-1.8H37
		v1.8H35.6z"/>
	<path fill="#425661" d="M42.7,37.4c-0.9,0-1.6-0.3-2-0.9C40.3,35.9,40,35,40,33.8v-5.1h1.4v4.8c0,1.7,0.6,2.6,1.8,2.6
		c0.6,0,1.1-0.2,1.6-0.6c0.5-0.4,0.9-0.9,1.1-1.5v-5.3h1.4v6.7c0,0.3,0.2,0.5,0.5,0.5v1.2c-0.2,0-0.3,0-0.4,0c-0.1,0-0.2,0-0.3,0
		c-0.3,0-0.5-0.1-0.7-0.3c-0.2-0.2-0.3-0.4-0.3-0.6l0-1c-0.4,0.6-0.9,1.1-1.5,1.5S43.4,37.4,42.7,37.4z"/>
	<path fill="#425661" d="M52.8,37.4c-0.4,0-0.8-0.1-1.1-0.2c-0.3-0.1-0.6-0.3-0.9-0.6c-0.3-0.2-0.5-0.5-0.6-0.8
		c-0.1-0.3-0.2-0.7-0.2-1c0-0.4,0.1-0.7,0.3-1.1c0.2-0.3,0.4-0.6,0.7-0.8c0.3-0.2,0.7-0.4,1.1-0.5c0.4-0.1,0.9-0.2,1.4-0.2
		c0.4,0,0.8,0,1.2,0.1c0.4,0.1,0.8,0.2,1.1,0.3v-0.7c0-0.7-0.2-1.2-0.6-1.6c-0.4-0.4-0.9-0.6-1.6-0.6c-0.8,0-1.7,0.3-2.7,1l-0.5-0.9
		c1.1-0.7,2.2-1.1,3.3-1.1c1.1,0,2,0.3,2.6,0.9c0.6,0.6,0.9,1.4,0.9,2.5v3.4c0,0.3,0.2,0.5,0.5,0.5v1.2c-0.2,0-0.3,0-0.4,0
		c-0.1,0-0.2,0-0.3,0c-0.3,0-0.5-0.1-0.7-0.3c-0.2-0.2-0.3-0.4-0.3-0.6l0-0.6c-0.4,0.5-0.9,0.9-1.4,1.2
		C54.1,37.2,53.4,37.4,52.8,37.4z M53.2,36.3c0.5,0,1-0.1,1.4-0.3c0.4-0.2,0.8-0.4,1-0.8c0.2-0.2,0.3-0.4,0.3-0.6v-1.2
		c-0.7-0.3-1.4-0.4-2.1-0.4c-0.7,0-1.3,0.2-1.7,0.5c-0.4,0.3-0.7,0.7-0.7,1.2c0,0.2,0,0.5,0.1,0.7c0.1,0.2,0.2,0.4,0.4,0.5
		c0.2,0.2,0.4,0.3,0.6,0.4C52.7,36.2,52.9,36.3,53.2,36.3z"/>
	<path fill="#425661" d="M64.8,30c-0.7,0-1.3,0.2-1.9,0.5c-0.5,0.3-0.9,0.8-1.2,1.4v5.2h-1.4v-8.4h1.3v2c0.3-0.6,0.7-1.1,1.1-1.4
		c0.5-0.4,1-0.6,1.5-0.6c0.1,0,0.2,0,0.3,0c0.1,0,0.1,0,0.2,0V30z"/>
	<path fill="#425661" d="M70.6,37.4c-0.6,0-1.2-0.1-1.7-0.3c-0.5-0.2-1-0.5-1.4-0.9c-0.4-0.4-0.7-0.9-0.9-1.4
		c-0.2-0.5-0.3-1.1-0.3-1.7c0-0.6,0.1-1.2,0.3-1.7c0.2-0.5,0.5-1,0.9-1.4c0.4-0.4,0.8-0.7,1.4-0.9c0.5-0.2,1.1-0.3,1.7-0.3
		c0.6,0,1.2,0.1,1.7,0.4c0.5,0.2,1,0.6,1.3,0.9c0.4,0.4,0.6,0.8,0.8,1.4c0.2,0.5,0.3,1.1,0.3,1.6c0,0.1,0,0.2,0,0.3
		c0,0.1,0,0.2,0,0.2h-7c0,0.4,0.1,0.8,0.3,1.1c0.2,0.3,0.4,0.6,0.6,0.9c0.3,0.2,0.6,0.4,0.9,0.6c0.3,0.1,0.7,0.2,1,0.2
		c0.3,0,0.5,0,0.8-0.1c0.2-0.1,0.5-0.2,0.7-0.3c0.2-0.1,0.4-0.3,0.6-0.4c0.2-0.2,0.3-0.4,0.4-0.6l1.2,0.3c-0.1,0.3-0.3,0.6-0.6,0.9
		c-0.2,0.3-0.5,0.5-0.8,0.7c-0.3,0.2-0.7,0.3-1.1,0.4C71.4,37.3,71,37.4,70.6,37.4z M73.5,32.4c0-0.4-0.1-0.8-0.3-1.1
		c-0.2-0.3-0.4-0.6-0.6-0.9c-0.3-0.2-0.5-0.4-0.9-0.6c-0.3-0.1-0.7-0.2-1.1-0.2s-0.7,0.1-1.1,0.2c-0.3,0.1-0.6,0.3-0.9,0.6
		c-0.3,0.2-0.5,0.5-0.6,0.9c-0.2,0.3-0.3,0.7-0.3,1.1H73.5z"/>
	<path fill="#425661" d="M76.4,36.3l5.4-6.5h-5.2v-1h6.8v0.9L78,36.2h5.4v1h-6.9V36.3z"/>
	<path fill="#425661" d="M98.6,37.2h-1.4v-4.7c0-0.9-0.1-1.5-0.4-2c-0.3-0.4-0.7-0.6-1.3-0.6c-0.6,0-1.1,0.2-1.6,0.6
		c-0.5,0.4-0.8,0.9-1,1.6v5.1h-1.4v-4.7c0-0.9-0.1-1.6-0.4-2c-0.3-0.4-0.7-0.6-1.3-0.6c-0.6,0-1.1,0.2-1.6,0.6
		c-0.5,0.4-0.8,0.9-1,1.6v5.1h-1.4v-8.4h1.3v1.8c0.3-0.6,0.8-1.1,1.3-1.4c0.5-0.3,1.2-0.5,1.9-0.5c0.7,0,1.3,0.2,1.7,0.6
		c0.4,0.4,0.7,0.9,0.8,1.5c0.8-1.4,1.8-2,3.2-2c0.5,0,0.9,0.1,1.2,0.3c0.3,0.2,0.6,0.4,0.8,0.7c0.2,0.3,0.3,0.7,0.4,1.1
		c0.1,0.4,0.1,0.9,0.1,1.4V37.2z"/>
	<path fill="#425661" d="M101.5,37.2v-1.8h1.2v1.8H101.5z"/>
	<path fill="#425661" d="M109.1,37.4c-0.6,0-1.1-0.1-1.6-0.4c-0.5-0.2-0.9-0.6-1.3-1c-0.4-0.4-0.6-0.9-0.8-1.4
		c-0.2-0.5-0.3-1.1-0.3-1.7c0-0.6,0.1-1.2,0.3-1.7c0.2-0.5,0.5-1,0.8-1.4c0.3-0.4,0.7-0.7,1.2-0.9c0.5-0.2,1-0.3,1.5-0.3
		c0.7,0,1.3,0.2,1.8,0.5c0.5,0.4,1,0.8,1.3,1.3v-5h1.4v10c0,0.3,0.1,0.5,0.5,0.5v1.2c-0.1,0-0.3,0-0.4,0c-0.1,0-0.2,0-0.3,0
		c-0.3,0-0.5-0.1-0.7-0.3c-0.2-0.2-0.3-0.4-0.3-0.7v-0.7c-0.3,0.6-0.8,1-1.3,1.3C110.3,37.2,109.8,37.4,109.1,37.4z M109.5,36.1
		c0.3,0,0.5,0,0.8-0.1c0.3-0.1,0.5-0.2,0.8-0.4c0.2-0.2,0.5-0.4,0.6-0.6c0.2-0.2,0.3-0.5,0.3-0.7v-2.4c-0.1-0.3-0.2-0.5-0.4-0.8
		c-0.2-0.2-0.4-0.5-0.7-0.6c-0.2-0.2-0.5-0.3-0.8-0.4c-0.3-0.1-0.5-0.2-0.8-0.2c-0.4,0-0.8,0.1-1.1,0.3c-0.3,0.2-0.6,0.4-0.9,0.7
		c-0.2,0.3-0.4,0.6-0.6,1c-0.1,0.4-0.2,0.8-0.2,1.2c0,0.4,0.1,0.8,0.2,1.2c0.2,0.4,0.4,0.7,0.6,1c0.3,0.3,0.6,0.5,0.9,0.7
		C108.7,36,109.1,36.1,109.5,36.1z"/>
	<path fill="#425661" d="M120.4,37.4c-0.6,0-1.2-0.1-1.7-0.3c-0.5-0.2-1-0.5-1.4-0.9c-0.4-0.4-0.7-0.9-0.9-1.4
		c-0.2-0.5-0.3-1.1-0.3-1.7c0-0.6,0.1-1.2,0.3-1.7c0.2-0.5,0.5-1,0.9-1.4c0.4-0.4,0.8-0.7,1.4-0.9c0.5-0.2,1.1-0.3,1.7-0.3
		c0.6,0,1.2,0.1,1.7,0.4c0.5,0.2,1,0.6,1.3,0.9c0.4,0.4,0.6,0.8,0.8,1.4s0.3,1.1,0.3,1.6c0,0.1,0,0.2,0,0.3c0,0.1,0,0.2,0,0.2h-7
		c0,0.4,0.1,0.8,0.3,1.1c0.2,0.3,0.4,0.6,0.6,0.9c0.3,0.2,0.6,0.4,0.9,0.6c0.3,0.1,0.7,0.2,1,0.2c0.3,0,0.5,0,0.8-0.1
		c0.2-0.1,0.5-0.2,0.7-0.3c0.2-0.1,0.4-0.3,0.6-0.4c0.2-0.2,0.3-0.4,0.4-0.6l1.2,0.3c-0.1,0.3-0.3,0.6-0.6,0.9
		c-0.2,0.3-0.5,0.5-0.8,0.7c-0.3,0.2-0.7,0.3-1.1,0.4C121.2,37.3,120.8,37.4,120.4,37.4z M123.2,32.4c0-0.4-0.1-0.8-0.3-1.1
		c-0.2-0.3-0.4-0.6-0.6-0.9c-0.3-0.2-0.5-0.4-0.9-0.6c-0.3-0.1-0.7-0.2-1.1-0.2s-0.7,0.1-1.1,0.2c-0.3,0.1-0.6,0.3-0.9,0.6
		c-0.3,0.2-0.5,0.5-0.6,0.9c-0.2,0.3-0.3,0.7-0.3,1.1H123.2z"/>
	<path fill="#425661" d="M129.9,37.4c-0.7,0-1.3-0.1-2-0.3c-0.7-0.2-1.2-0.5-1.7-0.9l0.6-1c0.5,0.4,1,0.7,1.5,0.8
		c0.5,0.2,1,0.3,1.6,0.3c0.6,0,1.1-0.1,1.5-0.4c0.4-0.2,0.5-0.6,0.5-1c0-0.2,0-0.4-0.1-0.5c-0.1-0.1-0.2-0.3-0.4-0.4
		c-0.2-0.1-0.4-0.2-0.7-0.3c-0.3-0.1-0.7-0.2-1.1-0.3c-0.5-0.1-0.9-0.3-1.3-0.4c-0.4-0.1-0.7-0.3-0.9-0.4c-0.2-0.2-0.4-0.4-0.5-0.6
		c-0.1-0.2-0.2-0.5-0.2-0.8c0-0.4,0.1-0.8,0.3-1.1c0.2-0.3,0.4-0.6,0.7-0.8c0.3-0.2,0.6-0.4,1-0.5c0.4-0.1,0.8-0.2,1.3-0.2
		c0.6,0,1.2,0.1,1.8,0.3c0.6,0.2,1,0.5,1.4,0.8l-0.6,0.9c-0.4-0.3-0.8-0.5-1.2-0.7c-0.4-0.2-0.9-0.2-1.4-0.2c-0.5,0-1,0.1-1.3,0.3
		c-0.4,0.2-0.5,0.6-0.5,1.1c0,0.2,0,0.4,0.1,0.5c0.1,0.1,0.2,0.2,0.3,0.3c0.2,0.1,0.4,0.2,0.6,0.3c0.3,0.1,0.6,0.2,0.9,0.2
		c0.6,0.1,1,0.3,1.5,0.4c0.4,0.1,0.8,0.3,1,0.5c0.3,0.2,0.5,0.4,0.6,0.6c0.1,0.2,0.2,0.5,0.2,0.9c0,0.8-0.3,1.4-0.9,1.9
		C131.8,37.1,131,37.4,129.9,37.4z"/>
	<path fill="#425661" d="M135.8,27.2v-1.8h1.4v1.8H135.8z M135.8,37.2v-8.4h1.4v8.4H135.8z"/>
	<path fill="#425661" d="M143.6,37.3c-0.6,0-1.1-0.1-1.6-0.4c-0.5-0.2-0.9-0.6-1.2-1c-0.3-0.4-0.6-0.9-0.8-1.4
		c-0.2-0.5-0.3-1.1-0.3-1.6c0-0.6,0.1-1.2,0.3-1.7c0.2-0.5,0.5-1,0.8-1.4c0.3-0.4,0.8-0.7,1.2-0.9c0.5-0.2,1-0.3,1.6-0.3
		c0.7,0,1.3,0.2,1.8,0.5c0.5,0.3,1,0.8,1.3,1.3v-1.7h1.3v8.3c0,0.6-0.1,1.1-0.3,1.6c-0.2,0.5-0.5,0.8-0.9,1.2
		c-0.4,0.3-0.8,0.6-1.4,0.7c-0.5,0.2-1.1,0.2-1.7,0.2c-1,0-1.7-0.2-2.3-0.5c-0.6-0.3-1.1-0.8-1.5-1.4l0.8-0.7
		c0.3,0.5,0.8,0.9,1.3,1.1c0.5,0.2,1.1,0.4,1.7,0.4c0.4,0,0.8-0.1,1.1-0.2c0.4-0.1,0.7-0.3,0.9-0.5c0.3-0.2,0.5-0.5,0.6-0.8
		c0.2-0.3,0.2-0.7,0.2-1.1v-1.5c-0.2,0.3-0.4,0.5-0.6,0.7c-0.2,0.2-0.5,0.4-0.7,0.5c-0.3,0.1-0.5,0.3-0.8,0.3
		C144.2,37.3,143.9,37.3,143.6,37.3z M144.1,36.1c0.3,0,0.6-0.1,0.9-0.2c0.3-0.1,0.5-0.3,0.8-0.4c0.2-0.2,0.4-0.4,0.6-0.6
		c0.2-0.2,0.3-0.5,0.3-0.7v-2.4c-0.1-0.3-0.3-0.6-0.5-0.8c-0.2-0.2-0.4-0.4-0.6-0.6c-0.2-0.2-0.5-0.3-0.8-0.4
		c-0.3-0.1-0.6-0.1-0.8-0.1c-0.4,0-0.8,0.1-1.2,0.3c-0.3,0.2-0.6,0.4-0.9,0.7c-0.2,0.3-0.4,0.6-0.6,1s-0.2,0.8-0.2,1.2
		c0,0.4,0.1,0.8,0.2,1.2c0.1,0.4,0.4,0.7,0.6,1c0.3,0.3,0.6,0.5,0.9,0.7C143.3,36,143.7,36.1,144.1,36.1z"/>
	<path fill="#425661" d="M158.5,37.2h-1.4v-4.7c0-0.9-0.1-1.6-0.4-2c-0.3-0.4-0.7-0.6-1.3-0.6c-0.3,0-0.6,0.1-0.9,0.2
		c-0.3,0.1-0.6,0.3-0.8,0.5c-0.3,0.2-0.5,0.4-0.7,0.7c-0.2,0.3-0.3,0.6-0.4,0.9v5.1h-1.4v-8.4h1.3v1.8c0.3-0.6,0.8-1.1,1.4-1.4
		c0.6-0.4,1.3-0.5,2.1-0.5c0.5,0,0.9,0.1,1.2,0.3c0.3,0.2,0.6,0.4,0.8,0.7c0.2,0.3,0.3,0.7,0.4,1.1c0.1,0.4,0.1,0.9,0.1,1.4V37.2z"
		/>
	<path fill="#425661" d="M167.2,27.5c0.8,0,1.5,0.1,2.3,0.4c0.7,0.3,1.4,0.7,1.9,1.2c0.6,0.5,1,1.2,1.3,1.9c0.3,0.8,0.5,1.6,0.5,2.6
		c0,0.1,0,0.4,0,0.6c0,0.3-0.1,0.5-0.1,0.8c-0.1,0.3-0.1,0.6-0.2,0.9c-0.1,0.3-0.3,0.6-0.4,0.8c-0.2,0.2-0.4,0.4-0.7,0.6
		c-0.3,0.1-0.6,0.2-1,0.2c-0.3,0-0.5,0-0.7-0.1c-0.2-0.1-0.3-0.2-0.5-0.3c-0.1-0.1-0.2-0.3-0.2-0.4c-0.1-0.2-0.1-0.3-0.1-0.5
		c-0.3,0.3-0.7,0.6-1.2,0.8c-0.5,0.2-1,0.3-1.5,0.3c-0.8,0-1.4-0.2-1.8-0.6c-0.4-0.4-0.6-1-0.6-1.6c0-0.4,0.1-0.8,0.3-1.1
		c0.2-0.3,0.4-0.5,0.7-0.7c0.3-0.2,0.6-0.3,1-0.4c0.4-0.1,0.7-0.1,1.1-0.1c0.4,0,0.8,0,1.1,0.1c0.3,0.1,0.5,0.2,0.7,0.2
		c0-0.3,0-0.6-0.1-0.8c-0.1-0.2-0.1-0.5-0.3-0.6c-0.1-0.2-0.3-0.3-0.6-0.4c-0.2-0.1-0.5-0.1-0.9-0.1c-0.4,0-0.8,0.1-1.2,0.2
		c-0.4,0.1-0.7,0.3-0.9,0.5l-0.4-1.1c0.8-0.5,1.7-0.8,2.8-0.8c0.7,0,1.2,0.1,1.6,0.3c0.4,0.2,0.7,0.5,0.9,0.8
		c0.2,0.3,0.3,0.7,0.3,1.1c0,0.4,0.1,0.8,0.1,1.1v1.6c0,0.2,0,0.5,0,0.7c0,0.2,0.1,0.4,0.1,0.6c0.1,0.2,0.1,0.3,0.2,0.4
		s0.3,0.2,0.5,0.2c0.3,0,0.5-0.1,0.7-0.3c0.2-0.2,0.3-0.5,0.4-0.8c0.1-0.3,0.2-0.6,0.2-1c0-0.3,0-0.6,0-0.8c0-0.8-0.1-1.5-0.4-2.1
		c-0.3-0.6-0.6-1.2-1.1-1.7c-0.5-0.5-1-0.8-1.6-1.1c-0.6-0.3-1.3-0.4-2.1-0.4c-0.8,0-1.5,0.1-2.1,0.4c-0.6,0.3-1.2,0.6-1.6,1.1
		c-0.5,0.5-0.8,1-1.1,1.6c-0.3,0.6-0.4,1.3-0.4,2.1c0,0.7,0.1,1.4,0.4,2c0.2,0.6,0.6,1.2,1,1.6c0.4,0.5,1,0.8,1.6,1.1
		c0.6,0.3,1.3,0.4,2.1,0.4c0.5,0,1-0.1,1.3-0.2c0.4-0.1,0.8-0.3,1.2-0.4l0.3,0.8c-0.5,0.2-0.9,0.4-1.4,0.5c-0.5,0.1-0.9,0.2-1.4,0.2
		c-0.8,0-1.6-0.1-2.3-0.4c-0.7-0.3-1.3-0.7-1.9-1.2c-0.5-0.5-1-1.2-1.3-1.9c-0.3-0.7-0.5-1.6-0.5-2.5c0-1,0.2-1.8,0.5-2.6
		c0.3-0.7,0.8-1.4,1.3-1.9c0.6-0.5,1.2-0.9,2-1.2C165.6,27.6,166.4,27.5,167.2,27.5z M168,35.8c0.3-0.1,0.5-0.3,0.6-0.5
		c0.1-0.2,0.2-0.4,0.2-0.7V34c-0.1-0.1-0.4-0.1-0.7-0.2c-0.3-0.1-0.7-0.1-1.1-0.1c-0.5,0-0.9,0.1-1.2,0.3c-0.3,0.2-0.5,0.5-0.5,1
		c0,0.4,0.1,0.7,0.3,0.9c0.2,0.2,0.6,0.3,1,0.3c0.2,0,0.5,0,0.7-0.1S167.8,35.9,168,35.8z"/>
	<path fill="#425661" d="M179.3,37.3c-0.6,0-1.1-0.1-1.6-0.4c-0.5-0.2-0.9-0.6-1.2-1c-0.3-0.4-0.6-0.9-0.8-1.4
		c-0.2-0.5-0.3-1.1-0.3-1.6c0-0.6,0.1-1.2,0.3-1.7c0.2-0.5,0.5-1,0.8-1.4c0.3-0.4,0.8-0.7,1.2-0.9c0.5-0.2,1-0.3,1.6-0.3
		c0.7,0,1.3,0.2,1.8,0.5c0.5,0.3,1,0.8,1.3,1.3v-1.7h1.3v8.3c0,0.6-0.1,1.1-0.3,1.6c-0.2,0.5-0.5,0.8-0.9,1.2
		c-0.4,0.3-0.8,0.6-1.4,0.7c-0.5,0.2-1.1,0.2-1.7,0.2c-1,0-1.7-0.2-2.3-0.5c-0.6-0.3-1.1-0.8-1.5-1.4l0.8-0.7
		c0.3,0.5,0.8,0.9,1.3,1.1c0.5,0.2,1.1,0.4,1.7,0.4c0.4,0,0.8-0.1,1.1-0.2c0.4-0.1,0.7-0.3,0.9-0.5c0.3-0.2,0.5-0.5,0.6-0.8
		c0.2-0.3,0.2-0.7,0.2-1.1v-1.5c-0.2,0.3-0.4,0.5-0.6,0.7s-0.5,0.4-0.7,0.5c-0.3,0.1-0.5,0.3-0.8,0.3
		C179.9,37.3,179.6,37.3,179.3,37.3z M179.7,36.1c0.3,0,0.6-0.1,0.9-0.2c0.3-0.1,0.5-0.3,0.8-0.4c0.2-0.2,0.4-0.4,0.6-0.6
		c0.2-0.2,0.3-0.5,0.3-0.7v-2.4c-0.1-0.3-0.3-0.6-0.5-0.8c-0.2-0.2-0.4-0.4-0.6-0.6c-0.2-0.2-0.5-0.3-0.8-0.4
		c-0.3-0.1-0.6-0.1-0.8-0.1c-0.4,0-0.8,0.1-1.2,0.3c-0.3,0.2-0.6,0.4-0.9,0.7c-0.2,0.3-0.4,0.6-0.6,1c-0.1,0.4-0.2,0.8-0.2,1.2
		c0,0.4,0.1,0.8,0.2,1.2c0.1,0.4,0.4,0.7,0.6,1c0.3,0.3,0.6,0.5,0.9,0.7C179,36,179.3,36.1,179.7,36.1z"/>
	<path fill="#425661" d="M199.5,37.2h-1.4v-4.7c0-0.9-0.1-1.5-0.4-2c-0.3-0.4-0.7-0.6-1.3-0.6c-0.6,0-1.1,0.2-1.6,0.6
		c-0.5,0.4-0.8,0.9-1,1.6v5.1h-1.4v-4.7c0-0.9-0.1-1.6-0.4-2c-0.3-0.4-0.7-0.6-1.3-0.6c-0.6,0-1.1,0.2-1.6,0.6
		c-0.5,0.4-0.8,0.9-1,1.6v5.1h-1.4v-8.4h1.3v1.8c0.3-0.6,0.8-1.1,1.3-1.4c0.5-0.3,1.2-0.5,1.9-0.5c0.7,0,1.3,0.2,1.7,0.6
		c0.4,0.4,0.7,0.9,0.8,1.5c0.8-1.4,1.8-2,3.2-2c0.5,0,0.9,0.1,1.2,0.3c0.3,0.2,0.6,0.4,0.8,0.7c0.2,0.3,0.3,0.7,0.4,1.1
		c0.1,0.4,0.1,0.9,0.1,1.4V37.2z"/>
	<path fill="#425661" d="M204.7,37.4c-0.4,0-0.8-0.1-1.1-0.2c-0.3-0.1-0.6-0.3-0.9-0.6c-0.3-0.2-0.5-0.5-0.6-0.8
		c-0.1-0.3-0.2-0.7-0.2-1c0-0.4,0.1-0.7,0.3-1.1c0.2-0.3,0.4-0.6,0.7-0.8c0.3-0.2,0.7-0.4,1.1-0.5c0.4-0.1,0.9-0.2,1.4-0.2
		c0.4,0,0.8,0,1.2,0.1c0.4,0.1,0.8,0.2,1.1,0.3v-0.7c0-0.7-0.2-1.2-0.6-1.6c-0.4-0.4-0.9-0.6-1.6-0.6c-0.8,0-1.7,0.3-2.7,1l-0.5-0.9
		c1.1-0.7,2.2-1.1,3.3-1.1c1.1,0,2,0.3,2.6,0.9c0.6,0.6,0.9,1.4,0.9,2.5v3.4c0,0.3,0.2,0.5,0.5,0.5v1.2c-0.2,0-0.3,0-0.4,0
		c-0.1,0-0.2,0-0.3,0c-0.3,0-0.5-0.1-0.7-0.3c-0.2-0.2-0.3-0.4-0.3-0.6l0-0.6c-0.4,0.5-0.9,0.9-1.4,1.2
		C206,37.2,205.4,37.4,204.7,37.4z M205.1,36.3c0.5,0,1-0.1,1.4-0.3c0.4-0.2,0.8-0.4,1-0.8c0.2-0.2,0.3-0.4,0.3-0.6v-1.2
		c-0.7-0.3-1.4-0.4-2.1-0.4c-0.7,0-1.3,0.2-1.7,0.5c-0.4,0.3-0.7,0.7-0.7,1.2c0,0.2,0,0.5,0.1,0.7c0.1,0.2,0.2,0.4,0.4,0.5
		c0.2,0.2,0.4,0.3,0.6,0.4C204.6,36.2,204.8,36.3,205.1,36.3z"/>
	<path fill="#425661" d="M212.3,27.2v-1.8h1.4v1.8H212.3z M212.3,37.2v-8.4h1.4v8.4H212.3z"/>
	<path fill="#425661" d="M216.9,25.4h1.4V35c0,0.3,0.1,0.6,0.2,0.7c0.2,0.2,0.4,0.3,0.7,0.3c0.1,0,0.3,0,0.4-0.1
		c0.2,0,0.3-0.1,0.5-0.1l0.2,1.1c-0.2,0.1-0.5,0.2-0.8,0.2c-0.3,0.1-0.6,0.1-0.9,0.1c-0.5,0-1-0.2-1.3-0.5c-0.3-0.3-0.5-0.7-0.5-1.3
		V25.4z"/>
	<path fill="#425661" d="M222.1,37.2v-1.8h1.2v1.8H222.1z"/>
	<path fill="#425661" d="M225.8,33c0-0.6,0.1-1.2,0.3-1.7c0.2-0.5,0.5-1,0.9-1.4c0.4-0.4,0.8-0.7,1.3-0.9s1.1-0.3,1.8-0.3
		c0.8,0,1.6,0.2,2.2,0.6c0.6,0.4,1.1,0.9,1.4,1.5l-1.4,0.4c-0.2-0.4-0.5-0.7-0.9-0.9s-0.8-0.3-1.3-0.3c-0.4,0-0.8,0.1-1.1,0.2
		c-0.3,0.2-0.6,0.4-0.9,0.7c-0.2,0.3-0.4,0.6-0.6,1c-0.1,0.4-0.2,0.8-0.2,1.2c0,0.4,0.1,0.9,0.2,1.2c0.1,0.4,0.4,0.7,0.6,1
		c0.3,0.3,0.5,0.5,0.9,0.7c0.3,0.2,0.7,0.2,1.1,0.2c0.2,0,0.5,0,0.7-0.1c0.2-0.1,0.5-0.2,0.7-0.3c0.2-0.1,0.4-0.3,0.5-0.4
		c0.1-0.2,0.3-0.3,0.3-0.5l1.4,0.4c-0.1,0.3-0.3,0.6-0.5,0.9s-0.5,0.5-0.8,0.7s-0.7,0.3-1,0.4c-0.4,0.1-0.8,0.2-1.2,0.2
		c-0.6,0-1.2-0.1-1.7-0.4c-0.5-0.2-1-0.6-1.4-1s-0.7-0.9-0.9-1.4S225.8,33.6,225.8,33z"/>
	<path fill="#425661" d="M239.7,37.4c-0.6,0-1.2-0.1-1.7-0.4s-1-0.6-1.3-1c-0.4-0.4-0.7-0.9-0.9-1.4c-0.2-0.5-0.3-1.1-0.3-1.7
		c0-0.6,0.1-1.2,0.3-1.7c0.2-0.5,0.5-1,0.9-1.4c0.4-0.4,0.8-0.7,1.3-1c0.5-0.2,1.1-0.4,1.7-0.4s1.2,0.1,1.7,0.4c0.5,0.2,1,0.6,1.3,1
		c0.4,0.4,0.7,0.9,0.9,1.4c0.2,0.5,0.3,1.1,0.3,1.7c0,0.6-0.1,1.1-0.3,1.7c-0.2,0.5-0.5,1-0.9,1.4c-0.4,0.4-0.8,0.7-1.3,1
		C240.9,37.2,240.3,37.4,239.7,37.4z M236.9,33c0,0.4,0.1,0.8,0.2,1.2c0.1,0.4,0.3,0.7,0.6,1c0.3,0.3,0.6,0.5,0.9,0.7
		c0.3,0.2,0.7,0.2,1.1,0.2c0.4,0,0.8-0.1,1.1-0.2c0.3-0.2,0.6-0.4,0.9-0.7c0.3-0.3,0.5-0.6,0.6-1c0.1-0.4,0.2-0.8,0.2-1.2
		c0-0.4-0.1-0.8-0.2-1.2c-0.1-0.4-0.3-0.7-0.6-1c-0.3-0.3-0.6-0.5-0.9-0.7c-0.3-0.2-0.7-0.2-1.1-0.2c-0.4,0-0.8,0.1-1.1,0.3
		c-0.3,0.2-0.6,0.4-0.9,0.7c-0.3,0.3-0.5,0.6-0.6,1C237,32.2,236.9,32.6,236.9,33z"/>
	<path fill="#425661" d="M259.2,37.2h-1.4v-4.7c0-0.9-0.1-1.5-0.4-2s-0.7-0.6-1.3-0.6c-0.6,0-1.1,0.2-1.6,0.6
		c-0.5,0.4-0.8,0.9-1,1.6v5.1h-1.4v-4.7c0-0.9-0.1-1.6-0.4-2c-0.3-0.4-0.7-0.6-1.3-0.6c-0.6,0-1.1,0.2-1.6,0.6
		c-0.5,0.4-0.8,0.9-1,1.6v5.1h-1.4v-8.4h1.3v1.8c0.3-0.6,0.8-1.1,1.3-1.4c0.5-0.3,1.2-0.5,1.9-0.5c0.7,0,1.3,0.2,1.7,0.6
		c0.4,0.4,0.7,0.9,0.8,1.5c0.8-1.4,1.8-2,3.2-2c0.5,0,0.9,0.1,1.2,0.3c0.3,0.2,0.6,0.4,0.8,0.7c0.2,0.3,0.3,0.7,0.4,1.1
		c0.1,0.4,0.1,0.9,0.1,1.4V37.2z"/>
	<g>
		<polygon fill="#C83C55" points="12.1,27.3 2.5,27.3 7.3,32.7 		"/>
		<path fill="#C83C55" d="M13.5,27.3l-6.2,6.9l-6.2-6.9C0.5,27.4,0,27.9,0,28.6v8.2C0,37.5,0.6,38,1.3,38h12.1
			c0.7,0,1.3-0.6,1.3-1.3v-8.2C14.6,27.9,14.1,27.4,13.5,27.3z"/>
	</g>
</g>
<g>
	<path fill="#425661" d="M67.7,1.2c-0.8,1.6-1.4,2.8-1.6,3.5c-0.4,1.2-0.6,2.5-0.6,4c0,1.5,0.2,2.9,0.6,4.2c0.3,0.8,0.8,1.9,1.6,3.4
		h-1c-0.8-1.2-1.2-2-1.4-2.3s-0.4-0.8-0.6-1.3c-0.3-0.8-0.5-1.6-0.6-2.5c-0.1-0.5-0.1-0.9-0.1-1.3c0-1.6,0.2-2.9,0.7-4.2
		c0.3-0.8,1-1.9,1.9-3.5H67.7z"/>
	<path fill="#425661" d="M74.5,13v-2.8h-5V8.8l5.2-7.2h1.2V9h1.7v1.2h-1.7V13H74.5z M74.5,9V3.8L70.9,9H74.5z"/>
	<path fill="#425661" d="M84.3,13v-2.8h-5V8.8l5.2-7.2h1.2V9h1.7v1.2h-1.7V13H84.3z M84.3,9V3.8L80.6,9H84.3z"/>
	<path fill="#425661" d="M89.8,10.4c0.4-0.7,1-1.4,2-2l1.5-0.9c0.7-0.4,1.2-0.7,1.4-1c0.4-0.4,0.6-0.9,0.6-1.5
		c0-0.7-0.2-1.2-0.6-1.6c-0.4-0.4-0.9-0.6-1.6-0.6c-1,0-1.6,0.4-2,1.1C91.1,4.4,91,5,90.9,5.7h-1.4c0-1,0.2-1.8,0.5-2.4
		c0.6-1.1,1.7-1.6,3.3-1.6c1.3,0,2.2,0.4,2.8,1C96.7,3.4,97,4.2,97,5c0,0.9-0.3,1.7-1,2.3c-0.4,0.4-1,0.8-2,1.4L93,9.3
		c-0.5,0.3-0.9,0.6-1.2,0.8c-0.5,0.5-0.9,1-1,1.5H97V13h-7.8C89.3,12,89.5,11.2,89.8,10.4z"/>
	<path fill="#425661" d="M99.1,16.3c0.8-1.6,1.4-2.8,1.6-3.6c0.4-1.1,0.6-2.5,0.6-4s-0.2-2.9-0.6-4.2c-0.3-0.8-0.8-1.9-1.6-3.4h1
		c0.8,1.3,1.3,2.1,1.5,2.4c0.2,0.3,0.4,0.7,0.6,1.3c0.3,0.7,0.4,1.3,0.5,1.9c0.1,0.6,0.2,1.3,0.2,1.9c0,1.6-0.2,2.9-0.7,4.2
		c-0.3,0.8-1,1.9-1.9,3.5H99.1z"/>
	<path fill="#425661" d="M112.9,6.7c0.2,0.2,0.3,0.4,0.3,0.7c0,0.3-0.1,0.5-0.3,0.7c-0.2,0.2-0.4,0.3-0.7,0.3s-0.5-0.1-0.7-0.3
		c-0.2-0.2-0.3-0.4-0.3-0.7c0-0.3,0.1-0.5,0.3-0.7c0.2-0.2,0.4-0.3,0.7-0.3S112.7,6.5,112.9,6.7z"/>
	<path fill="#425661" d="M122.1,5V3.9c1-0.1,1.7-0.3,2.1-0.5c0.4-0.2,0.7-0.8,0.9-1.7h1.1V13h-1.5V5H122.1z"/>
	<path fill="#425661" d="M131.6,12.2c-0.6-0.7-0.9-1.6-0.9-2.7h1.5c0.1,0.7,0.2,1.3,0.4,1.6c0.4,0.6,1,0.9,2,0.9
		c0.7,0,1.3-0.2,1.8-0.6s0.7-0.9,0.7-1.5c0-0.8-0.2-1.3-0.7-1.6c-0.5-0.3-1.1-0.5-2-0.5c-0.1,0-0.2,0-0.3,0c-0.1,0-0.2,0-0.3,0V6.5
		c0.1,0,0.3,0,0.4,0c0.1,0,0.2,0,0.3,0c0.5,0,1-0.1,1.3-0.3c0.6-0.3,0.9-0.8,0.9-1.6c0-0.6-0.2-1-0.6-1.3S135.3,3,134.7,3
		c-0.9,0-1.6,0.3-2,0.9c-0.2,0.3-0.3,0.8-0.3,1.5H131c0-0.8,0.2-1.6,0.5-2.1c0.6-1.1,1.6-1.6,3.1-1.6c1.2,0,2,0.3,2.7,0.8
		c0.6,0.5,0.9,1.3,0.9,2.2c0,0.7-0.2,1.3-0.6,1.7c-0.2,0.3-0.5,0.5-0.9,0.6c0.6,0.2,1.1,0.5,1.4,0.9c0.3,0.5,0.5,1,0.5,1.7
		c0,1.1-0.4,2-1.1,2.6c-0.7,0.7-1.7,1-3,1C133.2,13.3,132.2,12.9,131.6,12.2z"/>
	<path fill="#425661" d="M141.7,6.4c-0.4-0.4-0.6-1-0.6-1.6c0-0.8,0.3-1.6,0.9-2.2c0.6-0.6,1.5-0.9,2.6-0.9c1.1,0,1.9,0.3,2.5,0.9
		c0.6,0.6,0.9,1.2,0.9,2c0,0.7-0.2,1.3-0.5,1.7c-0.2,0.2-0.5,0.5-0.9,0.7c0.5,0.2,0.8,0.5,1.1,0.7c0.5,0.5,0.8,1.2,0.8,2
		c0,1-0.3,1.8-1,2.5c-0.7,0.7-1.6,1-2.8,1c-1.1,0-2-0.3-2.8-0.9c-0.8-0.6-1.1-1.5-1.1-2.6c0-0.7,0.2-1.2,0.5-1.7
		c0.3-0.5,0.8-0.9,1.5-1.1C142.2,6.8,141.9,6.6,141.7,6.4z M146.3,11.5c0.4-0.4,0.6-0.9,0.6-1.6c0-0.7-0.2-1.3-0.7-1.7
		c-0.4-0.4-1-0.6-1.7-0.6c-0.7,0-1.2,0.2-1.7,0.6c-0.4,0.4-0.6,0.9-0.6,1.6c0,0.6,0.2,1.1,0.6,1.5c0.4,0.4,1,0.6,1.8,0.6
		C145.3,12,145.8,11.8,146.3,11.5z M146,5.9c0.4-0.4,0.5-0.8,0.5-1.3c0-0.4-0.2-0.8-0.5-1.2c-0.3-0.4-0.8-0.5-1.5-0.5
		c-0.7,0-1.2,0.2-1.5,0.5c-0.3,0.4-0.5,0.8-0.5,1.2c0,0.5,0.2,0.9,0.6,1.2c0.4,0.3,0.9,0.5,1.4,0.5C145.1,6.4,145.6,6.2,146,5.9z"/>
	<path fill="#425661" d="M158.1,6.7c0.2,0.2,0.3,0.4,0.3,0.7c0,0.3-0.1,0.5-0.3,0.7c-0.2,0.2-0.4,0.3-0.7,0.3s-0.5-0.1-0.7-0.3
		c-0.2-0.2-0.3-0.4-0.3-0.7c0-0.3,0.1-0.5,0.3-0.7c0.2-0.2,0.4-0.3,0.7-0.3S157.9,6.5,158.1,6.7z"/>
	<path fill="#425661" d="M167.3,6.4c-0.4-0.4-0.6-1-0.6-1.6c0-0.8,0.3-1.6,0.9-2.2c0.6-0.6,1.5-0.9,2.6-0.9c1.1,0,1.9,0.3,2.5,0.9
		c0.6,0.6,0.9,1.2,0.9,2c0,0.7-0.2,1.3-0.5,1.7c-0.2,0.2-0.5,0.5-0.9,0.7c0.5,0.2,0.8,0.5,1.1,0.7c0.5,0.5,0.8,1.2,0.8,2
		c0,1-0.3,1.8-1,2.5c-0.7,0.7-1.6,1-2.8,1c-1.1,0-2-0.3-2.8-0.9c-0.8-0.6-1.1-1.5-1.1-2.6c0-0.7,0.2-1.2,0.5-1.7
		c0.3-0.5,0.8-0.9,1.5-1.1C167.9,6.8,167.6,6.6,167.3,6.4z M171.9,11.5c0.4-0.4,0.6-0.9,0.6-1.6c0-0.7-0.2-1.3-0.7-1.7
		c-0.4-0.4-1-0.6-1.7-0.6c-0.7,0-1.2,0.2-1.7,0.6c-0.4,0.4-0.6,0.9-0.6,1.6c0,0.6,0.2,1.1,0.6,1.5c0.4,0.4,1,0.6,1.8,0.6
		C170.9,12,171.5,11.8,171.9,11.5z M171.7,5.9c0.4-0.4,0.5-0.8,0.5-1.3c0-0.4-0.2-0.8-0.5-1.2s-0.8-0.5-1.5-0.5
		c-0.7,0-1.2,0.2-1.5,0.5s-0.5,0.8-0.5,1.2c0,0.5,0.2,0.9,0.6,1.2c0.4,0.3,0.9,0.5,1.4,0.5C170.8,6.4,171.3,6.2,171.7,5.9z"/>
	<path fill="#425661" d="M183.1,3.5c0.5,0.9,0.8,2.2,0.8,3.8c0,1.5-0.2,2.8-0.7,3.8c-0.7,1.4-1.7,2.2-3.2,2.2c-1.4,0-2.4-0.6-3-1.8
		c-0.6-1-0.8-2.3-0.8-4c0-1.3,0.2-2.4,0.5-3.3c0.6-1.7,1.7-2.6,3.4-2.6C181.4,1.7,182.5,2.3,183.1,3.5z M181.7,11
		c0.4-0.7,0.7-1.9,0.7-3.6c0-1.3-0.2-2.3-0.5-3.2C181.6,3.4,181,3,180,3c-0.8,0-1.4,0.4-1.8,1.2c-0.4,0.8-0.6,1.9-0.6,3.5
		c0,1.2,0.1,2.1,0.4,2.8c0.4,1.1,1,1.6,1.9,1.6C180.7,12,181.3,11.7,181.7,11z"/>
	<path fill="#425661" d="M193.6,6.7c0.2,0.2,0.3,0.4,0.3,0.7c0,0.3-0.1,0.5-0.3,0.7c-0.2,0.2-0.4,0.3-0.7,0.3s-0.5-0.1-0.7-0.3
		c-0.2-0.2-0.3-0.4-0.3-0.7c0-0.3,0.1-0.5,0.3-0.7c0.2-0.2,0.4-0.3,0.7-0.3S193.4,6.5,193.6,6.7z"/>
	<path fill="#425661" d="M206.6,13v-2.8h-5V8.8l5.2-7.2h1.2V9h1.7v1.2H208V13H206.6z M206.6,9V3.8L203,9H206.6z"/>
	<path fill="#425661" d="M216.4,13v-2.8h-5V8.8l5.2-7.2h1.2V9h1.7v1.2h-1.7V13H216.4z M216.4,9V3.8L212.8,9H216.4z"/>
	<path fill="#C83C55" d="M43.1,6.1l2.2-1.5c0.3-0.2,0.4-0.6,0.2-0.9l-2.4-3.4c-0.2-0.3-0.5-0.3-0.8-0.1L41,1l-0.3,0.4
		C40.4,1.9,40.2,2.5,40,3c-0.6,1.9-0.3,4.1,0.9,5.8l2.7,3.9c1.2,1.8,3.1,2.8,5.1,2.9c0.6,0,1.2,0,1.8-0.1l0.5-0.1l1.3-0.9
		c0.3-0.2,0.3-0.5,0.1-0.8l-2.4-3.4c-0.2-0.3-0.6-0.4-0.9-0.2L47,11.7c-0.6-0.5-1.2-1-1.6-1.7l-1.2-1.8C43.7,7.5,43.3,6.8,43.1,6.1z
		"/>
</g>
<g>
	<path fill="#425661" d="M95.3,61.5c-0.6,0-1.1-0.1-1.6-0.4c-0.5-0.2-0.9-0.6-1.2-1c-0.3-0.4-0.6-0.9-0.8-1.4
		c-0.2-0.5-0.3-1.1-0.3-1.6c0-0.6,0.1-1.2,0.3-1.7c0.2-0.5,0.5-1,0.8-1.4c0.3-0.4,0.8-0.7,1.2-0.9c0.5-0.2,1-0.3,1.6-0.3
		c0.7,0,1.3,0.2,1.8,0.5c0.5,0.3,1,0.8,1.3,1.3V53h1.3v8.3c0,0.6-0.1,1.1-0.3,1.6c-0.2,0.5-0.5,0.8-0.9,1.2
		c-0.4,0.3-0.8,0.6-1.4,0.7S96,65,95.4,65c-1,0-1.7-0.2-2.3-0.5c-0.6-0.3-1.1-0.8-1.5-1.4l0.8-0.7c0.3,0.5,0.8,0.9,1.3,1.1
		c0.5,0.2,1.1,0.4,1.7,0.4c0.4,0,0.8-0.1,1.1-0.2c0.4-0.1,0.7-0.3,0.9-0.5c0.3-0.2,0.5-0.5,0.6-0.8c0.2-0.3,0.2-0.7,0.2-1.1v-1.5
		c-0.2,0.3-0.4,0.5-0.6,0.7s-0.5,0.4-0.7,0.5c-0.3,0.1-0.5,0.3-0.8,0.3C95.9,61.5,95.6,61.5,95.3,61.5z M95.7,60.3
		c0.3,0,0.6-0.1,0.9-0.2c0.3-0.1,0.5-0.3,0.8-0.4c0.2-0.2,0.4-0.4,0.6-0.6c0.2-0.2,0.3-0.5,0.3-0.7V56c-0.1-0.3-0.3-0.6-0.5-0.8
		c-0.2-0.2-0.4-0.4-0.6-0.6c-0.2-0.2-0.5-0.3-0.8-0.4c-0.3-0.1-0.6-0.1-0.8-0.1c-0.4,0-0.8,0.1-1.2,0.3s-0.6,0.4-0.9,0.7
		c-0.2,0.3-0.4,0.6-0.6,1c-0.1,0.4-0.2,0.8-0.2,1.2c0,0.4,0.1,0.8,0.2,1.2c0.1,0.4,0.4,0.7,0.6,1c0.3,0.3,0.6,0.5,0.9,0.7
		C94.9,60.3,95.3,60.3,95.7,60.3z"/>
	<path fill="#425661" d="M104.9,61.6c-0.4,0-0.8-0.1-1.1-0.2c-0.3-0.1-0.6-0.3-0.9-0.6c-0.3-0.2-0.5-0.5-0.6-0.8
		c-0.1-0.3-0.2-0.7-0.2-1c0-0.4,0.1-0.7,0.3-1.1c0.2-0.3,0.4-0.6,0.7-0.8c0.3-0.2,0.7-0.4,1.1-0.5c0.4-0.1,0.9-0.2,1.4-0.2
		c0.4,0,0.8,0,1.2,0.1c0.4,0.1,0.8,0.2,1.1,0.3v-0.7c0-0.7-0.2-1.2-0.6-1.6c-0.4-0.4-0.9-0.6-1.6-0.6c-0.8,0-1.7,0.3-2.7,1l-0.5-0.9
		c1.1-0.7,2.2-1.1,3.3-1.1c1.1,0,2,0.3,2.6,0.9c0.6,0.6,0.9,1.4,0.9,2.5v3.4c0,0.3,0.2,0.5,0.5,0.5v1.2c-0.2,0-0.3,0-0.4,0
		c-0.1,0-0.2,0-0.3,0c-0.3,0-0.5-0.1-0.7-0.3c-0.2-0.2-0.3-0.4-0.3-0.6l0-0.6c-0.4,0.5-0.9,0.9-1.4,1.2
		C106.2,61.4,105.6,61.6,104.9,61.6z M105.3,60.5c0.5,0,1-0.1,1.4-0.3c0.4-0.2,0.8-0.4,1-0.8c0.2-0.2,0.3-0.4,0.3-0.6v-1.2
		c-0.7-0.3-1.4-0.4-2.1-0.4c-0.7,0-1.3,0.2-1.7,0.5c-0.4,0.3-0.7,0.7-0.7,1.2c0,0.2,0,0.5,0.1,0.7c0.1,0.2,0.2,0.4,0.4,0.5
		c0.2,0.2,0.4,0.3,0.6,0.4C104.8,60.5,105.1,60.5,105.3,60.5z"/>
	<path fill="#425661" d="M116.9,61.6c-0.7,0-1.3-0.2-1.8-0.5c-0.5-0.3-1-0.7-1.3-1.3v1.6h-1.3V49.6h1.4v5c0.4-0.5,0.8-1,1.3-1.3
		c0.5-0.3,1.1-0.5,1.8-0.5c0.6,0,1.1,0.1,1.6,0.4c0.5,0.2,0.9,0.6,1.2,1c0.3,0.4,0.6,0.9,0.8,1.4c0.2,0.5,0.3,1.1,0.3,1.6
		c0,0.6-0.1,1.2-0.3,1.7c-0.2,0.5-0.5,1-0.8,1.4c-0.4,0.4-0.8,0.7-1.3,0.9C117.9,61.5,117.4,61.6,116.9,61.6z M116.5,60.3
		c0.4,0,0.8-0.1,1.2-0.3c0.4-0.2,0.7-0.4,0.9-0.7s0.5-0.6,0.6-1c0.1-0.4,0.2-0.8,0.2-1.2c0-0.4-0.1-0.8-0.2-1.2
		c-0.1-0.4-0.3-0.7-0.6-1c-0.2-0.3-0.5-0.5-0.9-0.7c-0.3-0.2-0.7-0.3-1.1-0.3c-0.3,0-0.6,0.1-0.9,0.2c-0.3,0.1-0.5,0.3-0.8,0.4
		c-0.2,0.2-0.4,0.4-0.6,0.6c-0.2,0.2-0.3,0.5-0.5,0.8v2.4c0.1,0.3,0.2,0.5,0.3,0.7c0.2,0.2,0.4,0.4,0.6,0.6c0.2,0.2,0.5,0.3,0.8,0.4
		C116,60.3,116.2,60.3,116.5,60.3z"/>
	<path fill="#425661" d="M127.9,54.2c-0.7,0-1.3,0.2-1.9,0.5c-0.5,0.3-0.9,0.8-1.2,1.4v5.2h-1.4V53h1.3v2c0.3-0.6,0.7-1.1,1.1-1.4
		c0.5-0.4,1-0.6,1.5-0.6c0.1,0,0.2,0,0.3,0c0.1,0,0.1,0,0.2,0V54.2z"/>
	<path fill="#425661" d="M130.1,51.4v-1.8h1.4v1.8H130.1z M130.1,61.4V53h1.4v8.4H130.1z"/>
	<path fill="#425661" d="M138.3,61.6c-0.6,0-1.2-0.1-1.7-0.3c-0.5-0.2-1-0.5-1.4-0.9c-0.4-0.4-0.7-0.9-0.9-1.4
		c-0.2-0.5-0.3-1.1-0.3-1.7c0-0.6,0.1-1.2,0.3-1.7c0.2-0.5,0.5-1,0.9-1.4c0.4-0.4,0.8-0.7,1.4-0.9c0.5-0.2,1.1-0.3,1.7-0.3
		c0.6,0,1.2,0.1,1.7,0.4c0.5,0.2,1,0.6,1.3,0.9c0.4,0.4,0.6,0.8,0.8,1.4c0.2,0.5,0.3,1.1,0.3,1.6c0,0.1,0,0.2,0,0.3
		c0,0.1,0,0.2,0,0.2h-7c0,0.4,0.1,0.8,0.3,1.1c0.2,0.3,0.4,0.6,0.6,0.9c0.3,0.2,0.6,0.4,0.9,0.6c0.3,0.1,0.7,0.2,1,0.2
		c0.3,0,0.5,0,0.8-0.1s0.5-0.2,0.7-0.3c0.2-0.1,0.4-0.3,0.6-0.4c0.2-0.2,0.3-0.4,0.4-0.6l1.2,0.3c-0.1,0.3-0.3,0.6-0.6,0.9
		c-0.2,0.3-0.5,0.5-0.8,0.7c-0.3,0.2-0.7,0.3-1.1,0.4C139.1,61.5,138.7,61.6,138.3,61.6z M141.2,56.6c0-0.4-0.1-0.8-0.3-1.1
		c-0.2-0.3-0.4-0.6-0.6-0.9c-0.3-0.2-0.5-0.4-0.9-0.6c-0.3-0.1-0.7-0.2-1.1-0.2s-0.7,0.1-1.1,0.2c-0.3,0.1-0.6,0.3-0.9,0.6
		c-0.3,0.2-0.5,0.5-0.6,0.9c-0.2,0.3-0.3,0.7-0.3,1.1H141.2z"/>
	<path fill="#425661" d="M145,49.6h1.4v9.6c0,0.3,0.1,0.6,0.2,0.7c0.2,0.2,0.4,0.3,0.7,0.3c0.1,0,0.3,0,0.4-0.1
		c0.2,0,0.3-0.1,0.5-0.1l0.2,1.1c-0.2,0.1-0.5,0.2-0.8,0.2c-0.3,0.1-0.6,0.1-0.9,0.1c-0.5,0-1-0.2-1.3-0.5c-0.3-0.3-0.5-0.7-0.5-1.3
		V49.6z"/>
	<path fill="#425661" d="M150.2,61.4v-1.8h1.2v1.8H150.2z"/>
	<path fill="#425661" d="M153.3,64.4c-0.4,0-0.7-0.1-1.1-0.2c-0.3-0.1-0.6-0.3-0.9-0.5l0.7-1c0.2,0.1,0.3,0.2,0.5,0.3
		c0.2,0.1,0.4,0.1,0.6,0.1c0.2,0,0.3,0,0.5-0.1c0.2-0.1,0.3-0.2,0.4-0.3c0.1-0.1,0.2-0.3,0.3-0.4c0.1-0.2,0.1-0.4,0.1-0.5V53h1.4
		v8.7c0,0.4-0.1,0.8-0.2,1.1c-0.1,0.3-0.3,0.6-0.6,0.9c-0.2,0.2-0.5,0.4-0.8,0.6C154,64.4,153.7,64.4,153.3,64.4z M154.5,51.4v-1.8
		h1.4v1.8H154.5z"/>
	<path fill="#425661" d="M171.8,61.4h-1.4v-4.7c0-0.9-0.1-1.5-0.4-2c-0.3-0.4-0.7-0.6-1.3-0.6c-0.6,0-1.1,0.2-1.6,0.6
		c-0.5,0.4-0.8,0.9-1,1.6v5.1h-1.4v-4.7c0-0.9-0.1-1.6-0.4-2c-0.3-0.4-0.7-0.6-1.3-0.6c-0.6,0-1.1,0.2-1.6,0.6
		c-0.5,0.4-0.8,0.9-1,1.6v5.1h-1.4V53h1.3v1.8c0.3-0.6,0.8-1.1,1.3-1.4c0.5-0.3,1.2-0.5,1.9-0.5c0.7,0,1.3,0.2,1.7,0.6
		s0.7,0.9,0.8,1.5c0.8-1.4,1.8-2,3.2-2c0.5,0,0.9,0.1,1.2,0.3c0.3,0.2,0.6,0.4,0.8,0.7c0.2,0.3,0.3,0.7,0.4,1.1
		c0.1,0.4,0.1,0.9,0.1,1.4V61.4z"/>
	<path fill="#425661" d="M174.2,56.2c0-0.5,0.1-1.1,0.3-1.5s0.5-0.9,0.9-1.3c0.4-0.4,0.8-0.6,1.3-0.8c0.5-0.2,1-0.3,1.6-0.3
		c0.6,0,1.2,0.1,1.7,0.3c0.5,0.2,0.9,0.6,1.3,1c0.4,0.4,0.6,0.9,0.8,1.6c0.2,0.6,0.3,1.3,0.3,2.1c0,1.1-0.1,2.1-0.3,3
		c-0.2,0.8-0.5,1.6-0.9,2.1c-0.4,0.6-0.8,1-1.4,1.3c-0.5,0.3-1.1,0.4-1.8,0.4c-0.7,0-1.4-0.2-2-0.5c-0.6-0.4-1.1-0.9-1.4-1.5
		l0.9-0.9c0.2,0.5,0.6,0.9,1.1,1.2c0.5,0.3,1,0.4,1.6,0.4c0.9,0,1.6-0.4,2.1-1.2c0.5-0.8,0.8-1.9,0.8-3.3c-0.2,0.6-0.6,1-1.1,1.3
		c-0.5,0.3-1.1,0.5-1.8,0.5c-0.5,0-1.1-0.1-1.6-0.3c-0.5-0.2-0.9-0.5-1.3-0.8c-0.4-0.3-0.6-0.8-0.8-1.2
		C174.3,57.2,174.2,56.7,174.2,56.2z M178.3,53.4c-0.4,0-0.7,0.1-1.1,0.2c-0.3,0.1-0.6,0.3-0.9,0.6c-0.2,0.2-0.4,0.5-0.6,0.9
		s-0.2,0.7-0.2,1.1s0.1,0.7,0.2,1.1c0.1,0.3,0.3,0.6,0.6,0.9c0.2,0.2,0.5,0.4,0.9,0.6c0.3,0.1,0.7,0.2,1.1,0.2
		c0.4,0,0.7-0.1,1.1-0.2c0.3-0.1,0.6-0.3,0.9-0.6c0.2-0.2,0.4-0.5,0.6-0.9c0.1-0.3,0.2-0.7,0.2-1.1c0-0.4-0.1-0.7-0.2-1.1
		c-0.1-0.3-0.3-0.6-0.6-0.9c-0.2-0.2-0.5-0.4-0.9-0.6C179,53.5,178.7,53.4,178.3,53.4z"/>
	<path fill="#425661" d="M188.5,56.3c0.5,0,1,0.1,1.5,0.3c0.5,0.2,0.9,0.4,1.2,0.8c0.3,0.3,0.6,0.7,0.8,1.2s0.3,0.9,0.3,1.5
		c0,0.6-0.1,1.1-0.3,1.6c-0.2,0.5-0.5,0.9-0.9,1.2c-0.4,0.3-0.8,0.6-1.3,0.8c-0.5,0.2-1,0.3-1.6,0.3c-0.8,0-1.6-0.2-2.2-0.6
		c-0.7-0.4-1.2-0.9-1.5-1.6l0.9-0.8c0.3,0.5,0.7,0.9,1.2,1.2s1,0.5,1.6,0.5c0.4,0,0.7-0.1,1-0.2c0.3-0.1,0.6-0.3,0.8-0.5
		c0.2-0.2,0.4-0.5,0.5-0.8s0.2-0.7,0.2-1c0-0.4-0.1-0.7-0.2-1s-0.3-0.6-0.5-0.8c-0.2-0.2-0.5-0.4-0.8-0.5c-0.3-0.1-0.6-0.2-1-0.2
		c-0.5,0-0.9,0.1-1.3,0.3c-0.4,0.2-0.7,0.5-1,0.9h-1.3c0-0.1,0-0.2,0.1-0.4c0-0.2,0.1-0.5,0.2-0.8c0.1-0.3,0.1-0.7,0.2-1.1
		c0.1-0.4,0.2-0.8,0.2-1.2c0.2-0.9,0.4-2,0.6-3.1h5.6v1.3h-4.5l-0.7,3.7c0.2-0.2,0.5-0.4,0.9-0.6C187.6,56.4,188,56.3,188.5,56.3z"
		/>
	<path fill="#C83C55" d="M79.8,49.2H70c-1.7,0-3.1,1.4-3.1,3.1v3.3v1.2v5.3c0,1.7,1.4,3.1,3.1,3.1h9.8c1.7,0,3.1-1.4,3.1-3.1v-5.3
		v-1.2v-3.3C82.9,50.6,81.5,49.2,79.8,49.2z M80.7,51l0.4,0v0.4v2.4l-2.7,0l0-2.7L80.7,51z M72.7,55.5c0.5-0.7,1.3-1.2,2.3-1.2
		c0.9,0,1.8,0.5,2.3,1.2c0.1,0.1,0.1,0.2,0.2,0.3c0.2,0.4,0.4,0.9,0.4,1.4c0,1.6-1.3,2.8-2.8,2.8c-1.6,0-2.8-1.3-2.8-2.8
		c0-0.5,0.1-1,0.4-1.4C72.5,55.7,72.6,55.6,72.7,55.5z M81.4,62.1c0,0.8-0.7,1.5-1.5,1.5H70c-0.8,0-1.5-0.7-1.5-1.5v-5.7v-0.8h2.4
		c-0.1,0.1-0.1,0.3-0.2,0.5c-0.1,0.4-0.2,0.8-0.2,1.2c0,2.4,2,4.4,4.4,4.4c2.4,0,4.4-2,4.4-4.4c0-0.4-0.1-0.8-0.2-1.2
		c0-0.2-0.1-0.3-0.2-0.5h2.4v0.8V62.1z"/>
</g>
<g>
	<path fill="#425661" d="M82.1,85.7c-0.6,0-1.1-0.1-1.6-0.4c-0.5-0.2-0.9-0.6-1.2-1c-0.3-0.4-0.6-0.9-0.8-1.4
		c-0.2-0.5-0.3-1.1-0.3-1.6c0-0.6,0.1-1.2,0.3-1.7c0.2-0.5,0.5-1,0.8-1.4c0.3-0.4,0.8-0.7,1.2-0.9c0.5-0.2,1-0.3,1.6-0.3
		c0.7,0,1.3,0.2,1.8,0.5c0.5,0.3,1,0.8,1.3,1.3v-1.7h1.3v8.3c0,0.6-0.1,1.1-0.3,1.6c-0.2,0.5-0.5,0.8-0.9,1.2
		c-0.4,0.3-0.8,0.6-1.4,0.7c-0.5,0.2-1.1,0.2-1.7,0.2c-1,0-1.7-0.2-2.3-0.5s-1.1-0.8-1.5-1.4l0.8-0.7c0.3,0.5,0.8,0.9,1.3,1.1
		c0.5,0.2,1.1,0.4,1.7,0.4c0.4,0,0.8-0.1,1.1-0.2c0.4-0.1,0.7-0.3,0.9-0.5c0.3-0.2,0.5-0.5,0.6-0.8c0.2-0.3,0.2-0.7,0.2-1.1v-1.5
		c-0.2,0.3-0.4,0.5-0.6,0.7s-0.5,0.4-0.7,0.5c-0.3,0.1-0.5,0.3-0.8,0.3C82.7,85.7,82.4,85.7,82.1,85.7z M82.5,84.6
		c0.3,0,0.6-0.1,0.9-0.2c0.3-0.1,0.5-0.3,0.8-0.4c0.2-0.2,0.4-0.4,0.6-0.6c0.2-0.2,0.3-0.5,0.3-0.7v-2.4c-0.1-0.3-0.3-0.6-0.5-0.8
		c-0.2-0.2-0.4-0.4-0.6-0.6c-0.2-0.2-0.5-0.3-0.8-0.4c-0.3-0.1-0.6-0.1-0.8-0.1c-0.4,0-0.8,0.1-1.2,0.3c-0.3,0.2-0.6,0.4-0.9,0.7
		c-0.2,0.3-0.4,0.6-0.6,1c-0.1,0.4-0.2,0.8-0.2,1.2c0,0.4,0.1,0.8,0.2,1.2c0.1,0.4,0.4,0.7,0.6,1c0.3,0.3,0.6,0.5,0.9,0.7
		C81.7,84.5,82.1,84.6,82.5,84.6z"/>
	<path fill="#425661" d="M91.8,85.8c-0.4,0-0.8-0.1-1.1-0.2c-0.3-0.1-0.6-0.3-0.9-0.6c-0.3-0.2-0.5-0.5-0.6-0.8
		c-0.1-0.3-0.2-0.7-0.2-1c0-0.4,0.1-0.7,0.3-1.1c0.2-0.3,0.4-0.6,0.7-0.8c0.3-0.2,0.7-0.4,1.1-0.5c0.4-0.1,0.9-0.2,1.4-0.2
		c0.4,0,0.8,0,1.2,0.1c0.4,0.1,0.8,0.2,1.1,0.3v-0.7c0-0.7-0.2-1.2-0.6-1.6c-0.4-0.4-0.9-0.6-1.6-0.6c-0.8,0-1.7,0.3-2.7,1l-0.5-0.9
		c1.1-0.7,2.2-1.1,3.3-1.1c1.1,0,2,0.3,2.6,0.9c0.6,0.6,0.9,1.4,0.9,2.5v3.4c0,0.3,0.2,0.5,0.5,0.5v1.2c-0.2,0-0.3,0-0.4,0
		c-0.1,0-0.2,0-0.3,0c-0.3,0-0.5-0.1-0.7-0.3c-0.2-0.2-0.3-0.4-0.3-0.6l0-0.6c-0.4,0.5-0.9,0.9-1.4,1.2C93,85.7,92.4,85.8,91.8,85.8
		z M92.1,84.7c0.5,0,1-0.1,1.4-0.3c0.4-0.2,0.8-0.4,1-0.8c0.2-0.2,0.3-0.4,0.3-0.6v-1.2c-0.7-0.3-1.4-0.4-2.1-0.4
		c-0.7,0-1.3,0.2-1.7,0.5c-0.4,0.3-0.7,0.7-0.7,1.2c0,0.2,0,0.5,0.1,0.7c0.1,0.2,0.2,0.4,0.4,0.5c0.2,0.2,0.4,0.3,0.6,0.4
		C91.6,84.7,91.9,84.7,92.1,84.7z"/>
	<path fill="#425661" d="M103.7,85.8c-0.7,0-1.3-0.2-1.8-0.5c-0.5-0.3-1-0.7-1.3-1.3v1.6h-1.3V73.8h1.4v5c0.4-0.5,0.8-1,1.3-1.3
		c0.5-0.3,1.1-0.5,1.8-0.5c0.6,0,1.1,0.1,1.6,0.4c0.5,0.2,0.9,0.6,1.2,1c0.3,0.4,0.6,0.9,0.8,1.4c0.2,0.5,0.3,1.1,0.3,1.6
		c0,0.6-0.1,1.2-0.3,1.7c-0.2,0.5-0.5,1-0.8,1.4c-0.4,0.4-0.8,0.7-1.3,0.9C104.8,85.7,104.2,85.8,103.7,85.8z M103.3,84.6
		c0.4,0,0.8-0.1,1.2-0.3c0.4-0.2,0.7-0.4,0.9-0.7s0.5-0.6,0.6-1c0.1-0.4,0.2-0.8,0.2-1.2c0-0.4-0.1-0.8-0.2-1.2
		c-0.1-0.4-0.3-0.7-0.6-1c-0.2-0.3-0.5-0.5-0.9-0.7c-0.3-0.2-0.7-0.3-1.1-0.3c-0.3,0-0.6,0.1-0.9,0.2c-0.3,0.1-0.5,0.3-0.8,0.4
		c-0.2,0.2-0.4,0.4-0.6,0.6c-0.2,0.2-0.3,0.5-0.5,0.8v2.4c0.1,0.3,0.2,0.5,0.3,0.7c0.2,0.2,0.4,0.4,0.6,0.6c0.2,0.2,0.5,0.3,0.8,0.4
		S103.1,84.6,103.3,84.6z"/>
	<path fill="#425661" d="M114.7,78.4c-0.7,0-1.3,0.2-1.9,0.5c-0.5,0.3-0.9,0.8-1.2,1.4v5.2h-1.4v-8.4h1.3v2c0.3-0.6,0.7-1.1,1.1-1.4
		c0.5-0.4,1-0.6,1.5-0.6c0.1,0,0.2,0,0.3,0c0.1,0,0.1,0,0.2,0V78.4z"/>
	<path fill="#425661" d="M116.9,75.6v-1.8h1.4v1.8H116.9z M116.9,85.6v-8.4h1.4v8.4H116.9z"/>
	<path fill="#425661" d="M125.1,85.8c-0.6,0-1.2-0.1-1.7-0.3c-0.5-0.2-1-0.5-1.4-0.9c-0.4-0.4-0.7-0.9-0.9-1.4
		c-0.2-0.5-0.3-1.1-0.3-1.7c0-0.6,0.1-1.2,0.3-1.7c0.2-0.5,0.5-1,0.9-1.4c0.4-0.4,0.8-0.7,1.4-0.9c0.5-0.2,1.1-0.3,1.7-0.3
		c0.6,0,1.2,0.1,1.7,0.4c0.5,0.2,1,0.6,1.3,0.9c0.4,0.4,0.6,0.8,0.8,1.4c0.2,0.5,0.3,1.1,0.3,1.6c0,0.1,0,0.2,0,0.3
		c0,0.1,0,0.2,0,0.2h-7c0,0.4,0.1,0.8,0.3,1.1c0.2,0.3,0.4,0.6,0.6,0.9c0.3,0.2,0.6,0.4,0.9,0.6c0.3,0.1,0.7,0.2,1,0.2
		c0.3,0,0.5,0,0.8-0.1c0.2-0.1,0.5-0.2,0.7-0.3c0.2-0.1,0.4-0.3,0.6-0.4c0.2-0.2,0.3-0.4,0.4-0.6l1.2,0.3c-0.1,0.3-0.3,0.6-0.6,0.9
		c-0.2,0.3-0.5,0.5-0.8,0.7c-0.3,0.2-0.7,0.3-1.1,0.4C126,85.7,125.6,85.8,125.1,85.8z M128,80.9c0-0.4-0.1-0.8-0.3-1.1
		c-0.2-0.3-0.4-0.6-0.6-0.9c-0.3-0.2-0.5-0.4-0.9-0.6c-0.3-0.1-0.7-0.2-1.1-0.2s-0.7,0.1-1.1,0.2c-0.3,0.1-0.6,0.3-0.9,0.6
		c-0.3,0.2-0.5,0.5-0.6,0.9c-0.2,0.3-0.3,0.7-0.3,1.1H128z"/>
	<path fill="#425661" d="M131.8,73.8h1.4v9.6c0,0.3,0.1,0.6,0.2,0.7c0.2,0.2,0.4,0.3,0.7,0.3c0.1,0,0.3,0,0.4-0.1
		c0.2,0,0.3-0.1,0.5-0.1l0.2,1.1c-0.2,0.1-0.5,0.2-0.8,0.2c-0.3,0.1-0.6,0.1-0.9,0.1c-0.5,0-1-0.2-1.3-0.5c-0.3-0.3-0.5-0.7-0.5-1.3
		V73.8z"/>
	<path fill="#425661" d="M136.1,88.6c-0.4,0-0.7-0.1-1.1-0.2c-0.3-0.1-0.6-0.3-0.9-0.5l0.7-1c0.2,0.1,0.3,0.2,0.5,0.3
		c0.2,0.1,0.4,0.1,0.6,0.1c0.2,0,0.3,0,0.5-0.1c0.2-0.1,0.3-0.2,0.4-0.3c0.1-0.1,0.2-0.3,0.3-0.4c0.1-0.2,0.1-0.4,0.1-0.5v-8.8h1.4
		v8.7c0,0.4-0.1,0.8-0.2,1.1c-0.1,0.3-0.3,0.6-0.6,0.9c-0.2,0.2-0.5,0.4-0.8,0.6C136.8,88.6,136.4,88.6,136.1,88.6z M137.3,75.6
		v-1.8h1.4v1.8H137.3z"/>
	<path fill="#425661" d="M144.4,85.8c-0.9,0-1.6-0.3-2-0.9c-0.5-0.6-0.7-1.5-0.7-2.6v-5.1h1.4V82c0,1.7,0.6,2.6,1.8,2.6
		c0.6,0,1.1-0.2,1.6-0.6c0.5-0.4,0.9-0.9,1.1-1.5v-5.3h1.4v6.7c0,0.3,0.2,0.5,0.5,0.5v1.2c-0.2,0-0.3,0-0.4,0c-0.1,0-0.2,0-0.3,0
		c-0.3,0-0.5-0.1-0.7-0.3c-0.2-0.2-0.3-0.4-0.3-0.6l0-1c-0.4,0.6-0.9,1.1-1.5,1.5S145.2,85.8,144.4,85.8z"/>
	<path fill="#425661" d="M154.5,85.8c-0.4,0-0.8-0.1-1.1-0.2c-0.3-0.1-0.6-0.3-0.9-0.6c-0.3-0.2-0.5-0.5-0.6-0.8
		c-0.1-0.3-0.2-0.7-0.2-1c0-0.4,0.1-0.7,0.3-1.1c0.2-0.3,0.4-0.6,0.7-0.8c0.3-0.2,0.7-0.4,1.1-0.5c0.4-0.1,0.9-0.2,1.4-0.2
		c0.4,0,0.8,0,1.2,0.1c0.4,0.1,0.8,0.2,1.1,0.3v-0.7c0-0.7-0.2-1.2-0.6-1.6c-0.4-0.4-0.9-0.6-1.6-0.6c-0.8,0-1.7,0.3-2.7,1l-0.5-0.9
		c1.1-0.7,2.2-1.1,3.3-1.1c1.1,0,2,0.3,2.6,0.9c0.6,0.6,0.9,1.4,0.9,2.5v3.4c0,0.3,0.2,0.5,0.5,0.5v1.2c-0.2,0-0.3,0-0.4,0
		c-0.1,0-0.2,0-0.3,0c-0.3,0-0.5-0.1-0.7-0.3c-0.2-0.2-0.3-0.4-0.3-0.6l0-0.6c-0.4,0.5-0.9,0.9-1.4,1.2
		C155.8,85.7,155.2,85.8,154.5,85.8z M154.9,84.7c0.5,0,1-0.1,1.4-0.3c0.4-0.2,0.8-0.4,1-0.8c0.2-0.2,0.3-0.4,0.3-0.6v-1.2
		c-0.7-0.3-1.4-0.4-2.1-0.4c-0.7,0-1.3,0.2-1.7,0.5c-0.4,0.3-0.7,0.7-0.7,1.2c0,0.2,0,0.5,0.1,0.7c0.1,0.2,0.2,0.4,0.4,0.5
		c0.2,0.2,0.4,0.3,0.6,0.4C154.4,84.7,154.6,84.7,154.9,84.7z"/>
	<path fill="#425661" d="M166.5,78.4c-0.7,0-1.3,0.2-1.9,0.5c-0.5,0.3-0.9,0.8-1.2,1.4v5.2h-1.4v-8.4h1.3v2c0.3-0.6,0.7-1.1,1.1-1.4
		c0.5-0.4,1-0.6,1.5-0.6c0.1,0,0.2,0,0.3,0c0.1,0,0.1,0,0.2,0V78.4z"/>
	<path fill="#425661" d="M172.3,85.8c-0.6,0-1.2-0.1-1.7-0.3c-0.5-0.2-1-0.5-1.4-0.9c-0.4-0.4-0.7-0.9-0.9-1.4
		c-0.2-0.5-0.3-1.1-0.3-1.7c0-0.6,0.1-1.2,0.3-1.7c0.2-0.5,0.5-1,0.9-1.4c0.4-0.4,0.8-0.7,1.4-0.9c0.5-0.2,1.1-0.3,1.7-0.3
		c0.6,0,1.2,0.1,1.7,0.4c0.5,0.2,1,0.6,1.3,0.9c0.4,0.4,0.6,0.8,0.8,1.4c0.2,0.5,0.3,1.1,0.3,1.6c0,0.1,0,0.2,0,0.3
		c0,0.1,0,0.2,0,0.2h-7c0,0.4,0.1,0.8,0.3,1.1c0.2,0.3,0.4,0.6,0.6,0.9c0.3,0.2,0.6,0.4,0.9,0.6c0.3,0.1,0.7,0.2,1,0.2
		c0.3,0,0.5,0,0.8-0.1c0.2-0.1,0.5-0.2,0.7-0.3c0.2-0.1,0.4-0.3,0.6-0.4c0.2-0.2,0.3-0.4,0.4-0.6l1.2,0.3c-0.1,0.3-0.3,0.6-0.6,0.9
		c-0.2,0.3-0.5,0.5-0.8,0.7c-0.3,0.2-0.7,0.3-1.1,0.4C173.1,85.7,172.7,85.8,172.3,85.8z M175.2,80.9c0-0.4-0.1-0.8-0.3-1.1
		c-0.2-0.3-0.4-0.6-0.6-0.9c-0.3-0.2-0.5-0.4-0.9-0.6c-0.3-0.1-0.7-0.2-1.1-0.2s-0.7,0.1-1.1,0.2c-0.3,0.1-0.6,0.3-0.9,0.6
		c-0.3,0.2-0.5,0.5-0.6,0.9c-0.2,0.3-0.3,0.7-0.3,1.1H175.2z"/>
	<path fill="#425661" d="M178.1,84.7l5.4-6.5h-5.2v-1h6.8v0.9l-5.4,6.5h5.4v1h-6.9V84.7z"/>
	<path fill="#425661" d="M187,80.4c0-0.5,0.1-1.1,0.3-1.5c0.2-0.5,0.5-0.9,0.9-1.3c0.4-0.4,0.8-0.6,1.3-0.8c0.5-0.2,1-0.3,1.6-0.3
		c0.6,0,1.2,0.1,1.7,0.3c0.5,0.2,0.9,0.6,1.3,1c0.4,0.4,0.6,0.9,0.8,1.6c0.2,0.6,0.3,1.3,0.3,2.1c0,1.1-0.1,2.1-0.3,3
		c-0.2,0.8-0.5,1.6-0.9,2.1c-0.4,0.6-0.8,1-1.4,1.3c-0.5,0.3-1.1,0.4-1.8,0.4c-0.7,0-1.4-0.2-2-0.5c-0.6-0.4-1.1-0.9-1.4-1.5
		l0.9-0.9c0.2,0.5,0.6,0.9,1.1,1.2c0.5,0.3,1,0.4,1.6,0.4c0.9,0,1.6-0.4,2.1-1.2c0.5-0.8,0.8-1.9,0.8-3.3c-0.2,0.6-0.6,1-1.1,1.3
		c-0.5,0.3-1.1,0.5-1.8,0.5c-0.5,0-1.1-0.1-1.6-0.3c-0.5-0.2-0.9-0.5-1.3-0.8c-0.4-0.3-0.6-0.8-0.8-1.2
		C187.1,81.4,187,80.9,187,80.4z M191.1,77.6c-0.4,0-0.7,0.1-1.1,0.2c-0.3,0.1-0.6,0.3-0.9,0.6c-0.2,0.2-0.4,0.5-0.6,0.9
		c-0.1,0.3-0.2,0.7-0.2,1.1s0.1,0.7,0.2,1.1c0.1,0.3,0.3,0.6,0.6,0.9c0.2,0.2,0.5,0.4,0.9,0.6c0.3,0.1,0.7,0.2,1.1,0.2
		s0.7-0.1,1.1-0.2c0.3-0.1,0.6-0.3,0.9-0.6c0.2-0.2,0.4-0.5,0.6-0.9c0.1-0.3,0.2-0.7,0.2-1.1c0-0.4-0.1-0.7-0.2-1.1
		c-0.1-0.3-0.3-0.6-0.6-0.9c-0.2-0.2-0.5-0.4-0.9-0.6C191.8,77.7,191.5,77.6,191.1,77.6z"/>
	<path fill="#425661" d="M201.3,80.6c0.5,0,1,0.1,1.5,0.3c0.5,0.2,0.9,0.4,1.2,0.8c0.3,0.3,0.6,0.7,0.8,1.2c0.2,0.5,0.3,0.9,0.3,1.5
		c0,0.6-0.1,1.1-0.3,1.6c-0.2,0.5-0.5,0.9-0.9,1.2c-0.4,0.3-0.8,0.6-1.3,0.8s-1,0.3-1.6,0.3c-0.8,0-1.6-0.2-2.2-0.6
		c-0.7-0.4-1.2-0.9-1.5-1.6l0.9-0.8c0.3,0.5,0.7,0.9,1.2,1.2c0.5,0.3,1,0.5,1.6,0.5c0.4,0,0.7-0.1,1-0.2c0.3-0.1,0.6-0.3,0.8-0.5
		c0.2-0.2,0.4-0.5,0.5-0.8s0.2-0.7,0.2-1c0-0.4-0.1-0.7-0.2-1c-0.1-0.3-0.3-0.6-0.5-0.8c-0.2-0.2-0.5-0.4-0.8-0.5
		c-0.3-0.1-0.6-0.2-1-0.2c-0.5,0-0.9,0.1-1.3,0.3c-0.4,0.2-0.7,0.5-1,0.9h-1.3c0-0.1,0-0.2,0.1-0.4s0.1-0.5,0.2-0.8
		c0.1-0.3,0.1-0.7,0.2-1.1c0.1-0.4,0.2-0.8,0.2-1.2c0.2-0.9,0.4-2,0.6-3.1h5.6v1.3h-4.5l-0.7,3.7c0.2-0.2,0.5-0.4,0.9-0.6
		C200.4,80.6,200.8,80.6,201.3,80.6z"/>
	<g>
		<path fill="#C83C55" d="M56.3,82H59c0.6,0,1.6,0.3,1.6,1.4c0,0.6-0.5,1.3-1.1,1.3h-3.3V82z M65,76.5h4.9v1.6H65V76.5z M69.3,82
			h-3.6c0.1-1,0.8-1.6,1.8-1.6C68.4,80.4,69.1,81,69.3,82L69.3,82z M65.6,83.1h6c0-0.1,0-0.2,0-0.3c0-2.2-1.6-4.1-4.1-4.1
			c-2.5,0-4.1,1.8-4.1,4.1c0,2.3,1.6,4.1,4.1,4.1c2.4,0,3.6-1.4,4-3.3h-2.2c-0.2,1-0.8,1.6-1.8,1.6C66.4,85.2,65.6,84.3,65.6,83.1
			L65.6,83.1z M62.8,83.6c0-1.2-0.8-2.2-1.8-2.6c0.8-0.5,1.3-1.3,1.3-2.3c0-1.5-1.2-2.7-2.7-2.7h-5.4v10.9h5.4
			C61.4,86.9,62.8,85.4,62.8,83.6L62.8,83.6z M59,80.4h-2.7v-2.2H59c0.6,0,1.1,0.5,1.1,1.1S59.6,80.4,59,80.4L59,80.4z"/>
	</g>
</g>
</svg>