<!-- Generator: Adobe Illustrator 17.1.0, SVG Export Plug-In  -->
<svg version="1.1"
	 xmlns="http://www.w3.org/2000/svg" xmlns:xlink="http://www.w3.org/1999/xlink" xmlns:a="http://ns.adobe.com/AdobeSVGViewerExtensions/3.0/"
	 x="0px" y="0px" width="307.2px" height="233.4px" viewBox="0 0 307.2 233.4" enable-background="new 0 0 307.2 233.4"
	 xml:space="preserve">
<defs>
</defs>
<path fill="#425560" d="M203.1,146.1h3.1c1.4,0,2.7-0.9,3.1-2.2l1.1-3.2c0.8-2.2-0.8-4.5-3.1-4.5H204c-1.5,0-2.8,1-3.2,2.4l-0.9,3.2
	C199.2,143.9,200.8,146.1,203.1,146.1z"/>
<path fill="#425560" d="M61.1,102.6c-12.5-0.2-34.5,17.3-41.7,39.5c-3.1-3-5.7-7.6-5.7-14.6c0-17.5,16.2-21,16.2-21
	c-11.4-7.1-19.1-3.4-23.8,1.7c-5.1,5.6-7,13.3-5.7,20.7c1.3,7.4,5.4,17.1,17,21.6c-3.6,25.6,6.2,46.3,23.9,46.3
	c17.8,0,26.4-14.3,36-29c1.2-1.9,2.3-3.6,3.2-5.1c3.1-0.3,5.4-0.9,5.4-0.9s-3.5,4.8-7.6,13.4c-4.1,8.6-5.1,19.5,5.4,19.5
	c10.5,0,13.4-11.2,13.4-11.2s1.3,11.2,11.1,11.2c5.9,0,11.3-4.4,14.7-8c0.6,3.5,2,8,5.7,8c6,0,14.6-13.8,14.6-13.8s1,13.8,7.6,13.8
	c6.7,0,11.5-7.7,11.5-7.7s1.2,7.7,8.8,7.7c7.6,0,17.5-20.5,17.5-20.5s-4.1,20.5,4.8,20.5c8.9,0,17.8-20.5,17.8-20.5
	s-1.3,19.9,7.6,20.5c8.9,0.5,23.6-26.5,31.2-47.2c0.2-0.5,0.3-0.9,0.5-1.4c11.7-5.6,45.7-25.6,50.8-6.3c0,0,5.7-2.9,5.7-8.9
	c0-6-6.7-10.8-14.6-9.9c-6.9,0.8-29.4,15.8-40,20c5.7-16.3,6.7-24.1-0.4-23.8c-8,0.3-15.6,13.4-16.2,21c-0.6,6.9,4.8,9.6,9.9,9.4
	c-1.4,3.7-2.5,6.5-2.5,6.5s-17.8,35.3-22.6,35.3c-4.8,0,5.7-30.5,10.5-39.9h-12.4c0,0-4.5,9.3-5.7,16c0,0-11.8,21.7-16.9,21.7
	c-5.1,0,13.1-37.6,13.1-37.6h-10.8l-5.1,10.2c0,0-15,29.3-20.7,28.3c-4.1-0.7,6.9-31.2,18-56.6c5.8,1.5,11,2.2,14.7,1.8
	c13.8-1.6,24-8.3,25.9-22.9c0,0-10.8,16.5-36.4,11.7c2.8-6,5.4-11.3,7.7-15.5h-11.8c0,0-2.4,5-5.8,12.8c-28.6-9.1-56.8-23.9-75.4-9
	c-19.4,15.6-2.2,38.5,10.8,36.9c0,0,19.7-1.1,19.7-21.6c0,0-11.5,9.8-17.5,8.6c-6-1.3-12.4-4.8-9.2-12.4s17.8-10.8,30.2-6.7
	c7.4,2.5,23,9,37.3,13.6c-6.3,14.9-14.1,34.6-18.5,50.1c0,0-5.3,8.6-9.9,8.6c-4.5,0,8.5-27.9,13.9-36.9h-10.2l-1.9,4.7
	c0,0-2.2-5.8-9.2-5.8c-6.4,0-17.4,7.3-21.6,27.1c-2.3,4.2-7.8,13-13.1,13c-7,0-1.9-17.5-1.9-17.5s13.4,0.1,15.7-9.5
	c1-4,0.3-6.8-0.9-8.7c-1.7-2.8-5.1-4.1-8.3-3.5c-14.1,2.8-17.9,22.9-17.9,22.9s-4.5,16.2-10.2,16.2c-3.3,0-2.9-3.4-2-6.3
	c0.7-2.2,1.7-4.2,3-6l12.7-17.8c-2.9-7.3-9.6-4.8-9.6-4.8l-7.6,3.2c-0.1-0.1-0.1-0.1-0.2-0.2c3.1-6.6,2.3-9.1,1.2-11.9
	c-1.6-3.8-18.5-6.7-18.5,7.3c0,6.6,4.5,8.9,9.2,9.5c-0.6,0.8-0.9,1.4-0.9,1.4c-22.9,40.1-39.5,26.4-39.5,5.4c0-5.5,0.8-11,2.2-16.4
	c18,0,41.6-22,41.7-31.9c0,0,1.2-8.3-4.5-14.4C68.3,100.6,61.1,102.6,61.1,102.6z M118.4,155.8c0,0,5.7,11.1-9.2,13.7
	C109.2,169.5,113.5,157.3,118.4,155.8z M55,115.3c8-10.8,17.8-8.3,8.3,9.6c-5.6,10.4-16,16.4-23.8,19.5
	C43.9,132.4,50.3,121.8,55,115.3z M77.6,158.8c-4.7-1.5-1.6-10.7,2.6-10.7C83.5,148.1,80.4,154.2,77.6,158.8z M150.2,161.5
	c0,0-10.5,17.8-14.3,22.9c-3.8,5.1-5.1,3.2-4.5-4.8c0.6-8,10.8-23.6,15.3-24.2C151.2,154.8,150.2,161.5,150.2,161.5z M247.8,142
	c-6.1-0.8-1.2-13.7,2.4-14C252.2,127.9,250.2,135.1,247.8,142z"/>
<path fill="#425560" d="M264.2,164c0,0,1.9-8.6-1.6-8.6s-16.6,28-9.9,31.2c6.7,3.2,20.4-27.4,19.4-33.4c0,0,3.8,2.2,10.2,0
	c6.4-2.2,17.8-8.7,21.3-3.6c0,0-8.9,10.6-6.7,26.2s-10.5,21-17.5,21s-10.2-6.4-10.2-13.4s10.8-12.7,13.4-6.4c0,0-7.6,2.2-7.6,9.2
	s12.4,6,14.3-10.5c1.9-16.6-1-15.1,2.5-21.3c0,0-8.9,4.8-14.6,4.1c0,0-11.1,34.4-26.4,34.4s-8.9-20.4-4.2-29.6
	c4.8-9.2,10.8-14,15.9-14C272.5,149.4,271.6,164.9,264.2,164z"/>
<path fill="#425560" d="M140,210.5c0,0-15.3-3.8-14.6,6.7c0.6,10.5,16.4,7.6,37-4.8s53.5-18,53.4,5c-0.1,23.4-32.5,17.6-32.5,4.9
	c0,0,18.7,6.5,18.8-6c0.1-14.2-20.7-6-36,2.9s-25.8,14.3-38.5,12.7c-10.2-1.3-15.3-7.3-15-16.2c0.3-8.2,8.3-12.7,14.3-13.5
	C133,201.3,140.4,205.4,140,210.5z"/>
<g>
	<path fill="#425560" d="M33.4,71.6h4.6v1.6h-1.2l-4.6,12.5h-2.6l-4.5-12.5h-1.2v-1.6h4.6v1.6h-1.2L30.8,84l3.9-10.8h-1.3V71.6z"/>
	<path fill="#425560" d="M51.2,84.1h1.2l-1.1-3.2h-5.4l-1.1,3.2h1.4v1.6h-4.6v-1.6h1.2l4.4-12.5H50l4.4,12.5h1.4v1.6h-4.6V84.1z
		 M46.4,79.3h4.3L48.5,73L46.4,79.3z"/>
	<path fill="#425560" d="M61.9,84.1h1.3V73.4h-1.3v-1.8h4.5l4.5,12.1l4.5-12.1h4.2v1.8h-1.3v10.7h1.3v1.6H75v-1.6h1.5V73.3
		l-4.9,12.4H70l-5-12.4v10.8h1.4v1.6h-4.6V84.1z"/>
	<path fill="#425560" d="M93.1,85.9c-1,0-1.9-0.2-2.7-0.5c-0.8-0.4-1.5-0.9-2.2-1.5s-1.1-1.5-1.4-2.4c-0.3-0.9-0.5-1.9-0.5-2.8
		c0-1,0.2-2,0.5-2.9c0.3-0.9,0.8-1.7,1.4-2.3c0.6-0.7,1.3-1.2,2.1-1.6c0.8-0.4,1.7-0.6,2.7-0.6c1,0,1.9,0.2,2.7,0.6
		c0.8,0.4,1.5,0.9,2.1,1.6c0.6,0.7,1.1,1.4,1.4,2.3c0.3,0.9,0.5,1.8,0.5,2.9c0,1-0.2,2-0.5,2.9c-0.3,0.9-0.8,1.7-1.4,2.3
		c-0.6,0.7-1.3,1.2-2.1,1.6C95,85.7,94.1,85.9,93.1,85.9z M93.1,84.2c0.7,0,1.4-0.2,2-0.5c0.6-0.3,1.1-0.7,1.5-1.2
		c0.4-0.5,0.7-1.1,1-1.8c0.2-0.7,0.3-1.4,0.3-2.1c0-0.8-0.1-1.5-0.4-2.2c-0.3-0.7-0.6-1.3-1-1.8c-0.4-0.5-1-0.9-1.6-1.1
		c-0.6-0.3-1.2-0.4-1.9-0.4c-0.7,0-1.4,0.2-2,0.5c-0.6,0.3-1.1,0.7-1.5,1.2c-0.4,0.5-0.7,1.1-1,1.8c-0.2,0.7-0.3,1.4-0.3,2.1
		c0,0.9,0.1,1.6,0.4,2.3c0.3,0.7,0.6,1.2,1,1.7c0.4,0.4,0.9,0.8,1.5,1.1C91.7,84,92.3,84.2,93.1,84.2z"/>
	<path fill="#425560" d="M113.5,74.2c-0.2-0.3-0.4-0.5-0.7-0.6c-0.2-0.1-0.5-0.3-0.8-0.3c-0.3-0.1-0.6-0.1-0.9-0.1
		c-0.5,0-0.9,0.1-1.2,0.2c-0.4,0.1-0.6,0.3-0.9,0.4c-0.2,0.2-0.4,0.4-0.5,0.6c-0.1,0.2-0.2,0.5-0.2,0.8c0,0.4,0.1,0.7,0.2,1
		c0.1,0.3,0.3,0.5,0.6,0.6c0.2,0.2,0.5,0.3,0.7,0.4c0.3,0.1,0.5,0.2,0.8,0.3l1.9,0.6c0.6,0.2,1.1,0.4,1.5,0.6
		c0.4,0.2,0.8,0.5,1.1,0.8c0.3,0.3,0.5,0.7,0.7,1.1c0.2,0.4,0.2,0.9,0.2,1.4c0,0.6-0.1,1.1-0.4,1.6c-0.2,0.5-0.6,0.9-1,1.3
		c-0.4,0.4-0.9,0.7-1.5,0.9c-0.6,0.2-1.2,0.3-1.9,0.3c-0.7,0-1.3-0.1-1.9-0.2c-0.5-0.2-0.9-0.4-1.3-0.7c-0.3-0.3-0.6-0.6-0.8-0.9
		c-0.2-0.4-0.4-0.7-0.5-1.1H106v-1.6h2.3c0,0.7,0.1,1.2,0.2,1.5c0.1,0.3,0.3,0.5,0.6,0.7c0.3,0.2,0.6,0.3,0.9,0.4
		c0.4,0.1,0.8,0.1,1.2,0.1c0.4,0,0.8,0,1.1-0.1c0.3-0.1,0.6-0.2,0.9-0.4c0.2-0.2,0.4-0.4,0.5-0.7c0.1-0.3,0.2-0.6,0.2-0.9
		c0-0.4-0.1-0.7-0.2-1c-0.2-0.3-0.4-0.5-0.6-0.7c-0.2-0.2-0.5-0.3-0.8-0.5c-0.3-0.1-0.6-0.2-0.8-0.3l-2-0.6
		c-0.4-0.1-0.9-0.3-1.2-0.5c-0.4-0.2-0.7-0.5-0.9-0.8c-0.3-0.3-0.5-0.7-0.6-1.1c-0.1-0.4-0.2-0.9-0.2-1.4c0-0.5,0.1-1,0.3-1.5
		c0.2-0.5,0.5-0.9,0.9-1.2s0.9-0.6,1.5-0.8c0.6-0.2,1.3-0.3,2-0.3c0.5,0,1,0.1,1.4,0.2c0.4,0.1,0.8,0.3,1.2,0.5
		c0.3,0.2,0.6,0.5,0.9,0.8c0.3,0.3,0.5,0.6,0.7,1h0.7v1.6h-2.3C113.8,74.9,113.7,74.5,113.5,74.2z"/>
	<path fill="#425560" d="M139.8,84.1h1.2l-1.1-3.2h-5.4l-1.1,3.2h1.4v1.6h-4.6v-1.6h1.2l4.4-12.5h2.7l4.4,12.5h1.4v1.6h-4.6V84.1z
		 M134.9,79.3h4.3l-2.2-6.3L134.9,79.3z"/>
	<path fill="#425560" d="M159.4,71.6h5.7c0.6,0,1.2,0.1,1.7,0.2c0.5,0.2,1,0.4,1.4,0.7c0.4,0.3,0.7,0.7,0.9,1.2
		c0.2,0.5,0.3,1,0.3,1.6c0,0.5-0.1,1-0.3,1.5c-0.2,0.5-0.5,0.9-0.9,1.2c-0.4,0.3-0.8,0.6-1.4,0.8c-0.5,0.2-1.1,0.3-1.8,0.3h-2.5v4.9
		h1.4v1.6h-4.6v-1.6h1.3V73.2h-1.3V71.6z M162.6,73.2v4.4h2.5c0.4,0,0.7,0,1-0.1c0.3-0.1,0.5-0.2,0.8-0.4s0.4-0.4,0.5-0.7
		c0.1-0.3,0.2-0.6,0.2-1c0-0.7-0.2-1.2-0.6-1.6c-0.4-0.4-1.1-0.6-2-0.6H162.6z"/>
	<path fill="#425560" d="M182,85.9c-1,0-1.9-0.2-2.7-0.5c-0.8-0.4-1.5-0.9-2.2-1.5s-1.1-1.5-1.4-2.4c-0.3-0.9-0.5-1.9-0.5-2.8
		c0-1,0.2-2,0.5-2.9c0.3-0.9,0.8-1.7,1.4-2.3c0.6-0.7,1.3-1.2,2.1-1.6c0.8-0.4,1.7-0.6,2.7-0.6c1,0,1.9,0.2,2.7,0.6
		c0.8,0.4,1.5,0.9,2.1,1.6c0.6,0.7,1.1,1.4,1.4,2.3s0.5,1.8,0.5,2.9c0,1-0.2,2-0.5,2.9c-0.3,0.9-0.8,1.7-1.4,2.3
		c-0.6,0.7-1.3,1.2-2.1,1.6C183.9,85.7,183,85.9,182,85.9z M182,84.2c0.7,0,1.4-0.2,2-0.5c0.6-0.3,1.1-0.7,1.5-1.2
		c0.4-0.5,0.7-1.1,1-1.8c0.2-0.7,0.3-1.4,0.3-2.1c0-0.8-0.1-1.5-0.4-2.2c-0.3-0.7-0.6-1.3-1-1.8c-0.4-0.5-1-0.9-1.6-1.1
		c-0.6-0.3-1.2-0.4-1.9-0.4c-0.7,0-1.4,0.2-2,0.5c-0.6,0.3-1.1,0.7-1.5,1.2c-0.4,0.5-0.7,1.1-1,1.8c-0.2,0.7-0.3,1.4-0.3,2.1
		c0,0.9,0.1,1.6,0.4,2.3c0.3,0.7,0.6,1.2,1,1.7c0.4,0.4,0.9,0.8,1.5,1.1C180.6,84,181.3,84.2,182,84.2z"/>
	<path fill="#425560" d="M204.2,71.6h4.6v1.6h-1.2v12.5h-2.4L198.7,74v10.1h1.4v1.6h-4.6v-1.6h1.3V73.2h-1.3v-1.6h3.8l6.4,11.6
		l0.1-0.4v-9.5h-1.6V71.6z"/>
	<path fill="#425560" d="M215.3,71.6h10.1v4h-1.9v-2.4h-5v4.5h4.2v1.6h-4.2v4.8h5v-2.4h1.9v4h-10.1v-1.6h1.3V73.2h-1.3V71.6z"/>
	<path fill="#425560" d="M232,71.6h5.9c0.6,0,1.2,0.1,1.7,0.2c0.5,0.2,1,0.4,1.4,0.7c0.4,0.3,0.7,0.7,0.9,1.2c0.2,0.5,0.3,1,0.3,1.6
		c0,0.4-0.1,0.7-0.2,1c-0.1,0.3-0.3,0.7-0.5,1c-0.2,0.3-0.5,0.6-0.8,0.8c-0.3,0.2-0.6,0.4-1,0.5c0.2,0.1,0.3,0.2,0.5,0.3
		c0.2,0.1,0.3,0.3,0.4,0.5c0.1,0.2,0.3,0.4,0.4,0.6c0.1,0.2,0.2,0.5,0.3,0.7l0.8,3.1h1.2l0,1.8h-2.7l-1-4.3
		c-0.2-0.8-0.5-1.3-0.9-1.7c-0.4-0.4-0.9-0.5-1.6-0.5h-1.8v4.9h1.4v1.6H232v-1.6h1.3V73.2H232V71.6z M235.2,73.2v4.4h2.7
		c0.4,0,0.7,0,1-0.1c0.3-0.1,0.5-0.2,0.8-0.4c0.2-0.2,0.4-0.4,0.5-0.7c0.1-0.3,0.2-0.6,0.2-1c0-0.7-0.2-1.2-0.6-1.6s-1.1-0.6-2-0.6
		H235.2z"/>
	<path fill="#425560" d="M259,71.6h4.6v1.6h-1.2v12.5H260L253.4,74v10.1h1.4v1.6h-4.6v-1.6h1.3V73.2h-1.3v-1.6h3.8l6.4,11.6l0.1-0.4
		v-9.5H259V71.6z"/>
	<path fill="#425560" d="M276.2,85.9c-1,0-1.9-0.2-2.7-0.5c-0.8-0.4-1.5-0.9-2.2-1.5s-1.1-1.5-1.4-2.4c-0.3-0.9-0.5-1.9-0.5-2.8
		c0-1,0.2-2,0.5-2.9s0.8-1.7,1.4-2.3c0.6-0.7,1.3-1.2,2.1-1.6c0.8-0.4,1.7-0.6,2.7-0.6c1,0,1.9,0.2,2.7,0.6c0.8,0.4,1.5,0.9,2.1,1.6
		c0.6,0.7,1.1,1.4,1.4,2.3c0.3,0.9,0.5,1.8,0.5,2.9c0,1-0.2,2-0.5,2.9c-0.3,0.9-0.8,1.7-1.4,2.3c-0.6,0.7-1.3,1.2-2.1,1.6
		C278.1,85.7,277.2,85.9,276.2,85.9z M276.2,84.2c0.7,0,1.4-0.2,2-0.5c0.6-0.3,1.1-0.7,1.5-1.2c0.4-0.5,0.7-1.1,1-1.8
		c0.2-0.7,0.3-1.4,0.3-2.1c0-0.8-0.1-1.5-0.4-2.2c-0.3-0.7-0.6-1.3-1-1.8c-0.4-0.5-1-0.9-1.6-1.1c-0.6-0.3-1.2-0.4-1.9-0.4
		c-0.7,0-1.4,0.2-2,0.5c-0.6,0.3-1.1,0.7-1.5,1.2c-0.4,0.5-0.7,1.1-1,1.8c-0.2,0.7-0.3,1.4-0.3,2.1c0,0.9,0.1,1.6,0.4,2.3
		c0.3,0.7,0.6,1.2,1,1.7c0.4,0.4,0.9,0.8,1.5,1.1C274.8,84,275.5,84.2,276.2,84.2z"/>
	<path fill="#425560" d="M296.6,74.2c-0.2-0.3-0.4-0.5-0.7-0.6c-0.2-0.1-0.5-0.3-0.8-0.3c-0.3-0.1-0.6-0.1-0.9-0.1
		c-0.5,0-0.9,0.1-1.2,0.2c-0.4,0.1-0.6,0.3-0.9,0.4c-0.2,0.2-0.4,0.4-0.5,0.6c-0.1,0.2-0.2,0.5-0.2,0.8c0,0.4,0.1,0.7,0.2,1
		c0.1,0.3,0.3,0.5,0.6,0.6c0.2,0.2,0.5,0.3,0.7,0.4c0.3,0.1,0.5,0.2,0.8,0.3l1.9,0.6c0.6,0.2,1.1,0.4,1.5,0.6
		c0.4,0.2,0.8,0.5,1.1,0.8c0.3,0.3,0.5,0.7,0.7,1.1c0.2,0.4,0.2,0.9,0.2,1.4c0,0.6-0.1,1.1-0.4,1.6c-0.2,0.5-0.6,0.9-1,1.3
		c-0.4,0.4-0.9,0.7-1.5,0.9c-0.6,0.2-1.2,0.3-1.9,0.3c-0.7,0-1.3-0.1-1.9-0.2c-0.5-0.2-0.9-0.4-1.3-0.7c-0.3-0.3-0.6-0.6-0.8-0.9
		c-0.2-0.4-0.4-0.7-0.5-1.1h-0.7v-1.6h2.3c0,0.7,0.1,1.2,0.2,1.5c0.1,0.3,0.3,0.5,0.6,0.7c0.3,0.2,0.6,0.3,0.9,0.4
		c0.4,0.1,0.8,0.1,1.2,0.1c0.4,0,0.8,0,1.1-0.1c0.3-0.1,0.6-0.2,0.9-0.4c0.2-0.2,0.4-0.4,0.5-0.7c0.1-0.3,0.2-0.6,0.2-0.9
		c0-0.4-0.1-0.7-0.2-1c-0.2-0.3-0.4-0.5-0.6-0.7c-0.2-0.2-0.5-0.3-0.8-0.5c-0.3-0.1-0.6-0.2-0.8-0.3l-2-0.6
		c-0.4-0.1-0.9-0.3-1.2-0.5c-0.4-0.2-0.7-0.5-0.9-0.8c-0.3-0.3-0.5-0.7-0.6-1.1c-0.1-0.4-0.2-0.9-0.2-1.4c0-0.5,0.1-1,0.3-1.5
		c0.2-0.5,0.5-0.9,0.9-1.2s0.9-0.6,1.5-0.8c0.6-0.2,1.3-0.3,2-0.3c0.5,0,1,0.1,1.4,0.2c0.4,0.1,0.8,0.3,1.2,0.5
		c0.3,0.2,0.6,0.5,0.9,0.8c0.3,0.3,0.5,0.6,0.7,1h0.7v1.6h-2.3C296.9,74.9,296.8,74.5,296.6,74.2z"/>
</g>
<path fill="#C73B54" d="M185.9,17.2h-2.5h-3.3v-5.5v-0.4c0-1.4-1.2-2.6-2.6-2.6h-4.1h-1.9h-5.3h-1h-5.3v5.3h6.4v3.3h-7.9v-2.9h0V6.1
	h0V5.3h0.8h7.1V7h5.3V2.7c0-1.5-1.2-2.7-2.7-2.7h-2.6h-7.1h-0.8h-7.1v5.3h1.8v3.3h-7.1c-1.5,0-2.7,1.2-2.7,2.7v2.6h1.4v1.7h5.3v-1.7
	h3.1v3.3h-2.4h-0.7h-5.3h-2.2h-8v5.3h1.5v7.9h-1.5v5.3h8.7v-5.3h-1.9v-7.9h3.5v7.9h0v5.3h0v3.4h-1.4v2.6c0,1.5,1.2,2.7,2.7,2.7h7.1
	v3.1v0h-1.8v5.3h1.8h5.3h0.8h7.1h2.6c1.5,0,2.7-1.2,2.7-2.7v-5.8h6c1.4,0,2.6-1.2,2.6-2.6v0v-2.5V39v-3.4h3.3h2.5
	c1.5,0,2.7-1.2,2.7-2.7v-2.5v-7.9v-2.5C188.6,18.4,187.4,17.2,185.9,17.2z M153,39.1h-3.1v-3.4h3.1V39.1z M153,30.3h-3.1v-7.9h3.1
	V30.3z M166.2,45.7L166.2,45.7l0,1.8h-7.1h-0.8v0v-3.1h6.4v-5.3h-6.4v-3.4h7.9v1.9h0V45.7z M174.8,39L174.8,39l-3.3,0v-3.4h3.3V39z
	 M183.4,30.3h-3.3v-1.8h-5.3v1.8h-1.5v0h-8.2v0h-6.9v-7.9h7.9v6.3h5.3v-4.6v-1.7v-5.3V16v-2.1h3.3v3.3H173v5.3h1.8v1.8h5.3v-1.8h3.3
	V30.3z"/>
</svg>